G04*
G04 #@! TF.GenerationSoftware,Altium Limited,Altium Designer,25.4.2 (15)*
G04*
G04 Layer_Color=128*
%FSLAX25Y25*%
%MOIN*%
G70*
G04*
G04 #@! TF.SameCoordinates,4685016B-83D2-4E7D-AD2A-A819038C0A47*
G04*
G04*
G04 #@! TF.FilePolarity,Positive*
G04*
G01*
G75*
%ADD16C,0.00500*%
D16*
X205854Y23016D02*
X212154D01*
X209004Y19866D02*
Y26165D01*
X225539Y23016D02*
X231839D01*
X228689Y19866D02*
Y26165D01*
X186169Y23016D02*
X192469D01*
X189319Y19866D02*
Y26165D01*
X166484Y23016D02*
X172784D01*
X169634Y19866D02*
Y26165D01*
X250244Y161500D02*
X255756D01*
X253000Y158744D02*
Y164256D01*
X240008Y171539D02*
X245913D01*
X242961Y168587D02*
Y174492D01*
X260087Y171539D02*
X265992D01*
X263039Y168587D02*
Y174492D01*
X260087Y151461D02*
X265992D01*
X263039Y148508D02*
Y154413D01*
X240008Y151461D02*
X245913D01*
X242961Y148508D02*
Y154413D01*
X61268Y18067D02*
X65205D01*
X63236Y16098D02*
Y20035D01*
X71110Y18067D02*
X75047D01*
X73079Y16098D02*
Y20035D01*
X90795Y18067D02*
X94732D01*
X92764Y16098D02*
Y20035D01*
X80953Y18067D02*
X84890D01*
X82921Y16098D02*
Y20035D01*
X183894Y246000D02*
X188106D01*
X186000Y243894D02*
Y248106D01*
X183894Y256000D02*
X188106D01*
X186000Y253894D02*
Y258106D01*
X183894Y266000D02*
X188106D01*
X186000Y263894D02*
Y268106D01*
X194894Y266000D02*
X199106D01*
X197000Y263894D02*
Y268106D01*
X194894Y256000D02*
X199106D01*
X197000Y253894D02*
Y258106D01*
X194894Y246000D02*
X199106D01*
X197000Y243894D02*
Y248106D01*
X216894Y266000D02*
X221106D01*
X219000Y263894D02*
Y268106D01*
X216894Y256000D02*
X221106D01*
X219000Y253894D02*
Y258106D01*
X216894Y246000D02*
X221106D01*
X219000Y243894D02*
Y248106D01*
X205894Y266000D02*
X210106D01*
X208000Y263894D02*
Y268106D01*
X205894Y256000D02*
X210106D01*
X208000Y253894D02*
Y258106D01*
X205894Y246000D02*
X210106D01*
X208000Y243894D02*
Y248106D01*
X227894Y266000D02*
X232106D01*
X230000Y263894D02*
Y268106D01*
X227894Y256000D02*
X232106D01*
X230000Y253894D02*
Y258106D01*
X227894Y246000D02*
X232106D01*
X230000Y243894D02*
Y248106D01*
X8882Y145000D02*
X19118D01*
X14000Y139882D02*
Y150118D01*
X8882Y125000D02*
X19118D01*
X14000Y119882D02*
Y130118D01*
X149252Y24220D02*
X154764D01*
X152008Y21465D02*
Y26976D01*
X115236Y24220D02*
X120748D01*
X117992Y21465D02*
Y26976D01*
X148465Y8472D02*
X155551D01*
X152008Y4929D02*
Y12016D01*
X114449Y8472D02*
X121535D01*
X117992Y4929D02*
Y12016D01*
X13689Y255315D02*
X25500D01*
X19594Y249410D02*
Y261221D01*
X249095Y255000D02*
X260906D01*
X255000Y249095D02*
Y260906D01*
X249095Y20000D02*
X260906D01*
X255000Y14095D02*
Y25905D01*
X14095Y20000D02*
X25905D01*
X20000Y14095D02*
Y25905D01*
X197400Y44000D02*
X198600D01*
X198000Y43400D02*
Y44600D01*
X203400Y42000D02*
X204600D01*
X204000Y41400D02*
Y42600D01*
X191400Y46000D02*
X192600D01*
X192000Y45400D02*
Y46600D01*
X191400Y50000D02*
X192600D01*
X192000Y49400D02*
Y50600D01*
X207400Y42000D02*
X208600D01*
X208000Y41400D02*
Y42600D01*
X211400Y42000D02*
X212600D01*
X212000Y41400D02*
Y42600D01*
X219400Y126000D02*
X220600D01*
X220000Y125400D02*
Y126600D01*
X223400Y126000D02*
X224600D01*
X224000Y125400D02*
Y126600D01*
X227400Y126000D02*
X228600D01*
X228000Y125400D02*
Y126600D01*
X245400Y124000D02*
X246600D01*
X246000Y123400D02*
Y124600D01*
X241400Y124000D02*
X242600D01*
X242000Y123400D02*
Y124600D01*
X237400Y124000D02*
X238600D01*
X238000Y123400D02*
Y124600D01*
X263400Y122000D02*
X264600D01*
X264000Y121400D02*
Y122600D01*
X263400Y118000D02*
X264600D01*
X264000Y117400D02*
Y118600D01*
X263400Y114000D02*
X264600D01*
X264000Y113400D02*
Y114600D01*
X263400Y110000D02*
X264600D01*
X264000Y109400D02*
Y110600D01*
X263400Y96000D02*
X264600D01*
X264000Y95400D02*
Y96600D01*
X263400Y86000D02*
X264600D01*
X264000Y85400D02*
Y86600D01*
X263400Y82000D02*
X264600D01*
X264000Y81400D02*
Y82600D01*
X263400Y78000D02*
X264600D01*
X264000Y77400D02*
Y78600D01*
X263400Y74000D02*
X264600D01*
X264000Y73400D02*
Y74600D01*
X263400Y70000D02*
X264600D01*
X264000Y69400D02*
Y70600D01*
X263400Y66000D02*
X264600D01*
X264000Y65400D02*
Y66600D01*
X263400Y62000D02*
X264600D01*
X264000Y61400D02*
Y62600D01*
X263400Y54000D02*
X264600D01*
X264000Y53400D02*
Y54600D01*
X263400Y58000D02*
X264600D01*
X264000Y57400D02*
Y58600D01*
X263400Y50000D02*
X264600D01*
X264000Y49400D02*
Y50600D01*
X263400Y46000D02*
X264600D01*
X264000Y45400D02*
Y46600D01*
X263400Y42000D02*
X264600D01*
X264000Y41400D02*
Y42600D01*
X259400Y42000D02*
X260600D01*
X260000Y41400D02*
Y42600D01*
X255400Y42000D02*
X256600D01*
X256000Y41400D02*
Y42600D01*
X251400Y42000D02*
X252600D01*
X252000Y41400D02*
Y42600D01*
X247400Y42000D02*
X248600D01*
X248000Y41400D02*
Y42600D01*
X243400Y42000D02*
X244600D01*
X244000Y41400D02*
Y42600D01*
X239400Y42000D02*
X240600D01*
X240000Y41400D02*
Y42600D01*
X235400Y42000D02*
X236600D01*
X236000Y41400D02*
Y42600D01*
X231400Y42000D02*
X232600D01*
X232000Y41400D02*
Y42600D01*
X227400Y42000D02*
X228600D01*
X228000Y41400D02*
Y42600D01*
X223400Y42000D02*
X224600D01*
X224000Y41400D02*
Y42600D01*
X219400Y42000D02*
X220600D01*
X220000Y41400D02*
Y42600D01*
X215400Y42000D02*
X216600D01*
X216000Y41400D02*
Y42600D01*
X191400Y54000D02*
X192600D01*
X192000Y53400D02*
Y54600D01*
X191400Y58000D02*
X192600D01*
X192000Y57400D02*
Y58600D01*
X191400Y62000D02*
X192600D01*
X192000Y61400D02*
Y62600D01*
X191400Y66000D02*
X192600D01*
X192000Y65400D02*
Y66600D01*
X191400Y70000D02*
X192600D01*
X192000Y69400D02*
Y70600D01*
X191400Y74000D02*
X192600D01*
X192000Y73400D02*
Y74600D01*
X191400Y78000D02*
X192600D01*
X192000Y77400D02*
Y78600D01*
X191400Y82000D02*
X192600D01*
X192000Y81400D02*
Y82600D01*
X191400Y86000D02*
X192600D01*
X192000Y85400D02*
Y86600D01*
X191400Y90000D02*
X192600D01*
X192000Y89400D02*
Y90600D01*
X191400Y94000D02*
X192600D01*
X192000Y93400D02*
Y94600D01*
X183400Y170000D02*
X184600D01*
X184000Y169400D02*
Y170600D01*
X183400Y174000D02*
X184600D01*
X184000Y173400D02*
Y174600D01*
X183400Y178000D02*
X184600D01*
X184000Y177400D02*
Y178600D01*
X183400Y182000D02*
X184600D01*
X184000Y181400D02*
Y182600D01*
X183400Y186000D02*
X184600D01*
X184000Y185400D02*
Y186600D01*
X103300Y265000D02*
X104500D01*
X103900Y264400D02*
Y265600D01*
X12400Y221000D02*
X13600D01*
X13000Y220400D02*
Y221600D01*
X8400Y221000D02*
X9600D01*
X9000Y220400D02*
Y221600D01*
X16400Y225000D02*
X17600D01*
X17000Y224400D02*
Y225600D01*
X12400Y225000D02*
X13600D01*
X13000Y224400D02*
Y225600D01*
X8400Y225000D02*
X9600D01*
X9000Y224400D02*
Y225600D01*
X8400Y246000D02*
X9600D01*
X9000Y245400D02*
Y246600D01*
X23400Y242000D02*
X24600D01*
X24000Y241400D02*
Y242600D01*
X18400Y242000D02*
X19600D01*
X19000Y241400D02*
Y242600D01*
X13400Y242000D02*
X14600D01*
X14000Y241400D02*
Y242600D01*
X8400Y242000D02*
X9600D01*
X9000Y241400D02*
Y242600D01*
X259400Y191000D02*
X260600D01*
X260000Y190400D02*
Y191600D01*
X247400Y192000D02*
X248600D01*
X248000Y191400D02*
Y192600D01*
X257400Y195000D02*
X258600D01*
X258000Y194400D02*
Y195600D01*
X232400Y171000D02*
X233600D01*
X233000Y170400D02*
Y171600D01*
X232400Y167000D02*
X233600D01*
X233000Y166400D02*
Y167600D01*
X229400Y164000D02*
X230600D01*
X230000Y163400D02*
Y164600D01*
X225400Y164000D02*
X226600D01*
X226000Y163400D02*
Y164600D01*
X221400Y164000D02*
X222600D01*
X222000Y163400D02*
Y164600D01*
X217400Y164000D02*
X218600D01*
X218000Y163400D02*
Y164600D01*
X213400Y164000D02*
X214600D01*
X214000Y163400D02*
Y164600D01*
X209400Y164000D02*
X210600D01*
X210000Y163400D02*
Y164600D01*
X205400Y164000D02*
X206600D01*
X206000Y163400D02*
Y164600D01*
X201400Y164000D02*
X202600D01*
X202000Y163400D02*
Y164600D01*
X197400Y164000D02*
X198600D01*
X198000Y163400D02*
Y164600D01*
X193216Y163993D02*
X194415D01*
X193816Y163393D02*
Y164593D01*
X189400Y164000D02*
X190600D01*
X190000Y163400D02*
Y164600D01*
X185400Y164000D02*
X186600D01*
X186000Y163400D02*
Y164600D01*
X181400Y164000D02*
X182600D01*
X182000Y163400D02*
Y164600D01*
X177400Y164000D02*
X178600D01*
X178000Y163400D02*
Y164600D01*
X173400Y164000D02*
X174600D01*
X174000Y163400D02*
Y164600D01*
X235400Y190000D02*
X236600D01*
X236000Y189400D02*
Y190600D01*
X228400Y190000D02*
X229600D01*
X229000Y189400D02*
Y190600D01*
X224400Y191000D02*
X225600D01*
X225000Y190400D02*
Y191600D01*
X220400Y191000D02*
X221600D01*
X221000Y190400D02*
Y191600D01*
X216400Y191000D02*
X217600D01*
X217000Y190400D02*
Y191600D01*
X179400Y191000D02*
X180600D01*
X180000Y190400D02*
Y191600D01*
X211400Y191000D02*
X212600D01*
X212000Y190400D02*
Y191600D01*
X203400Y191000D02*
X204600D01*
X204000Y190400D02*
Y191600D01*
X207400Y191000D02*
X208600D01*
X208000Y190400D02*
Y191600D01*
X199400Y191000D02*
X200600D01*
X200000Y190400D02*
Y191600D01*
X195400Y191000D02*
X196600D01*
X196000Y190400D02*
Y191600D01*
X191400Y191000D02*
X192600D01*
X192000Y190400D02*
Y191600D01*
X187400Y191000D02*
X188600D01*
X188000Y190400D02*
Y191600D01*
X183400Y191000D02*
X184600D01*
X184000Y190400D02*
Y191600D01*
X170900Y191500D02*
X172100D01*
X171500Y190900D02*
Y192100D01*
X257132Y151232D02*
X258332D01*
X257732Y150632D02*
Y151832D01*
X251400Y139000D02*
X252600D01*
X252000Y138400D02*
Y139600D01*
X251400Y142000D02*
X252600D01*
X252000Y141400D02*
Y142600D01*
X257400Y136000D02*
X258600D01*
X258000Y135400D02*
Y136600D01*
X257400Y139000D02*
X258600D01*
X258000Y138400D02*
Y139600D01*
X257400Y142000D02*
X258600D01*
X258000Y141400D02*
Y142600D01*
X258400Y146500D02*
X259600D01*
X259000Y145900D02*
Y147100D01*
X250400Y146500D02*
X251600D01*
X251000Y145900D02*
Y147100D01*
X251400Y136000D02*
X252600D01*
X252000Y135400D02*
Y136600D01*
X253400Y190000D02*
X254600D01*
X254000Y189400D02*
Y190600D01*
X247400Y188000D02*
X248600D01*
X248000Y187400D02*
Y188600D01*
X255400Y167000D02*
X256600D01*
X256000Y166400D02*
Y167600D01*
X252400Y168000D02*
X253600D01*
X253000Y167400D02*
Y168600D01*
X246900Y158500D02*
X248100D01*
X247500Y157900D02*
Y159100D01*
X246400Y161500D02*
X247600D01*
X247000Y160900D02*
Y162100D01*
X246900Y164500D02*
X248100D01*
X247500Y163900D02*
Y165100D01*
X257900Y158000D02*
X259100D01*
X258500Y157400D02*
Y158600D01*
X258400Y161000D02*
X259600D01*
X259000Y160400D02*
Y161600D01*
X257900Y164000D02*
X259100D01*
X258500Y163400D02*
Y164600D01*
X249400Y167000D02*
X250600D01*
X250000Y166400D02*
Y167600D01*
X10400Y54000D02*
X11600D01*
X11000Y53400D02*
Y54600D01*
X127986Y134811D02*
X129186D01*
X128586Y134211D02*
Y135411D01*
X124900Y132195D02*
X126100D01*
X125500Y131595D02*
Y132795D01*
X130200Y55700D02*
X131400D01*
X130800Y55100D02*
Y56300D01*
X134600Y54400D02*
X135800D01*
X135200Y53800D02*
Y55000D01*
X129500Y62300D02*
X130700D01*
X130100Y61700D02*
Y62900D01*
X164400Y86700D02*
X165600D01*
X165000Y86100D02*
Y87300D01*
X160000Y71600D02*
X161200D01*
X160600Y71000D02*
Y72200D01*
X56000Y89800D02*
X57200D01*
X56600Y89200D02*
Y90400D01*
X128200Y128200D02*
X129400D01*
X128800Y127600D02*
Y128800D01*
X118300Y157200D02*
X119500D01*
X118900Y156600D02*
Y157800D01*
X116300Y147237D02*
X117500D01*
X116900Y146637D02*
Y147837D01*
X102400Y72200D02*
X103600D01*
X103000Y71600D02*
Y72800D01*
X104700Y74600D02*
X105900D01*
X105300Y74000D02*
Y75200D01*
X140400Y174200D02*
X141600D01*
X141000Y173600D02*
Y174800D01*
X117600Y140500D02*
X118800D01*
X118200Y139900D02*
Y141100D01*
X180800Y125600D02*
X182000D01*
X181400Y125000D02*
Y126200D01*
X186500D02*
X187700D01*
X187100Y125600D02*
Y126800D01*
X109500Y138900D02*
X110700D01*
X110100Y138300D02*
Y139500D01*
X79100Y262500D02*
X80300D01*
X79700Y261900D02*
Y263100D01*
X184147Y199000D02*
X185347D01*
X184747Y198400D02*
Y199600D01*
X179600Y231350D02*
X180800D01*
X180200Y230750D02*
Y231950D01*
X179300Y239000D02*
X180500D01*
X179900Y238400D02*
Y239600D01*
X39400Y267000D02*
X40600D01*
X40000Y266400D02*
Y267600D01*
X47400Y267000D02*
X48600D01*
X48000Y266400D02*
Y267600D01*
X250900Y125500D02*
X252100D01*
X251500Y124900D02*
Y126100D01*
X250900Y128500D02*
X252100D01*
X251500Y127900D02*
Y129100D01*
X257900Y122500D02*
X259100D01*
X258500Y121900D02*
Y123100D01*
X257900Y125500D02*
X259100D01*
X258500Y124900D02*
Y126100D01*
X257900Y128500D02*
X259100D01*
X258500Y127900D02*
Y129100D01*
X257900Y132000D02*
X259100D01*
X258500Y131400D02*
Y132600D01*
X251900Y150000D02*
X253100D01*
X252500Y149400D02*
Y150600D01*
X255900Y155000D02*
X257100D01*
X256500Y154400D02*
Y155600D01*
X250400Y153000D02*
X251600D01*
X251000Y152400D02*
Y153600D01*
X248900Y156000D02*
X250100D01*
X249500Y155400D02*
Y156600D01*
X238900Y180500D02*
X240100D01*
X239500Y179900D02*
Y181100D01*
X241900Y180500D02*
X243100D01*
X242500Y179900D02*
Y181100D01*
X244900Y180500D02*
X246100D01*
X245500Y179900D02*
Y181100D01*
X247900Y180500D02*
X249100D01*
X248500Y179900D02*
Y181100D01*
X250900Y179500D02*
X252100D01*
X251500Y178900D02*
Y180100D01*
X253900Y179500D02*
X255100D01*
X254500Y178900D02*
Y180100D01*
X256900Y180000D02*
X258100D01*
X257500Y179400D02*
Y180600D01*
X258400Y183000D02*
X259600D01*
X259000Y182400D02*
Y183600D01*
X259400Y187000D02*
X260600D01*
X260000Y186400D02*
Y187600D01*
X253400Y195000D02*
X254600D01*
X254000Y194400D02*
Y195600D01*
X249400Y195000D02*
X250600D01*
X250000Y194400D02*
Y195600D01*
X242900Y189500D02*
X244100D01*
X243500Y188900D02*
Y190100D01*
X242900Y186000D02*
X244100D01*
X243500Y185400D02*
Y186600D01*
X238900Y186000D02*
X240100D01*
X239500Y185400D02*
Y186600D01*
X232900Y186000D02*
X234100D01*
X233500Y185400D02*
Y186600D01*
X229400Y186000D02*
X230600D01*
X230000Y185400D02*
Y186600D01*
X113400Y235000D02*
X114600D01*
X114000Y234400D02*
Y235600D01*
X18845Y247315D02*
X20345D01*
X19594Y246565D02*
Y248065D01*
X13260Y260973D02*
X14760D01*
X14010Y260223D02*
Y261723D01*
X18845Y263315D02*
X20345D01*
X19594Y262565D02*
Y264065D01*
X10845Y255315D02*
X12344D01*
X11594Y254565D02*
Y256065D01*
X26844Y255315D02*
X28345D01*
X27595Y254565D02*
Y256065D01*
X24845Y250315D02*
X26344D01*
X25594Y249565D02*
Y251065D01*
X12844Y250315D02*
X14345D01*
X13595Y249565D02*
Y251065D01*
X24444Y260915D02*
X25945D01*
X25194Y260165D02*
Y261665D01*
X259850Y260600D02*
X261350D01*
X260600Y259850D02*
Y261350D01*
X248250Y250000D02*
X249750D01*
X249000Y249250D02*
Y250750D01*
X260250Y250000D02*
X261750D01*
X261000Y249250D02*
Y250750D01*
X262250Y255000D02*
X263750D01*
X263000Y254250D02*
Y255750D01*
X246250Y255000D02*
X247750D01*
X247000Y254250D02*
Y255750D01*
X254250Y263000D02*
X255750D01*
X255000Y262250D02*
Y263750D01*
X248665Y260658D02*
X250166D01*
X249415Y259908D02*
Y261408D01*
X254250Y247000D02*
X255750D01*
X255000Y246250D02*
Y247750D01*
X254250Y12000D02*
X255750D01*
X255000Y11250D02*
Y12750D01*
X248665Y25658D02*
X250166D01*
X249415Y24908D02*
Y26408D01*
X254250Y28000D02*
X255750D01*
X255000Y27250D02*
Y28750D01*
X246250Y20000D02*
X247750D01*
X247000Y19250D02*
Y20750D01*
X262250Y20000D02*
X263750D01*
X263000Y19250D02*
Y20750D01*
X260250Y15000D02*
X261750D01*
X261000Y14250D02*
Y15750D01*
X248250Y15000D02*
X249750D01*
X249000Y14250D02*
Y15750D01*
X259850Y25600D02*
X261350D01*
X260600Y24850D02*
Y26350D01*
X24850Y25600D02*
X26350D01*
X25600Y24850D02*
Y26350D01*
X13250Y15000D02*
X14750D01*
X14000Y14250D02*
Y15750D01*
X25250Y15000D02*
X26750D01*
X26000Y14250D02*
Y15750D01*
X27250Y20000D02*
X28750D01*
X28000Y19250D02*
Y20750D01*
X11250Y20000D02*
X12750D01*
X12000Y19250D02*
Y20750D01*
X19250Y28000D02*
X20750D01*
X20000Y27250D02*
Y28750D01*
X13666Y25658D02*
X15166D01*
X14415Y24908D02*
Y26408D01*
X19250Y12000D02*
X20750D01*
X20000Y11250D02*
Y12750D01*
X128900Y242232D02*
X130100D01*
X129500Y241632D02*
Y242832D01*
X126132Y239488D02*
X127332D01*
X126732Y238888D02*
Y240088D01*
X126132Y245000D02*
X127332D01*
X126732Y244400D02*
Y245600D01*
X131644Y245000D02*
X132844D01*
X132244Y244400D02*
Y245600D01*
X137156Y245000D02*
X138356D01*
X137756Y244400D02*
Y245600D01*
X137156Y239488D02*
X138356D01*
X137756Y238888D02*
Y240088D01*
X137156Y233976D02*
X138356D01*
X137756Y233376D02*
Y234576D01*
X131644Y233976D02*
X132844D01*
X132244Y233376D02*
Y234576D01*
X126132Y233976D02*
X127332D01*
X126732Y233376D02*
Y234576D01*
X175400Y188000D02*
X176600D01*
X176000Y187400D02*
Y188600D01*
X175900Y75000D02*
X177100D01*
X176500Y74400D02*
Y75600D01*
X251400Y221500D02*
X252600D01*
X252000Y220900D02*
Y222100D01*
X261900Y205000D02*
X263100D01*
X262500Y204400D02*
Y205600D01*
X262198Y215201D02*
X263399D01*
X262799Y214601D02*
Y215802D01*
X229400Y209500D02*
X230600D01*
X230000Y208900D02*
Y210100D01*
X257900Y84000D02*
X259100D01*
X258500Y83400D02*
Y84600D01*
X249400Y77500D02*
X250600D01*
X250000Y76900D02*
Y78100D01*
X254400Y80500D02*
X255600D01*
X255000Y79900D02*
Y81100D01*
X222463Y52685D02*
X223663D01*
X223063Y52085D02*
Y53285D01*
X214589Y52685D02*
X215789D01*
X215189Y52085D02*
Y53285D01*
X206715Y52685D02*
X207915D01*
X207315Y52085D02*
Y53285D01*
X202400Y217500D02*
X203600D01*
X203000Y216900D02*
Y218100D01*
X27900Y271500D02*
X29100D01*
X28500Y270900D02*
Y272100D01*
X15900Y89063D02*
X17100D01*
X16500Y88463D02*
Y89663D01*
X35400Y78000D02*
X36600D01*
X36000Y77400D02*
Y78600D01*
X222400Y170000D02*
X223600D01*
X223000Y169400D02*
Y170600D01*
X139400Y22000D02*
X140600D01*
X140000Y21400D02*
Y22600D01*
X128900Y22000D02*
X130100D01*
X129500Y21400D02*
Y22600D01*
X102900Y22000D02*
X104100D01*
X103500Y21400D02*
Y22600D01*
X108400Y63000D02*
X109600D01*
X109000Y62400D02*
Y63600D01*
X164400Y122500D02*
X165600D01*
X165000Y121900D02*
Y123100D01*
X130026Y153000D02*
X131226D01*
X130626Y152400D02*
Y153600D01*
X150400Y136500D02*
X151600D01*
X151000Y135900D02*
Y137100D01*
X164400Y127000D02*
X165600D01*
X165000Y126400D02*
Y127600D01*
X164400Y131000D02*
X165600D01*
X165000Y130400D02*
Y131600D01*
X183900Y134000D02*
X185100D01*
X184500Y133400D02*
Y134600D01*
X183900Y137500D02*
X185100D01*
X184500Y136900D02*
Y138100D01*
X103400Y154000D02*
X104600D01*
X104000Y153400D02*
Y154600D01*
X108900Y154000D02*
X110100D01*
X109500Y153400D02*
Y154600D01*
X100400Y151500D02*
X101600D01*
X101000Y150900D02*
Y152100D01*
X95900Y154000D02*
X97100D01*
X96500Y153400D02*
Y154600D01*
X113900Y153700D02*
X115100D01*
X114500Y153100D02*
Y154300D01*
X84400Y159500D02*
X85600D01*
X85000Y158900D02*
Y160100D01*
X97900Y159500D02*
X99100D01*
X98500Y158900D02*
Y160100D01*
X103900Y161000D02*
X105100D01*
X104500Y160400D02*
Y161600D01*
X84400Y154500D02*
X85600D01*
X85000Y153900D02*
Y155100D01*
X222400Y141000D02*
X223600D01*
X223000Y140400D02*
Y141600D01*
X161900Y158000D02*
X163100D01*
X162500Y157400D02*
Y158600D01*
X71400Y149500D02*
X72600D01*
X72000Y148900D02*
Y150100D01*
X241400Y251500D02*
X242600D01*
X242000Y250900D02*
Y252100D01*
X239900Y240500D02*
X241100D01*
X240500Y239900D02*
Y241100D01*
X175778Y141102D02*
X176978D01*
X176378Y140502D02*
Y141702D01*
X164337Y174000D02*
X165537D01*
X164937Y173400D02*
Y174600D01*
X192914Y225500D02*
X194114D01*
X193514Y224900D02*
Y226100D01*
X96400Y44500D02*
X97600D01*
X97000Y43900D02*
Y45100D01*
X46806Y97335D02*
X48006D01*
X47407Y96735D02*
Y97935D01*
X22459Y43993D02*
X23659D01*
X23059Y43393D02*
Y44593D01*
X22400Y33500D02*
X23600D01*
X23000Y32900D02*
Y34100D01*
X63900Y102500D02*
X65100D01*
X64500Y101900D02*
Y103100D01*
X31400Y117000D02*
X32600D01*
X32000Y116400D02*
Y117600D01*
X80900Y74000D02*
X82100D01*
X81500Y73400D02*
Y74600D01*
X76250Y67000D02*
X77750D01*
X77000Y66250D02*
Y67750D01*
X106400Y90500D02*
X107600D01*
X107000Y89900D02*
Y91100D01*
X125463Y85000D02*
X126663D01*
X126063Y84400D02*
Y85600D01*
X144908Y84992D02*
X146108D01*
X145508Y84392D02*
Y85592D01*
X175400Y62000D02*
X176600D01*
X176000Y61400D02*
Y62600D01*
X180400Y57358D02*
X181600D01*
X181000Y56758D02*
Y57958D01*
X155400Y76000D02*
X156600D01*
X156000Y75400D02*
Y76600D01*
X142400Y80000D02*
X143600D01*
X143000Y79400D02*
Y80600D01*
X121400Y20500D02*
X122600D01*
X122000Y19900D02*
Y21100D01*
X154900Y93500D02*
X156100D01*
X155500Y92900D02*
Y94100D01*
X151400Y93500D02*
X152600D01*
X152000Y92900D02*
Y94100D01*
X108400Y56000D02*
X109600D01*
X109000Y55400D02*
Y56600D01*
X116400Y34500D02*
X117600D01*
X117000Y33900D02*
Y35100D01*
X59250Y79929D02*
X60750D01*
X60000Y79179D02*
Y80679D01*
X95400Y85000D02*
X96600D01*
X96000Y84400D02*
Y85600D01*
X168368Y116469D02*
X169569D01*
X168968Y115868D02*
Y117069D01*
X186400Y80500D02*
X187600D01*
X187000Y79900D02*
Y81100D01*
X176900Y113500D02*
X178100D01*
X177500Y112900D02*
Y114100D01*
X189900Y107500D02*
X191100D01*
X190500Y106900D02*
Y108100D01*
X189900Y101500D02*
X191100D01*
X190500Y100900D02*
Y102100D01*
X225400Y234000D02*
X226600D01*
X226000Y233400D02*
Y234600D01*
X160526Y247626D02*
X161726D01*
X161126Y247026D02*
Y248226D01*
X157400Y247500D02*
X158600D01*
X158000Y246900D02*
Y248100D01*
X127900Y52000D02*
X129100D01*
X128500Y51400D02*
Y52600D01*
X183900Y145500D02*
X185100D01*
X184500Y144900D02*
Y146100D01*
X164337Y143000D02*
X165537D01*
X164937Y142400D02*
Y143600D01*
X183900Y149500D02*
X185100D01*
X184500Y148900D02*
Y150100D01*
X164337Y152000D02*
X165537D01*
X164937Y151400D02*
Y152600D01*
X164337Y164000D02*
X165537D01*
X164937Y163400D02*
Y164600D01*
X157900Y240000D02*
X159100D01*
X158500Y239400D02*
Y240600D01*
X186900Y235300D02*
X188100D01*
X187500Y234700D02*
Y235900D01*
X157400Y183000D02*
X158600D01*
X158000Y182400D02*
Y183600D01*
X162900Y192500D02*
X164100D01*
X163500Y191900D02*
Y193100D01*
X162900Y183000D02*
X164100D01*
X163500Y182400D02*
Y183600D01*
X139400Y194500D02*
X140600D01*
X140000Y193900D02*
Y195100D01*
X125400Y194500D02*
X126600D01*
X126000Y193900D02*
Y195100D01*
X125900Y184000D02*
X127100D01*
X126500Y183400D02*
Y184600D01*
X162900Y188500D02*
X164100D01*
X163500Y187900D02*
Y189100D01*
X120400Y206000D02*
X121600D01*
X121000Y205400D02*
Y206600D01*
X122400Y216500D02*
X123600D01*
X123000Y215900D02*
Y217100D01*
X118700Y216500D02*
X119900D01*
X119300Y215900D02*
Y217100D01*
X128900Y216000D02*
X130100D01*
X129500Y215400D02*
Y216600D01*
X104400Y188000D02*
X105600D01*
X105000Y187400D02*
Y188600D01*
X100400Y196000D02*
X101600D01*
X101000Y195400D02*
Y196600D01*
X93700Y199000D02*
X94900D01*
X94300Y198400D02*
Y199600D01*
X138900Y249500D02*
X140100D01*
X139500Y248900D02*
Y250100D01*
X146900Y238500D02*
X148100D01*
X147500Y237900D02*
Y239100D01*
X233400Y213000D02*
X234600D01*
X234000Y212400D02*
Y213600D01*
X59400Y133000D02*
X60600D01*
X60000Y132400D02*
Y133600D01*
X53400Y154500D02*
X54600D01*
X54000Y153900D02*
Y155100D01*
X44400Y224500D02*
X45600D01*
X45000Y223900D02*
Y225100D01*
X95400Y227500D02*
X96600D01*
X96000Y226900D02*
Y228100D01*
X150400Y250000D02*
X151600D01*
X151000Y249400D02*
Y250600D01*
X197648Y235252D02*
X198848D01*
X198248Y234652D02*
Y235852D01*
X143400Y250000D02*
X144600D01*
X144000Y249400D02*
Y250600D01*
X153650Y119750D02*
X154850D01*
X154250Y119150D02*
Y120350D01*
X85400Y172500D02*
X86600D01*
X86000Y171900D02*
Y173100D01*
X85400Y177000D02*
X86600D01*
X86000Y176400D02*
Y177600D01*
X76042Y175500D02*
X77242D01*
X76642Y174900D02*
Y176100D01*
X147900Y217000D02*
X149100D01*
X148500Y216400D02*
Y217600D01*
X54900Y209500D02*
X56100D01*
X55500Y208900D02*
Y210100D01*
X54900Y218000D02*
X56100D01*
X55500Y217400D02*
Y218600D01*
X51900Y214000D02*
X53100D01*
X52500Y213400D02*
Y214600D01*
X24157Y78000D02*
X25357D01*
X24757Y77400D02*
Y78600D01*
X138400Y183500D02*
X139600D01*
X139000Y182900D02*
Y184100D01*
X105900Y177330D02*
X107100D01*
X106500Y176730D02*
Y177930D01*
X102400Y177500D02*
X103600D01*
X103000Y176900D02*
Y178100D01*
X132400Y104000D02*
X133600D01*
X133000Y103400D02*
Y104600D01*
X120400Y104000D02*
X121600D01*
X121000Y103400D02*
Y104600D01*
X120400Y108000D02*
X121600D01*
X121000Y107400D02*
Y108600D01*
X145900Y110500D02*
X147100D01*
X146500Y109900D02*
Y111100D01*
X145900Y115500D02*
X147100D01*
X146500Y114900D02*
Y116100D01*
X149400Y115500D02*
X150600D01*
X150000Y114900D02*
Y116100D01*
X97400Y122000D02*
X98600D01*
X98000Y121400D02*
Y122600D01*
X102400Y122000D02*
X103600D01*
X103000Y121400D02*
Y122600D01*
X114400Y123000D02*
X115600D01*
X115000Y122400D02*
Y123600D01*
X120400Y112000D02*
X121600D01*
X121000Y111400D02*
Y112600D01*
X123400Y137000D02*
X124600D01*
X124000Y136400D02*
Y137600D01*
X108400Y123000D02*
X109600D01*
X109000Y122400D02*
Y123600D01*
X120400Y137000D02*
X121600D01*
X121000Y136400D02*
Y137600D01*
X116400Y137000D02*
X117600D01*
X117000Y136400D02*
Y137600D01*
X121400Y171000D02*
X122600D01*
X122000Y170400D02*
Y171600D01*
X115400Y160000D02*
X116600D01*
X116000Y159400D02*
Y160600D01*
X134400Y224000D02*
X135600D01*
X135000Y223400D02*
Y224600D01*
X134400Y150000D02*
X135600D01*
X135000Y149400D02*
Y150600D01*
X138400Y134000D02*
X139600D01*
X139000Y133400D02*
Y134600D01*
X111400Y74000D02*
X112600D01*
X112000Y73400D02*
Y74600D01*
X109400Y205000D02*
X110600D01*
X110000Y204400D02*
Y205600D01*
X82400Y220000D02*
X83600D01*
X83000Y219400D02*
Y220600D01*
X86400Y234000D02*
X87600D01*
X87000Y233400D02*
Y234600D01*
X86400Y238000D02*
X87600D01*
X87000Y237400D02*
Y238600D01*
X77400Y237000D02*
X78600D01*
X78000Y236400D02*
Y237600D01*
X98400Y85000D02*
X99600D01*
X99000Y84400D02*
Y85600D01*
X102400Y85000D02*
X103600D01*
X103000Y84400D02*
Y85600D01*
X210400Y226000D02*
X211600D01*
X211000Y225400D02*
Y226600D01*
X181400Y215000D02*
X182600D01*
X182000Y214400D02*
Y215600D01*
X228400Y223000D02*
X229600D01*
X229000Y222400D02*
Y223600D01*
X205400Y214000D02*
X206600D01*
X206000Y213400D02*
Y214600D01*
X53400Y225000D02*
X54600D01*
X54000Y224400D02*
Y225600D01*
X69274Y248126D02*
X70474D01*
X69874Y247526D02*
Y248726D01*
X72400Y248000D02*
X73600D01*
X73000Y247400D02*
Y248600D01*
X43400Y267000D02*
X44600D01*
X44000Y266400D02*
Y267600D01*
X34400Y112000D02*
X35600D01*
X35000Y111400D02*
Y112600D01*
X128900Y237000D02*
X130100D01*
X129500Y236400D02*
Y237600D01*
X134400Y236500D02*
X135600D01*
X135000Y235900D02*
Y237100D01*
X134400Y242000D02*
X135600D01*
X135000Y241400D02*
Y242600D01*
X138400Y157000D02*
X139600D01*
X139000Y156400D02*
Y157600D01*
X143321Y168921D02*
X144521D01*
X143921Y168321D02*
Y169521D01*
X103400Y174000D02*
X104600D01*
X104000Y173400D02*
Y174600D01*
X108400Y161000D02*
X109600D01*
X109000Y160400D02*
Y161600D01*
X165400Y205000D02*
X166600D01*
X166000Y204400D02*
Y205600D01*
X161400Y235000D02*
X162600D01*
X162000Y234400D02*
Y235600D01*
X161400Y225000D02*
X162600D01*
X162000Y224400D02*
Y225600D01*
X165400Y230000D02*
X166600D01*
X166000Y229400D02*
Y230600D01*
X150400Y210000D02*
X151600D01*
X151000Y209400D02*
Y210600D01*
X140400Y210000D02*
X141600D01*
X141000Y209400D02*
Y210600D01*
X145400Y206000D02*
X146600D01*
X146000Y205400D02*
Y206600D01*
X130400Y210000D02*
X131600D01*
X131000Y209400D02*
Y210600D01*
X135400Y206000D02*
X136600D01*
X136000Y205400D02*
Y206600D01*
X113400Y215000D02*
X114600D01*
X114000Y214400D02*
Y215600D01*
X109400Y210000D02*
X110600D01*
X110000Y209400D02*
Y210600D01*
X109400Y230000D02*
X110600D01*
X110000Y229400D02*
Y230600D01*
X113400Y245000D02*
X114600D01*
X114000Y244400D02*
Y245600D01*
X113400Y254500D02*
X114600D01*
X114000Y253900D02*
Y255100D01*
X109400Y249500D02*
X110600D01*
X110000Y248900D02*
Y250100D01*
X109400Y260000D02*
X110600D01*
X110000Y259400D02*
Y260600D01*
X132400Y9000D02*
X133600D01*
X133000Y8400D02*
Y9600D01*
X135400Y9000D02*
X136600D01*
X136000Y8400D02*
Y9600D01*
M02*
