G04*
G04 #@! TF.GenerationSoftware,Altium Limited,Altium Designer,25.4.2 (15)*
G04*
G04 Layer_Color=32896*
%FSLAX25Y25*%
%MOIN*%
G70*
G04*
G04 #@! TF.SameCoordinates,4685016B-83D2-4E7D-AD2A-A819038C0A47*
G04*
G04*
G04 #@! TF.FilePolarity,Positive*
G04*
G01*
G75*
%ADD10C,0.00787*%
%ADD11C,0.00700*%
%ADD12C,0.00984*%
%ADD14C,0.01000*%
%ADD15C,0.00600*%
%ADD16C,0.00500*%
%ADD17C,0.01968*%
%ADD148C,0.02362*%
D10*
X300Y19485D02*
G03*
X19985Y-200I19685J0D01*
G01*
Y274600D02*
G03*
X300Y254915I0J-19685D01*
G01*
X255415Y-200D02*
G03*
X275100Y19485I0J19685D01*
G01*
Y254915D02*
G03*
X255415Y274600I-19685J0D01*
G01*
X25394Y120701D02*
G03*
X25394Y120701I-394J0D01*
G01*
X32394Y103299D02*
G03*
X32394Y103299I-394J0D01*
G01*
X4693Y97000D02*
G03*
X4693Y97000I-394J0D01*
G01*
X233693Y229000D02*
G03*
X233693Y229000I-394J0D01*
G01*
X19985Y274600D02*
X255415D01*
X19985Y-200D02*
X255415D01*
X300Y19485D02*
Y254915D01*
X275100Y19485D02*
Y254915D01*
X83300Y202900D02*
Y203100D01*
X88700Y202900D02*
Y203100D01*
X113921Y67965D02*
X154079D01*
Y52035D02*
Y67965D01*
X113921Y52035D02*
Y67965D01*
Y52035D02*
X154079D01*
X57461Y259606D02*
Y260394D01*
X52539Y259606D02*
Y260394D01*
X119606Y259539D02*
X120394D01*
X119606Y264461D02*
X120394D01*
X70606Y259461D02*
X71394D01*
X70606Y254539D02*
X71394D01*
X33606Y124539D02*
X34394D01*
X33606Y129461D02*
X34394D01*
X202606Y201461D02*
X203394D01*
X202606Y196539D02*
X203394D01*
X108606Y169102D02*
X109394D01*
X108606Y164181D02*
X109394D01*
X98461Y142606D02*
Y143394D01*
X93539Y142606D02*
Y143394D01*
X132606Y130461D02*
X133394D01*
X132606Y125539D02*
X133394D01*
X134606Y186539D02*
X135394D01*
X134606Y191461D02*
X135394D01*
X138539Y142606D02*
Y143394D01*
X143461Y142606D02*
Y143394D01*
X180461Y89606D02*
Y90394D01*
X175539Y89606D02*
Y90394D01*
X7095Y110756D02*
X10244D01*
X7095Y106819D02*
Y110756D01*
X15756D02*
X18905D01*
Y106819D02*
Y110756D01*
X137300Y108542D02*
Y108742D01*
X142700Y108542D02*
Y108742D01*
X78700Y202900D02*
Y203100D01*
X73300Y202900D02*
Y203100D01*
X124300Y28900D02*
Y29100D01*
X129700Y28900D02*
Y29100D01*
X139800Y28900D02*
Y29100D01*
X145200Y28900D02*
Y29100D01*
X111700Y28900D02*
Y29100D01*
X106300Y28900D02*
Y29100D01*
Y59900D02*
Y60100D01*
X111700Y59900D02*
Y60100D01*
X110300Y182542D02*
Y182742D01*
X115700Y182542D02*
Y182742D01*
X150700Y185400D02*
Y185600D01*
X145300Y185400D02*
Y185600D01*
X132700Y142837D02*
Y143037D01*
X127300Y142837D02*
Y143037D01*
X108900Y144300D02*
X109100D01*
X108900Y149700D02*
X109100D01*
X55900Y114300D02*
X56100D01*
X55900Y119700D02*
X56100D01*
X241963Y215700D02*
X242163D01*
X241963Y210300D02*
X242163D01*
X55900Y129700D02*
X56100D01*
X55900Y124300D02*
X56100D01*
X164900Y98300D02*
X165100D01*
X164900Y103700D02*
X165100D01*
X164900Y112700D02*
X165100D01*
X164900Y107300D02*
X165100D01*
X179900Y70300D02*
X180100D01*
X179900Y75700D02*
X180100D01*
X164900D02*
X165100D01*
X164900Y70300D02*
X165100D01*
X167900Y61700D02*
X168100D01*
X167900Y56300D02*
X168100D01*
X199945Y207370D02*
Y228630D01*
X218055Y207370D02*
Y228630D01*
X199945Y207370D02*
X218055D01*
X199945Y228630D02*
X218055D01*
X27567Y77390D02*
Y88020D01*
Y77390D02*
X31504D01*
X46071D02*
Y88020D01*
X42134Y77390D02*
X46071D01*
X27748Y65610D02*
X31685D01*
X27748Y54980D02*
Y65610D01*
X42315D02*
X46252D01*
Y54980D02*
Y65610D01*
D11*
X90300Y195300D02*
Y210700D01*
X81800Y195300D02*
X90300D01*
X81800Y210700D02*
X90300D01*
X81800Y195300D02*
Y210700D01*
X51000Y252500D02*
X59000D01*
X51000D02*
Y267500D01*
X59000D01*
Y252500D02*
Y267500D01*
X112500Y266000D02*
X127500D01*
X112500Y258000D02*
Y266000D01*
Y258000D02*
X127500D01*
Y266000D01*
X63500Y253000D02*
X78500D01*
Y261000D01*
X63500D02*
X78500D01*
X63500Y253000D02*
Y261000D01*
X26500Y131000D02*
X41500D01*
X26500Y123000D02*
Y131000D01*
Y123000D02*
X41500D01*
Y131000D01*
X195500Y195000D02*
X210500D01*
Y203000D01*
X195500D02*
X210500D01*
X195500Y195000D02*
Y203000D01*
X101500Y162642D02*
X116500D01*
Y170642D01*
X101500D02*
X116500D01*
X101500Y162642D02*
Y170642D01*
X92000Y135500D02*
Y150500D01*
Y135500D02*
X100000D01*
Y150500D01*
X92000D02*
X100000D01*
X125500Y124000D02*
X140500D01*
Y132000D01*
X125500D02*
X140500D01*
X125500Y124000D02*
Y132000D01*
X127500Y193000D02*
X142500D01*
X127500Y185000D02*
Y193000D01*
Y185000D02*
X142500D01*
Y193000D01*
X145000Y135500D02*
Y150500D01*
X137000D02*
X145000D01*
X137000Y135500D02*
Y150500D01*
Y135500D02*
X145000D01*
X174000Y82500D02*
Y97500D01*
Y82500D02*
X182000D01*
Y97500D01*
X174000D02*
X182000D01*
X60441Y237291D02*
X64142D01*
X60441Y248709D02*
X64142D01*
X60441Y245441D02*
Y248709D01*
Y237291D02*
Y240559D01*
X74441Y237291D02*
X78142D01*
X74441Y248709D02*
X78142D01*
X74441Y245441D02*
Y248709D01*
Y237291D02*
Y240559D01*
X253441Y216291D02*
X257142D01*
X253441Y227709D02*
X257142D01*
X253441Y224441D02*
Y227709D01*
Y216291D02*
Y219559D01*
X144200Y100942D02*
Y116342D01*
X135700Y100942D02*
X144200D01*
X135700Y116342D02*
X144200D01*
X135700Y100942D02*
Y116342D01*
X71800Y195300D02*
Y210700D01*
X80300D01*
X71800Y195300D02*
X80300D01*
Y210700D01*
X131200Y21300D02*
Y36700D01*
X122700Y21300D02*
X131200D01*
X122700Y36700D02*
X131200D01*
X122700Y21300D02*
Y36700D01*
X146700Y21300D02*
Y36700D01*
X138200Y21300D02*
X146700D01*
X138200Y36700D02*
X146700D01*
X138200Y21300D02*
Y36700D01*
X104800Y21300D02*
Y36700D01*
X113300D01*
X104800Y21300D02*
X113300D01*
Y36700D01*
X113200Y52300D02*
Y67700D01*
X104700Y52300D02*
X113200D01*
X104700Y67700D02*
X113200D01*
X104700Y52300D02*
Y67700D01*
X117200Y174942D02*
Y190342D01*
X108700Y174942D02*
X117200D01*
X108700Y190342D02*
X117200D01*
X108700Y174942D02*
Y190342D01*
X143800Y177800D02*
Y193200D01*
X152300D01*
X143800Y177800D02*
X152300D01*
Y193200D01*
X125800Y135237D02*
Y150637D01*
X134300D01*
X125800Y135237D02*
X134300D01*
Y150637D01*
X101300Y151200D02*
X116700D01*
Y142700D02*
Y151200D01*
X101300Y142700D02*
Y151200D01*
Y142700D02*
X116700D01*
X48300Y121200D02*
X63700D01*
Y112700D02*
Y121200D01*
X48300Y112700D02*
Y121200D01*
Y112700D02*
X63700D01*
X234363Y208800D02*
X249763D01*
X234363D02*
Y217300D01*
X249763Y208800D02*
Y217300D01*
X234363D02*
X249763D01*
X48300Y122800D02*
X63700D01*
X48300D02*
Y131300D01*
X63700Y122800D02*
Y131300D01*
X48300D02*
X63700D01*
X157300Y105200D02*
X172700D01*
Y96700D02*
Y105200D01*
X157300Y96700D02*
Y105200D01*
Y96700D02*
X172700D01*
X157300Y105800D02*
X172700D01*
X157300D02*
Y114300D01*
X172700Y105800D02*
Y114300D01*
X157300D02*
X172700D01*
X172300Y77200D02*
X187700D01*
Y68700D02*
Y77200D01*
X172300Y68700D02*
Y77200D01*
Y68700D02*
X187700D01*
X157300Y68800D02*
X172700D01*
X157300D02*
Y77300D01*
X172700Y68800D02*
Y77300D01*
X157300D02*
X172700D01*
X160300Y54800D02*
X175700D01*
X160300D02*
Y63300D01*
X175700Y54800D02*
Y63300D01*
X160300D02*
X175700D01*
X81200Y254500D02*
Y265500D01*
X88800Y254500D02*
Y265500D01*
X104700Y39358D02*
Y50358D01*
X112300Y39358D02*
Y50358D01*
X101500Y6200D02*
X112500D01*
X101500Y13800D02*
X112500D01*
X25165Y40668D02*
X36165D01*
X25165Y48268D02*
X36165D01*
X55465Y49968D02*
Y60969D01*
X47865Y49968D02*
Y60969D01*
X24319Y93869D02*
X35319D01*
X24319Y101469D02*
X35319D01*
X54619Y82169D02*
Y93169D01*
X47019Y82169D02*
Y93169D01*
X188800Y219500D02*
Y230500D01*
X181200Y219500D02*
Y230500D01*
X92200Y179142D02*
Y190142D01*
X99800Y179142D02*
Y190142D01*
X100200Y179142D02*
Y190142D01*
X107800Y179142D02*
Y190142D01*
X142500Y125200D02*
X153500D01*
X142500Y132800D02*
X153500D01*
X154800Y138500D02*
Y149500D01*
X147200Y138500D02*
Y149500D01*
X106500Y133800D02*
X117500D01*
X106500Y126200D02*
X117500D01*
X101500Y141800D02*
X112500D01*
X101500Y134200D02*
X112500D01*
X133500Y98442D02*
X144500D01*
X133500Y90842D02*
X144500D01*
X131800Y92142D02*
Y103142D01*
X124200Y92142D02*
Y103142D01*
X131800Y105142D02*
Y116142D01*
X124200Y105142D02*
Y116142D01*
X107500Y115800D02*
X118500D01*
X107500Y108200D02*
X118500D01*
X103800Y109142D02*
Y120142D01*
X96200Y109142D02*
Y120142D01*
X212500Y202800D02*
X223500D01*
X212500Y195200D02*
X223500D01*
X174200Y99500D02*
Y110500D01*
X181800Y99500D02*
Y110500D01*
X177200Y55500D02*
Y66500D01*
X184800Y55500D02*
Y66500D01*
X155300Y159000D02*
Y170000D01*
X147700Y159000D02*
Y170000D01*
X49299Y153465D02*
X67724D01*
Y171378D01*
Y218622D02*
Y236535D01*
X49299D02*
X67724D01*
X6701Y153465D02*
X26701D01*
X6701D02*
Y173346D01*
Y216653D02*
Y236535D01*
X26701D01*
X97200Y254547D02*
Y265800D01*
X88900Y254447D02*
Y265700D01*
X43200Y248547D02*
Y259800D01*
X34900Y248447D02*
Y259700D01*
X38865Y48669D02*
X50118D01*
X38965Y40369D02*
X50218D01*
X26865Y50016D02*
Y61269D01*
X18565Y49916D02*
Y61168D01*
X18619Y80869D02*
Y92122D01*
X26919Y80969D02*
Y92222D01*
X38366Y93469D02*
X49619D01*
X38266Y101769D02*
X49519D01*
X92294Y99800D02*
X103547D01*
X92194Y108100D02*
X103447D01*
X182547Y194800D02*
X193800D01*
X182447Y203100D02*
X193700D01*
X22539Y108653D02*
Y115347D01*
X27461Y108653D02*
Y115347D01*
X34461Y108653D02*
Y115347D01*
X29539Y108653D02*
Y115347D01*
X9653Y94539D02*
X16346D01*
X9653Y99461D02*
X16346D01*
X238653Y226539D02*
X245346D01*
X238653Y231461D02*
X245346D01*
X99900Y162742D02*
Y176542D01*
X92100D02*
X99900D01*
X92100Y162742D02*
Y176542D01*
Y162742D02*
X99900D01*
X135100Y157860D02*
Y171660D01*
Y157860D02*
X142900D01*
Y171660D01*
X135100D02*
X142900D01*
X91100Y133900D02*
X104900D01*
X91100Y126100D02*
Y133900D01*
Y126100D02*
X104900D01*
Y133900D01*
X105100Y107900D02*
X118900D01*
X105100Y100100D02*
Y107900D01*
Y100100D02*
X118900D01*
Y107900D01*
X70709Y34567D02*
Y55433D01*
X59291Y34567D02*
Y55433D01*
X102709Y34567D02*
Y55433D01*
X91291Y34567D02*
Y55433D01*
X86709Y34567D02*
Y55433D01*
X75291Y34567D02*
Y55433D01*
D12*
X115492Y73500D02*
G03*
X115492Y73500I-492J0D01*
G01*
X20579Y103276D02*
G03*
X20579Y103276I-492J0D01*
G01*
X195122Y207055D02*
G03*
X195122Y207055I-492J0D01*
G01*
X28059Y90579D02*
G03*
X28059Y90579I-492J0D01*
G01*
X46744Y52421D02*
G03*
X46744Y52421I-492J0D01*
G01*
D14*
X265000Y105000D02*
X260335D01*
Y103834D01*
X261501Y102667D01*
X265000D01*
X261501D01*
X260335Y101501D01*
X261501Y100335D01*
X265000D01*
Y96836D02*
Y94503D01*
X263834Y93337D01*
X261501D01*
X260335Y94503D01*
Y96836D01*
X261501Y98002D01*
X263834D01*
X265000Y96836D01*
Y91005D02*
X260335D01*
Y87506D01*
X261501Y86339D01*
X265000D01*
Y84007D02*
X258002D01*
X262667D02*
X260335Y80508D01*
X262667Y84007D02*
X265000Y80508D01*
Y73510D02*
Y75843D01*
X263834Y77009D01*
X261501D01*
X260335Y75843D01*
Y73510D01*
X261501Y72344D01*
X262667D01*
Y77009D01*
X265000Y66512D02*
Y68845D01*
X263834Y70011D01*
X261501D01*
X260335Y68845D01*
Y66512D01*
X261501Y65346D01*
X262667D01*
Y70011D01*
D15*
X232234Y9599D02*
X234900D01*
Y5600D01*
X232234D01*
X234900Y7599D02*
X233567D01*
X230901Y5600D02*
Y9599D01*
X229568Y8266D01*
X228236Y9599D01*
Y5600D01*
X226903D02*
X225570D01*
X226236D01*
Y9599D01*
X226903Y8932D01*
X223570Y7599D02*
X220904D01*
X222237Y8932D02*
Y6266D01*
X212734Y9599D02*
X215400D01*
Y5600D01*
X212734D01*
X215400Y7599D02*
X214067D01*
X211401Y5600D02*
Y9599D01*
X210068Y8266D01*
X208735Y9599D01*
Y5600D01*
X207403D02*
X206070D01*
X206736D01*
Y9599D01*
X207403Y8932D01*
X204070Y7599D02*
X201405D01*
X193234Y9599D02*
X195900D01*
Y5600D01*
X193234D01*
X195900Y7599D02*
X194567D01*
X191901Y5600D02*
Y9599D01*
X190568Y8266D01*
X189235Y9599D01*
Y5600D01*
X185237D02*
X187903D01*
X185237Y8266D01*
Y8932D01*
X185903Y9599D01*
X187236D01*
X187903Y8932D01*
X183904Y7599D02*
X181238D01*
X182571Y8932D02*
Y6266D01*
X172734Y9599D02*
X175400D01*
Y5600D01*
X172734D01*
X175400Y7599D02*
X174067D01*
X171401Y5600D02*
Y9599D01*
X170068Y8266D01*
X168736Y9599D01*
Y5600D01*
X164737D02*
X167403D01*
X164737Y8266D01*
Y8932D01*
X165403Y9599D01*
X166736D01*
X167403Y8932D01*
X163404Y7599D02*
X160738D01*
D16*
X93300Y169342D02*
Y169842D01*
X98700Y169342D02*
Y169842D01*
X141700Y164560D02*
Y165060D01*
X136300Y164560D02*
Y165060D01*
X97800Y127300D02*
X98300D01*
X97800Y132700D02*
X98300D01*
X111800Y101300D02*
X112300D01*
X111800Y106700D02*
X112300D01*
X70453Y55433D02*
X70709D01*
X102453D02*
X102709D01*
X86453D02*
X86709D01*
D17*
X117858Y65012D02*
G03*
X117858Y65012I-984J0D01*
G01*
D148*
X205063Y211307D02*
G03*
X205063Y211307I-1181J0D01*
G01*
M02*
