G04*
G04 #@! TF.GenerationSoftware,Altium Limited,Altium Designer,25.4.2 (15)*
G04*
G04 Layer_Color=8388736*
%FSLAX25Y25*%
%MOIN*%
G70*
G04*
G04 #@! TF.SameCoordinates,4685016B-83D2-4E7D-AD2A-A819038C0A47*
G04*
G04*
G04 #@! TF.FilePolarity,Positive*
G04*
G01*
G75*
%ADD10C,0.00787*%
%ADD149C,0.00394*%
D10*
X32459Y36409D02*
Y45071D01*
X27759Y36409D02*
X32459D01*
X27759D02*
Y45071D01*
X32459D01*
X38600Y89669D02*
Y98331D01*
X43300D01*
Y89669D02*
Y98331D01*
X38600Y89669D02*
X43300D01*
X32600Y153669D02*
Y162331D01*
X37300D01*
Y153669D02*
Y162331D01*
X32600Y153669D02*
X37300D01*
X68669Y186400D02*
X77331D01*
Y181700D02*
Y186400D01*
X68669Y181700D02*
X77331D01*
X68669D02*
Y186400D01*
X45937Y50539D02*
Y55461D01*
X38063D02*
X45937D01*
X38063Y50539D02*
Y55461D01*
Y50539D02*
X45937D01*
X29937D02*
Y55461D01*
X22063D02*
X29937D01*
X22063Y50539D02*
Y55461D01*
Y50539D02*
X29937D01*
X20598Y44677D02*
X25520D01*
X20598Y36803D02*
Y44677D01*
Y36803D02*
X25520D01*
Y44677D01*
X29937Y57539D02*
Y62461D01*
X22063D02*
X29937D01*
X22063Y57539D02*
Y62461D01*
Y57539D02*
X29937D01*
X25063Y80539D02*
Y85461D01*
Y80539D02*
X32937D01*
Y85461D01*
X25063D02*
X32937D01*
X40063Y81539D02*
Y86461D01*
Y81539D02*
X47937D01*
Y86461D01*
X40063D02*
X47937D01*
X45539Y90063D02*
X50461D01*
Y97937D01*
X45539D02*
X50461D01*
X45539Y90063D02*
Y97937D01*
X40063Y74539D02*
Y79461D01*
Y74539D02*
X47937D01*
Y79461D01*
X40063D02*
X47937D01*
X63701Y243732D02*
Y260268D01*
X76299D01*
Y243732D02*
Y260268D01*
X63701Y243732D02*
X76299D01*
X44701D02*
Y260268D01*
X57299D01*
Y243732D02*
Y260268D01*
X44701Y243732D02*
X57299D01*
X117008Y-189D02*
Y26189D01*
Y-189D02*
X152992D01*
Y26189D01*
X117008D02*
X152992D01*
D149*
X158000Y4512D02*
X239500D01*
X158000D02*
Y44500D01*
X239500Y4512D02*
Y44500D01*
X158000D02*
X239500D01*
M02*
