G04*
G04 #@! TF.GenerationSoftware,Altium Limited,Altium Designer,25.4.2 (15)*
G04*
G04 Layer_Color=32896*
%FSLAX25Y25*%
%MOIN*%
G70*
G04*
G04 #@! TF.SameCoordinates,4685016B-83D2-4E7D-AD2A-A819038C0A47*
G04*
G04*
G04 #@! TF.FilePolarity,Positive*
G04*
G01*
G75*
%ADD10C,0.00787*%
%ADD149C,0.00394*%
D10*
X112937Y77933D02*
X155063D01*
Y42067D02*
Y77933D01*
X112937Y42067D02*
X155063D01*
X112937D02*
Y77933D01*
X80866Y253701D02*
Y266299D01*
Y253701D02*
X89134D01*
Y266299D01*
X80866D02*
X89134D01*
X104366Y38559D02*
Y51157D01*
Y38559D02*
X112634D01*
Y51157D01*
X104366D02*
X112634D01*
X100701Y5866D02*
X113299D01*
Y14134D01*
X100701D02*
X113299D01*
X100701Y5866D02*
Y14134D01*
X24366Y40335D02*
X36965D01*
Y48602D01*
X24366D02*
X36965D01*
X24366Y40335D02*
Y48602D01*
X55799Y49169D02*
Y61768D01*
X47532D02*
X55799D01*
X47532Y49169D02*
Y61768D01*
Y49169D02*
X55799D01*
X23520Y93535D02*
X36118D01*
Y101803D01*
X23520D02*
X36118D01*
X23520Y93535D02*
Y101803D01*
X54953Y81370D02*
Y93968D01*
X46685D02*
X54953D01*
X46685Y81370D02*
Y93968D01*
Y81370D02*
X54953D01*
X189134Y218701D02*
Y231299D01*
X180866D02*
X189134D01*
X180866Y218701D02*
Y231299D01*
Y218701D02*
X189134D01*
X91866Y178342D02*
Y190941D01*
Y178342D02*
X100134D01*
Y190941D01*
X91866D02*
X100134D01*
X99866Y178342D02*
Y190941D01*
Y178342D02*
X108134D01*
Y190941D01*
X99866D02*
X108134D01*
X141701Y124866D02*
X154299D01*
Y133134D01*
X141701D02*
X154299D01*
X141701Y124866D02*
Y133134D01*
X155134Y137701D02*
Y150299D01*
X146866D02*
X155134D01*
X146866Y137701D02*
Y150299D01*
Y137701D02*
X155134D01*
X105701Y134134D02*
X118299D01*
X105701Y125866D02*
Y134134D01*
Y125866D02*
X118299D01*
Y134134D01*
X100701Y142134D02*
X113299D01*
X100701Y133866D02*
Y142134D01*
Y133866D02*
X113299D01*
Y142134D01*
X132701Y98776D02*
X145299D01*
X132701Y90508D02*
Y98776D01*
Y90508D02*
X145299D01*
Y98776D01*
X132134Y91343D02*
Y103941D01*
X123866D02*
X132134D01*
X123866Y91343D02*
Y103941D01*
Y91343D02*
X132134D01*
Y104342D02*
Y116941D01*
X123866D02*
X132134D01*
X123866Y104342D02*
Y116941D01*
Y104342D02*
X132134D01*
X106701Y116134D02*
X119299D01*
X106701Y107866D02*
Y116134D01*
Y107866D02*
X119299D01*
Y116134D01*
X104134Y108343D02*
Y120941D01*
X95866D02*
X104134D01*
X95866Y108343D02*
Y120941D01*
Y108343D02*
X104134D01*
X211701Y203134D02*
X224299D01*
X211701Y194866D02*
Y203134D01*
Y194866D02*
X224299D01*
Y203134D01*
X173866Y98701D02*
Y111299D01*
Y98701D02*
X182134D01*
Y111299D01*
X173866D02*
X182134D01*
X176866Y54701D02*
Y67299D01*
Y54701D02*
X185134D01*
Y67299D01*
X176866D02*
X185134D01*
X155634Y158201D02*
Y170799D01*
X147366D02*
X155634D01*
X147366Y158201D02*
Y170799D01*
Y158201D02*
X155634D01*
X89244Y253389D02*
X96756D01*
X89244D02*
Y266611D01*
X96756D01*
Y253389D02*
Y266611D01*
X35244Y247389D02*
X42756D01*
X35244D02*
Y260611D01*
X42756D01*
Y247389D02*
Y260611D01*
X51276Y40712D02*
Y48225D01*
X38055Y40712D02*
X51276D01*
X38055D02*
Y48225D01*
X51276D01*
X18909Y48858D02*
X26422D01*
X18909D02*
Y62079D01*
X26422D01*
Y48858D02*
Y62079D01*
X19063Y93280D02*
X26575D01*
Y80059D02*
Y93280D01*
X19063Y80059D02*
X26575D01*
X19063D02*
Y93280D01*
X37208Y93913D02*
Y101426D01*
X50430D01*
Y93913D02*
Y101426D01*
X37208Y93913D02*
X50430D01*
X91136Y100244D02*
Y107756D01*
X104358D01*
Y100244D02*
Y107756D01*
X91136Y100244D02*
X104358D01*
X181389Y195244D02*
Y202756D01*
X194611D01*
Y195244D02*
Y202756D01*
X181389Y195244D02*
X194611D01*
D149*
X33276Y84260D02*
G03*
X33276Y84260I-1969J0D01*
G01*
X44480Y58740D02*
G03*
X44480Y58740I-1969J0D01*
G01*
X7095Y105244D02*
Y110756D01*
X18905Y105244D02*
Y110756D01*
X7095D02*
X18905D01*
X7095Y105244D02*
X18905D01*
X27567Y88000D02*
X46071D01*
X27567Y77409D02*
X46071D01*
X27567D02*
Y88000D01*
X46071Y77409D02*
Y88000D01*
X27748Y55000D02*
Y65591D01*
X46252Y55000D02*
Y65591D01*
X27748D02*
X46252D01*
X27748Y55000D02*
X46252D01*
M02*
