G04*
G04 #@! TF.GenerationSoftware,Altium Limited,Altium Designer,25.4.2 (15)*
G04*
G04 Layer_Color=65535*
%FSLAX25Y25*%
%MOIN*%
G70*
G04*
G04 #@! TF.SameCoordinates,4685016B-83D2-4E7D-AD2A-A819038C0A47*
G04*
G04*
G04 #@! TF.FilePolarity,Positive*
G04*
G01*
G75*
%ADD10C,0.00787*%
%ADD11C,0.00700*%
%ADD12C,0.00984*%
%ADD13C,0.01181*%
%ADD14C,0.01000*%
%ADD15C,0.00600*%
%ADD16C,0.00500*%
%ADD17C,0.01968*%
G36*
X96120Y109415D02*
X96173D01*
Y109362D01*
X96226D01*
Y109256D01*
X96279D01*
Y109150D01*
X96332D01*
Y108991D01*
X96385D01*
Y108885D01*
X96438D01*
Y108726D01*
X96491D01*
Y108620D01*
X96544D01*
Y108461D01*
X96597D01*
Y108302D01*
X96650D01*
Y108143D01*
X96703D01*
Y107984D01*
X96756D01*
Y107772D01*
X96809D01*
Y107613D01*
X96862D01*
Y107401D01*
X96915D01*
Y107189D01*
X96968D01*
Y106977D01*
X97021D01*
Y106712D01*
X97074D01*
Y106500D01*
X97127D01*
Y106235D01*
X97180D01*
Y105970D01*
X97233D01*
Y105705D01*
X97286D01*
Y105440D01*
X97339D01*
Y105122D01*
X97392D01*
Y104804D01*
X97445D01*
Y104486D01*
X97498D01*
Y104168D01*
X97551D01*
Y103797D01*
X97604D01*
Y103426D01*
X97657D01*
Y103055D01*
X97710D01*
Y102631D01*
X97763D01*
Y102207D01*
X97816D01*
Y101783D01*
X97869D01*
Y101306D01*
X97922D01*
Y100829D01*
X97975D01*
Y100299D01*
X98028D01*
Y99716D01*
X98081D01*
Y99292D01*
X98134D01*
Y98656D01*
X98187D01*
Y98020D01*
X98240D01*
Y97066D01*
X98293D01*
Y96377D01*
X98611D01*
Y96324D01*
X98982D01*
Y96271D01*
X99247D01*
Y96218D01*
X99512D01*
Y96165D01*
X99777D01*
Y96112D01*
X99989D01*
Y96059D01*
X100201D01*
Y96006D01*
X100413D01*
Y95953D01*
X100572D01*
Y95900D01*
X100731D01*
Y95847D01*
X100943D01*
Y95794D01*
X101102D01*
Y95741D01*
X101261D01*
Y95688D01*
X101420D01*
Y95635D01*
X101579D01*
Y95582D01*
X101685D01*
Y95529D01*
X101844D01*
Y95476D01*
X101950D01*
Y95423D01*
X102109D01*
Y95370D01*
X102215D01*
Y95317D01*
X102374D01*
Y95264D01*
X102480D01*
Y95211D01*
X102586D01*
Y95158D01*
X102692D01*
Y95105D01*
X102798D01*
Y95052D01*
X102957D01*
Y94999D01*
X103063D01*
Y94946D01*
X103169D01*
Y94893D01*
X103275D01*
Y94840D01*
X103328D01*
Y94787D01*
X103434D01*
Y94734D01*
X103540D01*
Y94681D01*
X103646D01*
Y94628D01*
X103752D01*
Y94575D01*
X103805D01*
Y94522D01*
X103911D01*
Y94469D01*
X104017D01*
Y94416D01*
X104070D01*
Y94363D01*
X104176D01*
Y94310D01*
X104282D01*
Y94257D01*
X104335D01*
Y94204D01*
X104441D01*
Y94151D01*
X104494D01*
Y94098D01*
X104600D01*
Y94045D01*
X104653D01*
Y93992D01*
X104759D01*
Y93939D01*
X104812D01*
Y93886D01*
X104918D01*
Y93833D01*
X104971D01*
Y93780D01*
X105024D01*
Y93727D01*
X105130D01*
Y93674D01*
X105183D01*
Y93621D01*
X105236D01*
Y93568D01*
X105342D01*
Y93515D01*
X105395D01*
Y93462D01*
X105448D01*
Y93409D01*
X105501D01*
Y93356D01*
X105607D01*
Y93303D01*
X105660D01*
Y93250D01*
X105713D01*
Y93197D01*
X105766D01*
Y93144D01*
X105872D01*
Y93091D01*
X105925D01*
Y93038D01*
X105978D01*
Y92985D01*
X106031D01*
Y92932D01*
X106084D01*
Y92879D01*
X106137D01*
Y92826D01*
X106190D01*
Y92773D01*
X106243D01*
Y92720D01*
X106349D01*
Y92667D01*
X106402D01*
Y92614D01*
X106455D01*
Y92561D01*
X106508D01*
Y92508D01*
X106561D01*
Y92455D01*
X106614D01*
Y92402D01*
X106667D01*
Y92349D01*
X106720D01*
Y92296D01*
X106773D01*
Y92243D01*
X106826D01*
Y92190D01*
X106879D01*
Y92137D01*
X106932D01*
Y92084D01*
X106985D01*
Y92031D01*
X107038D01*
Y91978D01*
X107091D01*
Y91925D01*
X107144D01*
Y91872D01*
X107197D01*
Y91766D01*
X107250D01*
Y91713D01*
X107303D01*
Y91660D01*
X107356D01*
Y91607D01*
X107409D01*
Y91554D01*
X107462D01*
Y91501D01*
X107515D01*
Y91448D01*
X107568D01*
Y91395D01*
X107621D01*
Y91289D01*
X107674D01*
Y91236D01*
X107727D01*
Y91183D01*
X107780D01*
Y91130D01*
X107833D01*
Y91077D01*
X107886D01*
Y90971D01*
X107939D01*
Y90918D01*
X107992D01*
Y90865D01*
X108045D01*
Y90759D01*
X108098D01*
Y90706D01*
X108151D01*
Y90653D01*
X108204D01*
Y90547D01*
X108257D01*
Y90494D01*
X108310D01*
Y90441D01*
X108363D01*
Y90335D01*
X108416D01*
Y90282D01*
X108469D01*
Y90229D01*
X108522D01*
Y90123D01*
X108575D01*
Y90070D01*
X108628D01*
Y89964D01*
X108681D01*
Y89911D01*
X108734D01*
Y89805D01*
X108787D01*
Y89752D01*
X108840D01*
Y89646D01*
X108893D01*
Y89593D01*
X108946D01*
Y89487D01*
X108999D01*
Y89434D01*
X109052D01*
Y89328D01*
X109105D01*
Y89222D01*
X109158D01*
Y89169D01*
X109211D01*
Y89063D01*
X109264D01*
Y88957D01*
X109317D01*
Y88851D01*
X109370D01*
Y88798D01*
X109423D01*
Y88692D01*
X109476D01*
Y88586D01*
X109529D01*
Y88480D01*
X109582D01*
Y88374D01*
X109635D01*
Y88321D01*
X109688D01*
Y88215D01*
X109741D01*
Y88109D01*
X109794D01*
Y88003D01*
X109847D01*
Y87897D01*
X109900D01*
Y87791D01*
X109953D01*
Y87632D01*
X110006D01*
Y87526D01*
X110059D01*
Y87420D01*
X110112D01*
Y87314D01*
X110165D01*
Y87208D01*
X110218D01*
Y87049D01*
X110271D01*
Y86943D01*
X110324D01*
Y86784D01*
X110377D01*
Y86678D01*
X110430D01*
Y86519D01*
X110483D01*
Y86360D01*
X110536D01*
Y86254D01*
X110589D01*
Y86095D01*
X110642D01*
Y85936D01*
X110695D01*
Y85724D01*
X110748D01*
Y85512D01*
X110801D01*
Y85247D01*
X110854D01*
Y84929D01*
X110907D01*
Y84664D01*
X110960D01*
Y84293D01*
X111013D01*
Y83922D01*
X111066D01*
Y83445D01*
X111119D01*
Y82862D01*
X111172D01*
Y80318D01*
X111119D01*
Y79788D01*
X111066D01*
Y79364D01*
X111013D01*
Y79046D01*
X110960D01*
Y78728D01*
X110907D01*
Y78463D01*
X110854D01*
Y78251D01*
X110801D01*
Y78039D01*
X110748D01*
Y77827D01*
X110695D01*
Y77615D01*
X110642D01*
Y77456D01*
X110589D01*
Y77297D01*
X110536D01*
Y77085D01*
X110483D01*
Y76979D01*
X110430D01*
Y76820D01*
X110377D01*
Y76661D01*
X110324D01*
Y76502D01*
X110271D01*
Y76396D01*
X110218D01*
Y76237D01*
X110165D01*
Y76131D01*
X110112D01*
Y76025D01*
X110059D01*
Y75919D01*
X110006D01*
Y75760D01*
X109953D01*
Y75654D01*
X109900D01*
Y75548D01*
X109847D01*
Y75442D01*
X109794D01*
Y75336D01*
X109741D01*
Y75230D01*
X109688D01*
Y75177D01*
X109635D01*
Y75071D01*
X109582D01*
Y74965D01*
X109529D01*
Y74859D01*
X109476D01*
Y74806D01*
X109423D01*
Y74700D01*
X109370D01*
Y74594D01*
X109317D01*
Y74541D01*
X109264D01*
Y74435D01*
X109211D01*
Y74382D01*
X109158D01*
Y74276D01*
X109105D01*
Y74223D01*
X109052D01*
Y74117D01*
X108999D01*
Y74064D01*
X108946D01*
Y74011D01*
X108893D01*
Y73905D01*
X108840D01*
Y73852D01*
X108787D01*
Y73799D01*
X108734D01*
Y73693D01*
X108681D01*
Y73640D01*
X108628D01*
Y73587D01*
X108575D01*
Y73534D01*
X108522D01*
Y73481D01*
X108469D01*
Y73375D01*
X108416D01*
Y73322D01*
X108363D01*
Y73269D01*
X108310D01*
Y73216D01*
X108257D01*
Y73163D01*
X108204D01*
Y73110D01*
X108151D01*
Y73057D01*
X108098D01*
Y73004D01*
X108045D01*
Y72951D01*
X107992D01*
Y72898D01*
X107939D01*
Y72845D01*
X107886D01*
Y72792D01*
X107833D01*
Y72739D01*
X107780D01*
Y72686D01*
X107727D01*
Y72633D01*
X107674D01*
Y72580D01*
X107621D01*
Y72527D01*
X107568D01*
Y72474D01*
X107515D01*
Y72421D01*
X107462D01*
Y72368D01*
X107409D01*
Y72315D01*
X107356D01*
Y72262D01*
X107250D01*
Y72209D01*
X107197D01*
Y72156D01*
X107144D01*
Y72103D01*
X107091D01*
Y72050D01*
X106985D01*
Y71997D01*
X106932D01*
Y71944D01*
X106879D01*
Y71891D01*
X106773D01*
Y71838D01*
X106720D01*
Y71785D01*
X106614D01*
Y71732D01*
X106561D01*
Y71679D01*
X106455D01*
Y71626D01*
X106402D01*
Y71573D01*
X106296D01*
Y71520D01*
X106243D01*
Y71467D01*
X106137D01*
Y71414D01*
X106031D01*
Y71361D01*
X105925D01*
Y71308D01*
X105766D01*
Y71255D01*
X105554D01*
Y71202D01*
X104759D01*
Y71255D01*
X104547D01*
Y71308D01*
X104388D01*
Y71361D01*
X104229D01*
Y71414D01*
X104123D01*
Y71467D01*
X104017D01*
Y71520D01*
X103911D01*
Y71573D01*
X103858D01*
Y71626D01*
X103752D01*
Y71679D01*
X103699D01*
Y71732D01*
X103593D01*
Y71785D01*
X103540D01*
Y71838D01*
X103487D01*
Y71891D01*
X103434D01*
Y71944D01*
X103328D01*
Y71997D01*
X103275D01*
Y72050D01*
X103222D01*
Y72103D01*
X103169D01*
Y72156D01*
X103116D01*
Y72262D01*
X103063D01*
Y72315D01*
X103010D01*
Y72368D01*
X102957D01*
Y72421D01*
X102904D01*
Y72474D01*
X102851D01*
Y72580D01*
X102798D01*
Y72633D01*
X102745D01*
Y72686D01*
X102692D01*
Y72792D01*
X102639D01*
Y72845D01*
X102586D01*
Y72951D01*
X102533D01*
Y73004D01*
X102480D01*
Y73110D01*
X102427D01*
Y73216D01*
X102374D01*
Y73269D01*
X102321D01*
Y73375D01*
X102268D01*
Y73481D01*
X102215D01*
Y73587D01*
X102162D01*
Y73693D01*
X102109D01*
Y73799D01*
X102056D01*
Y73905D01*
X102003D01*
Y74011D01*
X101950D01*
Y74117D01*
X101897D01*
Y74223D01*
X101844D01*
Y74329D01*
X101791D01*
Y74488D01*
X101738D01*
Y74594D01*
X101685D01*
Y74753D01*
X101632D01*
Y74859D01*
X101579D01*
Y75018D01*
X101526D01*
Y75124D01*
X101473D01*
Y75283D01*
X101420D01*
Y75442D01*
X101367D01*
Y75601D01*
X101314D01*
Y75707D01*
X101261D01*
Y75866D01*
X101208D01*
Y76025D01*
X101155D01*
Y76237D01*
X101102D01*
Y76396D01*
X101049D01*
Y76555D01*
X100996D01*
Y76714D01*
X100943D01*
Y76926D01*
X100890D01*
Y77085D01*
X100837D01*
Y77297D01*
X100784D01*
Y77456D01*
X100731D01*
Y77668D01*
X100678D01*
Y77880D01*
X100625D01*
Y78092D01*
X100572D01*
Y78251D01*
Y78304D01*
X100519D01*
Y78516D01*
X100466D01*
Y78728D01*
X100413D01*
Y78940D01*
X100360D01*
Y79205D01*
X100307D01*
Y79417D01*
X100254D01*
Y79682D01*
X100201D01*
Y79947D01*
X100148D01*
Y80212D01*
X100095D01*
Y80424D01*
X100042D01*
Y80742D01*
X99989D01*
Y81007D01*
X99936D01*
Y81272D01*
X99883D01*
Y81590D01*
X99830D01*
Y81855D01*
X99777D01*
Y82173D01*
X99724D01*
Y82491D01*
X99671D01*
Y82809D01*
X99618D01*
Y83127D01*
X99565D01*
Y83445D01*
X99512D01*
Y83816D01*
X99459D01*
Y84187D01*
X99406D01*
Y84558D01*
X99353D01*
Y84929D01*
X99300D01*
Y85300D01*
X99247D01*
Y85724D01*
X99194D01*
Y86095D01*
X99141D01*
Y86519D01*
X99088D01*
Y86996D01*
X99035D01*
Y87420D01*
X98982D01*
Y87897D01*
X98929D01*
Y88374D01*
X98876D01*
Y88904D01*
X98823D01*
Y89434D01*
X98770D01*
Y89964D01*
X98717D01*
Y90547D01*
X98664D01*
Y91130D01*
X98611D01*
Y91766D01*
X98558D01*
Y92455D01*
X98505D01*
Y93144D01*
X98452D01*
Y93886D01*
X98399D01*
Y94734D01*
X98346D01*
Y95688D01*
X98293D01*
Y96377D01*
X93947D01*
Y97172D01*
X94000D01*
Y98073D01*
X94053D01*
Y98762D01*
X94106D01*
Y99345D01*
X94159D01*
Y99822D01*
X94212D01*
Y100352D01*
X94265D01*
Y100882D01*
X94318D01*
Y101359D01*
X94371D01*
Y101836D01*
X94424D01*
Y102260D01*
X94477D01*
Y102684D01*
X94530D01*
Y103108D01*
X94583D01*
Y103479D01*
X94636D01*
Y103850D01*
X94689D01*
Y104221D01*
X94742D01*
Y104539D01*
X94795D01*
Y104857D01*
X94848D01*
Y105175D01*
X94901D01*
Y105440D01*
X94954D01*
Y105758D01*
X95007D01*
Y106023D01*
X95060D01*
Y106288D01*
X95113D01*
Y106553D01*
X95166D01*
Y106765D01*
X95219D01*
Y106977D01*
X95272D01*
Y107189D01*
X95325D01*
Y107401D01*
X95378D01*
Y107613D01*
X95431D01*
Y107825D01*
X95484D01*
Y107984D01*
X95537D01*
Y108143D01*
X95590D01*
Y108302D01*
X95643D01*
Y108408D01*
Y108461D01*
X95696D01*
Y108620D01*
X95749D01*
Y108779D01*
X95802D01*
Y108885D01*
X95855D01*
Y109044D01*
X95908D01*
Y109150D01*
X95961D01*
Y109256D01*
X96014D01*
Y109362D01*
X96067D01*
Y109468D01*
X96120D01*
Y109415D01*
D02*
G37*
G36*
X93947Y95794D02*
X93894D01*
Y94840D01*
X93841D01*
Y93992D01*
X93788D01*
Y93250D01*
X93735D01*
Y92508D01*
X93682D01*
Y91872D01*
X93629D01*
Y91236D01*
X93576D01*
Y90600D01*
X93523D01*
Y90017D01*
X93470D01*
Y89487D01*
X93417D01*
Y88957D01*
X93364D01*
Y88427D01*
X93311D01*
Y87950D01*
X93258D01*
Y87473D01*
X93205D01*
Y87049D01*
X93152D01*
Y86572D01*
X93099D01*
Y86148D01*
X93046D01*
Y85777D01*
X92993D01*
Y85353D01*
X92940D01*
Y84982D01*
X92887D01*
Y84558D01*
X92834D01*
Y84240D01*
X92781D01*
Y83869D01*
X92728D01*
Y83498D01*
X92675D01*
Y83180D01*
X92622D01*
Y82862D01*
X92569D01*
Y82491D01*
X92516D01*
Y82226D01*
X92463D01*
Y81908D01*
X92410D01*
Y81590D01*
X92357D01*
Y81325D01*
X92304D01*
Y81007D01*
X92251D01*
Y80742D01*
X92198D01*
Y80477D01*
X92145D01*
Y80212D01*
X92092D01*
Y79947D01*
X92039D01*
Y79735D01*
X91986D01*
Y79470D01*
X91933D01*
Y79205D01*
X91880D01*
Y78993D01*
X91827D01*
Y78781D01*
X91774D01*
Y78516D01*
X91721D01*
Y78304D01*
X91668D01*
Y78092D01*
X91615D01*
Y77880D01*
X91562D01*
Y77721D01*
X91509D01*
Y77509D01*
X91456D01*
Y77297D01*
X91403D01*
Y77138D01*
X91350D01*
Y76926D01*
X91297D01*
Y76767D01*
X91244D01*
Y76555D01*
X91191D01*
Y76396D01*
X91138D01*
Y76237D01*
X91085D01*
Y76078D01*
X91032D01*
Y75919D01*
X90979D01*
Y75760D01*
X90926D01*
Y75601D01*
X90873D01*
Y75442D01*
X90820D01*
Y75283D01*
X90767D01*
Y75177D01*
X90714D01*
Y75018D01*
X90661D01*
Y74859D01*
X90608D01*
Y74753D01*
X90555D01*
Y74594D01*
X90502D01*
Y74488D01*
X90449D01*
Y74382D01*
X90396D01*
Y74223D01*
X90343D01*
Y74117D01*
X90290D01*
Y74011D01*
X90237D01*
Y73905D01*
X90184D01*
Y73799D01*
X90131D01*
Y73693D01*
X90078D01*
Y73587D01*
X90025D01*
Y73481D01*
X89972D01*
Y73375D01*
X89919D01*
Y73269D01*
X89866D01*
Y73216D01*
X89813D01*
Y73110D01*
X89760D01*
Y73004D01*
X89707D01*
Y72951D01*
X89654D01*
Y72845D01*
X89601D01*
Y72792D01*
X89548D01*
Y72686D01*
X89495D01*
Y72633D01*
X89442D01*
Y72580D01*
X89389D01*
Y72474D01*
X89336D01*
Y72421D01*
X89283D01*
Y72368D01*
X89230D01*
Y72315D01*
X89177D01*
Y72262D01*
X89124D01*
Y72209D01*
X89071D01*
Y72103D01*
X89018D01*
Y72050D01*
X88912D01*
Y71997D01*
X88859D01*
Y71944D01*
X88806D01*
Y71891D01*
X88753D01*
Y71838D01*
X88700D01*
Y71785D01*
X88647D01*
Y71732D01*
X88541D01*
Y71679D01*
X88488D01*
Y71626D01*
X88382D01*
Y71573D01*
X88329D01*
Y71520D01*
X88223D01*
Y71467D01*
X88117D01*
Y71414D01*
X88011D01*
Y71361D01*
X87852D01*
Y71308D01*
X87693D01*
Y71255D01*
X87481D01*
Y71202D01*
X86686D01*
Y71255D01*
X86474D01*
Y71308D01*
X86315D01*
Y71361D01*
X86209D01*
Y71414D01*
X86103D01*
Y71467D01*
X85997D01*
Y71520D01*
X85891D01*
Y71573D01*
X85838D01*
Y71626D01*
X85785D01*
Y71679D01*
X85679D01*
Y71732D01*
X85626D01*
Y71785D01*
X85520D01*
Y71838D01*
X85467D01*
Y71891D01*
X85361D01*
Y71944D01*
X85308D01*
Y71997D01*
X85255D01*
Y72050D01*
X85149D01*
Y72103D01*
X85096D01*
Y72156D01*
X85043D01*
Y72209D01*
X84990D01*
Y72262D01*
X84884D01*
Y72315D01*
X84831D01*
Y72368D01*
X84778D01*
Y72421D01*
X84725D01*
Y72474D01*
X84672D01*
Y72527D01*
X84619D01*
Y72580D01*
X84566D01*
Y72633D01*
X84513D01*
Y72686D01*
X84407D01*
Y72739D01*
X84354D01*
Y72792D01*
X84301D01*
Y72845D01*
X84248D01*
Y72898D01*
X84195D01*
Y72951D01*
X84142D01*
Y73057D01*
X84089D01*
Y73110D01*
X84036D01*
Y73163D01*
X83983D01*
Y73216D01*
X83930D01*
Y73269D01*
X83877D01*
Y73322D01*
X83824D01*
Y73375D01*
X83771D01*
Y73428D01*
X83718D01*
Y73534D01*
X83665D01*
Y73587D01*
X83612D01*
Y73640D01*
X83559D01*
Y73693D01*
X83506D01*
Y73799D01*
X83453D01*
Y73852D01*
X83400D01*
Y73905D01*
X83347D01*
Y74011D01*
X83294D01*
Y74064D01*
X83241D01*
Y74117D01*
X83188D01*
Y74223D01*
X83135D01*
Y74276D01*
X83082D01*
Y74382D01*
X83029D01*
Y74435D01*
X82976D01*
Y74541D01*
X82923D01*
Y74594D01*
X82870D01*
Y74700D01*
X82817D01*
Y74806D01*
X82764D01*
Y74859D01*
X82711D01*
Y74965D01*
X82658D01*
Y75071D01*
X82605D01*
Y75124D01*
X82552D01*
Y75230D01*
X82499D01*
Y75336D01*
X82446D01*
Y75442D01*
X82393D01*
Y75548D01*
X82340D01*
Y75654D01*
X82287D01*
Y75760D01*
X82234D01*
Y75866D01*
X82181D01*
Y75972D01*
X82128D01*
Y76131D01*
X82075D01*
Y76237D01*
X82022D01*
Y76396D01*
X81969D01*
Y76502D01*
X81916D01*
Y76661D01*
X81863D01*
Y76767D01*
X81810D01*
Y76926D01*
X81757D01*
Y77085D01*
X81704D01*
Y77244D01*
X81651D01*
Y77403D01*
X81598D01*
Y77615D01*
X81545D01*
Y77774D01*
X81492D01*
Y77986D01*
X81439D01*
Y78198D01*
X81386D01*
Y78463D01*
X81333D01*
Y78728D01*
X81280D01*
Y78993D01*
X81227D01*
Y79311D01*
X81174D01*
Y79735D01*
X81121D01*
Y80265D01*
X81068D01*
Y81378D01*
X81015D01*
Y81749D01*
X81068D01*
Y82915D01*
X81121D01*
Y83498D01*
X81174D01*
Y83975D01*
X81227D01*
Y84346D01*
X81280D01*
Y84664D01*
X81333D01*
Y84982D01*
X81386D01*
Y85247D01*
X81439D01*
Y85565D01*
X81492D01*
Y85777D01*
X81545D01*
Y85936D01*
X81598D01*
Y86095D01*
X81651D01*
Y86254D01*
X81704D01*
Y86413D01*
X81757D01*
Y86519D01*
X81810D01*
Y86678D01*
X81863D01*
Y86837D01*
X81916D01*
Y86943D01*
X81969D01*
Y87049D01*
X82022D01*
Y87208D01*
X82075D01*
Y87314D01*
X82128D01*
Y87420D01*
X82181D01*
Y87579D01*
X82234D01*
Y87685D01*
X82287D01*
Y87791D01*
X82340D01*
Y87897D01*
X82393D01*
Y88003D01*
X82446D01*
Y88109D01*
X82499D01*
Y88215D01*
X82552D01*
Y88321D01*
X82605D01*
Y88427D01*
X82658D01*
Y88480D01*
X82711D01*
Y88586D01*
X82764D01*
Y88692D01*
X82817D01*
Y88798D01*
X82870D01*
Y88904D01*
X82923D01*
Y88957D01*
X82976D01*
Y89063D01*
X83029D01*
Y89169D01*
X83082D01*
Y89222D01*
X83135D01*
Y89328D01*
X83188D01*
Y89434D01*
X83241D01*
Y89487D01*
X83294D01*
Y89593D01*
X83347D01*
Y89646D01*
X83400D01*
Y89752D01*
X83453D01*
Y89805D01*
X83506D01*
Y89911D01*
X83559D01*
Y89964D01*
X83612D01*
Y90070D01*
X83665D01*
Y90123D01*
X83718D01*
Y90229D01*
X83771D01*
Y90282D01*
X83824D01*
Y90388D01*
X83877D01*
Y90441D01*
X83930D01*
Y90494D01*
X83983D01*
Y90600D01*
X84036D01*
Y90653D01*
X84089D01*
Y90706D01*
X84142D01*
Y90812D01*
X84195D01*
Y90865D01*
X84248D01*
Y90918D01*
X84301D01*
Y90971D01*
X84354D01*
Y91077D01*
X84407D01*
Y91130D01*
X84460D01*
Y91183D01*
X84513D01*
Y91236D01*
X84566D01*
Y91342D01*
X84619D01*
Y91395D01*
X84672D01*
Y91448D01*
X84725D01*
Y91501D01*
X84778D01*
Y91554D01*
X84831D01*
Y91607D01*
X84884D01*
Y91660D01*
X84937D01*
Y91766D01*
X84990D01*
Y91819D01*
X85043D01*
Y91872D01*
X85096D01*
Y91925D01*
X85149D01*
Y91978D01*
X85202D01*
Y92031D01*
X85255D01*
Y92084D01*
X85308D01*
Y92137D01*
X85361D01*
Y92190D01*
X85414D01*
Y92243D01*
X85467D01*
Y92296D01*
X85520D01*
Y92349D01*
X85573D01*
Y92402D01*
X85626D01*
Y92455D01*
X85679D01*
Y92508D01*
X85732D01*
Y92561D01*
X85785D01*
Y92614D01*
X85838D01*
Y92667D01*
X85891D01*
Y92720D01*
X85944D01*
Y92773D01*
X85997D01*
Y92826D01*
X86103D01*
Y92879D01*
X86156D01*
Y92932D01*
X86209D01*
Y92985D01*
X86262D01*
Y93038D01*
X86315D01*
Y93091D01*
X86368D01*
Y93144D01*
X86474D01*
Y93197D01*
X86527D01*
Y93250D01*
X86580D01*
Y93303D01*
X86633D01*
Y93356D01*
X86686D01*
Y93409D01*
X86792D01*
Y93462D01*
X86845D01*
Y93515D01*
X86898D01*
Y93568D01*
X87004D01*
Y93621D01*
X87057D01*
Y93674D01*
X87110D01*
Y93727D01*
X87216D01*
Y93780D01*
X87269D01*
Y93833D01*
X87322D01*
Y93886D01*
X87428D01*
Y93939D01*
X87481D01*
Y93992D01*
X87587D01*
Y94045D01*
X87640D01*
Y94098D01*
X87746D01*
Y94151D01*
X87799D01*
Y94204D01*
X87905D01*
Y94257D01*
X87958D01*
Y94310D01*
X88064D01*
Y94363D01*
X88117D01*
Y94416D01*
X88223D01*
Y94469D01*
X88329D01*
Y94522D01*
X88382D01*
Y94575D01*
X88488D01*
Y94628D01*
X88594D01*
Y94681D01*
X88700D01*
Y94734D01*
X88806D01*
Y94787D01*
X88859D01*
Y94840D01*
X88965D01*
Y94893D01*
X89071D01*
Y94946D01*
X89177D01*
Y94999D01*
X89283D01*
Y95052D01*
X89389D01*
Y95105D01*
X89548D01*
Y95158D01*
X89654D01*
Y95211D01*
X89760D01*
Y95264D01*
X89866D01*
Y95317D01*
X90025D01*
Y95370D01*
X90131D01*
Y95423D01*
X90237D01*
Y95476D01*
X90396D01*
Y95529D01*
X90555D01*
Y95582D01*
X90661D01*
Y95635D01*
X90820D01*
Y95688D01*
X90979D01*
Y95741D01*
X91138D01*
Y95794D01*
X91297D01*
Y95847D01*
X91456D01*
Y95900D01*
X91668D01*
Y95953D01*
X91827D01*
Y96006D01*
X92039D01*
Y96059D01*
X92251D01*
Y96112D01*
X92463D01*
Y96165D01*
X92728D01*
Y96218D01*
X92993D01*
Y96271D01*
X93258D01*
Y96324D01*
X93576D01*
Y96377D01*
X93947D01*
Y95794D01*
D02*
G37*
G36*
X96332Y94681D02*
X96491D01*
Y94628D01*
X96597D01*
Y94575D01*
X96650D01*
Y94522D01*
X96703D01*
Y94469D01*
X96809D01*
Y94363D01*
X96862D01*
Y94310D01*
X96915D01*
Y94257D01*
X96968D01*
Y94151D01*
X97021D01*
Y94045D01*
X97074D01*
Y93886D01*
X97127D01*
Y93727D01*
X97180D01*
Y93197D01*
X97233D01*
Y92190D01*
X97286D01*
Y91236D01*
X97339D01*
Y90335D01*
X97392D01*
Y89487D01*
X97445D01*
Y88692D01*
X97498D01*
Y87897D01*
X97551D01*
Y87208D01*
X97604D01*
Y86519D01*
X97657D01*
Y85830D01*
X97710D01*
Y85194D01*
X97763D01*
Y84558D01*
X97816D01*
Y83975D01*
X97869D01*
Y83445D01*
X97922D01*
Y82862D01*
X97975D01*
Y82332D01*
X98028D01*
Y81855D01*
X98081D01*
Y81325D01*
X98134D01*
Y80848D01*
X98187D01*
Y80424D01*
X98240D01*
Y79947D01*
X98293D01*
Y79523D01*
X98346D01*
Y79099D01*
X98399D01*
Y78675D01*
X98452D01*
Y78304D01*
X98505D01*
Y77880D01*
X98558D01*
Y77509D01*
X98611D01*
Y77191D01*
X98664D01*
Y76820D01*
X98717D01*
Y76449D01*
X98770D01*
Y76131D01*
X98823D01*
Y75813D01*
X98876D01*
Y75495D01*
X98929D01*
Y75177D01*
X98982D01*
Y74859D01*
X99035D01*
Y74594D01*
X99088D01*
Y74329D01*
X99141D01*
Y74011D01*
X99194D01*
Y73746D01*
X99247D01*
Y73481D01*
X99300D01*
Y73216D01*
X99353D01*
Y73004D01*
X99406D01*
Y72739D01*
X99459D01*
Y72527D01*
X99512D01*
Y72262D01*
X99565D01*
Y72050D01*
X99618D01*
Y71838D01*
X99671D01*
Y71626D01*
X99724D01*
Y71414D01*
X99777D01*
Y71202D01*
X99830D01*
Y71043D01*
X99883D01*
Y70831D01*
X99936D01*
Y70619D01*
X99989D01*
Y70460D01*
X100042D01*
Y70301D01*
X100095D01*
Y70089D01*
X100148D01*
Y69930D01*
X100201D01*
Y69771D01*
X100254D01*
Y69612D01*
X100307D01*
Y69506D01*
X100360D01*
Y69347D01*
X100413D01*
Y69188D01*
X100466D01*
Y69082D01*
X100519D01*
Y68923D01*
X100572D01*
Y68817D01*
X100625D01*
Y68658D01*
X100678D01*
Y68552D01*
X100731D01*
Y68446D01*
X100784D01*
Y68340D01*
X100837D01*
Y68234D01*
X100890D01*
Y68128D01*
X100943D01*
Y68022D01*
X100996D01*
Y67916D01*
X101049D01*
Y67863D01*
X101102D01*
Y67757D01*
X101155D01*
Y67704D01*
X101208D01*
Y67598D01*
X101261D01*
Y67386D01*
X101208D01*
Y67280D01*
X101102D01*
Y67227D01*
X100996D01*
Y67174D01*
X100837D01*
Y67121D01*
X100731D01*
Y67068D01*
X100572D01*
Y67015D01*
X100466D01*
Y66962D01*
X100307D01*
Y66909D01*
X100148D01*
Y66856D01*
X99989D01*
Y66803D01*
X99830D01*
Y66750D01*
X99671D01*
Y66697D01*
X99512D01*
Y66644D01*
X99300D01*
Y66591D01*
X99088D01*
Y66538D01*
X98876D01*
Y66485D01*
X98664D01*
Y66432D01*
X98346D01*
Y66379D01*
X98028D01*
Y66326D01*
X97604D01*
Y66273D01*
X94636D01*
Y66326D01*
X94212D01*
Y66379D01*
X93841D01*
Y66432D01*
X93576D01*
Y66485D01*
X93364D01*
Y66538D01*
X93152D01*
Y66591D01*
X92940D01*
Y66644D01*
X92728D01*
Y66697D01*
X92569D01*
Y66750D01*
X92410D01*
Y66803D01*
X92251D01*
Y66856D01*
X92092D01*
Y66909D01*
X91933D01*
Y66962D01*
X91774D01*
Y67015D01*
X91668D01*
Y67068D01*
X91509D01*
Y67121D01*
X91350D01*
Y67174D01*
X91244D01*
Y67227D01*
X91138D01*
Y67280D01*
X91032D01*
Y67386D01*
X90979D01*
Y67598D01*
X91032D01*
Y67704D01*
X91085D01*
Y67757D01*
X91138D01*
Y67863D01*
X91191D01*
Y67969D01*
X91244D01*
Y68022D01*
X91297D01*
Y68128D01*
X91350D01*
Y68234D01*
X91403D01*
Y68340D01*
X91456D01*
Y68446D01*
X91509D01*
Y68552D01*
X91562D01*
Y68711D01*
X91615D01*
Y68817D01*
X91668D01*
Y68923D01*
X91721D01*
Y69082D01*
X91774D01*
Y69188D01*
X91827D01*
Y69347D01*
X91880D01*
Y69506D01*
X91933D01*
Y69665D01*
X91986D01*
Y69824D01*
X92039D01*
Y69983D01*
X92092D01*
Y70142D01*
X92145D01*
Y70301D01*
X92198D01*
Y70460D01*
X92251D01*
Y70672D01*
X92304D01*
Y70831D01*
X92357D01*
Y71043D01*
X92410D01*
Y71255D01*
X92463D01*
Y71414D01*
X92516D01*
Y71626D01*
X92569D01*
Y71838D01*
X92622D01*
Y72103D01*
X92675D01*
Y72315D01*
X92728D01*
Y72527D01*
X92781D01*
Y72792D01*
X92834D01*
Y73004D01*
X92887D01*
Y73269D01*
X92940D01*
Y73534D01*
X92993D01*
Y73799D01*
X93046D01*
Y74064D01*
X93099D01*
Y74329D01*
X93152D01*
Y74647D01*
X93205D01*
Y74912D01*
X93258D01*
Y75230D01*
X93311D01*
Y75548D01*
X93364D01*
Y75866D01*
X93417D01*
Y76184D01*
X93470D01*
Y76502D01*
X93523D01*
Y76873D01*
X93576D01*
Y77191D01*
X93629D01*
Y77562D01*
X93682D01*
Y77933D01*
X93735D01*
Y78357D01*
X93788D01*
Y78728D01*
X93841D01*
Y79152D01*
X93894D01*
Y79576D01*
X93947D01*
Y80000D01*
X94000D01*
Y80477D01*
X94053D01*
Y80901D01*
X94106D01*
Y81378D01*
X94159D01*
Y81908D01*
X94212D01*
Y82385D01*
X94265D01*
Y82915D01*
X94318D01*
Y83498D01*
X94371D01*
Y84028D01*
X94424D01*
Y84558D01*
Y84611D01*
Y84664D01*
X94477D01*
Y85247D01*
X94530D01*
Y85883D01*
X94583D01*
Y86572D01*
X94636D01*
Y87261D01*
X94689D01*
Y88003D01*
X94742D01*
Y88745D01*
X94795D01*
Y89593D01*
X94848D01*
Y90441D01*
X94901D01*
Y91342D01*
X94954D01*
Y92296D01*
X95007D01*
Y93303D01*
X95060D01*
Y93727D01*
X95113D01*
Y93939D01*
X95166D01*
Y94045D01*
X95219D01*
Y94151D01*
X95272D01*
Y94257D01*
X95325D01*
Y94310D01*
X95378D01*
Y94416D01*
X95431D01*
Y94469D01*
X95484D01*
Y94522D01*
X95590D01*
Y94575D01*
X95643D01*
Y94628D01*
X95749D01*
Y94681D01*
X95908D01*
Y94734D01*
X96332D01*
Y94681D01*
D02*
G37*
G36*
X98611Y59012D02*
X98717D01*
Y58959D01*
X98770D01*
Y58906D01*
X98823D01*
Y58853D01*
X98876D01*
Y58694D01*
X98929D01*
Y56627D01*
X98876D01*
Y56574D01*
X98823D01*
Y56521D01*
X98770D01*
Y56468D01*
X98558D01*
Y56521D01*
X98452D01*
Y56574D01*
X98399D01*
Y58217D01*
X98346D01*
Y58323D01*
X98293D01*
Y58270D01*
X98240D01*
Y58217D01*
X98187D01*
Y58164D01*
X98134D01*
Y58058D01*
X98081D01*
Y58005D01*
X98028D01*
Y57952D01*
X97975D01*
Y57899D01*
X97922D01*
Y57846D01*
X97869D01*
Y57793D01*
X97816D01*
Y57740D01*
X97763D01*
Y57634D01*
X97710D01*
Y57581D01*
X97657D01*
Y57528D01*
X97604D01*
Y57475D01*
X97551D01*
Y57422D01*
X97498D01*
Y57369D01*
X97445D01*
Y57316D01*
X97392D01*
Y57263D01*
X97339D01*
Y57157D01*
X97286D01*
Y57104D01*
X97233D01*
Y57051D01*
X97180D01*
Y56998D01*
X97127D01*
Y56945D01*
X97074D01*
Y56892D01*
X97021D01*
Y56839D01*
X96968D01*
Y56733D01*
X96915D01*
Y56680D01*
X96862D01*
Y56627D01*
X96809D01*
Y56574D01*
X96703D01*
Y56521D01*
X96597D01*
Y56468D01*
X96279D01*
Y56521D01*
X96120D01*
Y56574D01*
X96067D01*
Y56627D01*
X96014D01*
Y56680D01*
X95961D01*
Y56733D01*
X95908D01*
Y56786D01*
X95855D01*
Y56839D01*
X95802D01*
Y56892D01*
X95749D01*
Y56945D01*
X95696D01*
Y56998D01*
X95643D01*
Y57104D01*
X95590D01*
Y57157D01*
X95537D01*
Y57210D01*
X95484D01*
Y57263D01*
X95431D01*
Y57316D01*
X95378D01*
Y57369D01*
X95325D01*
Y57422D01*
X95272D01*
Y57475D01*
X95219D01*
Y57581D01*
X95166D01*
Y57634D01*
X95113D01*
Y57687D01*
X95060D01*
Y57740D01*
X95007D01*
Y57793D01*
X94954D01*
Y57846D01*
X94901D01*
Y57899D01*
X94848D01*
Y58005D01*
X94795D01*
Y58058D01*
X94742D01*
Y58111D01*
X94689D01*
Y58164D01*
X94636D01*
Y58217D01*
X94583D01*
Y58270D01*
X94530D01*
Y58323D01*
X94477D01*
Y56680D01*
X94424D01*
Y56574D01*
X94371D01*
Y56521D01*
X94265D01*
Y56468D01*
X94106D01*
Y56521D01*
X94000D01*
Y56574D01*
X93947D01*
Y56680D01*
X93894D01*
Y58641D01*
X93947D01*
Y58800D01*
X94000D01*
Y58906D01*
X94053D01*
Y58959D01*
X94106D01*
Y59012D01*
X94212D01*
Y59065D01*
X94583D01*
Y59012D01*
X94689D01*
Y58959D01*
X94742D01*
Y58906D01*
X94795D01*
Y58853D01*
X94848D01*
Y58800D01*
X94901D01*
Y58747D01*
X94954D01*
Y58694D01*
X95007D01*
Y58641D01*
X95060D01*
Y58588D01*
X95113D01*
Y58535D01*
X95166D01*
Y58482D01*
X95219D01*
Y58376D01*
X95272D01*
Y58323D01*
X95325D01*
Y58270D01*
X95378D01*
Y58217D01*
X95431D01*
Y58164D01*
X95484D01*
Y58111D01*
X95537D01*
Y58058D01*
X95590D01*
Y57952D01*
X95643D01*
Y57899D01*
X95696D01*
Y57846D01*
X95749D01*
Y57793D01*
X95802D01*
Y57740D01*
X95855D01*
Y57687D01*
X95908D01*
Y57634D01*
X95961D01*
Y57528D01*
X96014D01*
Y57475D01*
X96067D01*
Y57422D01*
X96120D01*
Y57369D01*
X96173D01*
Y57316D01*
X96226D01*
Y57263D01*
X96279D01*
Y57210D01*
X96332D01*
Y57157D01*
X96491D01*
Y57210D01*
X96544D01*
Y57263D01*
X96597D01*
Y57316D01*
X96650D01*
Y57369D01*
X96703D01*
Y57422D01*
X96756D01*
Y57475D01*
X96809D01*
Y57528D01*
X96862D01*
Y57581D01*
X96915D01*
Y57634D01*
X96968D01*
Y57740D01*
X97021D01*
Y57793D01*
X97074D01*
Y57846D01*
X97127D01*
Y57899D01*
X97180D01*
Y57952D01*
X97233D01*
Y58005D01*
X97286D01*
Y58058D01*
X97339D01*
Y58164D01*
X97392D01*
Y58217D01*
X97445D01*
Y58270D01*
X97498D01*
Y58323D01*
X97551D01*
Y58376D01*
X97604D01*
Y58429D01*
X97657D01*
Y58482D01*
X97710D01*
Y58588D01*
X97763D01*
Y58641D01*
X97816D01*
Y58694D01*
X97869D01*
Y58747D01*
X97922D01*
Y58800D01*
X97975D01*
Y58853D01*
X98028D01*
Y58906D01*
X98081D01*
Y58959D01*
X98134D01*
Y59012D01*
X98240D01*
Y59065D01*
X98611D01*
Y59012D01*
D02*
G37*
G36*
X92940D02*
X93046D01*
Y58959D01*
X93152D01*
Y58853D01*
X93205D01*
Y58800D01*
X93258D01*
Y58588D01*
X93311D01*
Y56680D01*
X93258D01*
Y56574D01*
X93205D01*
Y56521D01*
X93099D01*
Y56468D01*
X92887D01*
Y56521D01*
X92834D01*
Y56574D01*
X92781D01*
Y56627D01*
X92728D01*
Y58323D01*
X92675D01*
Y58270D01*
X92622D01*
Y58217D01*
X92569D01*
Y58164D01*
X92516D01*
Y58111D01*
X92463D01*
Y58058D01*
X92410D01*
Y58005D01*
X92357D01*
Y57952D01*
X92304D01*
Y57899D01*
Y57846D01*
X92251D01*
Y57793D01*
X92198D01*
Y57740D01*
X92145D01*
Y57687D01*
X92092D01*
Y57634D01*
X92039D01*
Y57581D01*
X91986D01*
Y57528D01*
X91933D01*
Y57422D01*
X91880D01*
Y57369D01*
X91827D01*
Y57316D01*
X91774D01*
Y57263D01*
X91721D01*
Y57210D01*
X91668D01*
Y57157D01*
X91615D01*
Y57104D01*
X91562D01*
Y57051D01*
X91509D01*
Y56945D01*
X91456D01*
Y56892D01*
X91403D01*
Y56839D01*
X91350D01*
Y56786D01*
X91297D01*
Y56733D01*
X91244D01*
Y56680D01*
X91191D01*
Y56627D01*
X91138D01*
Y56574D01*
X91085D01*
Y56521D01*
X90926D01*
Y56468D01*
X90608D01*
Y56521D01*
X90449D01*
Y56574D01*
X90396D01*
Y56627D01*
X90343D01*
Y56680D01*
X90290D01*
Y56733D01*
X90237D01*
Y56786D01*
X90184D01*
Y56892D01*
X90131D01*
Y56945D01*
X90078D01*
Y56998D01*
X90025D01*
Y57051D01*
X89972D01*
Y57104D01*
X89919D01*
Y57157D01*
X89866D01*
Y57210D01*
X89813D01*
Y57316D01*
X89760D01*
Y57369D01*
X89707D01*
Y57422D01*
X89654D01*
Y57475D01*
X89601D01*
Y57528D01*
X89548D01*
Y57581D01*
X89495D01*
Y57634D01*
X89442D01*
Y57687D01*
X89389D01*
Y57793D01*
X89336D01*
Y57846D01*
X89283D01*
Y57899D01*
X89230D01*
Y57952D01*
X89177D01*
Y58005D01*
X89124D01*
Y58058D01*
X89071D01*
Y58111D01*
X89018D01*
Y58217D01*
X88965D01*
Y58270D01*
X88912D01*
Y58323D01*
X88859D01*
Y58270D01*
X88806D01*
Y56627D01*
X88753D01*
Y56521D01*
X88647D01*
Y56468D01*
X88435D01*
Y56521D01*
X88382D01*
Y56574D01*
X88329D01*
Y56627D01*
X88276D01*
Y58747D01*
X88329D01*
Y58853D01*
X88382D01*
Y58906D01*
X88435D01*
Y58959D01*
X88488D01*
Y59012D01*
X88594D01*
Y59065D01*
X88912D01*
Y59012D01*
X89018D01*
Y58959D01*
X89124D01*
Y58906D01*
X89177D01*
Y58853D01*
X89230D01*
Y58800D01*
X89283D01*
Y58747D01*
X89336D01*
Y58694D01*
X89389D01*
Y58588D01*
X89442D01*
Y58535D01*
X89495D01*
Y58482D01*
X89548D01*
Y58429D01*
X89601D01*
Y58376D01*
X89654D01*
Y58323D01*
X89707D01*
Y58270D01*
X89760D01*
Y58164D01*
X89813D01*
Y58111D01*
X89866D01*
Y58058D01*
X89919D01*
Y58005D01*
X89972D01*
Y57952D01*
X90025D01*
Y57899D01*
X90078D01*
Y57846D01*
X90131D01*
Y57740D01*
X90184D01*
Y57687D01*
X90237D01*
Y57634D01*
X90290D01*
Y57581D01*
X90343D01*
Y57528D01*
X90396D01*
Y57475D01*
X90449D01*
Y57422D01*
X90502D01*
Y57369D01*
X90555D01*
Y57263D01*
X90608D01*
Y57210D01*
X90714D01*
Y57157D01*
X90873D01*
Y57210D01*
X90926D01*
Y57263D01*
X90979D01*
Y57316D01*
X91032D01*
Y57369D01*
X91085D01*
Y57422D01*
X91138D01*
Y57475D01*
X91191D01*
Y57581D01*
X91244D01*
Y57634D01*
X91297D01*
Y57687D01*
X91350D01*
Y57740D01*
X91403D01*
Y57793D01*
X91456D01*
Y57846D01*
X91509D01*
Y57899D01*
X91562D01*
Y58005D01*
X91615D01*
Y58058D01*
X91668D01*
Y58111D01*
X91721D01*
Y58164D01*
X91774D01*
Y58217D01*
X91827D01*
Y58270D01*
X91880D01*
Y58323D01*
X91933D01*
Y58429D01*
X91986D01*
Y58482D01*
X92039D01*
Y58535D01*
X92092D01*
Y58588D01*
X92145D01*
Y58641D01*
X92198D01*
Y58694D01*
X92251D01*
Y58747D01*
X92304D01*
Y58853D01*
X92357D01*
Y58906D01*
X92410D01*
Y58959D01*
X92516D01*
Y59012D01*
X92622D01*
Y59065D01*
X92940D01*
Y59012D01*
D02*
G37*
G36*
X113663D02*
X113822D01*
Y58959D01*
X113928D01*
Y58906D01*
X114034D01*
Y58853D01*
X114087D01*
Y58800D01*
X114140D01*
Y58747D01*
X114193D01*
Y58694D01*
X114246D01*
Y58641D01*
X114299D01*
Y58535D01*
X114352D01*
Y58482D01*
X114405D01*
Y58376D01*
X114458D01*
Y58217D01*
X114511D01*
Y57952D01*
X114564D01*
Y57581D01*
X114511D01*
Y57316D01*
X114458D01*
Y57210D01*
X114405D01*
Y57051D01*
X114352D01*
Y56998D01*
X114299D01*
Y56892D01*
X114246D01*
Y56839D01*
X114193D01*
Y56786D01*
X114140D01*
Y56733D01*
X114087D01*
Y56680D01*
X114034D01*
Y56627D01*
X113928D01*
Y56574D01*
X113822D01*
Y56521D01*
X113663D01*
Y56468D01*
X109847D01*
Y56521D01*
X109794D01*
Y56574D01*
X109741D01*
Y56680D01*
X109688D01*
Y57846D01*
X109741D01*
Y57952D01*
X109794D01*
Y58005D01*
X109847D01*
Y58058D01*
X110059D01*
Y58005D01*
X110165D01*
Y57952D01*
X110218D01*
Y57846D01*
X110271D01*
Y57051D01*
X113610D01*
Y57104D01*
X113716D01*
Y57157D01*
X113769D01*
Y57210D01*
X113822D01*
Y57263D01*
X113875D01*
Y57316D01*
X113928D01*
Y57422D01*
X113981D01*
Y57634D01*
X114034D01*
Y57899D01*
X113981D01*
Y58111D01*
X113928D01*
Y58217D01*
X113875D01*
Y58270D01*
X113822D01*
Y58323D01*
X113769D01*
Y58376D01*
X113716D01*
Y58429D01*
X113610D01*
Y58482D01*
X113398D01*
Y58535D01*
X109794D01*
Y58588D01*
X109741D01*
Y58694D01*
X109688D01*
Y58906D01*
X109741D01*
Y58959D01*
X109794D01*
Y59012D01*
X109847D01*
Y59065D01*
X113663D01*
Y59012D01*
D02*
G37*
G36*
X108469D02*
X108628D01*
Y58959D01*
X108734D01*
Y58906D01*
X108787D01*
Y58853D01*
X108840D01*
Y58800D01*
X108893D01*
Y58747D01*
X108946D01*
Y58694D01*
X108999D01*
Y58588D01*
X109052D01*
Y58005D01*
X108999D01*
Y57899D01*
X108946D01*
Y57793D01*
X108893D01*
Y57740D01*
X108840D01*
Y57687D01*
X108787D01*
Y57634D01*
X108681D01*
Y57581D01*
X108575D01*
Y57528D01*
X108363D01*
Y57475D01*
X108310D01*
Y57422D01*
X108363D01*
Y57369D01*
X108469D01*
Y57316D01*
X108522D01*
Y57263D01*
X108628D01*
Y57210D01*
X108681D01*
Y57157D01*
X108787D01*
Y57104D01*
X108840D01*
Y57051D01*
X108893D01*
Y56998D01*
X108946D01*
Y56945D01*
X108999D01*
Y56892D01*
X109052D01*
Y56574D01*
X108999D01*
Y56521D01*
X108893D01*
Y56468D01*
X108734D01*
Y56521D01*
X108628D01*
Y56574D01*
X108522D01*
Y56627D01*
X108469D01*
Y56680D01*
X108416D01*
Y56733D01*
X108310D01*
Y56786D01*
X108257D01*
Y56839D01*
X108151D01*
Y56892D01*
X108098D01*
Y56945D01*
X107992D01*
Y56998D01*
X107886D01*
Y57051D01*
X107833D01*
Y57104D01*
X107727D01*
Y57157D01*
X107621D01*
Y57210D01*
X107515D01*
Y57263D01*
X107356D01*
Y57316D01*
X107250D01*
Y57369D01*
X107038D01*
Y57422D01*
X106826D01*
Y57475D01*
X105077D01*
Y57422D01*
X105024D01*
Y57369D01*
X104971D01*
Y56627D01*
X104918D01*
Y56574D01*
X104865D01*
Y56521D01*
X104812D01*
Y56468D01*
X104600D01*
Y56521D01*
X104494D01*
Y56627D01*
X104441D01*
Y57581D01*
X104494D01*
Y57687D01*
X104547D01*
Y57793D01*
X104600D01*
Y57846D01*
X104653D01*
Y57899D01*
X104706D01*
Y57952D01*
X104812D01*
Y58005D01*
X104971D01*
Y58058D01*
X108416D01*
Y58111D01*
X108469D01*
Y58164D01*
X108522D01*
Y58429D01*
X108469D01*
Y58482D01*
X108363D01*
Y58535D01*
X104547D01*
Y58588D01*
X104494D01*
Y58641D01*
X104441D01*
Y58959D01*
X104494D01*
Y59012D01*
X104600D01*
Y59065D01*
X108469D01*
Y59012D01*
D02*
G37*
G36*
X101950Y59118D02*
X102056D01*
Y59065D01*
X102109D01*
Y59012D01*
X102215D01*
Y58959D01*
X102268D01*
Y58853D01*
X102321D01*
Y58800D01*
X102374D01*
Y58747D01*
X102427D01*
Y58641D01*
X102480D01*
Y58588D01*
X102533D01*
Y58535D01*
X102586D01*
Y58429D01*
X102639D01*
Y58376D01*
X102692D01*
Y58323D01*
X102745D01*
Y58217D01*
X102798D01*
Y58164D01*
X102851D01*
Y58111D01*
X102904D01*
Y58005D01*
X102957D01*
Y57952D01*
X103010D01*
Y57899D01*
X103063D01*
Y57793D01*
X103116D01*
Y57740D01*
X103169D01*
Y57687D01*
X103222D01*
Y57581D01*
X103275D01*
Y57528D01*
X103328D01*
Y57475D01*
X103381D01*
Y57369D01*
X103434D01*
Y57316D01*
X103487D01*
Y57263D01*
X103540D01*
Y57157D01*
X103593D01*
Y57104D01*
X103646D01*
Y57051D01*
X103699D01*
Y56945D01*
X103752D01*
Y56892D01*
X103805D01*
Y56627D01*
X103752D01*
Y56574D01*
X103699D01*
Y56521D01*
X103646D01*
Y56468D01*
X103434D01*
Y56521D01*
X103328D01*
Y56574D01*
X103275D01*
Y56680D01*
X103222D01*
Y56733D01*
X103169D01*
Y56786D01*
X103116D01*
Y56892D01*
X103063D01*
Y56945D01*
X103010D01*
Y57051D01*
X102957D01*
Y57104D01*
X102904D01*
Y57157D01*
X102851D01*
Y57263D01*
X102798D01*
Y57316D01*
X102745D01*
Y57369D01*
X102692D01*
Y57475D01*
X102639D01*
Y57528D01*
X102586D01*
Y57581D01*
X102533D01*
Y57687D01*
X102480D01*
Y57740D01*
X102427D01*
Y57793D01*
X102374D01*
Y57899D01*
X102321D01*
Y57952D01*
X102268D01*
Y58005D01*
X102215D01*
Y58111D01*
X102162D01*
Y58164D01*
X102109D01*
Y58217D01*
X102056D01*
Y58323D01*
X102003D01*
Y58376D01*
X101950D01*
Y58429D01*
X101897D01*
Y58482D01*
X101844D01*
Y58535D01*
X101791D01*
Y58588D01*
X101579D01*
Y58535D01*
X101526D01*
Y58482D01*
X101473D01*
Y58429D01*
X101420D01*
Y58376D01*
X101367D01*
Y58323D01*
X101314D01*
Y58217D01*
X101261D01*
Y58164D01*
X101208D01*
Y58111D01*
X101155D01*
Y58005D01*
X101102D01*
Y57952D01*
X101049D01*
Y57899D01*
X100996D01*
Y57793D01*
X100943D01*
Y57740D01*
X100890D01*
Y57687D01*
X100837D01*
Y57581D01*
X100784D01*
Y57528D01*
X100731D01*
Y57475D01*
X100678D01*
Y57369D01*
X100625D01*
Y57316D01*
X100572D01*
Y57263D01*
X100519D01*
Y57157D01*
X100466D01*
Y57104D01*
X100413D01*
Y57051D01*
X100360D01*
Y56945D01*
X100307D01*
Y56892D01*
X100254D01*
Y56839D01*
X100201D01*
Y56733D01*
X100148D01*
Y56680D01*
X100095D01*
Y56627D01*
X100042D01*
Y56574D01*
X99989D01*
Y56521D01*
X99936D01*
Y56468D01*
X99724D01*
Y56521D01*
X99618D01*
Y56627D01*
X99565D01*
Y56892D01*
X99618D01*
Y56998D01*
X99671D01*
Y57051D01*
X99724D01*
Y57104D01*
X99777D01*
Y57210D01*
X99830D01*
Y57263D01*
X99883D01*
Y57316D01*
X99936D01*
Y57422D01*
X99989D01*
Y57475D01*
X100042D01*
Y57528D01*
X100095D01*
Y57634D01*
X100148D01*
Y57687D01*
X100201D01*
Y57740D01*
X100254D01*
Y57846D01*
X100307D01*
Y57899D01*
X100360D01*
Y57952D01*
X100413D01*
Y58058D01*
X100466D01*
Y58111D01*
X100519D01*
Y58164D01*
X100572D01*
Y58270D01*
X100625D01*
Y58323D01*
X100678D01*
Y58376D01*
X100731D01*
Y58482D01*
X100784D01*
Y58535D01*
X100837D01*
Y58641D01*
X100890D01*
Y58694D01*
X100943D01*
Y58747D01*
X100996D01*
Y58853D01*
X101049D01*
Y58906D01*
X101102D01*
Y58959D01*
X101155D01*
Y59012D01*
X101208D01*
Y59065D01*
X101314D01*
Y59118D01*
X101420D01*
Y59171D01*
X101950D01*
Y59118D01*
D02*
G37*
G36*
X85785D02*
X85891D01*
Y59065D01*
X85997D01*
Y59012D01*
X86050D01*
Y58959D01*
X86103D01*
Y58853D01*
X86156D01*
Y58800D01*
X86209D01*
Y58747D01*
X86262D01*
Y58641D01*
X86315D01*
Y58588D01*
X86368D01*
Y58535D01*
X86421D01*
Y58429D01*
X86474D01*
Y58376D01*
X86527D01*
Y58323D01*
X86580D01*
Y58217D01*
X86633D01*
Y58164D01*
X86686D01*
Y58111D01*
X86739D01*
Y58005D01*
X86792D01*
Y57952D01*
X86845D01*
Y57899D01*
X86898D01*
Y57793D01*
X86951D01*
Y57740D01*
X87004D01*
Y57687D01*
X87057D01*
Y57581D01*
X87110D01*
Y57528D01*
X87163D01*
Y57475D01*
X87216D01*
Y57369D01*
X87269D01*
Y57316D01*
X87322D01*
Y57263D01*
X87375D01*
Y57157D01*
X87428D01*
Y57104D01*
X87481D01*
Y57051D01*
X87534D01*
Y56945D01*
X87587D01*
Y56892D01*
X87640D01*
Y56627D01*
X87587D01*
Y56574D01*
X87534D01*
Y56521D01*
X87481D01*
Y56468D01*
X87269D01*
Y56521D01*
X87163D01*
Y56627D01*
X87110D01*
Y56680D01*
X87057D01*
Y56733D01*
X87004D01*
Y56839D01*
X86951D01*
Y56892D01*
X86898D01*
Y56945D01*
X86845D01*
Y57051D01*
X86792D01*
Y57104D01*
X86739D01*
Y57157D01*
X86686D01*
Y57263D01*
X86633D01*
Y57316D01*
X86580D01*
Y57369D01*
X86527D01*
Y57475D01*
X86474D01*
Y57528D01*
X86421D01*
Y57581D01*
X86368D01*
Y57687D01*
X86315D01*
Y57740D01*
X86262D01*
Y57793D01*
X86209D01*
Y57899D01*
X86156D01*
Y57952D01*
X86103D01*
Y58005D01*
X86050D01*
Y58111D01*
X85997D01*
Y58164D01*
X85944D01*
Y58217D01*
X85891D01*
Y58323D01*
X85838D01*
Y58376D01*
X85785D01*
Y58429D01*
X85732D01*
Y58482D01*
X85679D01*
Y58535D01*
X85626D01*
Y58588D01*
X85414D01*
Y58535D01*
X85361D01*
Y58482D01*
X85308D01*
Y58429D01*
X85255D01*
Y58376D01*
X85202D01*
Y58323D01*
X85149D01*
Y58217D01*
X85096D01*
Y58164D01*
X85043D01*
Y58111D01*
X84990D01*
Y58005D01*
X84937D01*
Y57952D01*
X84884D01*
Y57899D01*
X84831D01*
Y57793D01*
X84778D01*
Y57740D01*
X84725D01*
Y57687D01*
X84672D01*
Y57581D01*
X84619D01*
Y57528D01*
X84566D01*
Y57475D01*
X84513D01*
Y57369D01*
X84460D01*
Y57316D01*
X84407D01*
Y57263D01*
X84354D01*
Y57157D01*
X84301D01*
Y57104D01*
X84248D01*
Y57051D01*
X84195D01*
Y56945D01*
X84142D01*
Y56892D01*
X84089D01*
Y56839D01*
X84036D01*
Y56733D01*
X83983D01*
Y56680D01*
X83930D01*
Y56627D01*
X83877D01*
Y56574D01*
X83824D01*
Y56521D01*
X83771D01*
Y56468D01*
X83559D01*
Y56521D01*
X83506D01*
Y56574D01*
X83453D01*
Y56627D01*
X83400D01*
Y56892D01*
X83453D01*
Y56945D01*
X83506D01*
Y57051D01*
X83559D01*
Y57104D01*
X83612D01*
Y57210D01*
X83665D01*
Y57263D01*
X83718D01*
Y57316D01*
X83771D01*
Y57422D01*
X83824D01*
Y57475D01*
X83877D01*
Y57528D01*
X83930D01*
Y57634D01*
X83983D01*
Y57687D01*
X84036D01*
Y57740D01*
X84089D01*
Y57846D01*
X84142D01*
Y57899D01*
X84195D01*
Y57952D01*
X84248D01*
Y58058D01*
X84301D01*
Y58111D01*
X84354D01*
Y58164D01*
X84407D01*
Y58270D01*
X84460D01*
Y58323D01*
X84513D01*
Y58376D01*
X84566D01*
Y58482D01*
X84619D01*
Y58535D01*
X84672D01*
Y58588D01*
X84725D01*
Y58694D01*
X84778D01*
Y58747D01*
X84831D01*
Y58800D01*
X84884D01*
Y58906D01*
X84937D01*
Y58959D01*
X84990D01*
Y59012D01*
X85043D01*
Y59065D01*
X85149D01*
Y59118D01*
X85255D01*
Y59171D01*
X85785D01*
Y59118D01*
D02*
G37*
G36*
X82446Y59012D02*
X82499D01*
Y58959D01*
X82552D01*
Y58906D01*
Y58853D01*
X82605D01*
Y58694D01*
X82552D01*
Y58588D01*
X82499D01*
Y58535D01*
X78630D01*
Y58482D01*
X78524D01*
Y58429D01*
X78471D01*
Y58323D01*
X78418D01*
Y58217D01*
X78471D01*
Y58111D01*
X78577D01*
Y58058D01*
X82128D01*
Y58005D01*
X82340D01*
Y57952D01*
X82393D01*
Y57899D01*
X82499D01*
Y57846D01*
X82552D01*
Y57793D01*
X82605D01*
Y57687D01*
X82658D01*
Y57634D01*
X82711D01*
Y57475D01*
X82764D01*
Y56998D01*
X82711D01*
Y56892D01*
X82658D01*
Y56786D01*
X82605D01*
Y56733D01*
X82552D01*
Y56680D01*
X82499D01*
Y56627D01*
X82393D01*
Y56574D01*
X82340D01*
Y56521D01*
X82128D01*
Y56468D01*
X78259D01*
Y56521D01*
X78153D01*
Y56574D01*
X78100D01*
Y56892D01*
X78153D01*
Y56945D01*
X78206D01*
Y56998D01*
X78312D01*
Y57051D01*
X82128D01*
Y57104D01*
X82181D01*
Y57157D01*
X82234D01*
Y57369D01*
X82181D01*
Y57422D01*
X82128D01*
Y57475D01*
X78577D01*
Y57528D01*
X78365D01*
Y57581D01*
X78259D01*
Y57634D01*
X78206D01*
Y57687D01*
X78153D01*
Y57740D01*
X78100D01*
Y57793D01*
X78047D01*
Y57846D01*
X77994D01*
Y57952D01*
X77941D01*
Y58164D01*
X77888D01*
Y58429D01*
X77941D01*
Y58588D01*
X77994D01*
Y58694D01*
X78047D01*
Y58747D01*
X78100D01*
Y58853D01*
X78206D01*
Y58906D01*
X78259D01*
Y58959D01*
X78312D01*
Y59012D01*
X78471D01*
Y59065D01*
X82446D01*
Y59012D01*
D02*
G37*
%LPC*%
G36*
X96226Y101836D02*
X96014D01*
Y101783D01*
X95749D01*
Y101730D01*
X95643D01*
Y101677D01*
X95537D01*
Y101624D01*
X95484D01*
Y101571D01*
X95431D01*
Y101518D01*
X95378D01*
Y101465D01*
X95325D01*
Y101412D01*
X95272D01*
Y101359D01*
X95219D01*
Y101253D01*
X95166D01*
Y101094D01*
X95113D01*
Y100882D01*
X95060D01*
Y100670D01*
X95113D01*
Y100458D01*
X95166D01*
Y100352D01*
X95219D01*
Y100246D01*
X95272D01*
Y100140D01*
X95325D01*
Y100087D01*
X95378D01*
Y100034D01*
X95431D01*
Y99981D01*
X95484D01*
Y99928D01*
X95590D01*
Y99875D01*
X95696D01*
Y99822D01*
X95802D01*
Y99769D01*
X96438D01*
Y99822D01*
X96544D01*
Y99875D01*
X96650D01*
Y99928D01*
X96756D01*
Y99981D01*
X96809D01*
Y100034D01*
X96862D01*
Y100087D01*
X96915D01*
Y100140D01*
X96968D01*
Y100246D01*
X97021D01*
Y100352D01*
X97074D01*
Y100458D01*
X97127D01*
Y101094D01*
X97074D01*
Y101200D01*
X97021D01*
Y101306D01*
X96968D01*
Y101412D01*
X96915D01*
Y101465D01*
X96862D01*
Y101518D01*
X96809D01*
Y101571D01*
X96756D01*
Y101624D01*
X96650D01*
Y101677D01*
X96597D01*
Y101730D01*
X96438D01*
Y101783D01*
X96226D01*
Y101836D01*
D02*
G37*
G36*
X104070Y88480D02*
X104017D01*
Y88268D01*
X103964D01*
Y88056D01*
X103911D01*
Y87897D01*
X103858D01*
Y87791D01*
X103805D01*
Y87685D01*
X103752D01*
Y87632D01*
X103699D01*
Y87526D01*
X103646D01*
Y87473D01*
X103593D01*
Y87420D01*
X103540D01*
Y87367D01*
X103487D01*
Y87314D01*
X103381D01*
Y87261D01*
X103328D01*
Y87208D01*
X103222D01*
Y87155D01*
X103116D01*
Y87102D01*
X103010D01*
Y87049D01*
X102851D01*
Y86996D01*
X102639D01*
Y86943D01*
X102533D01*
Y86890D01*
X102798D01*
Y86837D01*
X102957D01*
Y86784D01*
X103116D01*
Y86731D01*
X103222D01*
Y86678D01*
X103275D01*
Y86625D01*
X103381D01*
Y86572D01*
X103434D01*
Y86519D01*
X103487D01*
Y86466D01*
X103540D01*
Y86413D01*
X103593D01*
Y86360D01*
X103646D01*
Y86254D01*
X103699D01*
Y86201D01*
X103752D01*
Y86095D01*
X103805D01*
Y85989D01*
X103858D01*
Y85830D01*
X103911D01*
Y85671D01*
X103964D01*
Y85406D01*
X104017D01*
Y85512D01*
X104070D01*
Y85777D01*
X104123D01*
Y85936D01*
X104176D01*
Y86042D01*
X104229D01*
Y86148D01*
X104282D01*
Y86201D01*
X104335D01*
Y86254D01*
X104388D01*
Y86360D01*
X104441D01*
Y86413D01*
X104494D01*
Y86466D01*
X104600D01*
Y86519D01*
X104653D01*
Y86572D01*
X104706D01*
Y86625D01*
X104812D01*
Y86678D01*
X104918D01*
Y86731D01*
X105024D01*
Y86784D01*
X105183D01*
Y86837D01*
X105395D01*
Y86890D01*
X105607D01*
Y86943D01*
X105289D01*
Y86996D01*
X105077D01*
Y87049D01*
X104971D01*
Y87102D01*
X104865D01*
Y87155D01*
X104759D01*
Y87208D01*
X104706D01*
Y87261D01*
X104653D01*
Y87314D01*
X104600D01*
Y87367D01*
X104547D01*
Y87420D01*
X104494D01*
Y87473D01*
X104441D01*
Y87526D01*
X104388D01*
Y87579D01*
X104335D01*
Y87685D01*
X104282D01*
Y87791D01*
X104229D01*
Y87897D01*
X104176D01*
Y88056D01*
X104123D01*
Y88215D01*
X104070D01*
Y88480D01*
D02*
G37*
G36*
X105925Y77827D02*
X105872D01*
Y77615D01*
X105819D01*
Y77509D01*
X105766D01*
Y77456D01*
X105713D01*
Y77350D01*
X105660D01*
Y77297D01*
X105554D01*
Y77244D01*
X105501D01*
Y77191D01*
X105395D01*
Y77138D01*
X105289D01*
Y77085D01*
X105077D01*
Y77032D01*
X105236D01*
Y76979D01*
X105395D01*
Y76926D01*
X105448D01*
Y76873D01*
X105554D01*
Y76820D01*
X105607D01*
Y76767D01*
X105660D01*
Y76714D01*
X105713D01*
Y76608D01*
X105766D01*
Y76502D01*
X105819D01*
Y76343D01*
X105872D01*
Y76237D01*
X105925D01*
Y76449D01*
X105978D01*
Y76555D01*
X106031D01*
Y76608D01*
X106084D01*
Y76714D01*
X106137D01*
Y76767D01*
X106190D01*
Y76820D01*
X106296D01*
Y76873D01*
X106402D01*
Y76926D01*
X106508D01*
Y76979D01*
X106720D01*
Y77032D01*
X106614D01*
Y77085D01*
X106455D01*
Y77138D01*
X106349D01*
Y77191D01*
X106296D01*
Y77244D01*
X106243D01*
Y77297D01*
X106190D01*
Y77350D01*
X106137D01*
Y77403D01*
X106084D01*
Y77456D01*
X106031D01*
Y77615D01*
X105978D01*
Y77774D01*
X105925D01*
Y77827D01*
D02*
G37*
G36*
X89124Y90388D02*
X89071D01*
Y90282D01*
X89018D01*
Y90123D01*
X88965D01*
Y90017D01*
X88912D01*
Y89911D01*
X88859D01*
Y89858D01*
X88806D01*
Y89805D01*
X88700D01*
Y89752D01*
X88647D01*
Y89699D01*
X88541D01*
Y89646D01*
X88382D01*
Y89593D01*
X88223D01*
Y89540D01*
X88435D01*
Y89487D01*
X88541D01*
Y89434D01*
X88647D01*
Y89381D01*
X88700D01*
Y89328D01*
X88753D01*
Y89275D01*
X88806D01*
Y89222D01*
X88859D01*
Y89169D01*
X88912D01*
Y89063D01*
X88965D01*
Y88957D01*
X89018D01*
Y88745D01*
X89071D01*
Y88904D01*
X89124D01*
Y89010D01*
X89177D01*
Y89116D01*
X89230D01*
Y89169D01*
X89283D01*
Y89275D01*
X89389D01*
Y89328D01*
X89442D01*
Y89381D01*
X89495D01*
Y89434D01*
X89654D01*
Y89487D01*
X89813D01*
Y89540D01*
X89866D01*
Y89593D01*
X89654D01*
Y89646D01*
X89548D01*
Y89699D01*
X89442D01*
Y89752D01*
X89389D01*
Y89805D01*
X89336D01*
Y89858D01*
X89283D01*
Y89911D01*
Y89964D01*
X89230D01*
Y90017D01*
X89177D01*
Y90176D01*
X89124D01*
Y90388D01*
D02*
G37*
G36*
X86792Y82173D02*
X86739D01*
Y82067D01*
X86686D01*
Y81802D01*
X86633D01*
Y81643D01*
X86580D01*
Y81537D01*
X86527D01*
Y81431D01*
X86474D01*
Y81378D01*
X86421D01*
Y81272D01*
X86368D01*
Y81219D01*
X86315D01*
Y81166D01*
X86262D01*
Y81113D01*
X86209D01*
Y81060D01*
X86103D01*
Y81007D01*
X86050D01*
Y80954D01*
X85944D01*
Y80901D01*
X85891D01*
Y80848D01*
X85732D01*
Y80795D01*
X85573D01*
Y80742D01*
X85414D01*
Y80689D01*
X85202D01*
Y80636D01*
X85414D01*
Y80583D01*
X85626D01*
Y80530D01*
X85785D01*
Y80477D01*
X85891D01*
Y80424D01*
X85944D01*
Y80371D01*
X86050D01*
Y80318D01*
X86103D01*
Y80265D01*
X86156D01*
Y80212D01*
X86209D01*
Y80159D01*
X86262D01*
Y80106D01*
X86315D01*
Y80053D01*
X86368D01*
Y80000D01*
X86421D01*
Y79894D01*
X86474D01*
Y79788D01*
X86527D01*
Y79682D01*
X86580D01*
Y79523D01*
X86633D01*
Y79364D01*
X86686D01*
Y79099D01*
X86739D01*
Y79311D01*
X86792D01*
Y79523D01*
X86845D01*
Y79682D01*
X86898D01*
Y79788D01*
X86951D01*
Y79894D01*
X87004D01*
Y79947D01*
X87057D01*
Y80000D01*
X87110D01*
Y80106D01*
X87163D01*
Y80159D01*
X87269D01*
Y80212D01*
X87322D01*
Y80265D01*
X87375D01*
Y80318D01*
X87481D01*
Y80371D01*
X87534D01*
Y80424D01*
X87640D01*
Y80477D01*
X87799D01*
Y80530D01*
X87958D01*
Y80583D01*
X88223D01*
Y80689D01*
X87905D01*
Y80742D01*
X87746D01*
Y80795D01*
X87640D01*
Y80848D01*
X87534D01*
Y80901D01*
X87481D01*
Y80954D01*
X87375D01*
Y81007D01*
X87322D01*
Y81060D01*
X87269D01*
Y81113D01*
X87216D01*
Y81166D01*
X87163D01*
Y81219D01*
X87110D01*
Y81325D01*
X87057D01*
Y81378D01*
X87004D01*
Y81484D01*
X86951D01*
Y81590D01*
X86898D01*
Y81696D01*
X86845D01*
Y81908D01*
X86792D01*
Y82173D01*
D02*
G37*
%LPD*%
D10*
X275100Y254915D02*
G03*
X255415Y274600I-19685J0D01*
G01*
Y-200D02*
G03*
X275100Y19485I0J19685D01*
G01*
X19885Y274600D02*
G03*
X200Y254915I0J-19685D01*
G01*
Y19485D02*
G03*
X19885Y-200I19685J0D01*
G01*
X101543Y274173D02*
G03*
X101543Y274173I-394J0D01*
G01*
X139157Y161500D02*
G03*
X139157Y161500I-394J0D01*
G01*
X36004Y46965D02*
G03*
X36004Y46965I-394J0D01*
G01*
X35902Y87776D02*
G03*
X35902Y87776I-394J0D01*
G01*
X60720Y188642D02*
G03*
X60720Y188642I-394J0D01*
G01*
X194894Y49000D02*
G03*
X194894Y49000I-394J0D01*
G01*
X186394Y273205D02*
G03*
X186394Y273205I-394J0D01*
G01*
X127543Y121906D02*
G03*
X127543Y121906I-394J0D01*
G01*
X115794Y122201D02*
G03*
X115794Y122201I-394J0D01*
G01*
X236394Y176776D02*
G03*
X236394Y176776I-394J0D01*
G01*
X116894Y173500D02*
G03*
X116894Y173500I-394J0D01*
G01*
X117075Y149382D02*
G03*
X117075Y149382I-394J0D01*
G01*
X138347Y146374D02*
G03*
X138347Y146374I-394J0D01*
G01*
X19885Y-200D02*
X255415D01*
X19885Y274600D02*
X255415D01*
X275100Y19485D02*
Y254915D01*
X200Y19485D02*
Y254915D01*
X180461Y89606D02*
Y90394D01*
X175539Y89606D02*
Y90394D01*
X18480Y46528D02*
Y48496D01*
X3520Y46528D02*
Y48496D01*
X158500Y4512D02*
X240500D01*
X158500Y44000D02*
X240500D01*
X158500Y4512D02*
Y44000D01*
X240500Y4512D02*
Y44000D01*
X41665Y26280D02*
X42453D01*
X41665Y31201D02*
X42453D01*
X62539Y40606D02*
Y41394D01*
X67461Y40606D02*
Y41394D01*
X29106Y107461D02*
X29894D01*
X29106Y102539D02*
X29894D01*
X9961Y92606D02*
Y93394D01*
X5039Y92606D02*
Y93394D01*
X72606Y218539D02*
X73394D01*
X72606Y223461D02*
X73394D01*
X72606Y209539D02*
X73394D01*
X72606Y214461D02*
X73394D01*
X72606Y227539D02*
X73394D01*
X72606Y232461D02*
X73394D01*
X72606Y200539D02*
X73394D01*
X72606Y205461D02*
X73394D01*
X72606Y191539D02*
X73394D01*
X72606Y196461D02*
X73394D01*
X146606Y87461D02*
X147394D01*
X146606Y82539D02*
X147394D01*
X164606Y49539D02*
X165394D01*
X164606Y54461D02*
X165394D01*
X181606D02*
X182394D01*
X181606Y49539D02*
X182394D01*
X163819Y85905D02*
X166181D01*
X163819Y74094D02*
X166181D01*
X163819D02*
Y85905D01*
X166181Y74094D02*
Y85905D01*
X163819Y70906D02*
X166181D01*
X163819Y59095D02*
X166181D01*
X163819D02*
Y70906D01*
X166181Y59095D02*
Y70906D01*
X144244Y99756D02*
Y102905D01*
X148181D01*
X144244Y91094D02*
Y94244D01*
Y91094D02*
X148181D01*
X144244Y66756D02*
Y69906D01*
X148181D01*
X144244Y58095D02*
Y61244D01*
Y58095D02*
X148181D01*
X60959Y56440D02*
X61159D01*
X60959Y51040D02*
X61159D01*
X58700Y40900D02*
Y41100D01*
X53300Y40900D02*
Y41100D01*
X10900Y77300D02*
X11100D01*
X10900Y82700D02*
X11100D01*
X13800Y92900D02*
Y93100D01*
X19200Y92900D02*
Y93100D01*
X160900Y145700D02*
X161100D01*
X160900Y140300D02*
X161100D01*
X160900Y161300D02*
X161100D01*
X160900Y166700D02*
X161100D01*
X160900Y154700D02*
X161100D01*
X160900Y149300D02*
X161100D01*
X129900Y87700D02*
X130100D01*
X129900Y82300D02*
X130100D01*
X129900Y96700D02*
X130100D01*
X129900Y91300D02*
X130100D01*
X164900Y99300D02*
X165100D01*
X164900Y104700D02*
X165100D01*
X164900Y90300D02*
X165100D01*
X164900Y95700D02*
X165100D01*
X129900Y78700D02*
X130100D01*
X129900Y73300D02*
X130100D01*
X129900Y69700D02*
X130100D01*
X129900Y64300D02*
X130100D01*
X146900Y73300D02*
X147100D01*
X146900Y78700D02*
X147100D01*
X63701Y247374D02*
Y256626D01*
X68524Y260268D02*
X71476D01*
X76299Y247374D02*
Y256626D01*
X68524Y243732D02*
X71476D01*
X44701Y247374D02*
Y256626D01*
X49524Y260268D02*
X52476D01*
X57299Y247374D02*
Y256626D01*
X49524Y243732D02*
X52476D01*
X160606Y171539D02*
X161394D01*
X160606Y176461D02*
X161394D01*
X52520Y84850D02*
Y91150D01*
X67480Y84850D02*
Y91150D01*
X123606Y50461D02*
X124394D01*
X123606Y45539D02*
X124394D01*
X143606D02*
X144394D01*
X143606Y50461D02*
X144394D01*
X175539Y65606D02*
Y66394D01*
X180461Y65606D02*
Y66394D01*
X201842Y210157D02*
Y229842D01*
X182158Y210157D02*
Y229842D01*
X182354D01*
X182158Y210157D02*
X182354D01*
X201646D02*
X201842D01*
X201646Y229842D02*
X201842D01*
X188850D02*
X195150D01*
X188850Y210157D02*
X195150D01*
X60602Y65201D02*
X61390D01*
X60602Y60280D02*
X61390D01*
X10606Y68539D02*
X11394D01*
X10606Y73461D02*
X11394D01*
X117008Y14279D02*
Y19201D01*
Y-189D02*
Y2665D01*
Y-189D02*
X152992D01*
Y14279D02*
Y19201D01*
Y-189D02*
Y2665D01*
D11*
X182000Y97500D02*
G03*
X181000Y98500I-1000J0D01*
G01*
X174500D02*
G03*
X174000Y98000I0J-500D01*
G01*
X168500Y170000D02*
G03*
X169500Y171000I0J1000D01*
G01*
Y177500D02*
G03*
X169000Y178000I-500J0D01*
G01*
X132500Y51500D02*
G03*
X132000Y52000I-500J0D01*
G01*
X131500Y44000D02*
G03*
X132500Y45000I0J1000D01*
G01*
X135500Y44500D02*
G03*
X136000Y44000I500J0D01*
G01*
X136500Y52000D02*
G03*
X135500Y51000I0J-1000D01*
G01*
X174500Y74500D02*
G03*
X174000Y74000I0J-500D01*
G01*
X182000Y73500D02*
G03*
X181000Y74500I-1000J0D01*
G01*
X53496Y66740D02*
G03*
X52496Y65740I0J-1000D01*
G01*
Y59240D02*
G03*
X52996Y58740I500J0D01*
G01*
X18500Y67000D02*
G03*
X19500Y68000I0J1000D01*
G01*
Y74500D02*
G03*
X19000Y75000I-500J0D01*
G01*
X249882Y145591D02*
X251772D01*
X258228D02*
X260118D01*
X248382Y195091D02*
X258618D01*
X174500Y98500D02*
X181000D01*
X174000Y97500D02*
Y98000D01*
X182000Y82500D02*
Y97500D01*
X174000D02*
X182000D01*
X174000Y82500D02*
X182000D01*
X174000D02*
Y97500D01*
X217236Y210307D02*
Y223693D01*
X246764Y210307D02*
Y223693D01*
X225307Y202236D02*
X238693D01*
X225307Y231764D02*
X238693D01*
X34559Y32740D02*
X49559D01*
Y24740D02*
Y32740D01*
X34559Y24740D02*
X49559D01*
X34559D02*
Y32740D01*
X69000Y33500D02*
Y48500D01*
X61000Y33500D02*
X69000D01*
X61000D02*
Y48500D01*
X69000D01*
X22000Y101000D02*
X37000D01*
X22000D02*
Y109000D01*
X37000D01*
Y101000D02*
Y109000D01*
X3500Y85500D02*
Y100500D01*
X11500D01*
Y85500D02*
Y100500D01*
X3500Y85500D02*
X11500D01*
X65500Y225000D02*
X80500D01*
Y217000D02*
Y225000D01*
X65500Y217000D02*
X80500D01*
X65500D02*
Y225000D01*
Y216000D02*
X80500D01*
Y208000D02*
Y216000D01*
X65500Y208000D02*
X80500D01*
X65500D02*
Y216000D01*
Y234000D02*
X80500D01*
Y226000D02*
Y234000D01*
X65500Y226000D02*
X80500D01*
X65500D02*
Y234000D01*
Y207000D02*
X80500D01*
Y199000D02*
Y207000D01*
X65500Y199000D02*
X80500D01*
X65500D02*
Y207000D01*
Y198000D02*
X80500D01*
Y190000D02*
Y198000D01*
X65500Y190000D02*
X80500D01*
X65500D02*
Y198000D01*
X139500Y81000D02*
X154500D01*
X139500D02*
Y89000D01*
X154500D01*
Y81000D02*
Y89000D01*
X157500Y56000D02*
X172500D01*
Y48000D02*
Y56000D01*
X157500Y48000D02*
X172500D01*
X157500D02*
Y56000D01*
X174500Y48000D02*
X189500D01*
X174500D02*
Y56000D01*
X189500D01*
Y48000D02*
Y56000D01*
X102717Y299370D02*
X173583D01*
Y272913D02*
Y299370D01*
X102717Y272913D02*
Y299370D01*
Y198976D02*
Y201850D01*
Y198976D02*
X107618D01*
X173583D02*
Y201850D01*
X168681Y198976D02*
X173583D01*
X53359Y49540D02*
X68759D01*
Y58040D01*
X53359Y49540D02*
Y58040D01*
X68759D01*
X51800Y33300D02*
Y48700D01*
Y33300D02*
X60300D01*
X51800Y48700D02*
X60300D01*
Y33300D02*
Y48700D01*
X3300Y84200D02*
X18700D01*
X3300Y75700D02*
Y84200D01*
X18700Y75700D02*
Y84200D01*
X3300Y75700D02*
X18700D01*
X20700Y85300D02*
Y100700D01*
X12200D02*
X20700D01*
X12200Y85300D02*
X20700D01*
X12200D02*
Y100700D01*
X153300Y138800D02*
X168700D01*
Y147300D01*
X153300Y138800D02*
Y147300D01*
X168700D01*
X153300Y168200D02*
X168700D01*
X153300Y159700D02*
Y168200D01*
X168700Y159700D02*
Y168200D01*
X153300Y159700D02*
X168700D01*
X153300Y147800D02*
X168700D01*
Y156300D01*
X153300Y147800D02*
Y156300D01*
X168700D01*
X122300Y80800D02*
X137700D01*
Y89300D01*
X122300Y80800D02*
Y89300D01*
X137700D01*
X122300Y89800D02*
X137700D01*
Y98300D01*
X122300Y89800D02*
Y98300D01*
X137700D01*
X157300Y106200D02*
X172700D01*
X157300Y97700D02*
Y106200D01*
X172700Y97700D02*
Y106200D01*
X157300Y97700D02*
X172700D01*
X157300Y97200D02*
X172700D01*
X157300Y88700D02*
Y97200D01*
X172700Y88700D02*
Y97200D01*
X157300Y88700D02*
X172700D01*
X122300Y71800D02*
X137700D01*
Y80300D01*
X122300Y71800D02*
Y80300D01*
X137700D01*
X122300Y62800D02*
X137700D01*
Y71300D01*
X122300Y62800D02*
Y71300D01*
X137700D01*
X139300Y80200D02*
X154700D01*
X139300Y71700D02*
Y80200D01*
X154700Y71700D02*
Y80200D01*
X139300Y71700D02*
X154700D01*
X125425Y181224D02*
X137236D01*
X125425Y161539D02*
X137236D01*
X33859Y35240D02*
Y46240D01*
X26259Y35240D02*
Y46240D01*
X37200Y88500D02*
Y99500D01*
X44800Y88500D02*
Y99500D01*
X31200Y152500D02*
Y163500D01*
X38800Y152500D02*
Y163500D01*
X67500Y187800D02*
X78500D01*
X67500Y180200D02*
X78500D01*
X36200Y48800D02*
X47453D01*
X36300Y57100D02*
X47553D01*
X20200Y48800D02*
X31453D01*
X20300Y57100D02*
X31553D01*
X27259Y34940D02*
Y46193D01*
X18959Y35040D02*
Y46293D01*
X20200Y55800D02*
X31453D01*
X20300Y64100D02*
X31553D01*
X23547Y87200D02*
X34800D01*
X23447Y78900D02*
X34700D01*
X38547Y88200D02*
X49800D01*
X38447Y79900D02*
X49700D01*
X43800Y88547D02*
Y99800D01*
X52100Y88447D02*
Y99700D01*
X38547Y81200D02*
X49800D01*
X38447Y72900D02*
X49700D01*
X38909Y46902D02*
X45209D01*
X38909Y34579D02*
X45209D01*
X25909Y87839D02*
X32209D01*
X25909Y100161D02*
X32209D01*
X266779Y157169D02*
Y165831D01*
X248669Y175279D02*
X257331D01*
X239000Y157500D02*
Y166161D01*
X24370Y230232D02*
X50591D01*
X1457D02*
X13189D01*
X24370Y171768D02*
X52165D01*
X1457D02*
X13189D01*
X1457D02*
Y230232D01*
X58543Y178441D02*
Y189504D01*
X258496Y52004D02*
Y114996D01*
X195504Y52004D02*
Y114996D01*
X82100Y251100D02*
X95900D01*
X82100D02*
Y258900D01*
X95900D01*
Y251100D02*
Y258900D01*
X82100Y242100D02*
X95900D01*
X82100D02*
Y249900D01*
X95900D01*
Y242100D02*
Y249900D01*
X135100Y35100D02*
X148900D01*
X135100D02*
Y42900D01*
X148900D01*
Y35100D02*
Y42900D01*
X119100D02*
X132900D01*
Y35100D02*
Y42900D01*
X119100Y35100D02*
X132900D01*
X119100D02*
Y42900D01*
X102409Y4681D02*
Y27319D01*
X53591D02*
X102409D01*
X53591Y4681D02*
Y27319D01*
Y4681D02*
X102409D01*
X181000Y271000D02*
X191000D01*
X181000Y241000D02*
Y271000D01*
Y241000D02*
X191000D01*
Y271000D01*
X192000Y241000D02*
X202000D01*
Y271000D01*
X192000D02*
X202000D01*
X192000Y241000D02*
Y271000D01*
X214000Y241000D02*
X224000D01*
Y271000D01*
X214000D02*
X224000D01*
X214000Y241000D02*
Y271000D01*
X203000Y241000D02*
X213000D01*
Y271000D01*
X203000D02*
X213000D01*
X203000Y241000D02*
Y271000D01*
X225000Y241000D02*
X235000D01*
Y271000D01*
X225000D02*
X235000D01*
X225000Y241000D02*
Y271000D01*
X127075Y121858D02*
X128256D01*
X127075Y120677D02*
Y121858D01*
Y110047D02*
Y111228D01*
Y110047D02*
X128256D01*
X137705D02*
X138886D01*
Y111228D01*
Y120677D02*
Y121858D01*
X137705D02*
X138886D01*
X3764Y114921D02*
Y150000D01*
X9000Y155079D01*
X19000D01*
X24236Y150000D01*
Y114921D02*
Y150000D01*
X3764Y114921D02*
X24236D01*
X224016Y128504D02*
Y129488D01*
X175984Y128504D02*
X224016D01*
X175984D02*
Y129488D01*
X224016Y190512D02*
Y191496D01*
X175984D02*
X224016D01*
X175984Y190512D02*
Y191496D01*
X105400Y121307D02*
X114400D01*
X105400Y112307D02*
Y121307D01*
Y112307D02*
X114400D01*
Y121307D01*
X169500Y171000D02*
Y177500D01*
X168500Y178000D02*
X169000D01*
X153500Y170000D02*
X168500D01*
Y178000D01*
X153500Y170000D02*
Y178000D01*
X168500D01*
X116500Y52000D02*
X131500D01*
X116500Y44000D02*
Y52000D01*
X131500Y44000D02*
Y52000D01*
X116500Y44000D02*
X131500D01*
Y52000D02*
X132000D01*
X132500Y45000D02*
Y51500D01*
X136500Y44000D02*
X151500D01*
Y52000D01*
X136500Y44000D02*
Y52000D01*
X151500D01*
X136000Y44000D02*
X136500D01*
X135500Y44500D02*
Y51000D01*
X174000Y58500D02*
Y73500D01*
Y58500D02*
X182000D01*
X174000Y73500D02*
X182000D01*
Y58500D02*
Y73500D01*
X174000D02*
Y74000D01*
X174500Y74500D02*
X181000D01*
X52496Y59240D02*
Y65740D01*
X52996Y58740D02*
X53496D01*
Y66740D02*
X68496D01*
X53496Y58740D02*
Y66740D01*
X68496Y58740D02*
Y66740D01*
X53496Y58740D02*
X68496D01*
X19500Y68000D02*
Y74500D01*
X18500Y75000D02*
X19000D01*
X3500Y67000D02*
X18500D01*
Y75000D01*
X3500Y67000D02*
Y75000D01*
X18500D01*
X74500Y121500D02*
Y162500D01*
X53200D02*
X74500D01*
X53200Y121500D02*
Y162500D01*
Y121500D02*
X74500D01*
X107100Y162000D02*
X114974D01*
X107100Y174200D02*
X114974D01*
X102408Y133944D02*
X102448Y133968D01*
X105813D01*
X110713Y134110D02*
X114319D01*
Y134768D01*
Y151068D02*
Y151868D01*
X111713D02*
X114319D01*
X102408Y133944D02*
Y134968D01*
X102508Y150969D02*
Y151769D01*
X106013D01*
D12*
X156692Y83500D02*
G03*
X156692Y83500I-492J0D01*
G01*
Y68500D02*
G03*
X156692Y68500I-492J0D01*
G01*
X152216Y89913D02*
G03*
X152216Y89913I-492J0D01*
G01*
Y56913D02*
G03*
X152216Y56913I-492J0D01*
G01*
X202500Y231500D02*
G03*
X202504Y231564I-488J64D01*
G01*
X122913Y31012D02*
G03*
X122913Y31012I-492J0D01*
G01*
D13*
X226394Y128000D02*
G03*
X226394Y128000I-394J0D01*
G01*
D14*
X57618Y160000D02*
G03*
X57618Y160000I-1118J0D01*
G01*
X212937Y201600D02*
X215070D01*
X212650Y231100D02*
X214782D01*
X213716Y232166D02*
Y230033D01*
D15*
X229274Y172800D02*
X232474D01*
X229274Y177200D02*
X232474D01*
X228874Y177100D02*
X232874D01*
X228874Y180900D02*
X232874D01*
X183100Y234600D02*
Y238599D01*
X185766Y234600D01*
Y238599D01*
X189764Y237932D02*
X189098Y238599D01*
X187765D01*
X187099Y237932D01*
Y235266D01*
X187765Y234600D01*
X189098D01*
X189764Y235266D01*
X239766Y268432D02*
X239099Y269099D01*
X237766D01*
X237100Y268432D01*
Y265766D01*
X237766Y265100D01*
X239099D01*
X239766Y265766D01*
Y267099D01*
X238433D01*
X241099Y265100D02*
Y269099D01*
X243764Y265100D01*
Y269099D01*
X245097D02*
Y265100D01*
X247097D01*
X247763Y265766D01*
Y268432D01*
X247097Y269099D01*
X245097D01*
X239766Y258099D02*
X237100D01*
Y256099D01*
X238433Y256766D01*
X239099D01*
X239766Y256099D01*
Y254766D01*
X239099Y254100D01*
X237766D01*
X237100Y254766D01*
X241099Y258099D02*
Y255433D01*
X242432Y254100D01*
X243764Y255433D01*
Y258099D01*
X230266Y237932D02*
X229599Y238599D01*
X228266D01*
X227600Y237932D01*
Y237266D01*
X228266Y236599D01*
X229599D01*
X230266Y235933D01*
Y235266D01*
X229599Y234600D01*
X228266D01*
X227600Y235266D01*
X231599Y234600D02*
X232932D01*
X232265D01*
Y238599D01*
X231599Y237932D01*
X219266D02*
X218599Y238599D01*
X217266D01*
X216600Y237932D01*
Y237266D01*
X217266Y236599D01*
X218599D01*
X219266Y235933D01*
Y235266D01*
X218599Y234600D01*
X217266D01*
X216600Y235266D01*
X220599Y234600D02*
X221932D01*
X221265D01*
Y238599D01*
X220599Y237932D01*
X208266D02*
X207599Y238599D01*
X206266D01*
X205600Y237932D01*
Y237266D01*
X206266Y236599D01*
X207599D01*
X208266Y235933D01*
Y235266D01*
X207599Y234600D01*
X206266D01*
X205600Y235266D01*
X209599Y234600D02*
X210932D01*
X210265D01*
Y238599D01*
X209599Y237932D01*
X189099Y69234D02*
Y71900D01*
X185100D01*
Y69234D01*
X187099Y71900D02*
Y70567D01*
X185100Y67901D02*
X189099D01*
X187766Y66568D01*
X189099Y65236D01*
X185100D01*
Y61237D02*
Y63903D01*
X187766Y61237D01*
X188432D01*
X189099Y61903D01*
Y63236D01*
X188432Y63903D01*
X189599Y93234D02*
Y95900D01*
X185600D01*
Y93234D01*
X187599Y95900D02*
Y94567D01*
X185600Y91901D02*
X189599D01*
X188266Y90568D01*
X189599Y89236D01*
X185600D01*
Y87903D02*
Y86570D01*
Y87236D01*
X189599D01*
X188932Y87903D01*
X197266Y237932D02*
X196599Y238599D01*
X195266D01*
X194600Y237932D01*
Y237266D01*
X195266Y236599D01*
X196599D01*
X197266Y235933D01*
Y235266D01*
X196599Y234600D01*
X195266D01*
X194600Y235266D01*
X198599Y234600D02*
X199932D01*
X199265D01*
Y238599D01*
X198599Y237932D01*
X106766Y18932D02*
X106099Y19599D01*
X104766D01*
X104100Y18932D01*
Y16266D01*
X104766Y15600D01*
X106099D01*
X106766Y16266D01*
Y17599D01*
X105433D01*
X108099Y15600D02*
Y19599D01*
X110765Y15600D01*
Y19599D01*
X112097D02*
Y15600D01*
X114097D01*
X114763Y16266D01*
Y18932D01*
X114097Y19599D01*
X112097D01*
X81100Y33099D02*
Y29100D01*
X83099D01*
X83766Y29766D01*
Y32432D01*
X83099Y33099D01*
X81100D01*
X85099Y31099D02*
X87765D01*
X86432Y32432D02*
Y29766D01*
X71100Y33099D02*
Y29100D01*
X73099D01*
X73766Y29766D01*
Y32432D01*
X73099Y33099D01*
X71100D01*
X75099Y31099D02*
X77764D01*
X45100Y17099D02*
X47766D01*
X46433Y18432D02*
Y15766D01*
X49099Y19099D02*
Y16433D01*
X50432Y15100D01*
X51765Y16433D01*
Y19099D01*
X31349Y144901D02*
X32099Y145651D01*
Y147150D01*
X31349Y147900D01*
X28350D01*
X27600Y147150D01*
Y145651D01*
X28350Y144901D01*
X29849D01*
Y146400D01*
X27600Y143401D02*
X32099D01*
X27600Y140402D01*
X32099D01*
Y138903D02*
X27600D01*
Y136654D01*
X28350Y135904D01*
X31349D01*
X32099Y136654D01*
Y138903D01*
X29349Y127900D02*
Y124901D01*
X30849Y126400D02*
X27850D01*
X31599Y123401D02*
X28600D01*
X27100Y121902D01*
X28600Y120402D01*
X31599D01*
X63800Y268199D02*
Y264200D01*
X65799D01*
X66466Y264866D01*
Y265533D01*
X65799Y266199D01*
X63800D01*
X65799D01*
X66466Y266866D01*
Y267532D01*
X65799Y268199D01*
X63800D01*
X68465Y264200D02*
X69798D01*
X70464Y264866D01*
Y266199D01*
X69798Y266866D01*
X68465D01*
X67799Y266199D01*
Y264866D01*
X68465Y264200D01*
X72464D02*
X73797D01*
X74463Y264866D01*
Y266199D01*
X73797Y266866D01*
X72464D01*
X71797Y266199D01*
Y264866D01*
X72464Y264200D01*
X76463Y267532D02*
Y266866D01*
X75796D01*
X77129D01*
X76463D01*
Y264866D01*
X77129Y264200D01*
X42600Y264600D02*
Y268599D01*
X44599D01*
X45266Y267932D01*
Y266599D01*
X44599Y265933D01*
X42600D01*
X43933D02*
X45266Y264600D01*
X48598D02*
X47265D01*
X46599Y265266D01*
Y266599D01*
X47265Y267266D01*
X48598D01*
X49264Y266599D01*
Y265933D01*
X46599D01*
X50597Y264600D02*
X52597D01*
X53263Y265266D01*
X52597Y265933D01*
X51264D01*
X50597Y266599D01*
X51264Y267266D01*
X53263D01*
X56595Y264600D02*
X55263D01*
X54596Y265266D01*
Y266599D01*
X55263Y267266D01*
X56595D01*
X57262Y266599D01*
Y265933D01*
X54596D01*
X59261Y267932D02*
Y267266D01*
X58595D01*
X59928D01*
X59261D01*
Y265266D01*
X59928Y264600D01*
D16*
X137236Y161539D02*
Y161559D01*
Y181205D02*
Y181224D01*
X125425Y161539D02*
Y161559D01*
Y181205D02*
Y181224D01*
X88800Y257700D02*
X89300D01*
X88800Y252300D02*
X89300D01*
X88800Y248700D02*
X89300D01*
X88800Y243300D02*
X89300D01*
X141800Y41700D02*
X142300D01*
X141800Y36300D02*
X142300D01*
X125700D02*
X126200D01*
X125700Y41700D02*
X126200D01*
X6000Y115602D02*
Y118358D01*
X4744Y117000D02*
X7500D01*
X5000Y143500D02*
Y146000D01*
X136921Y143937D02*
Y145905D01*
Y134095D02*
Y136063D01*
X127079Y134095D02*
Y136063D01*
Y143937D02*
Y145905D01*
D17*
X94676Y226960D02*
X96644Y228928D01*
Y232864D01*
X94676Y234832D01*
X92708D01*
X90740Y232864D01*
Y228928D01*
X88772Y226960D01*
X86804D01*
X84836Y228928D01*
Y232864D01*
X86804Y234832D01*
X84836Y223024D02*
Y219089D01*
Y221056D01*
X92708D01*
Y223024D01*
Y213185D02*
X84836D01*
X88772D01*
X90740Y211217D01*
X92708Y209249D01*
Y207281D01*
X84836Y201378D02*
Y197442D01*
Y199410D01*
X92708D01*
Y201378D01*
Y191538D02*
X86804D01*
X84836Y189571D01*
Y183667D01*
X92708D01*
X84836Y179731D02*
Y173828D01*
X86804Y171860D01*
X88772Y173828D01*
Y177763D01*
X90740Y179731D01*
X92708Y177763D01*
Y171860D01*
X82868Y167924D02*
Y160053D01*
M02*
