G04*
G04 #@! TF.GenerationSoftware,Altium Limited,Altium Designer,25.4.2 (15)*
G04*
G04 Layer_Physical_Order=1*
G04 Layer_Color=255*
%FSLAX25Y25*%
%MOIN*%
G70*
G04*
G04 #@! TF.SameCoordinates,4685016B-83D2-4E7D-AD2A-A819038C0A47*
G04*
G04*
G04 #@! TF.FilePolarity,Positive*
G04*
G01*
G75*
%ADD14C,0.01000*%
%ADD18R,0.03937X0.04134*%
%ADD19R,0.04134X0.08661*%
%ADD20R,0.02362X0.02126*%
%ADD21R,0.05709X0.04724*%
%ADD22R,0.15551X0.08858*%
%ADD23R,0.07087X0.07087*%
%ADD24R,0.01142X0.01181*%
%ADD25R,0.04724X0.05709*%
%ADD26R,0.03543X0.03543*%
%ADD27R,0.05906X0.03543*%
%ADD28R,0.03543X0.05906*%
%ADD29R,0.03937X0.02362*%
%ADD30R,0.04331X0.02362*%
%ADD31R,0.05512X0.03740*%
%ADD32R,0.03740X0.05512*%
%ADD33R,0.04747X0.05544*%
%ADD34R,0.05544X0.04747*%
G04:AMPARAMS|DCode=35|XSize=49.21mil|YSize=23.23mil|CornerRadius=2.9mil|HoleSize=0mil|Usage=FLASHONLY|Rotation=0.000|XOffset=0mil|YOffset=0mil|HoleType=Round|Shape=RoundedRectangle|*
%AMROUNDEDRECTD35*
21,1,0.04921,0.01742,0,0,0.0*
21,1,0.04341,0.02323,0,0,0.0*
1,1,0.00581,0.02170,-0.00871*
1,1,0.00581,-0.02170,-0.00871*
1,1,0.00581,-0.02170,0.00871*
1,1,0.00581,0.02170,0.00871*
%
%ADD35ROUNDEDRECTD35*%
%ADD36R,0.08661X0.04724*%
%ADD37R,0.07087X0.04724*%
%ADD38R,0.05906X0.06299*%
%ADD39R,0.06299X0.02756*%
%ADD40R,0.05512X0.11811*%
%ADD41R,0.03622X0.05433*%
%ADD42R,0.02559X0.04134*%
G04:AMPARAMS|DCode=43|XSize=17.72mil|YSize=11.81mil|CornerRadius=1mil|HoleSize=0mil|Usage=FLASHONLY|Rotation=0.000|XOffset=0mil|YOffset=0mil|HoleType=Round|Shape=RoundedRectangle|*
%AMROUNDEDRECTD43*
21,1,0.01772,0.00980,0,0,0.0*
21,1,0.01571,0.01181,0,0,0.0*
1,1,0.00201,0.00785,-0.00490*
1,1,0.00201,-0.00785,-0.00490*
1,1,0.00201,-0.00785,0.00490*
1,1,0.00201,0.00785,0.00490*
%
%ADD43ROUNDEDRECTD43*%
G04:AMPARAMS|DCode=44|XSize=17.72mil|YSize=11.81mil|CornerRadius=1mil|HoleSize=0mil|Usage=FLASHONLY|Rotation=90.000|XOffset=0mil|YOffset=0mil|HoleType=Round|Shape=RoundedRectangle|*
%AMROUNDEDRECTD44*
21,1,0.01772,0.00980,0,0,90.0*
21,1,0.01571,0.01181,0,0,90.0*
1,1,0.00201,0.00490,0.00785*
1,1,0.00201,0.00490,-0.00785*
1,1,0.00201,-0.00490,-0.00785*
1,1,0.00201,-0.00490,0.00785*
%
%ADD44ROUNDEDRECTD44*%
%ADD45R,0.01260X0.01476*%
%ADD46R,0.01476X0.01260*%
%ADD47R,0.15551X0.06693*%
%ADD48R,0.03543X0.05906*%
%ADD49R,0.02362X0.04528*%
%ADD50R,0.01181X0.04528*%
%ADD51R,0.08661X0.02362*%
%ADD52R,0.01968X0.01378*%
%ADD53R,0.02323X0.01181*%
%ADD54R,0.01378X0.02323*%
%ADD55R,0.02264X0.01260*%
%ADD56R,0.01260X0.02264*%
G04:AMPARAMS|DCode=98|XSize=39.37mil|YSize=70.87mil|CornerRadius=19.68mil|HoleSize=0mil|Usage=FLASHONLY|Rotation=0.000|XOffset=0mil|YOffset=0mil|HoleType=Round|Shape=RoundedRectangle|*
%AMROUNDEDRECTD98*
21,1,0.03937,0.03150,0,0,0.0*
21,1,0.00000,0.07087,0,0,0.0*
1,1,0.03937,0.00000,-0.01575*
1,1,0.03937,0.00000,-0.01575*
1,1,0.03937,0.00000,0.01575*
1,1,0.03937,0.00000,0.01575*
%
%ADD98ROUNDEDRECTD98*%
G04:AMPARAMS|DCode=99|XSize=39.37mil|YSize=86.61mil|CornerRadius=19.68mil|HoleSize=0mil|Usage=FLASHONLY|Rotation=0.000|XOffset=0mil|YOffset=0mil|HoleType=Round|Shape=RoundedRectangle|*
%AMROUNDEDRECTD99*
21,1,0.03937,0.04724,0,0,0.0*
21,1,0.00000,0.08661,0,0,0.0*
1,1,0.03937,0.00000,-0.02362*
1,1,0.03937,0.00000,-0.02362*
1,1,0.03937,0.00000,0.02362*
1,1,0.03937,0.00000,0.02362*
%
%ADD99ROUNDEDRECTD99*%
%ADD101C,0.01260*%
%ADD102R,0.07087X0.03150*%
%ADD103C,0.02000*%
%ADD104C,0.01500*%
%ADD105C,0.00800*%
%ADD106C,0.03000*%
%ADD107C,0.01265*%
%ADD108C,0.04000*%
%ADD109C,0.01091*%
%ADD110C,0.09449*%
G04:AMPARAMS|DCode=111|XSize=94.49mil|YSize=94.49mil|CornerRadius=23.62mil|HoleSize=0mil|Usage=FLASHONLY|Rotation=180.000|XOffset=0mil|YOffset=0mil|HoleType=Round|Shape=RoundedRectangle|*
%AMROUNDEDRECTD111*
21,1,0.09449,0.04724,0,0,180.0*
21,1,0.04724,0.09449,0,0,180.0*
1,1,0.04724,-0.02362,0.02362*
1,1,0.04724,0.02362,0.02362*
1,1,0.04724,0.02362,-0.02362*
1,1,0.04724,-0.02362,-0.02362*
%
%ADD111ROUNDEDRECTD111*%
%ADD112C,0.08268*%
%ADD113C,0.08858*%
%ADD114R,0.05937X0.05937*%
%ADD115C,0.05937*%
%ADD116C,0.06319*%
%ADD117R,0.06319X0.06319*%
%ADD118C,0.14961*%
%ADD119C,0.19685*%
%ADD120C,0.02400*%
%ADD121C,0.02000*%
%ADD122C,0.03000*%
G36*
X256647Y274900D02*
X256647Y274900D01*
X256647Y274900D01*
X257852Y274900D01*
X260240Y274590D01*
X262568Y273976D01*
X264798Y273067D01*
X266892Y271879D01*
X268817Y270431D01*
X270539Y268748D01*
X272030Y266857D01*
X273044Y265161D01*
X273745Y263785D01*
X274353Y262365D01*
X274863Y260907D01*
X275274Y259418D01*
X275584Y257905D01*
X275792Y256374D01*
X275896Y254833D01*
X275896Y254061D01*
X275896Y21500D01*
X275896Y21500D01*
X275989Y20216D01*
X275858Y17645D01*
X275412Y15110D01*
X274658Y12648D01*
X273607Y10298D01*
X272275Y8095D01*
X270682Y6072D01*
X268853Y4261D01*
X266815Y2688D01*
X264599Y1378D01*
X262239Y350D01*
X259770Y-380D01*
X258500Y-591D01*
X19157Y-405D01*
X19157Y-405D01*
X18131Y-404D01*
X16091Y-182D01*
X14086Y257D01*
X12140Y908D01*
X10275Y1765D01*
X8512Y2815D01*
X6872Y4049D01*
X5373Y5451D01*
X4034Y7006D01*
X2868Y8695D01*
X1890Y10499D01*
X1111Y12398D01*
X826Y13384D01*
X702Y13809D01*
X477Y14665D01*
X272Y15527D01*
X88Y16393D01*
X7Y16828D01*
X-80Y17296D01*
X-211Y18239D01*
X-297Y19187D01*
X-339Y20138D01*
X-338Y20614D01*
X-652Y50049D01*
X-933Y108923D01*
X-867Y167797D01*
X-454Y226670D01*
X-75Y256104D01*
X-73Y257329D01*
X249Y259758D01*
X885Y262124D01*
X1824Y264387D01*
X3050Y266508D01*
X4542Y268451D01*
X6274Y270183D01*
X8218Y271675D01*
X10339Y272901D01*
X12602Y273840D01*
X14967Y274476D01*
X17396Y274798D01*
X18558Y274800D01*
X19058Y274800D01*
X19092Y274801D01*
X19157Y274814D01*
X19158Y274815D01*
X19194Y274830D01*
X19517Y274900D01*
X256647Y274900D01*
D02*
G37*
%LPC*%
G36*
X176347Y273875D02*
X176346Y273875D01*
X100292D01*
X99863Y273790D01*
X99672Y273662D01*
X99310Y273590D01*
X98946Y273347D01*
X98946Y273347D01*
X98221Y272621D01*
X96175D01*
X96153Y272654D01*
X95624Y273007D01*
X95000Y273131D01*
X29265D01*
X28858Y273300D01*
X28142D01*
X27480Y273026D01*
X26974Y272520D01*
X26700Y271858D01*
Y271142D01*
X26974Y270480D01*
X27480Y269974D01*
X28142Y269700D01*
X28858D01*
X29265Y269869D01*
X95000D01*
X95624Y269993D01*
X96153Y270346D01*
X96175Y270378D01*
X98685D01*
X98685Y270378D01*
X99115Y270464D01*
X99248Y270553D01*
X99568Y270382D01*
X107653D01*
Y271632D01*
X168646D01*
Y270382D01*
X172598D01*
Y269382D01*
X168646D01*
Y267110D01*
X169046D01*
Y262754D01*
X169046Y262382D01*
X169046Y262010D01*
Y257753D01*
X169046Y257382D01*
X169046Y257010D01*
Y252753D01*
X169046Y252510D01*
X169046D01*
Y252254D01*
X169046D01*
Y251121D01*
X157000D01*
X157000Y251122D01*
X156571Y251036D01*
X156207Y250793D01*
X156207Y250793D01*
X150207Y244793D01*
X149964Y244429D01*
X149878Y244000D01*
X149878Y244000D01*
Y227465D01*
X147535Y225121D01*
X136424D01*
X136020Y225526D01*
X135358Y225800D01*
X134642D01*
X133980Y225526D01*
X133474Y225020D01*
X133200Y224358D01*
Y223642D01*
X133474Y222980D01*
X133980Y222474D01*
X134642Y222200D01*
X135358D01*
X136020Y222474D01*
X136424Y222879D01*
X148000D01*
X148000Y222878D01*
X148429Y222964D01*
X148793Y223207D01*
X149416Y223830D01*
X149878Y223639D01*
Y218820D01*
X149378Y218584D01*
X148858Y218800D01*
X148142D01*
X147480Y218526D01*
X147076Y218122D01*
X144000D01*
X144000Y218122D01*
X143571Y218036D01*
X143207Y217793D01*
X140207Y214793D01*
X139964Y214429D01*
X139878Y214000D01*
X139878Y214000D01*
Y211424D01*
X139474Y211020D01*
X139200Y210358D01*
Y209642D01*
X139474Y208980D01*
X139878Y208576D01*
Y203513D01*
X138278D01*
Y203513D01*
X138021D01*
Y203513D01*
X137122D01*
Y204576D01*
X137526Y204980D01*
X137800Y205642D01*
Y206358D01*
X137526Y207020D01*
X137020Y207526D01*
X136358Y207800D01*
X135642D01*
X134980Y207526D01*
X134474Y207020D01*
X134200Y206358D01*
Y205642D01*
X134474Y204980D01*
X134878Y204576D01*
Y203867D01*
X134525Y203513D01*
X133150Y203513D01*
X132778Y203513D01*
X132122D01*
Y208576D01*
X132526Y208980D01*
X132800Y209642D01*
Y210358D01*
X132526Y211020D01*
X132020Y211526D01*
X131358Y211800D01*
X130642D01*
X129980Y211526D01*
X129474Y211020D01*
X129200Y210358D01*
Y209642D01*
X129474Y208980D01*
X129878Y208576D01*
Y203867D01*
X129525Y203513D01*
X128150Y203513D01*
X127778Y203513D01*
X123521D01*
X123150Y203513D01*
X122778Y203513D01*
X122122D01*
Y204576D01*
X122526Y204980D01*
X122800Y205642D01*
Y206358D01*
X122526Y207020D01*
X122020Y207526D01*
X121358Y207800D01*
X120642D01*
X119980Y207526D01*
X119474Y207020D01*
X119200Y206358D01*
Y205642D01*
X119474Y204980D01*
X119878Y204576D01*
Y203867D01*
X119525Y203513D01*
X118150Y203513D01*
X117778Y203513D01*
X113521D01*
X113150Y203513D01*
X112778Y203513D01*
X111712D01*
X111521Y203975D01*
X111526Y203980D01*
X111800Y204642D01*
Y205358D01*
X111526Y206020D01*
X111020Y206526D01*
X110358Y206800D01*
X109642D01*
X108980Y206526D01*
X108622Y206168D01*
X107607D01*
X107254Y206522D01*
X107254Y207382D01*
X107254Y207753D01*
Y208832D01*
X108622D01*
X108980Y208474D01*
X109642Y208200D01*
X110358D01*
X111020Y208474D01*
X111526Y208980D01*
X111800Y209642D01*
Y210358D01*
X111526Y211020D01*
X111020Y211526D01*
X110358Y211800D01*
X109642D01*
X108980Y211526D01*
X108622Y211168D01*
X107607D01*
X107254Y211522D01*
X107254Y212382D01*
X107254Y212754D01*
Y213878D01*
X112576D01*
X112980Y213474D01*
X113642Y213200D01*
X114214D01*
X115707Y211707D01*
X115707Y211707D01*
X116071Y211464D01*
X116500Y211379D01*
X126379D01*
X126379Y211378D01*
X126808Y211464D01*
X127172Y211707D01*
X129665Y214200D01*
X129858D01*
X130520Y214474D01*
X131026Y214980D01*
X131300Y215642D01*
Y216358D01*
X131026Y217020D01*
X130520Y217526D01*
X129858Y217800D01*
X129142D01*
X128480Y217526D01*
X127974Y217020D01*
X127700Y216358D01*
Y215642D01*
X127769Y215476D01*
X125914Y213621D01*
X116965D01*
X115800Y214786D01*
Y215358D01*
X115526Y216020D01*
X115020Y216526D01*
X114358Y216800D01*
X113642D01*
X112980Y216526D01*
X112576Y216122D01*
X107607D01*
X107254Y216475D01*
X107254Y217382D01*
X107254Y217754D01*
Y222253D01*
X107254D01*
Y222510D01*
X107254D01*
Y227010D01*
X107254Y227382D01*
X107254Y227753D01*
Y228878D01*
X108576D01*
X108980Y228474D01*
X109642Y228200D01*
X110358D01*
X111020Y228474D01*
X111526Y228980D01*
X111800Y229642D01*
Y230358D01*
X111526Y231020D01*
X111020Y231526D01*
X110358Y231800D01*
X109642D01*
X108980Y231526D01*
X108576Y231121D01*
X107607D01*
X107254Y231475D01*
X107254Y232382D01*
X107254Y232753D01*
Y233878D01*
X112576D01*
X112980Y233474D01*
X113642Y233200D01*
X114358D01*
X115020Y233474D01*
X115526Y233980D01*
X115800Y234642D01*
Y235358D01*
X115526Y236020D01*
X115020Y236526D01*
X114358Y236800D01*
X113642D01*
X112980Y236526D01*
X112576Y236122D01*
X107607D01*
X107254Y236475D01*
X107254Y237382D01*
X107254Y237754D01*
Y242010D01*
X107254Y242382D01*
X107254Y242754D01*
Y243879D01*
X112576D01*
X112980Y243474D01*
X113642Y243200D01*
X114358D01*
X115020Y243474D01*
X115526Y243980D01*
X115800Y244642D01*
Y245358D01*
X115526Y246020D01*
X115020Y246526D01*
X114358Y246800D01*
X113642D01*
X112980Y246526D01*
X112576Y246122D01*
X107607D01*
X107254Y246475D01*
X107254Y247382D01*
X107254Y247754D01*
Y248378D01*
X108576D01*
X108980Y247974D01*
X109642Y247700D01*
X110358D01*
X111020Y247974D01*
X111424Y248378D01*
X116035D01*
X118278Y246135D01*
Y218024D01*
X117774Y217520D01*
X117500Y216858D01*
Y216142D01*
X117774Y215480D01*
X118280Y214974D01*
X118942Y214700D01*
X119658D01*
X120320Y214974D01*
X120826Y215480D01*
X120879Y215609D01*
X121421D01*
X121474Y215480D01*
X121980Y214974D01*
X122642Y214700D01*
X123358D01*
X124020Y214974D01*
X124526Y215480D01*
X124800Y216142D01*
Y216858D01*
X124526Y217520D01*
X124122Y217924D01*
Y223000D01*
X124122Y223000D01*
X124036Y223429D01*
X123793Y223793D01*
X123793Y223793D01*
X122122Y225465D01*
Y252000D01*
X122036Y252429D01*
X121793Y252793D01*
X121793Y252793D01*
X119293Y255293D01*
X118929Y255536D01*
X118500Y255622D01*
X118500Y255622D01*
X115424D01*
X115020Y256026D01*
X114358Y256300D01*
X113642D01*
X112980Y256026D01*
X112576Y255622D01*
X107607D01*
X107254Y255975D01*
X107254Y257382D01*
X107254Y257753D01*
Y258878D01*
X108576D01*
X108980Y258474D01*
X109642Y258200D01*
X110358D01*
X111020Y258474D01*
X111526Y258980D01*
X111800Y259642D01*
Y260358D01*
X111526Y261020D01*
X111020Y261526D01*
X110358Y261800D01*
X109642D01*
X108980Y261526D01*
X108576Y261122D01*
X107607D01*
X107254Y261475D01*
X107254Y262382D01*
X107254Y262754D01*
Y267110D01*
X107653D01*
Y269382D01*
X99748D01*
Y267110D01*
X100148D01*
Y266122D01*
X91000D01*
X90571Y266036D01*
X90207Y265793D01*
X90207Y265793D01*
X84447Y260033D01*
X84204Y259669D01*
X84119Y259240D01*
X84119Y259240D01*
Y258316D01*
X82829D01*
Y251683D01*
X84119D01*
Y249317D01*
X82829D01*
Y242684D01*
X84119D01*
Y240585D01*
X82207Y238673D01*
X81964Y238309D01*
X81878Y237880D01*
X81878Y237880D01*
Y232465D01*
X80535Y231121D01*
X79899D01*
Y233454D01*
X73975D01*
Y226546D01*
X75815D01*
Y224454D01*
X73975D01*
Y217546D01*
X75815D01*
Y215454D01*
X73975D01*
Y211818D01*
X73475Y211611D01*
X72793Y212293D01*
X72429Y212536D01*
X72025Y212617D01*
Y215454D01*
X68431D01*
X68382Y215954D01*
X68429Y215964D01*
X68793Y216207D01*
X69793Y217207D01*
X69793Y217207D01*
X70019Y217546D01*
X72025D01*
Y224454D01*
X66122D01*
Y226546D01*
X72025D01*
Y233454D01*
X66101D01*
Y231121D01*
X66000D01*
X65571Y231036D01*
X65207Y230793D01*
X65207Y230793D01*
X64207Y229793D01*
X63964Y229429D01*
X63878Y229000D01*
X63480Y228765D01*
X59937D01*
Y231012D01*
X55894D01*
Y228150D01*
X56762D01*
Y224810D01*
X56762D01*
Y224435D01*
X56762D01*
Y220479D01*
X56762D01*
Y220104D01*
X56437Y219739D01*
X56262Y219633D01*
X55858Y219800D01*
X55142D01*
X54480Y219526D01*
X53974Y219020D01*
X53700Y218358D01*
Y217642D01*
X53974Y216980D01*
X54480Y216474D01*
X55142Y216200D01*
X55858D01*
X55876Y216208D01*
X56362Y215868D01*
Y214295D01*
X60512D01*
Y213295D01*
X56362D01*
Y211632D01*
X55922Y211274D01*
X55858Y211300D01*
X55142D01*
X54480Y211026D01*
X53974Y210520D01*
X53922Y210393D01*
X53422Y210492D01*
Y212433D01*
X53520Y212474D01*
X54026Y212980D01*
X54300Y213642D01*
Y214358D01*
X54026Y215020D01*
X53520Y215526D01*
X52858Y215800D01*
X52142D01*
X51622Y215584D01*
X51122Y215820D01*
Y220535D01*
X53786Y223200D01*
X54358D01*
X55020Y223474D01*
X55526Y223980D01*
X55800Y224642D01*
Y225358D01*
X55526Y226020D01*
X55020Y226526D01*
X54358Y226800D01*
X53642D01*
X52980Y226526D01*
X52474Y226020D01*
X52200Y225358D01*
Y224786D01*
X49207Y221793D01*
X48964Y221429D01*
X48878Y221000D01*
X48878Y221000D01*
Y199445D01*
X48878Y199445D01*
X48964Y199016D01*
X49207Y198652D01*
X52179Y195679D01*
X52179Y195679D01*
X52543Y195436D01*
X52972Y195351D01*
X56762D01*
Y194494D01*
X56762D01*
Y194120D01*
X56762D01*
Y190164D01*
X64261D01*
Y191020D01*
X66101D01*
Y190546D01*
X71878D01*
Y187756D01*
X69858D01*
Y184000D01*
Y180244D01*
X71878D01*
Y173500D01*
X71878Y173500D01*
X71964Y173071D01*
X72207Y172707D01*
X74707Y170207D01*
X74707Y170207D01*
X75071Y169964D01*
X75500Y169878D01*
X80500D01*
X80500Y169878D01*
X80929Y169964D01*
X81293Y170207D01*
X83293Y172207D01*
X83293Y172207D01*
X83536Y172571D01*
X83622Y173000D01*
X83622Y173000D01*
Y175035D01*
X84197Y175611D01*
X84844D01*
X84980Y175474D01*
X85642Y175200D01*
X86307D01*
X86414Y175068D01*
X86554Y174740D01*
X86114Y174300D01*
X85642D01*
X84980Y174026D01*
X84474Y173520D01*
X84200Y172858D01*
Y172142D01*
X84474Y171480D01*
X84980Y170974D01*
X85642Y170700D01*
X86358D01*
X87020Y170974D01*
X87526Y171480D01*
X87800Y172142D01*
Y172814D01*
X88416Y173430D01*
X88878Y173239D01*
Y104000D01*
X88878Y104000D01*
X88964Y103571D01*
X89207Y103207D01*
X97878Y94535D01*
Y86424D01*
X97500Y86046D01*
X97020Y86526D01*
X96358Y86800D01*
X95642D01*
X94980Y86526D01*
X94831Y86376D01*
X79000D01*
X78473Y86272D01*
X78027Y85973D01*
X78027Y85973D01*
X75527Y83473D01*
X75228Y83027D01*
X75124Y82500D01*
Y78988D01*
X75114Y78983D01*
X74622Y79270D01*
Y93071D01*
X74622Y93071D01*
X74536Y93500D01*
X74293Y93864D01*
X71293Y96864D01*
X70929Y97107D01*
X70500Y97192D01*
X70500Y97192D01*
X68376D01*
Y100017D01*
X65346D01*
X65297Y100517D01*
X65319Y100522D01*
X66014Y100986D01*
X66478Y101681D01*
X66641Y102500D01*
X66478Y103319D01*
X66014Y104014D01*
X65319Y104478D01*
X64500Y104641D01*
X52387D01*
X38514Y118514D01*
X37819Y118978D01*
X37000Y119141D01*
X32000D01*
X31181Y118978D01*
X30486Y118514D01*
X30022Y117819D01*
X29859Y117000D01*
X30022Y116181D01*
X30486Y115486D01*
X31181Y115022D01*
X32000Y114859D01*
X36113D01*
X36478Y114494D01*
X36224Y114056D01*
X36000Y114149D01*
X31000D01*
X30541Y113959D01*
X30351Y113500D01*
Y101929D01*
X29851Y101778D01*
X29793Y101864D01*
X29793Y101864D01*
X28525Y103132D01*
Y108454D01*
X22601D01*
Y101546D01*
X26939D01*
X27878Y100606D01*
Y96465D01*
X27546Y96132D01*
X27457Y96116D01*
X27416Y96146D01*
X27127Y96522D01*
X27196Y96869D01*
Y98611D01*
X27127Y98959D01*
X26930Y99253D01*
X26636Y99450D01*
X26288Y99519D01*
X21948D01*
X21600Y99450D01*
X21306Y99253D01*
X21109Y98959D01*
X21090Y98862D01*
X19954D01*
Y99899D01*
X13046D01*
Y98059D01*
X10954D01*
Y99899D01*
X4046D01*
Y93975D01*
X10954D01*
Y95815D01*
X13046D01*
Y94150D01*
X13046Y93975D01*
X12680Y93649D01*
X12000D01*
X11541Y93459D01*
X11351Y93000D01*
Y92425D01*
X8000D01*
Y89063D01*
Y85701D01*
X11351D01*
Y76000D01*
X11541Y75541D01*
X12000Y75351D01*
X11991Y74854D01*
X11575D01*
Y71500D01*
X14937D01*
X18299D01*
Y74850D01*
X18299Y74854D01*
X18308Y75351D01*
X20500D01*
X20959Y75541D01*
X21091Y75859D01*
X24757D01*
X25577Y76022D01*
X26271Y76486D01*
X26735Y77181D01*
X26899Y78000D01*
X26735Y78819D01*
X26529Y79128D01*
X26797Y79628D01*
X28721D01*
Y86372D01*
X25240D01*
Y88481D01*
X26288D01*
X26636Y88550D01*
X26930Y88747D01*
X27127Y89041D01*
X27196Y89389D01*
Y91131D01*
X27127Y91478D01*
X26930Y91773D01*
X26812Y91852D01*
X26809Y91858D01*
Y92402D01*
X26812Y92408D01*
X26930Y92487D01*
X27127Y92782D01*
X27196Y93129D01*
X27442Y93232D01*
X27572Y93163D01*
X27878Y92873D01*
Y89826D01*
X27878Y89826D01*
X27964Y89397D01*
X28207Y89033D01*
X29258Y87982D01*
Y84873D01*
X29258Y84873D01*
X29279Y84765D01*
Y79628D01*
X31131D01*
Y71247D01*
X31131Y71247D01*
X31217Y70818D01*
X31460Y70454D01*
X34707Y67207D01*
X35071Y66964D01*
X35500Y66878D01*
X35500Y66878D01*
X45730D01*
X46017Y66386D01*
X46012Y66376D01*
X15118D01*
X15118Y66377D01*
X14591Y66272D01*
X14145Y65973D01*
X10086Y61914D01*
X9787Y61468D01*
X9683Y60941D01*
Y59529D01*
X2624D01*
Y49471D01*
X12388D01*
X12473Y48971D01*
X12207Y48793D01*
X12207Y48793D01*
X10207Y46793D01*
X9964Y46429D01*
X9878Y46000D01*
X9759Y45553D01*
X2624D01*
Y35495D01*
X19376D01*
X19687Y35124D01*
Y34514D01*
X19851D01*
Y32000D01*
X20041Y31541D01*
X20500Y31351D01*
X32851D01*
Y26000D01*
X33041Y25541D01*
X33500Y25351D01*
X35160D01*
Y25286D01*
X41084D01*
Y25843D01*
X41149Y26000D01*
Y33143D01*
X41649Y33350D01*
X41793Y33207D01*
X41793Y33207D01*
X42157Y32964D01*
X42586Y32878D01*
X44254D01*
X44388Y32695D01*
X44134Y32195D01*
X43034D01*
Y25286D01*
X48958D01*
Y32195D01*
X47118D01*
Y33004D01*
X47118Y33004D01*
X47032Y33433D01*
X46789Y33797D01*
X46789Y33797D01*
X45865Y34721D01*
X45923Y35008D01*
X46052Y35221D01*
X49170D01*
X49518Y35290D01*
X49812Y35487D01*
X50009Y35781D01*
X50028Y35878D01*
X52546D01*
Y34101D01*
X59454D01*
Y35941D01*
X61546D01*
Y34101D01*
X68454D01*
Y40025D01*
X61546D01*
Y38184D01*
X59454D01*
Y40025D01*
X52546D01*
Y38122D01*
X50028D01*
X50009Y38219D01*
X49812Y38513D01*
X49694Y38592D01*
X49691Y38598D01*
Y39142D01*
X49694Y39148D01*
X49812Y39227D01*
X50009Y39522D01*
X50078Y39869D01*
Y41611D01*
X50009Y41959D01*
X49812Y42253D01*
X49694Y42333D01*
X49691Y42338D01*
Y42882D01*
X49694Y42888D01*
X49812Y42967D01*
X50009Y43262D01*
X50078Y43609D01*
Y45351D01*
X50009Y45699D01*
X49812Y45993D01*
X49518Y46190D01*
X49170Y46259D01*
X46374D01*
Y49628D01*
X48226D01*
Y56372D01*
X42279D01*
Y49628D01*
X44131D01*
Y45909D01*
X43991Y45699D01*
X43922Y45351D01*
Y43609D01*
X43991Y43262D01*
X44188Y42967D01*
X44306Y42888D01*
X44309Y42882D01*
Y42338D01*
X44306Y42333D01*
X44188Y42253D01*
X43991Y41959D01*
X43922Y41611D01*
Y41200D01*
X43390D01*
X43275Y41321D01*
X43060Y41693D01*
X43122Y42000D01*
Y47000D01*
X43036Y47429D01*
X42793Y47793D01*
X42793Y47793D01*
X41742Y48844D01*
Y51126D01*
X41721Y51235D01*
Y56372D01*
X35774D01*
Y49628D01*
X35794D01*
X36061Y49128D01*
X36057Y49122D01*
X33082D01*
X32626Y49228D01*
X32626Y49622D01*
Y52500D01*
X29253D01*
Y53500D01*
X32626D01*
Y56228D01*
Y59500D01*
X29253D01*
Y60500D01*
X32626D01*
Y63624D01*
X46430D01*
X49124Y60930D01*
Y55086D01*
X49228Y54559D01*
X49527Y54112D01*
X50112Y53527D01*
X50559Y53228D01*
X51086Y53124D01*
X54160D01*
Y50286D01*
X55746D01*
Y47899D01*
X52546D01*
Y41975D01*
X59454D01*
Y47899D01*
X58499D01*
Y50286D01*
X60084D01*
Y57195D01*
X54160D01*
Y55876D01*
X51876D01*
Y61500D01*
X51876Y61500D01*
X51772Y62027D01*
X51473Y62473D01*
X48947Y65000D01*
X51070Y67124D01*
X67000D01*
X67527Y67228D01*
X67973Y67527D01*
X77473Y77027D01*
X77772Y77473D01*
X77876Y78000D01*
Y81930D01*
X79570Y83624D01*
X94831D01*
X94980Y83474D01*
X95642Y83200D01*
X96358D01*
X97020Y83474D01*
X97500Y83954D01*
X97980Y83474D01*
X98642Y83200D01*
X99358D01*
X100020Y83474D01*
X100526Y83980D01*
X100738Y84492D01*
X101262D01*
X101474Y83980D01*
X101980Y83474D01*
X102281Y83349D01*
X102399Y82760D01*
X95780Y76141D01*
X81500D01*
X80681Y75978D01*
X79986Y75514D01*
X79522Y74819D01*
X79359Y74000D01*
X79522Y73181D01*
X79986Y72486D01*
X80681Y72022D01*
X81500Y71859D01*
X96667D01*
X97486Y72022D01*
X98181Y72486D01*
X108514Y82819D01*
X108978Y83514D01*
X109141Y84333D01*
Y90500D01*
X108978Y91319D01*
X108514Y92014D01*
X107819Y92478D01*
X107000Y92641D01*
X106181Y92478D01*
X105486Y92014D01*
X105022Y91319D01*
X104859Y90500D01*
Y86668D01*
X104359Y86421D01*
X104122Y86603D01*
Y95500D01*
X104036Y95929D01*
X103793Y96293D01*
X103793Y96293D01*
X92722Y107365D01*
Y108039D01*
X93183Y108230D01*
X110878Y90535D01*
Y75424D01*
X110474Y75020D01*
X110200Y74358D01*
Y73642D01*
X110474Y72980D01*
X110980Y72474D01*
X111642Y72200D01*
X112358D01*
X113020Y72474D01*
X113526Y72980D01*
X113800Y73642D01*
Y74358D01*
X113526Y75020D01*
X113122Y75424D01*
Y91000D01*
X113036Y91429D01*
X112793Y91793D01*
X112793Y91793D01*
X94322Y110265D01*
Y153249D01*
X94822Y153349D01*
X94974Y152980D01*
X95378Y152576D01*
Y139500D01*
X95378Y139500D01*
X95464Y139071D01*
X95707Y138707D01*
X98144Y136270D01*
X98144Y136270D01*
X98508Y136027D01*
X98937Y135941D01*
X102065D01*
Y135872D01*
X104967D01*
Y130553D01*
X98214Y123800D01*
X97642D01*
X96980Y123526D01*
X96474Y123020D01*
X96200Y122358D01*
Y121642D01*
X96474Y120980D01*
X96980Y120474D01*
X97642Y120200D01*
X98214D01*
X101416Y116998D01*
X101416Y116998D01*
X101780Y116755D01*
X102209Y116670D01*
X104595D01*
X104802Y116170D01*
X104424Y115792D01*
X104181Y115428D01*
X104096Y114999D01*
X104096Y114999D01*
Y108283D01*
X104096Y108283D01*
X104181Y107853D01*
X104424Y107490D01*
X112293Y99621D01*
X112293Y99621D01*
X112657Y99378D01*
X113086Y99293D01*
X113086Y99293D01*
X113914D01*
X113914Y99293D01*
X114343Y99378D01*
X114344Y99378D01*
X123500D01*
X123500Y99378D01*
X123929Y99464D01*
X124293Y99707D01*
X126793Y102207D01*
X126793Y102207D01*
X127036Y102571D01*
X127122Y103000D01*
Y110870D01*
X128047Y111796D01*
X128337D01*
X128757Y111729D01*
X128823Y111309D01*
Y110148D01*
X128878Y109874D01*
X129032Y109643D01*
X129264Y109488D01*
X129537Y109433D01*
X130518D01*
X130791Y109488D01*
X131012Y109635D01*
X131233Y109488D01*
X131506Y109433D01*
X132486D01*
X132759Y109488D01*
X132980Y109635D01*
X133201Y109488D01*
X133474Y109433D01*
X134455D01*
X134811Y108995D01*
Y107019D01*
X133524Y105731D01*
X133358Y105800D01*
X132642D01*
X131980Y105526D01*
X131474Y105020D01*
X131200Y104358D01*
Y103642D01*
X131474Y102980D01*
X131980Y102474D01*
X132642Y102200D01*
X133358D01*
X134020Y102474D01*
X134526Y102980D01*
X134800Y103642D01*
Y103835D01*
X136726Y105761D01*
X136726Y105761D01*
X136969Y106125D01*
X137055Y106554D01*
X137055Y106554D01*
Y109832D01*
X137083Y109874D01*
X137137Y110148D01*
Y111325D01*
X137215Y111388D01*
X137500D01*
Y113000D01*
X138000D01*
Y113500D01*
X139916D01*
X140200Y113847D01*
X142799D01*
X142799Y113847D01*
X143228Y113932D01*
X143592Y114175D01*
X143795Y114378D01*
X145076D01*
X145480Y113974D01*
X146142Y113700D01*
X146858D01*
X147520Y113974D01*
X147960Y114415D01*
X148250Y114452D01*
X148540Y114415D01*
X148980Y113974D01*
X149642Y113700D01*
X150358D01*
X151020Y113974D01*
X151526Y114480D01*
X151800Y115142D01*
Y115858D01*
X151526Y116520D01*
X151122Y116924D01*
Y118000D01*
X151122Y118000D01*
X151036Y118429D01*
X150793Y118793D01*
X150793Y118793D01*
X149888Y119699D01*
X149524Y119942D01*
X149094Y120027D01*
X149094Y120027D01*
X139101D01*
X139059Y120055D01*
X138785Y120110D01*
X137624D01*
X137204Y120176D01*
X137137Y120596D01*
Y121758D01*
X137122Y121837D01*
Y124000D01*
X137122Y124000D01*
X137036Y124429D01*
X136793Y124793D01*
X136793Y124793D01*
X132593Y128993D01*
X132229Y129236D01*
X131800Y129322D01*
X131800Y129322D01*
X130224D01*
X129820Y129726D01*
X129158Y130000D01*
X128442D01*
X127780Y129726D01*
X127274Y129220D01*
X127000Y128558D01*
Y127842D01*
X127274Y127180D01*
X127780Y126674D01*
X128442Y126400D01*
X129158D01*
X129820Y126674D01*
X130224Y127078D01*
X131335D01*
X134878Y123535D01*
Y122873D01*
X134455Y122472D01*
X133474D01*
X133201Y122418D01*
X132980Y122270D01*
X132759Y122418D01*
X132486Y122472D01*
X131506D01*
X131233Y122418D01*
X131012Y122270D01*
X130791Y122418D01*
X130518Y122472D01*
X129537D01*
X129264Y122418D01*
X129032Y122263D01*
X128920Y122094D01*
X124972D01*
X124972Y122094D01*
X124543Y122009D01*
X124222Y121794D01*
X123965Y121854D01*
X123722Y121955D01*
Y130209D01*
X124183Y130401D01*
X124254Y130330D01*
X125000Y130021D01*
Y132195D01*
X125500D01*
Y132695D01*
X127674D01*
X127672Y132700D01*
X128055Y133082D01*
X128228Y133011D01*
X128944D01*
X129605Y133285D01*
X130012Y133691D01*
X136183D01*
Y136802D01*
X137324D01*
X137324Y136802D01*
Y136802D01*
X137324Y136802D01*
X137762Y136652D01*
X137878Y136535D01*
Y135424D01*
X137474Y135020D01*
X137200Y134358D01*
Y133642D01*
X137474Y132980D01*
X137980Y132474D01*
X138642Y132200D01*
X139358D01*
X140020Y132474D01*
X140526Y132980D01*
X140800Y133642D01*
Y134358D01*
X140526Y135020D01*
X140122Y135424D01*
Y137000D01*
X140122Y137000D01*
X140036Y137429D01*
X139793Y137793D01*
X139793Y137793D01*
X139208Y138378D01*
X139415Y138878D01*
X140000D01*
X140000Y138878D01*
X140000Y138878D01*
X151249D01*
X151291Y138800D01*
X150992Y138300D01*
X150642D01*
X149980Y138026D01*
X149474Y137520D01*
X149200Y136858D01*
Y136142D01*
X149474Y135480D01*
X149980Y134974D01*
X150642Y134700D01*
X151214D01*
X154207Y131707D01*
X154207Y131707D01*
X154571Y131464D01*
X155000Y131378D01*
X159035D01*
X163200Y127214D01*
Y126642D01*
X163474Y125980D01*
X163980Y125474D01*
X164642Y125200D01*
X165358D01*
X166020Y125474D01*
X166166Y125620D01*
X166666Y125413D01*
Y125187D01*
X166666Y125187D01*
X166751Y124758D01*
X166994Y124394D01*
X170055Y121334D01*
X169864Y120872D01*
X166624D01*
X166417Y121372D01*
X166526Y121480D01*
X166800Y122142D01*
Y122858D01*
X166526Y123520D01*
X166020Y124026D01*
X165358Y124300D01*
X164642D01*
X163980Y124026D01*
X163576Y123622D01*
X157000D01*
X157000Y123622D01*
X156571Y123536D01*
X156207Y123293D01*
X156207Y123293D01*
X154464Y121550D01*
X153892D01*
X153230Y121276D01*
X152724Y120770D01*
X152450Y120108D01*
Y119392D01*
X152724Y118730D01*
X153128Y118326D01*
Y107757D01*
X153128Y107757D01*
X153214Y107327D01*
X153457Y106964D01*
X154378Y106042D01*
Y102921D01*
X152224D01*
Y100740D01*
Y98559D01*
X154378D01*
Y95505D01*
X154293Y95041D01*
X152983D01*
X152358Y95300D01*
X151642D01*
X151016Y95041D01*
X149156D01*
Y91479D01*
X154293D01*
Y91510D01*
X154793Y91845D01*
X155142Y91700D01*
X155858D01*
X156520Y91974D01*
X157026Y92480D01*
X157300Y93142D01*
Y93858D01*
X157026Y94520D01*
X156622Y94924D01*
Y106507D01*
X156622Y106507D01*
X156536Y106936D01*
X156293Y107300D01*
X156293Y107300D01*
X155372Y108221D01*
Y118326D01*
X155674Y118628D01*
X167310D01*
X167517Y118128D01*
X167103Y117715D01*
X166794Y116969D01*
X171143D01*
X170925Y117493D01*
X171349Y117777D01*
X172719Y116407D01*
X172719Y116407D01*
X173083Y116164D01*
X173512Y116078D01*
X178335D01*
X181878Y112535D01*
Y97789D01*
X181854Y97299D01*
X181378Y97299D01*
X178500D01*
Y93937D01*
Y90575D01*
X181854Y90575D01*
X181878Y90085D01*
Y89208D01*
X181454Y89025D01*
X181378Y89025D01*
X176246D01*
X176138Y89047D01*
X176138Y89047D01*
X171902D01*
X171899Y89546D01*
X171899D01*
Y96454D01*
X165975D01*
Y89546D01*
X168322D01*
X168378Y89086D01*
X168464Y88657D01*
X168707Y88293D01*
X169868Y87132D01*
X169868Y87132D01*
X170231Y86889D01*
X170661Y86804D01*
X174546D01*
Y83101D01*
X181378D01*
X181454Y83101D01*
X181878Y82918D01*
Y82122D01*
X173716D01*
X172293Y83545D01*
Y85521D01*
X167156D01*
Y83342D01*
X166694Y83151D01*
X166122Y83724D01*
Y85276D01*
X166526Y85680D01*
X166800Y86342D01*
Y87058D01*
X166526Y87720D01*
X166020Y88226D01*
X165358Y88500D01*
X164642D01*
X163980Y88226D01*
X163474Y87720D01*
X163200Y87058D01*
Y86342D01*
X163474Y85680D01*
X163878Y85276D01*
Y83259D01*
X163878Y83259D01*
X163964Y82830D01*
X164207Y82466D01*
X167134Y79539D01*
Y76941D01*
X167134Y76941D01*
X167156Y76832D01*
Y74479D01*
X172116D01*
X172225Y74347D01*
X172225Y74346D01*
Y72039D01*
X170707Y70521D01*
X167156D01*
Y66959D01*
X172293D01*
Y68935D01*
X173646Y70288D01*
X174146Y70081D01*
Y66575D01*
X177500D01*
Y69937D01*
X178000D01*
Y70437D01*
X181854D01*
Y73299D01*
X178568D01*
X178300Y73799D01*
X178353Y73878D01*
X179414D01*
X179414Y73878D01*
X179843Y73964D01*
X180207Y74207D01*
X183793Y77793D01*
X183793Y77793D01*
X184036Y78157D01*
X184122Y78586D01*
Y113000D01*
X184122Y113000D01*
X184036Y113429D01*
X183793Y113793D01*
X183793Y113793D01*
X180370Y117217D01*
X180561Y117678D01*
X188973D01*
X192864Y113788D01*
Y99252D01*
X192864Y99252D01*
X192949Y98823D01*
X193192Y98459D01*
X199544Y92107D01*
X199908Y91864D01*
X200337Y91778D01*
X200337Y91778D01*
X217873D01*
X229816Y79836D01*
Y59690D01*
X227581D01*
Y46679D01*
X234293D01*
Y59690D01*
X232059D01*
Y64702D01*
X232521Y64893D01*
X237223Y60190D01*
X237016Y59690D01*
X235455D01*
Y46679D01*
X242167D01*
Y59690D01*
X239933D01*
Y60189D01*
X239933Y60189D01*
X239847Y60618D01*
X239604Y60982D01*
X233659Y66928D01*
Y80963D01*
X233573Y81392D01*
X233330Y81756D01*
X233330Y81756D01*
X219793Y95293D01*
X219429Y95536D01*
X219000Y95622D01*
X219000Y95622D01*
X201465D01*
X196707Y100380D01*
Y107309D01*
X202797D01*
Y120320D01*
X196085D01*
Y116654D01*
X195623Y116463D01*
X191670Y120416D01*
X191861Y120878D01*
X208784D01*
X208822Y120820D01*
X208555Y120320D01*
X203959D01*
Y107309D01*
X210671D01*
Y118743D01*
X211133Y118935D01*
X211833Y118234D01*
Y107309D01*
X218545D01*
Y119243D01*
X219007Y119435D01*
X219707Y118734D01*
Y107309D01*
X226419D01*
Y120320D01*
X221293D01*
X214621Y126993D01*
X214257Y127236D01*
X213828Y127322D01*
X213827Y127322D01*
X188524D01*
X188120Y127726D01*
X187458Y128000D01*
X186886D01*
X183352Y131534D01*
X183382Y132039D01*
X183822Y132333D01*
X184142Y132200D01*
X184858D01*
X185520Y132474D01*
X185924Y132878D01*
X188500D01*
X188500Y132878D01*
X188929Y132964D01*
X189293Y133207D01*
X191793Y135707D01*
X191793Y135707D01*
X192036Y136071D01*
X192122Y136500D01*
Y151500D01*
X192036Y151929D01*
X191793Y152293D01*
X191793Y152293D01*
X184868Y159218D01*
X184504Y159461D01*
X184075Y159547D01*
X184075Y159547D01*
X180521D01*
Y160600D01*
X172622D01*
Y161648D01*
X173122Y161983D01*
X173500Y161826D01*
Y164000D01*
Y166174D01*
X173122Y166017D01*
X172622Y166351D01*
Y168061D01*
X180521D01*
Y172392D01*
Y176723D01*
Y181053D01*
Y184984D01*
X180921D01*
Y187059D01*
X176378D01*
Y188000D01*
X175500D01*
Y190174D01*
X175403Y190134D01*
X173857D01*
X173522Y190634D01*
X173674Y191000D01*
X171500D01*
Y192000D01*
X173674D01*
X173365Y192746D01*
X172746Y193365D01*
X171938Y193700D01*
X171434D01*
X171283Y194200D01*
X171293Y194207D01*
X177893Y200807D01*
X178136Y201171D01*
X178222Y201600D01*
X178222Y201600D01*
Y230130D01*
X178500Y230253D01*
X178722Y230283D01*
X179180Y229824D01*
X179842Y229550D01*
X180558D01*
X181220Y229824D01*
X181624Y230228D01*
X183132D01*
Y226093D01*
X187876D01*
Y233007D01*
X187876Y233198D01*
X188106Y233603D01*
X188520Y233774D01*
X188924Y234178D01*
X194300D01*
X194300Y234178D01*
X194729Y234264D01*
X195093Y234507D01*
X195948Y235362D01*
X196448Y235155D01*
Y234894D01*
X196722Y234232D01*
X197228Y233726D01*
X197374Y233665D01*
Y233198D01*
X196124D01*
Y226572D01*
X196124Y226517D01*
X196124Y226517D01*
X196113Y226459D01*
X195600Y226243D01*
X195584Y226250D01*
X195379Y226746D01*
X194760Y227365D01*
X194014Y227674D01*
Y226000D01*
X195948D01*
X196033Y226045D01*
X196176Y226093D01*
X196526Y226093D01*
X200868D01*
Y233198D01*
X199618D01*
Y234076D01*
X199774Y234232D01*
X200048Y234894D01*
Y235610D01*
X199915Y235930D01*
X200249Y236430D01*
X228983D01*
X230878Y234535D01*
Y224374D01*
X230379Y224167D01*
X230020Y224526D01*
X229358Y224800D01*
X228642D01*
X227980Y224526D01*
X227576Y224121D01*
X212374D01*
X212167Y224622D01*
X212526Y224980D01*
X212800Y225642D01*
Y226358D01*
X212526Y227020D01*
X212020Y227526D01*
X211358Y227800D01*
X210642D01*
X209980Y227526D01*
X209576Y227121D01*
X205500D01*
X205500Y227122D01*
X205071Y227036D01*
X204707Y226793D01*
X204707Y226793D01*
X200535Y222621D01*
X188500D01*
X188500Y222622D01*
X188071Y222536D01*
X187707Y222293D01*
X187707Y222293D01*
X182214Y216800D01*
X181642D01*
X180980Y216526D01*
X180474Y216020D01*
X180200Y215358D01*
Y214642D01*
X180474Y213980D01*
X180980Y213474D01*
X181642Y213200D01*
X182358D01*
X182732Y212950D01*
Y210854D01*
X185504D01*
X188276D01*
Y213878D01*
X190035D01*
X192378Y211535D01*
Y206500D01*
X192378Y206500D01*
X192464Y206071D01*
X192707Y205707D01*
X198707Y199707D01*
X198707Y199707D01*
X199071Y199464D01*
X199500Y199378D01*
X199500Y199378D01*
X212535D01*
X215207Y196707D01*
X215571Y196464D01*
X216000Y196378D01*
X216000Y196378D01*
X247649D01*
X247983Y195878D01*
X247800Y195438D01*
Y194831D01*
X244626D01*
Y191865D01*
X244210Y191587D01*
X244000Y191674D01*
Y189500D01*
X243500D01*
Y189000D01*
X241326D01*
X241635Y188254D01*
X241989Y187900D01*
X241768Y187414D01*
X241500Y187302D01*
X241173Y187438D01*
X240746Y187865D01*
X240000Y188174D01*
Y186000D01*
X239500D01*
Y185500D01*
X237326D01*
X237417Y185280D01*
X237139Y184864D01*
X235861D01*
X235583Y185280D01*
X235674Y185500D01*
X233500D01*
Y186000D01*
X233000D01*
Y188174D01*
X232254Y187865D01*
X231750Y187361D01*
X231246Y187865D01*
X230848Y188030D01*
X230731Y188620D01*
X230865Y188754D01*
X231174Y189500D01*
X229000D01*
Y190000D01*
X228500D01*
Y192174D01*
X227754Y191865D01*
X227620Y191731D01*
X227030Y191848D01*
X226865Y192246D01*
X226246Y192865D01*
X225500Y193174D01*
Y191000D01*
X224500D01*
Y193174D01*
X223754Y192865D01*
X223327Y192438D01*
X223000Y192302D01*
X222673Y192438D01*
X222246Y192865D01*
X221500Y193174D01*
Y191000D01*
X220500D01*
Y193174D01*
X219754Y192865D01*
X219327Y192438D01*
X219000Y192302D01*
X218673Y192438D01*
X218246Y192865D01*
X217500Y193174D01*
Y191000D01*
Y188826D01*
X218246Y189135D01*
X218579Y189468D01*
X219079Y189260D01*
Y188059D01*
X223622D01*
Y187059D01*
X219079D01*
Y184984D01*
X219479D01*
Y181472D01*
X219079D01*
Y179398D01*
X223622D01*
Y178398D01*
X219079D01*
Y176323D01*
X219479D01*
Y172392D01*
Y168061D01*
X227765D01*
Y173445D01*
X229587D01*
X229587Y173445D01*
X230016Y173531D01*
X230380Y173774D01*
X230415Y173809D01*
X232919D01*
Y176191D01*
X232870D01*
Y177809D01*
X232919D01*
Y177969D01*
X235791D01*
X235791Y177969D01*
X236221Y178054D01*
X236343Y178136D01*
X237781D01*
Y178454D01*
X238243Y178646D01*
X238254Y178635D01*
X239000Y178326D01*
Y180500D01*
X240000D01*
Y178326D01*
X240746Y178635D01*
X241000Y178889D01*
X241254Y178635D01*
X242000Y178326D01*
Y180500D01*
X243000D01*
Y178326D01*
X243746Y178635D01*
X244000Y178889D01*
X244254Y178635D01*
X245000Y178326D01*
Y180500D01*
X246000D01*
Y178326D01*
X246746Y178635D01*
X247000Y178889D01*
X247254Y178635D01*
X248000Y178326D01*
Y180500D01*
X249000D01*
Y178326D01*
X249517Y178540D01*
X249635Y178254D01*
X250254Y177635D01*
X251000Y177326D01*
Y179500D01*
X252000D01*
Y177326D01*
X252746Y177635D01*
X253000Y177889D01*
X253254Y177635D01*
X254000Y177326D01*
Y179500D01*
X255000D01*
Y177326D01*
X255746Y177635D01*
X256250Y178139D01*
X256254Y178135D01*
X257000Y177826D01*
Y180000D01*
X257500D01*
Y180500D01*
X259674D01*
X259533Y180840D01*
X260246Y181135D01*
X260865Y181754D01*
X261174Y182500D01*
X259000D01*
Y183500D01*
X261174D01*
X261069Y183754D01*
X261347Y184169D01*
X262374D01*
Y189000D01*
X259307D01*
Y190000D01*
X262374D01*
Y194831D01*
X260200D01*
Y195438D01*
X260017Y195878D01*
X260351Y196378D01*
X266535D01*
X268179Y194735D01*
Y174496D01*
X267678Y174363D01*
X267384Y174873D01*
X266373Y175884D01*
X265135Y176599D01*
X263754Y176969D01*
X263539D01*
Y171539D01*
Y166110D01*
X263754D01*
X265135Y166480D01*
X266373Y167195D01*
X267384Y168206D01*
X267678Y168716D01*
X268179Y168582D01*
Y154418D01*
X267678Y154284D01*
X267384Y154794D01*
X266373Y155805D01*
X265135Y156520D01*
X263754Y156890D01*
X263539D01*
Y151461D01*
Y146031D01*
X263754D01*
X265135Y146402D01*
X266373Y147116D01*
X267384Y148127D01*
X267678Y148637D01*
X268179Y148503D01*
Y96265D01*
X265775Y93862D01*
X265702Y93884D01*
X265561Y94449D01*
X265865Y94754D01*
X266174Y95500D01*
X261826D01*
X262135Y94754D01*
X262754Y94135D01*
X262786Y94122D01*
X262687Y93622D01*
X257500D01*
X257071Y93536D01*
X256707Y93293D01*
X256707Y93293D01*
X249207Y85793D01*
X248964Y85429D01*
X248878Y85000D01*
X248879Y85000D01*
Y78924D01*
X248474Y78520D01*
X248200Y77858D01*
Y77142D01*
X248474Y76480D01*
X248980Y75974D01*
X249642Y75700D01*
X250358D01*
X251020Y75974D01*
X251526Y76480D01*
X251800Y77142D01*
Y77858D01*
X251526Y78520D01*
X251121Y78924D01*
Y84535D01*
X253439Y86853D01*
X253900Y86606D01*
X253878Y86500D01*
X253878Y86500D01*
Y81924D01*
X253474Y81520D01*
X253200Y80858D01*
Y80142D01*
X253474Y79480D01*
X253980Y78974D01*
X254642Y78700D01*
X255358D01*
X256020Y78974D01*
X256526Y79480D01*
X256800Y80142D01*
Y80858D01*
X256526Y81520D01*
X256121Y81924D01*
Y86035D01*
X257098Y87012D01*
X257559Y86765D01*
X257538Y86659D01*
X257538Y86659D01*
Y85550D01*
X257480Y85526D01*
X256974Y85020D01*
X256700Y84358D01*
Y83642D01*
X256974Y82980D01*
X257480Y82474D01*
X258142Y82200D01*
X258858D01*
X259520Y82474D01*
X260026Y82980D01*
X260300Y83642D01*
Y84358D01*
X260026Y85020D01*
X259781Y85265D01*
Y86195D01*
X261465Y87878D01*
X262060D01*
X262267Y87378D01*
X262135Y87246D01*
X261826Y86500D01*
X266174D01*
X265865Y87246D01*
X265733Y87378D01*
X265940Y87878D01*
X267500D01*
X267500Y87878D01*
X267929Y87964D01*
X268293Y88207D01*
X273293Y93207D01*
X273293Y93207D01*
X273536Y93571D01*
X273622Y94000D01*
X273622Y94000D01*
Y210500D01*
X273622Y210500D01*
X273536Y210929D01*
X273293Y211293D01*
X273293Y211293D01*
X268591Y215995D01*
X268228Y216238D01*
X267798Y216323D01*
X267798Y216323D01*
X264223D01*
X263818Y216727D01*
X263157Y217002D01*
X262440D01*
X261779Y216727D01*
X261273Y216221D01*
X260999Y215560D01*
Y214844D01*
X261273Y214182D01*
X261779Y213676D01*
X262440Y213402D01*
X263157D01*
X263818Y213676D01*
X264223Y214080D01*
X267334D01*
X271378Y210035D01*
Y202861D01*
X270917Y202670D01*
X267793Y205793D01*
X267429Y206036D01*
X267000Y206122D01*
X267000Y206121D01*
X263924D01*
X263621Y206424D01*
Y210189D01*
X263536Y210619D01*
X263293Y210982D01*
X263293Y210982D01*
X256622Y217654D01*
Y222000D01*
X256622Y222000D01*
X256536Y222429D01*
X256293Y222793D01*
X256293Y222793D01*
X254293Y224793D01*
X253929Y225036D01*
X253500Y225122D01*
X253500Y225121D01*
X248250D01*
Y233250D01*
X239963D01*
Y224963D01*
X241670D01*
X241877Y224463D01*
X238207Y220793D01*
X237964Y220429D01*
X237878Y220000D01*
X237878Y220000D01*
Y214550D01*
X236300Y212972D01*
X235800Y213179D01*
Y213358D01*
X235526Y214020D01*
X235020Y214526D01*
X234358Y214800D01*
X233786D01*
X233121Y215465D01*
Y235000D01*
X233122Y235000D01*
X233036Y235429D01*
X232793Y235793D01*
X230241Y238345D01*
X229877Y238588D01*
X229448Y238673D01*
X229448Y238673D01*
X217913D01*
X217722Y239136D01*
X219293Y240707D01*
X219293Y240707D01*
X219536Y241071D01*
X219622Y241500D01*
X219621Y241500D01*
Y242241D01*
X222760D01*
Y249760D01*
X215241D01*
Y242241D01*
X216947D01*
X217154Y241740D01*
X215687Y240273D01*
X195889D01*
X195460Y240188D01*
X195096Y239945D01*
X195096Y239945D01*
X194704Y239553D01*
X188673D01*
X188433Y239793D01*
X188069Y240036D01*
X187639Y240122D01*
X187639Y240122D01*
X181324D01*
X180920Y240526D01*
X180258Y240800D01*
X179542D01*
X178880Y240526D01*
X178722Y240367D01*
X178222Y240574D01*
Y252224D01*
X178136Y252654D01*
X177893Y253017D01*
X177893Y253017D01*
X176507Y254403D01*
X176151Y254641D01*
X176151Y257382D01*
X176151Y257753D01*
Y258760D01*
X181653D01*
X182667Y257747D01*
X182497Y257451D01*
X182241Y256495D01*
Y255505D01*
X182497Y254549D01*
X182992Y253692D01*
X183692Y252992D01*
X184549Y252497D01*
X185505Y252240D01*
X186495D01*
X187451Y252497D01*
X188308Y252992D01*
X189008Y253692D01*
X189503Y254549D01*
X189759Y255505D01*
Y256495D01*
X189503Y257451D01*
X189008Y258308D01*
X188308Y259008D01*
X187451Y259503D01*
X186495Y259759D01*
X185505D01*
X184549Y259503D01*
X184253Y259333D01*
X182911Y260675D01*
X182547Y260918D01*
X182118Y261003D01*
X182118Y261003D01*
X176505D01*
X176151Y261357D01*
X176151Y262382D01*
X176151Y262754D01*
Y264879D01*
X182241D01*
Y262241D01*
X189759D01*
Y268222D01*
X190221Y268414D01*
X190609Y268026D01*
Y261488D01*
X190541Y261459D01*
X190351Y261000D01*
Y251000D01*
X190541Y250541D01*
X191000Y250351D01*
X236500D01*
X236959Y250541D01*
X237149Y251000D01*
Y261000D01*
X236959Y261459D01*
X236500Y261649D01*
X231912D01*
X231874Y261713D01*
X232047Y262379D01*
X232554Y262672D01*
X233328Y263446D01*
X233876Y264394D01*
X234159Y265452D01*
Y265500D01*
X230000D01*
X225840D01*
Y265452D01*
X226124Y264394D01*
X226672Y263446D01*
X227446Y262672D01*
X227954Y262379D01*
X228126Y261713D01*
X228088Y261649D01*
X220912D01*
X220874Y261713D01*
X221046Y262379D01*
X221554Y262672D01*
X222328Y263446D01*
X222876Y264394D01*
X223160Y265452D01*
Y265500D01*
X219000D01*
X214841D01*
Y265452D01*
X215124Y264394D01*
X215672Y263446D01*
X216446Y262672D01*
X216953Y262379D01*
X217126Y261713D01*
X217088Y261649D01*
X209912D01*
X209874Y261713D01*
X210047Y262379D01*
X210554Y262672D01*
X211328Y263446D01*
X211876Y264394D01*
X212159Y265452D01*
Y265500D01*
X208000D01*
X203841D01*
Y265452D01*
X204124Y264394D01*
X204672Y263446D01*
X205446Y262672D01*
X205954Y262379D01*
X206126Y261713D01*
X206088Y261649D01*
X198912D01*
X198874Y261713D01*
X199047Y262379D01*
X199554Y262672D01*
X200328Y263446D01*
X200876Y264394D01*
X201159Y265452D01*
Y265500D01*
X197000D01*
Y266000D01*
X196500D01*
Y270160D01*
X196452D01*
X195395Y269876D01*
X194446Y269328D01*
X194196Y269078D01*
X193599Y269188D01*
X193394Y269495D01*
X192865Y269848D01*
X192634Y269894D01*
X190855Y271673D01*
X190408Y271972D01*
X189882Y272077D01*
X189355Y271972D01*
X189130Y271821D01*
X178865D01*
X177139Y273547D01*
X176776Y273790D01*
X176347Y273875D01*
D02*
G37*
G36*
X48358Y268800D02*
X47642D01*
X46980Y268526D01*
X46474Y268020D01*
X46262Y267508D01*
X45738D01*
X45526Y268020D01*
X45020Y268526D01*
X44358Y268800D01*
X43642D01*
X42980Y268526D01*
X42474Y268020D01*
X42262Y267508D01*
X41738D01*
X41526Y268020D01*
X41020Y268526D01*
X40358Y268800D01*
X39642D01*
X38980Y268526D01*
X38474Y268020D01*
X38200Y267358D01*
Y266642D01*
X38474Y265980D01*
X38980Y265474D01*
X39642Y265200D01*
X40358D01*
X40463Y265244D01*
X42878Y262828D01*
Y240000D01*
X42878Y240000D01*
X42964Y239571D01*
X43207Y239207D01*
X46207Y236207D01*
X46571Y235964D01*
X47000Y235878D01*
X47000Y235878D01*
X76576D01*
X76980Y235474D01*
X77642Y235200D01*
X78358D01*
X79020Y235474D01*
X79526Y235980D01*
X79800Y236642D01*
Y237358D01*
X79526Y238020D01*
X79020Y238526D01*
X78358Y238800D01*
X77642D01*
X76980Y238526D01*
X76576Y238122D01*
X47465D01*
X45122Y240465D01*
Y241164D01*
X48647D01*
Y246498D01*
X47889D01*
Y257502D01*
X48647D01*
Y262836D01*
X47889D01*
Y264232D01*
X47889Y264232D01*
X47804Y264662D01*
X47778Y264700D01*
X48045Y265200D01*
X48358D01*
X49020Y265474D01*
X49424Y265879D01*
X63375D01*
X65955Y263298D01*
X65763Y262836D01*
X63888D01*
Y257502D01*
X64646D01*
Y246498D01*
X63888D01*
Y241164D01*
X67647D01*
Y242709D01*
X68831D01*
X68831Y242709D01*
X69260Y242794D01*
X69624Y243038D01*
X71491Y244905D01*
X71953Y244713D01*
Y244331D01*
X74232D01*
X76512D01*
Y246898D01*
X75033D01*
X74699Y247398D01*
X74800Y247642D01*
Y248358D01*
X74526Y249020D01*
X74020Y249526D01*
X73358Y249800D01*
X72642D01*
X71980Y249526D01*
X71827Y249372D01*
X71536Y249218D01*
X71122Y249535D01*
Y260839D01*
X71122Y260839D01*
X71036Y261268D01*
X70793Y261632D01*
X70793Y261632D01*
X64632Y267793D01*
X64268Y268036D01*
X63839Y268122D01*
X63839Y268122D01*
X49424D01*
X49020Y268526D01*
X48358Y268800D01*
D02*
G37*
G36*
X230548Y270160D02*
X230500D01*
Y266500D01*
X234159D01*
Y266548D01*
X233876Y267605D01*
X233328Y268554D01*
X232554Y269328D01*
X231606Y269876D01*
X230548Y270160D01*
D02*
G37*
G36*
X219548D02*
X219500D01*
Y266500D01*
X223160D01*
Y266548D01*
X222876Y267605D01*
X222328Y268554D01*
X221554Y269328D01*
X220605Y269876D01*
X219548Y270160D01*
D02*
G37*
G36*
X208548D02*
X208500D01*
Y266500D01*
X212159D01*
Y266548D01*
X211876Y267605D01*
X211328Y268554D01*
X210554Y269328D01*
X209606Y269876D01*
X208548Y270160D01*
D02*
G37*
G36*
X197548D02*
X197500D01*
Y266500D01*
X201159D01*
Y266548D01*
X200876Y267605D01*
X200328Y268554D01*
X199554Y269328D01*
X198606Y269876D01*
X197548Y270160D01*
D02*
G37*
G36*
X229500D02*
X229452D01*
X228395Y269876D01*
X227446Y269328D01*
X226672Y268554D01*
X226124Y267605D01*
X225840Y266548D01*
Y266500D01*
X229500D01*
Y270160D01*
D02*
G37*
G36*
X218500D02*
X218452D01*
X217394Y269876D01*
X216446Y269328D01*
X215672Y268554D01*
X215124Y267605D01*
X214841Y266548D01*
Y266500D01*
X218500D01*
Y270160D01*
D02*
G37*
G36*
X207500D02*
X207452D01*
X206395Y269876D01*
X205446Y269328D01*
X204672Y268554D01*
X204124Y267605D01*
X203841Y266548D01*
Y266500D01*
X207500D01*
Y270160D01*
D02*
G37*
G36*
X80200Y264674D02*
Y263000D01*
X81874D01*
X81565Y263746D01*
X80946Y264365D01*
X80200Y264674D01*
D02*
G37*
G36*
X79200D02*
X78454Y264365D01*
X77835Y263746D01*
X77526Y263000D01*
X79200D01*
Y264674D01*
D02*
G37*
G36*
X76512Y263236D02*
X74732D01*
Y260669D01*
X76512D01*
Y263236D01*
D02*
G37*
G36*
X57512D02*
X55732D01*
Y260669D01*
X57512D01*
Y263236D01*
D02*
G37*
G36*
X73732D02*
X71953D01*
Y260669D01*
X73732D01*
Y263236D01*
D02*
G37*
G36*
X54732D02*
X52953D01*
Y260669D01*
X54732D01*
Y263236D01*
D02*
G37*
G36*
X81874Y262000D02*
X80200D01*
Y260326D01*
X80946Y260635D01*
X81565Y261254D01*
X81874Y262000D01*
D02*
G37*
G36*
X79200D02*
X77526D01*
X77835Y261254D01*
X78454Y260635D01*
X79200Y260326D01*
Y262000D01*
D02*
G37*
G36*
X76512Y259669D02*
X74732D01*
Y257102D01*
X76512D01*
Y259669D01*
D02*
G37*
G36*
X73732D02*
X71953D01*
Y257102D01*
X73732D01*
Y259669D01*
D02*
G37*
G36*
X57512D02*
X55732D01*
Y257102D01*
X57512D01*
Y259669D01*
D02*
G37*
G36*
X54732D02*
X52953D01*
Y257102D01*
X54732D01*
Y259669D01*
D02*
G37*
G36*
X20448Y266158D02*
X20095D01*
Y255815D01*
X30437D01*
Y256168D01*
X30170Y257854D01*
X29643Y259477D01*
X28868Y260998D01*
X27865Y262378D01*
X26658Y263585D01*
X25277Y264588D01*
X23757Y265363D01*
X22133Y265891D01*
X20448Y266158D01*
D02*
G37*
G36*
X19094D02*
X18741D01*
X17055Y265891D01*
X15432Y265363D01*
X13912Y264588D01*
X12531Y263585D01*
X11324Y262378D01*
X10321Y260998D01*
X9546Y259477D01*
X9019Y257854D01*
X8752Y256168D01*
Y255815D01*
X19094D01*
Y266158D01*
D02*
G37*
G36*
X255853Y265843D02*
X255500D01*
Y255500D01*
X265843D01*
Y255853D01*
X265576Y257539D01*
X265048Y259162D01*
X264273Y260683D01*
X263270Y262063D01*
X262063Y263270D01*
X260683Y264273D01*
X259162Y265048D01*
X257539Y265576D01*
X255853Y265843D01*
D02*
G37*
G36*
X254500D02*
X254147D01*
X252461Y265576D01*
X250838Y265048D01*
X249317Y264273D01*
X247937Y263270D01*
X246730Y262063D01*
X245727Y260683D01*
X244952Y259162D01*
X244425Y257539D01*
X244158Y255853D01*
Y255500D01*
X254500D01*
Y265843D01*
D02*
G37*
G36*
X151358Y251800D02*
X150642D01*
X149980Y251526D01*
X149576Y251121D01*
X145424D01*
X145020Y251526D01*
X144358Y251800D01*
X143642D01*
X142980Y251526D01*
X142474Y251020D01*
X142200Y250358D01*
Y249642D01*
X142474Y248980D01*
X142980Y248474D01*
X143642Y248200D01*
X144358D01*
X145020Y248474D01*
X145424Y248879D01*
X149576D01*
X149980Y248474D01*
X150642Y248200D01*
X151358D01*
X152020Y248474D01*
X152526Y248980D01*
X152800Y249642D01*
Y250358D01*
X152526Y251020D01*
X152020Y251526D01*
X151358Y251800D01*
D02*
G37*
G36*
X9500Y248174D02*
Y246500D01*
X11174D01*
X10865Y247246D01*
X10246Y247865D01*
X9500Y248174D01*
D02*
G37*
G36*
X8500D02*
X7754Y247865D01*
X7135Y247246D01*
X6826Y246500D01*
X8500D01*
Y248174D01*
D02*
G37*
G36*
X126232Y247772D02*
X123961D01*
Y245500D01*
X126232D01*
Y247772D01*
D02*
G37*
G36*
X139858Y251300D02*
X139142D01*
X138480Y251026D01*
X137974Y250520D01*
X137700Y249858D01*
Y249142D01*
X137974Y248480D01*
X138183Y248272D01*
X137976Y247772D01*
X132744D01*
Y245000D01*
X131744D01*
Y247772D01*
X127232D01*
Y245000D01*
X126732D01*
Y244500D01*
X123961D01*
Y242228D01*
Y239988D01*
X126732D01*
Y238988D01*
X123961D01*
Y236717D01*
Y234476D01*
X126732D01*
Y233976D01*
X127232D01*
Y231205D01*
X131744D01*
Y233976D01*
X132744D01*
Y231205D01*
X137256D01*
Y233976D01*
X137756D01*
Y234476D01*
X140528D01*
Y236717D01*
Y238988D01*
X137756D01*
Y239988D01*
X140528D01*
Y242228D01*
Y244500D01*
X137756D01*
Y245500D01*
X140528D01*
Y246233D01*
X140989Y246424D01*
X146378Y241035D01*
Y239924D01*
X145974Y239520D01*
X145700Y238858D01*
Y238142D01*
X145974Y237480D01*
X146480Y236974D01*
X147142Y236700D01*
X147858D01*
X148520Y236974D01*
X149026Y237480D01*
X149300Y238142D01*
Y238858D01*
X149026Y239520D01*
X148622Y239924D01*
Y241500D01*
X148622Y241500D01*
X148536Y241929D01*
X148293Y242293D01*
X148293Y242293D01*
X141300Y249286D01*
Y249858D01*
X141026Y250520D01*
X140520Y251026D01*
X139858Y251300D01*
D02*
G37*
G36*
X57512Y246898D02*
X55732D01*
Y244331D01*
X57512D01*
Y246898D01*
D02*
G37*
G36*
X54732D02*
X52953D01*
Y244331D01*
X54732D01*
Y246898D01*
D02*
G37*
G36*
X265843Y254500D02*
X255500D01*
Y244158D01*
X255853D01*
X257539Y244425D01*
X259162Y244952D01*
X260683Y245727D01*
X262063Y246730D01*
X263270Y247937D01*
X264273Y249317D01*
X265048Y250838D01*
X265576Y252461D01*
X265843Y254147D01*
Y254500D01*
D02*
G37*
G36*
X254500D02*
X244158D01*
Y254147D01*
X244425Y252461D01*
X244952Y250838D01*
X245727Y249317D01*
X246730Y247937D01*
X247937Y246730D01*
X249317Y245727D01*
X250838Y244952D01*
X252461Y244425D01*
X254147Y244158D01*
X254500D01*
Y254500D01*
D02*
G37*
G36*
X24500Y244174D02*
Y242500D01*
X26174D01*
X25865Y243246D01*
X25246Y243865D01*
X24500Y244174D01*
D02*
G37*
G36*
X23500D02*
X22754Y243865D01*
X22135Y243246D01*
X21826Y242500D01*
X23500D01*
Y244174D01*
D02*
G37*
G36*
X30437Y254815D02*
X8752D01*
Y254462D01*
X9019Y252776D01*
X9546Y251153D01*
X10321Y249632D01*
X11324Y248252D01*
X12531Y247045D01*
X13912Y246042D01*
X15432Y245267D01*
X17055Y244739D01*
X18143Y244567D01*
X18203Y244051D01*
X17754Y243865D01*
X17135Y243246D01*
X16826Y242500D01*
X21174D01*
X20865Y243246D01*
X20246Y243865D01*
X19987Y243972D01*
X20086Y244472D01*
X20448D01*
X22133Y244739D01*
X23757Y245267D01*
X25277Y246042D01*
X26658Y247045D01*
X27865Y248252D01*
X28868Y249632D01*
X29643Y251153D01*
X30170Y252776D01*
X30437Y254462D01*
Y254815D01*
D02*
G37*
G36*
X14500Y244174D02*
Y242500D01*
X16174D01*
X15865Y243246D01*
X15246Y243865D01*
X14500Y244174D01*
D02*
G37*
G36*
X13500D02*
X12754Y243865D01*
X12135Y243246D01*
X11826Y242500D01*
X13500D01*
Y244174D01*
D02*
G37*
G36*
X11174Y245500D02*
X6826D01*
X7135Y244754D01*
X7562Y244327D01*
X7698Y244000D01*
X7562Y243673D01*
X7135Y243246D01*
X6826Y242500D01*
X11174D01*
X10865Y243246D01*
X10438Y243673D01*
X10302Y244000D01*
X10438Y244327D01*
X10865Y244754D01*
X11174Y245500D01*
D02*
G37*
G36*
X233759Y249760D02*
X226240D01*
Y242241D01*
X233759D01*
Y249760D01*
D02*
G37*
G36*
X211759D02*
X204241D01*
Y242241D01*
X211759D01*
Y249760D01*
D02*
G37*
G36*
X200759D02*
X193241D01*
Y242241D01*
X200759D01*
Y249760D01*
D02*
G37*
G36*
X186495D02*
X185505D01*
X184549Y249503D01*
X183692Y249008D01*
X182992Y248308D01*
X182497Y247451D01*
X182241Y246495D01*
Y245505D01*
X182497Y244549D01*
X182992Y243692D01*
X183692Y242992D01*
X184549Y242497D01*
X185505Y242241D01*
X186495D01*
X187451Y242497D01*
X188308Y242992D01*
X189008Y243692D01*
X189503Y244549D01*
X189759Y245505D01*
Y246495D01*
X189503Y247451D01*
X189008Y248308D01*
X188308Y249008D01*
X187451Y249503D01*
X186495Y249760D01*
D02*
G37*
G36*
X76512Y243331D02*
X74732D01*
Y240764D01*
X76512D01*
Y243331D01*
D02*
G37*
G36*
X73732D02*
X71953D01*
Y240764D01*
X73732D01*
Y243331D01*
D02*
G37*
G36*
X57512D02*
X55732D01*
Y240764D01*
X57512D01*
Y243331D01*
D02*
G37*
G36*
X54732D02*
X52953D01*
Y240764D01*
X54732D01*
Y243331D01*
D02*
G37*
G36*
X26174Y241500D02*
X24500D01*
Y239826D01*
X25246Y240135D01*
X25865Y240754D01*
X26174Y241500D01*
D02*
G37*
G36*
X23500D02*
X21826D01*
X22135Y240754D01*
X22754Y240135D01*
X23500Y239826D01*
Y241500D01*
D02*
G37*
G36*
X21174D02*
X19500D01*
Y239826D01*
X20246Y240135D01*
X20865Y240754D01*
X21174Y241500D01*
D02*
G37*
G36*
X18500D02*
X16826D01*
X17135Y240754D01*
X17754Y240135D01*
X18500Y239826D01*
Y241500D01*
D02*
G37*
G36*
X16174D02*
X14500D01*
Y239826D01*
X15246Y240135D01*
X15865Y240754D01*
X16174Y241500D01*
D02*
G37*
G36*
X13500D02*
X11826D01*
X12135Y240754D01*
X12754Y240135D01*
X13500Y239826D01*
Y241500D01*
D02*
G37*
G36*
X11174D02*
X9500D01*
Y239826D01*
X10246Y240135D01*
X10865Y240754D01*
X11174Y241500D01*
D02*
G37*
G36*
X8500D02*
X6826D01*
X7135Y240754D01*
X7754Y240135D01*
X8500Y239826D01*
Y241500D01*
D02*
G37*
G36*
X242358Y253300D02*
X241642D01*
X240980Y253026D01*
X240474Y252520D01*
X240305Y252113D01*
X239347Y251153D01*
X238993Y250624D01*
X238869Y250000D01*
Y241265D01*
X238700Y240858D01*
Y240142D01*
X238974Y239480D01*
X239480Y238974D01*
X240142Y238700D01*
X240858D01*
X241520Y238974D01*
X242026Y239480D01*
X242300Y240142D01*
Y240858D01*
X242131Y241265D01*
Y249324D01*
X242613Y249805D01*
X243020Y249974D01*
X243526Y250480D01*
X243800Y251142D01*
Y251858D01*
X243526Y252520D01*
X243020Y253026D01*
X242358Y253300D01*
D02*
G37*
G36*
X226358Y235800D02*
X225642D01*
X224980Y235526D01*
X224474Y235020D01*
X224395Y234829D01*
X224090Y234768D01*
X223727Y234525D01*
X223727Y234525D01*
X222451Y233250D01*
X215750D01*
Y224963D01*
X224037D01*
Y231663D01*
X224914Y232540D01*
X224980Y232474D01*
X225642Y232200D01*
X226358D01*
X227020Y232474D01*
X227526Y232980D01*
X227800Y233642D01*
Y234358D01*
X227526Y235020D01*
X227020Y235526D01*
X226358Y235800D01*
D02*
G37*
G36*
X59937Y234874D02*
X55894D01*
Y232012D01*
X59937D01*
Y234874D01*
D02*
G37*
G36*
X54894D02*
X50850D01*
Y232012D01*
X54894D01*
Y234874D01*
D02*
G37*
G36*
X24110D02*
X19279D01*
Y232012D01*
X24110D01*
Y234874D01*
D02*
G37*
G36*
X18280D02*
X13449D01*
Y232012D01*
X18280D01*
Y234874D01*
D02*
G37*
G36*
X140528Y233476D02*
X138256D01*
Y231205D01*
X140528D01*
Y233476D01*
D02*
G37*
G36*
X126232D02*
X123961D01*
Y231205D01*
X126232D01*
Y233476D01*
D02*
G37*
G36*
X54894Y231012D02*
X50850D01*
Y228150D01*
X54894D01*
Y231012D01*
D02*
G37*
G36*
X24110Y231012D02*
X19279D01*
Y228150D01*
X24110D01*
Y231012D01*
D02*
G37*
G36*
X18280D02*
X13449D01*
Y228150D01*
X18280D01*
Y231012D01*
D02*
G37*
G36*
X16500Y227174D02*
X15754Y226865D01*
X15327Y226438D01*
X15000Y226302D01*
X14673Y226438D01*
X14246Y226865D01*
X13500Y227174D01*
Y225000D01*
X12500D01*
Y227174D01*
X11754Y226865D01*
X11327Y226438D01*
X11000Y226302D01*
X10673Y226438D01*
X10246Y226865D01*
X9500Y227174D01*
Y225000D01*
X9000D01*
Y224500D01*
X6826D01*
X7135Y223754D01*
X7562Y223327D01*
X7698Y223000D01*
X7562Y222673D01*
X7135Y222246D01*
X6826Y221500D01*
X9000D01*
Y221000D01*
X9500D01*
Y218826D01*
X10246Y219135D01*
X10673Y219562D01*
X11000Y219698D01*
X11327Y219562D01*
X11754Y219135D01*
X12500Y218826D01*
Y221000D01*
X13000D01*
Y221500D01*
X15174D01*
X14865Y222246D01*
X14438Y222673D01*
X14302Y223000D01*
X14438Y223327D01*
X14673Y223562D01*
X15000Y223698D01*
X15327Y223562D01*
X15754Y223135D01*
X16500Y222826D01*
Y225000D01*
Y227174D01*
D02*
G37*
G36*
X193014Y227674D02*
X192268Y227365D01*
X191649Y226746D01*
X191340Y226000D01*
X193014D01*
Y227674D01*
D02*
G37*
G36*
X17500Y227174D02*
Y225500D01*
X19174D01*
X18865Y226246D01*
X18246Y226865D01*
X17500Y227174D01*
D02*
G37*
G36*
X8500D02*
X7754Y226865D01*
X7135Y226246D01*
X6826Y225500D01*
X8500D01*
Y227174D01*
D02*
G37*
G36*
X195688Y225000D02*
X194014D01*
Y223326D01*
X194760Y223635D01*
X195379Y224254D01*
X195688Y225000D01*
D02*
G37*
G36*
X193014D02*
X191340D01*
X191649Y224254D01*
X192268Y223635D01*
X193014Y223326D01*
Y225000D01*
D02*
G37*
G36*
X19174Y224500D02*
X17500D01*
Y222826D01*
X18246Y223135D01*
X18865Y223754D01*
X19174Y224500D01*
D02*
G37*
G36*
X15174Y220500D02*
X13500D01*
Y218826D01*
X14246Y219135D01*
X14865Y219754D01*
X15174Y220500D01*
D02*
G37*
G36*
X8500D02*
X6826D01*
X7135Y219754D01*
X7754Y219135D01*
X8500Y218826D01*
Y220500D01*
D02*
G37*
G36*
X188276Y209854D02*
X186004D01*
Y206402D01*
X188276D01*
Y209854D01*
D02*
G37*
G36*
X185004D02*
X182732D01*
Y206402D01*
X185004D01*
Y209854D01*
D02*
G37*
G36*
X185247Y201174D02*
Y199500D01*
X186921D01*
X186612Y200246D01*
X185993Y200865D01*
X185247Y201174D01*
D02*
G37*
G36*
X184247D02*
X183501Y200865D01*
X182882Y200246D01*
X182573Y199500D01*
X184247D01*
Y201174D01*
D02*
G37*
G36*
X186921Y198500D02*
X185247D01*
Y196826D01*
X185993Y197135D01*
X186612Y197754D01*
X186921Y198500D01*
D02*
G37*
G36*
X184247D02*
X182573D01*
X182882Y197754D01*
X183501Y197135D01*
X184247Y196826D01*
Y198500D01*
D02*
G37*
G36*
X211500Y193174D02*
X210754Y192865D01*
X210327Y192438D01*
X210000Y192302D01*
X209673Y192438D01*
X209246Y192865D01*
X208500Y193174D01*
Y191000D01*
Y188826D01*
X209246Y189135D01*
X209673Y189562D01*
X210000Y189698D01*
X210327Y189562D01*
X210754Y189135D01*
X211500Y188826D01*
Y191000D01*
Y193174D01*
D02*
G37*
G36*
X207500D02*
X206754Y192865D01*
X206327Y192438D01*
X206000Y192302D01*
X205673Y192438D01*
X205246Y192865D01*
X204500Y193174D01*
Y191000D01*
Y188826D01*
X205246Y189135D01*
X205673Y189562D01*
X206000Y189698D01*
X206327Y189562D01*
X206754Y189135D01*
X207500Y188826D01*
Y191000D01*
Y193174D01*
D02*
G37*
G36*
X203500D02*
X202754Y192865D01*
X202327Y192438D01*
X202000Y192302D01*
X201673Y192438D01*
X201246Y192865D01*
X200500Y193174D01*
Y191000D01*
Y188826D01*
X201246Y189135D01*
X201673Y189562D01*
X202000Y189698D01*
X202327Y189562D01*
X202754Y189135D01*
X203500Y188826D01*
Y191000D01*
Y193174D01*
D02*
G37*
G36*
X199500D02*
X198754Y192865D01*
X198327Y192438D01*
X198000Y192302D01*
X197673Y192438D01*
X197246Y192865D01*
X196500Y193174D01*
Y191000D01*
Y188826D01*
X197246Y189135D01*
X197673Y189562D01*
X198000Y189698D01*
X198327Y189562D01*
X198754Y189135D01*
X199500Y188826D01*
Y191000D01*
Y193174D01*
D02*
G37*
G36*
X195500D02*
X194754Y192865D01*
X194327Y192438D01*
X194000Y192302D01*
X193673Y192438D01*
X193246Y192865D01*
X192500Y193174D01*
Y191000D01*
Y188826D01*
X193246Y189135D01*
X193673Y189562D01*
X194000Y189698D01*
X194327Y189562D01*
X194754Y189135D01*
X195500Y188826D01*
Y191000D01*
Y193174D01*
D02*
G37*
G36*
X191500D02*
X190754Y192865D01*
X190327Y192438D01*
X190000Y192302D01*
X189673Y192438D01*
X189246Y192865D01*
X188500Y193174D01*
Y191000D01*
Y188826D01*
X189246Y189135D01*
X189673Y189562D01*
X190000Y189698D01*
X190327Y189562D01*
X190754Y189135D01*
X191500Y188826D01*
Y191000D01*
Y193174D01*
D02*
G37*
G36*
X187500D02*
X186754Y192865D01*
X186327Y192438D01*
X186000Y192302D01*
X185673Y192438D01*
X185246Y192865D01*
X184500Y193174D01*
Y191000D01*
Y188826D01*
X185246Y189135D01*
X185673Y189562D01*
X186000Y189698D01*
X186327Y189562D01*
X186754Y189135D01*
X187500Y188826D01*
Y191000D01*
Y193174D01*
D02*
G37*
G36*
X183500D02*
X182754Y192865D01*
X182327Y192438D01*
X182000Y192302D01*
X181673Y192438D01*
X181246Y192865D01*
X180500Y193174D01*
Y191000D01*
X180000D01*
Y190500D01*
X177772D01*
X177527Y190134D01*
X176597D01*
X176500Y190174D01*
Y188059D01*
X180921D01*
Y189000D01*
X181246Y189135D01*
X181673Y189562D01*
X182000Y189698D01*
X182327Y189562D01*
X182754Y189135D01*
X183500Y188826D01*
Y191000D01*
Y193174D01*
D02*
G37*
G36*
X216500D02*
X215754Y192865D01*
X215135Y192246D01*
X214826Y191500D01*
X216500D01*
Y193174D01*
D02*
G37*
G36*
X212500D02*
Y191500D01*
X214174D01*
X213865Y192246D01*
X213246Y192865D01*
X212500Y193174D01*
D02*
G37*
G36*
X179500D02*
X178754Y192865D01*
X178135Y192246D01*
X177826Y191500D01*
X179500D01*
Y193174D01*
D02*
G37*
G36*
X236500Y192174D02*
Y190500D01*
X238174D01*
X237865Y191246D01*
X237246Y191865D01*
X236500Y192174D01*
D02*
G37*
G36*
X235500D02*
X234754Y191865D01*
X234135Y191246D01*
X233826Y190500D01*
X235500D01*
Y192174D01*
D02*
G37*
G36*
X229500D02*
Y190500D01*
X231174D01*
X230865Y191246D01*
X230246Y191865D01*
X229500Y192174D01*
D02*
G37*
G36*
X243000Y191674D02*
X242254Y191365D01*
X241635Y190746D01*
X241326Y190000D01*
X243000D01*
Y191674D01*
D02*
G37*
G36*
X216500Y190500D02*
X214826D01*
X215135Y189754D01*
X215754Y189135D01*
X216500Y188826D01*
Y190500D01*
D02*
G37*
G36*
X214174D02*
X212500D01*
Y188826D01*
X213246Y189135D01*
X213865Y189754D01*
X214174Y190500D01*
D02*
G37*
G36*
X235500Y189500D02*
X233826D01*
X234135Y188754D01*
X234296Y188593D01*
X234013Y188169D01*
X234000Y188174D01*
Y186500D01*
X235674D01*
X235365Y187246D01*
X235204Y187407D01*
X235487Y187831D01*
X235500Y187826D01*
Y189500D01*
D02*
G37*
G36*
X238174D02*
X236500D01*
Y187826D01*
X237246Y188135D01*
X237865Y188754D01*
X238174Y189500D01*
D02*
G37*
G36*
X239000Y188174D02*
X238254Y187865D01*
X237635Y187246D01*
X237326Y186500D01*
X239000D01*
Y188174D01*
D02*
G37*
G36*
X184500D02*
Y186500D01*
X186174D01*
X185865Y187246D01*
X185246Y187865D01*
X184500Y188174D01*
D02*
G37*
G36*
X183500D02*
X182754Y187865D01*
X182135Y187246D01*
X181826Y186500D01*
X183500D01*
Y188174D01*
D02*
G37*
G36*
X68858Y187756D02*
X66488D01*
Y184500D01*
X68858D01*
Y187756D01*
D02*
G37*
G36*
X186174Y185500D02*
X181826D01*
X182135Y184754D01*
X182562Y184327D01*
X182698Y184000D01*
X182562Y183673D01*
X182135Y183246D01*
X181826Y182500D01*
X186174D01*
X185865Y183246D01*
X185438Y183673D01*
X185302Y184000D01*
X185438Y184327D01*
X185865Y184754D01*
X186174Y185500D01*
D02*
G37*
G36*
X68858Y183500D02*
X66488D01*
Y180244D01*
X68858D01*
Y183500D01*
D02*
G37*
G36*
X186174Y181500D02*
X181826D01*
X182135Y180754D01*
X182562Y180327D01*
X182698Y180000D01*
X182562Y179673D01*
X182135Y179246D01*
X181826Y178500D01*
X186174D01*
X185865Y179246D01*
X185438Y179673D01*
X185302Y180000D01*
X185438Y180327D01*
X185865Y180754D01*
X186174Y181500D01*
D02*
G37*
G36*
X259674Y179500D02*
X258000D01*
Y177826D01*
X258746Y178135D01*
X259365Y178754D01*
X259674Y179500D01*
D02*
G37*
G36*
X60331Y178181D02*
X56878D01*
Y174531D01*
X60331D01*
Y178181D01*
D02*
G37*
G36*
X55878D02*
X52425D01*
Y174531D01*
X55878D01*
Y178181D01*
D02*
G37*
G36*
X186174Y177500D02*
X181826D01*
X182135Y176754D01*
X182562Y176327D01*
X182698Y176000D01*
X182562Y175673D01*
X182135Y175246D01*
X181826Y174500D01*
X186174D01*
X185865Y175246D01*
X185438Y175673D01*
X185302Y176000D01*
X185438Y176327D01*
X185865Y176754D01*
X186174Y177500D01*
D02*
G37*
G36*
X262539Y176969D02*
X262325D01*
X260944Y176599D01*
X259706Y175884D01*
X258695Y174873D01*
X257980Y173635D01*
X257610Y172254D01*
Y172039D01*
X262539D01*
Y176969D01*
D02*
G37*
G36*
X243675D02*
X243461D01*
Y172039D01*
X248390D01*
Y172254D01*
X248020Y173635D01*
X247305Y174873D01*
X246294Y175884D01*
X245056Y176599D01*
X243675Y176969D01*
D02*
G37*
G36*
X242461D02*
X242246D01*
X240865Y176599D01*
X239627Y175884D01*
X238616Y174873D01*
X237901Y173635D01*
X237531Y172254D01*
Y172039D01*
X242461D01*
Y176969D01*
D02*
G37*
G36*
X233500Y173174D02*
Y171500D01*
X235174D01*
X234865Y172246D01*
X234246Y172865D01*
X233500Y173174D01*
D02*
G37*
G36*
X232500D02*
X231754Y172865D01*
X231135Y172246D01*
X230826Y171500D01*
X232500D01*
Y173174D01*
D02*
G37*
G36*
X24110Y173850D02*
X19280D01*
Y170988D01*
X24110D01*
Y173850D01*
D02*
G37*
G36*
X18280D02*
X13449D01*
Y170988D01*
X18280D01*
Y173850D01*
D02*
G37*
G36*
X186174Y173500D02*
X181826D01*
X182135Y172754D01*
X182562Y172327D01*
X182698Y172000D01*
X182562Y171673D01*
X182135Y171246D01*
X181826Y170500D01*
X186174D01*
X185865Y171246D01*
X185438Y171673D01*
X185302Y172000D01*
X185438Y172327D01*
X185865Y172754D01*
X186174Y173500D01*
D02*
G37*
G36*
X60331Y173531D02*
X56878D01*
Y169882D01*
X60331D01*
Y173531D01*
D02*
G37*
G36*
X55878D02*
X52425D01*
Y169882D01*
X55878D01*
Y173531D01*
D02*
G37*
G36*
X253500Y170174D02*
Y168000D01*
X252500D01*
Y170174D01*
X251754Y169865D01*
X251135Y169246D01*
X251016Y168960D01*
X250500Y169174D01*
Y167000D01*
X249500D01*
Y169174D01*
X248754Y168865D01*
X248135Y168246D01*
X247800Y167438D01*
Y166700D01*
X247062D01*
X246254Y166365D01*
X245635Y165746D01*
X245326Y165000D01*
X247500D01*
Y164000D01*
X245326D01*
X245635Y163254D01*
X245639Y163250D01*
X245135Y162746D01*
X244826Y162000D01*
X247000D01*
Y161000D01*
X244826D01*
X245135Y160254D01*
X245639Y159750D01*
X245635Y159746D01*
X245326Y159000D01*
X247500D01*
Y158000D01*
X245326D01*
X245635Y157254D01*
X246254Y156635D01*
X247062Y156300D01*
X247300D01*
Y155562D01*
X247340Y155467D01*
X246916Y155183D01*
X246294Y155805D01*
X245056Y156520D01*
X243675Y156890D01*
X243461D01*
Y151961D01*
X248390D01*
Y152175D01*
X248020Y153556D01*
X247875Y153806D01*
X248231Y154115D01*
X248266Y154130D01*
X248967Y153840D01*
X248826Y153500D01*
X251000D01*
Y152500D01*
X248826D01*
X249135Y151754D01*
X249754Y151135D01*
X250467Y150840D01*
X250326Y150500D01*
X252500D01*
Y149500D01*
X250326D01*
X250467Y149160D01*
X250559Y148718D01*
X250217Y148557D01*
X249754Y148365D01*
X249135Y147746D01*
X248826Y147000D01*
X251000D01*
Y146000D01*
X248826D01*
X248931Y145747D01*
X248653Y145331D01*
X246126D01*
Y140500D01*
X249193D01*
Y140000D01*
X249693D01*
Y134669D01*
X250219D01*
X250754Y134135D01*
X251208Y133947D01*
X251555Y133590D01*
Y132500D01*
X253126D01*
Y131500D01*
X251555D01*
Y130700D01*
X251062D01*
X250254Y130365D01*
X249635Y129746D01*
X249326Y129000D01*
X251500D01*
Y128000D01*
X249326D01*
X249635Y127254D01*
X249889Y127000D01*
X249635Y126746D01*
X249326Y126000D01*
X251500D01*
Y125000D01*
X249326D01*
X249635Y124254D01*
X250254Y123635D01*
X251062Y123300D01*
X251429D01*
Y122500D01*
X253000D01*
Y121500D01*
X251429D01*
Y120410D01*
X251203Y120320D01*
Y107309D01*
X257915D01*
Y119838D01*
X258000Y120105D01*
Y122500D01*
X258500D01*
Y123000D01*
X260674D01*
X260365Y123746D01*
X260111Y124000D01*
X260365Y124254D01*
X260674Y125000D01*
X258500D01*
Y126000D01*
X260674D01*
X260365Y126746D01*
X260111Y127000D01*
X260365Y127254D01*
X260674Y128000D01*
X258500D01*
Y129000D01*
X260674D01*
X260365Y129746D01*
X259861Y130250D01*
X260365Y130754D01*
X260674Y131500D01*
X258500D01*
Y132500D01*
X260674D01*
X260365Y133246D01*
X259746Y133865D01*
X259731Y134345D01*
X260009Y134669D01*
X260307D01*
Y140000D01*
X260807D01*
Y140500D01*
X263874D01*
Y145331D01*
X261347D01*
X261069Y145747D01*
X261200Y146062D01*
X261461Y146263D01*
X262325Y146031D01*
X262539D01*
Y151461D01*
Y156890D01*
X262325D01*
X260944Y156520D01*
X260694Y156376D01*
X260385Y156731D01*
X260370Y156766D01*
X260674Y157500D01*
X258500D01*
Y158500D01*
X260674D01*
X260365Y159246D01*
X260361Y159250D01*
X260865Y159754D01*
X261174Y160500D01*
X259000D01*
Y161500D01*
X261174D01*
X260865Y162246D01*
X260361Y162750D01*
X260365Y162754D01*
X260674Y163500D01*
X258500D01*
Y164500D01*
X260674D01*
X260365Y165246D01*
X259746Y165865D01*
X258938Y166200D01*
X258591D01*
X258267Y166500D01*
X256000D01*
Y167000D01*
X255500D01*
Y169174D01*
X254983Y168960D01*
X254865Y169246D01*
X254246Y169865D01*
X253500Y170174D01*
D02*
G37*
G36*
X186174Y169500D02*
X184500D01*
Y167826D01*
X185246Y168135D01*
X185865Y168754D01*
X186174Y169500D01*
D02*
G37*
G36*
X183500D02*
X181826D01*
X182135Y168754D01*
X182754Y168135D01*
X183500Y167826D01*
Y169500D01*
D02*
G37*
G36*
X256500Y169174D02*
Y167500D01*
X258174D01*
X257865Y168246D01*
X257246Y168865D01*
X256500Y169174D01*
D02*
G37*
G36*
X235174Y170500D02*
X230826D01*
X231135Y169754D01*
X231562Y169327D01*
X231698Y169000D01*
X231562Y168673D01*
X231135Y168246D01*
X230826Y167500D01*
X235174D01*
X234865Y168246D01*
X234438Y168673D01*
X234302Y169000D01*
X234438Y169327D01*
X234865Y169754D01*
X235174Y170500D01*
D02*
G37*
G36*
X24110Y169988D02*
X19280D01*
Y167126D01*
X24110D01*
Y169988D01*
D02*
G37*
G36*
X18280D02*
X13449D01*
Y167126D01*
X18280D01*
Y169988D01*
D02*
G37*
G36*
X262539Y171039D02*
X257610D01*
Y170825D01*
X257980Y169444D01*
X258695Y168206D01*
X259706Y167195D01*
X260944Y166480D01*
X262325Y166110D01*
X262539D01*
Y171039D01*
D02*
G37*
G36*
X248390Y171039D02*
X243461D01*
Y166110D01*
X243675D01*
X245056Y166480D01*
X246294Y167195D01*
X247305Y168206D01*
X248020Y169444D01*
X248390Y170825D01*
Y171039D01*
D02*
G37*
G36*
X242461D02*
X237531D01*
Y170825D01*
X237901Y169444D01*
X238616Y168206D01*
X239627Y167195D01*
X240865Y166480D01*
X242246Y166110D01*
X242461D01*
Y171039D01*
D02*
G37*
G36*
X229500Y166174D02*
X228754Y165865D01*
X228327Y165438D01*
X228000Y165302D01*
X227673Y165438D01*
X227246Y165865D01*
X226500Y166174D01*
Y164000D01*
Y161826D01*
X227246Y162135D01*
X227673Y162562D01*
X228000Y162698D01*
X228327Y162562D01*
X228754Y162135D01*
X229500Y161826D01*
Y164000D01*
Y166174D01*
D02*
G37*
G36*
X225500D02*
X224754Y165865D01*
X224327Y165438D01*
X224000Y165302D01*
X223673Y165438D01*
X223246Y165865D01*
X222500Y166174D01*
Y164000D01*
Y161826D01*
X223246Y162135D01*
X223673Y162562D01*
X224000Y162698D01*
X224327Y162562D01*
X224754Y162135D01*
X225500Y161826D01*
Y164000D01*
Y166174D01*
D02*
G37*
G36*
X221500D02*
X220754Y165865D01*
X220327Y165438D01*
X220000Y165302D01*
X219673Y165438D01*
X219246Y165865D01*
X218500Y166174D01*
Y164000D01*
Y161826D01*
X219246Y162135D01*
X219673Y162562D01*
X220000Y162698D01*
X220327Y162562D01*
X220754Y162135D01*
X221500Y161826D01*
Y164000D01*
Y166174D01*
D02*
G37*
G36*
X217500D02*
X216754Y165865D01*
X216327Y165438D01*
X216000Y165302D01*
X215673Y165438D01*
X215246Y165865D01*
X214500Y166174D01*
Y164000D01*
Y161826D01*
X215246Y162135D01*
X215673Y162562D01*
X216000Y162698D01*
X216327Y162562D01*
X216754Y162135D01*
X217500Y161826D01*
Y164000D01*
Y166174D01*
D02*
G37*
G36*
X213500D02*
X212754Y165865D01*
X212327Y165438D01*
X212000Y165302D01*
X211673Y165438D01*
X211246Y165865D01*
X210500Y166174D01*
Y164000D01*
Y161826D01*
X211246Y162135D01*
X211673Y162562D01*
X212000Y162698D01*
X212327Y162562D01*
X212754Y162135D01*
X213500Y161826D01*
Y164000D01*
Y166174D01*
D02*
G37*
G36*
X209500D02*
X208754Y165865D01*
X208327Y165438D01*
X208000Y165302D01*
X207673Y165438D01*
X207246Y165865D01*
X206500Y166174D01*
Y164000D01*
Y161826D01*
X207246Y162135D01*
X207673Y162562D01*
X208000Y162698D01*
X208327Y162562D01*
X208754Y162135D01*
X209500Y161826D01*
Y164000D01*
Y166174D01*
D02*
G37*
G36*
X205500D02*
X204754Y165865D01*
X204327Y165438D01*
X204000Y165302D01*
X203673Y165438D01*
X203246Y165865D01*
X202500Y166174D01*
Y164000D01*
Y161826D01*
X203246Y162135D01*
X203673Y162562D01*
X204000Y162698D01*
X204327Y162562D01*
X204754Y162135D01*
X205500Y161826D01*
Y164000D01*
Y166174D01*
D02*
G37*
G36*
X201500D02*
X200754Y165865D01*
X200327Y165438D01*
X200000Y165302D01*
X199673Y165438D01*
X199246Y165865D01*
X198500Y166174D01*
Y164000D01*
Y161826D01*
X199246Y162135D01*
X199673Y162562D01*
X200000Y162698D01*
X200327Y162562D01*
X200754Y162135D01*
X201500Y161826D01*
Y164000D01*
Y166174D01*
D02*
G37*
G36*
X189500D02*
X188754Y165865D01*
X188327Y165438D01*
X188000Y165302D01*
X187673Y165438D01*
X187246Y165865D01*
X186500Y166174D01*
Y164000D01*
Y161826D01*
X187246Y162135D01*
X187673Y162562D01*
X188000Y162698D01*
X188327Y162562D01*
X188754Y162135D01*
X189500Y161826D01*
Y164000D01*
Y166174D01*
D02*
G37*
G36*
X185500D02*
X184754Y165865D01*
X184327Y165438D01*
X184000Y165302D01*
X183673Y165438D01*
X183246Y165865D01*
X182500Y166174D01*
Y164000D01*
Y161826D01*
X183246Y162135D01*
X183673Y162562D01*
X184000Y162698D01*
X184327Y162562D01*
X184754Y162135D01*
X185500Y161826D01*
Y164000D01*
Y166174D01*
D02*
G37*
G36*
X181500D02*
X180754Y165865D01*
X180327Y165438D01*
X180000Y165302D01*
X179673Y165438D01*
X179246Y165865D01*
X178500Y166174D01*
Y164000D01*
Y161826D01*
X179246Y162135D01*
X179673Y162562D01*
X180000Y162698D01*
X180327Y162562D01*
X180754Y162135D01*
X181500Y161826D01*
Y164000D01*
Y166174D01*
D02*
G37*
G36*
X177500D02*
X176754Y165865D01*
X176327Y165438D01*
X176000Y165302D01*
X175673Y165438D01*
X175246Y165865D01*
X174500Y166174D01*
Y164000D01*
Y161826D01*
X175246Y162135D01*
X175673Y162562D01*
X176000Y162698D01*
X176327Y162562D01*
X176754Y162135D01*
X177500Y161826D01*
Y164000D01*
Y166174D01*
D02*
G37*
G36*
X197500D02*
X196754Y165865D01*
X196194Y165306D01*
X195918Y165270D01*
X195617Y165303D01*
X195062Y165858D01*
X194316Y166167D01*
Y163993D01*
Y161819D01*
X195062Y162128D01*
X195621Y162687D01*
X195897Y162723D01*
X196198Y162690D01*
X196754Y162135D01*
X197500Y161826D01*
Y164000D01*
Y166174D01*
D02*
G37*
G36*
X235174Y166500D02*
X233500D01*
Y164826D01*
X234246Y165135D01*
X234865Y165754D01*
X235174Y166500D01*
D02*
G37*
G36*
X232500D02*
X230759D01*
X230500Y166241D01*
Y164500D01*
X232241D01*
X232500Y164759D01*
Y166500D01*
D02*
G37*
G36*
X38756Y164512D02*
X35500D01*
Y162142D01*
X38756D01*
Y164512D01*
D02*
G37*
G36*
X34500D02*
X31244D01*
Y162142D01*
X34500D01*
Y164512D01*
D02*
G37*
G36*
X232174Y163500D02*
X230500D01*
Y161826D01*
X231246Y162135D01*
X231865Y162754D01*
X232174Y163500D01*
D02*
G37*
G36*
X190500Y166174D02*
Y164000D01*
Y161826D01*
X191246Y162135D01*
X191578Y162466D01*
X191911Y162717D01*
X192231Y162466D01*
X192569Y162128D01*
X193315Y161819D01*
Y163993D01*
Y166167D01*
X192569Y165858D01*
X192238Y165527D01*
X191904Y165276D01*
X191585Y165527D01*
X191246Y165865D01*
X190500Y166174D01*
D02*
G37*
G36*
X38756Y161142D02*
X35500D01*
Y158772D01*
X38756D01*
Y161142D01*
D02*
G37*
G36*
X34500D02*
X31244D01*
Y158772D01*
X34500D01*
Y161142D01*
D02*
G37*
G36*
X50820Y161281D02*
X40959D01*
Y157719D01*
X50820D01*
Y161281D01*
D02*
G37*
G36*
X85358Y161300D02*
X84642D01*
X84596Y161281D01*
X77179D01*
Y157719D01*
X84596D01*
X84642Y157700D01*
X85358D01*
X85404Y157719D01*
X87041D01*
Y161281D01*
X85404D01*
X85358Y161300D01*
D02*
G37*
G36*
Y156300D02*
X84642D01*
X84596Y156281D01*
X77179D01*
Y152719D01*
X84596D01*
X84642Y152700D01*
X85358D01*
X85404Y152719D01*
X87041D01*
Y156281D01*
X85404D01*
X85358Y156300D01*
D02*
G37*
G36*
X38356Y156828D02*
X31644D01*
Y151888D01*
X38356D01*
Y153378D01*
X40959D01*
Y152719D01*
X50820D01*
Y153378D01*
X52576D01*
X52980Y152974D01*
X53642Y152700D01*
X54358D01*
X55020Y152974D01*
X55526Y153480D01*
X55800Y154142D01*
Y154858D01*
X55526Y155520D01*
X55020Y156026D01*
X54358Y156300D01*
X53642D01*
X52980Y156026D01*
X52576Y155622D01*
X50820D01*
Y156281D01*
X40959D01*
Y155622D01*
X38356D01*
Y156828D01*
D02*
G37*
G36*
X242461Y156890D02*
X242246D01*
X240865Y156520D01*
X239627Y155805D01*
X238616Y154794D01*
X237901Y153556D01*
X237531Y152175D01*
Y151961D01*
X242461D01*
Y156890D01*
D02*
G37*
G36*
X72358Y151300D02*
X71642D01*
X70980Y151026D01*
X70474Y150520D01*
X70200Y149858D01*
Y149142D01*
X70474Y148480D01*
X70980Y147974D01*
X71642Y147700D01*
X72358D01*
X73020Y147974D01*
X73424Y148378D01*
X77179D01*
Y147719D01*
X87041D01*
Y151281D01*
X77179D01*
Y150622D01*
X73424D01*
X73020Y151026D01*
X72358Y151300D01*
D02*
G37*
G36*
X50820Y151281D02*
X40959D01*
Y147719D01*
X50820D01*
Y151281D01*
D02*
G37*
G36*
X248390Y150961D02*
X243461D01*
Y146031D01*
X243675D01*
X245056Y146402D01*
X246294Y147116D01*
X247305Y148127D01*
X248020Y149365D01*
X248390Y150746D01*
Y150961D01*
D02*
G37*
G36*
X242461D02*
X237531D01*
Y150746D01*
X237901Y149365D01*
X238616Y148127D01*
X239627Y147116D01*
X240865Y146402D01*
X242246Y146031D01*
X242461D01*
Y150961D01*
D02*
G37*
G36*
X14835Y153480D02*
X14500D01*
Y145500D01*
X22480D01*
Y145835D01*
X22154Y147474D01*
X21515Y149017D01*
X20587Y150406D01*
X19406Y151587D01*
X18017Y152515D01*
X16474Y153154D01*
X14835Y153480D01*
D02*
G37*
G36*
X13500D02*
X13165D01*
X11526Y153154D01*
X9983Y152515D01*
X8594Y151587D01*
X7413Y150406D01*
X6485Y149017D01*
X5846Y147474D01*
X5520Y145835D01*
Y145500D01*
X13500D01*
Y153480D01*
D02*
G37*
G36*
X87441Y146681D02*
X82610D01*
Y145000D01*
X87441D01*
Y146681D01*
D02*
G37*
G36*
X81610D02*
X76780D01*
Y145000D01*
X81610D01*
Y146681D01*
D02*
G37*
G36*
X50820Y146281D02*
X40959D01*
Y142719D01*
X50820D01*
Y146281D01*
D02*
G37*
G36*
X87441Y144000D02*
X82610D01*
Y142319D01*
X87441D01*
Y144000D01*
D02*
G37*
G36*
X81610D02*
X76780D01*
Y142319D01*
X81610D01*
Y144000D01*
D02*
G37*
G36*
X87441Y141681D02*
X82610D01*
Y140000D01*
X87441D01*
Y141681D01*
D02*
G37*
G36*
X51221D02*
X46390D01*
Y140000D01*
X51221D01*
Y141681D01*
D02*
G37*
G36*
X81610D02*
X76780D01*
Y140000D01*
X81610D01*
Y141681D01*
D02*
G37*
G36*
X45390D02*
X40559D01*
Y140000D01*
X45390D01*
Y141681D01*
D02*
G37*
G36*
X87441Y139000D02*
X82610D01*
Y137319D01*
X87441D01*
Y139000D01*
D02*
G37*
G36*
X81610D02*
X76780D01*
Y137319D01*
X81610D01*
Y139000D01*
D02*
G37*
G36*
X51221D02*
X46390D01*
Y137319D01*
X51221D01*
Y139000D01*
D02*
G37*
G36*
X45390D02*
X40559D01*
Y137319D01*
X45390D01*
Y139000D01*
D02*
G37*
G36*
X22480Y144500D02*
X14500D01*
Y136520D01*
X14835D01*
X16474Y136846D01*
X18017Y137485D01*
X19406Y138413D01*
X20587Y139594D01*
X21515Y140983D01*
X22154Y142526D01*
X22480Y144165D01*
Y144500D01*
D02*
G37*
G36*
X13500D02*
X5520D01*
Y144165D01*
X5846Y142526D01*
X6485Y140983D01*
X7413Y139594D01*
X8594Y138413D01*
X9983Y137485D01*
X11526Y136846D01*
X13165Y136520D01*
X13500D01*
Y144500D01*
D02*
G37*
G36*
X87441Y136681D02*
X82610D01*
Y135000D01*
X87441D01*
Y136681D01*
D02*
G37*
G36*
X51221D02*
X46390D01*
Y135000D01*
X51221D01*
Y136681D01*
D02*
G37*
G36*
X81610D02*
X76780D01*
Y135000D01*
X81610D01*
Y136681D01*
D02*
G37*
G36*
X45390D02*
X40559D01*
Y135000D01*
X45390D01*
Y136681D01*
D02*
G37*
G36*
X263874Y139500D02*
X261307D01*
Y134669D01*
X263874D01*
Y139500D01*
D02*
G37*
G36*
X248693D02*
X246126D01*
Y134669D01*
X248693D01*
Y139500D01*
D02*
G37*
G36*
X87441Y134000D02*
X82610D01*
Y132319D01*
X87441D01*
Y134000D01*
D02*
G37*
G36*
X81610D02*
X76780D01*
Y132319D01*
X81610D01*
Y134000D01*
D02*
G37*
G36*
X51221D02*
X46390D01*
Y132319D01*
X51221D01*
Y134000D01*
D02*
G37*
G36*
X45390D02*
X40559D01*
Y132319D01*
X45390D01*
Y134000D01*
D02*
G37*
G36*
X45358Y226300D02*
X44642D01*
X43980Y226026D01*
X43474Y225520D01*
X43200Y224858D01*
Y224142D01*
X43474Y223480D01*
X43878Y223076D01*
Y181000D01*
X43878Y181000D01*
X43964Y180571D01*
X44207Y180207D01*
X48878Y175535D01*
Y169000D01*
X48878Y169000D01*
X48964Y168571D01*
X49207Y168207D01*
X58878Y158535D01*
Y134424D01*
X58474Y134020D01*
X58200Y133358D01*
Y132642D01*
X58474Y131980D01*
X58980Y131474D01*
X59642Y131200D01*
X60358D01*
X61020Y131474D01*
X61526Y131980D01*
X61800Y132642D01*
Y133358D01*
X61526Y134020D01*
X61122Y134424D01*
Y159000D01*
X61122Y159000D01*
X61036Y159429D01*
X60793Y159793D01*
X60793Y159793D01*
X51122Y169465D01*
Y176000D01*
X51122Y176000D01*
X51036Y176429D01*
X50793Y176793D01*
X50793Y176793D01*
X46122Y181465D01*
Y223076D01*
X46526Y223480D01*
X46800Y224142D01*
Y224858D01*
X46526Y225520D01*
X46020Y226026D01*
X45358Y226300D01*
D02*
G37*
G36*
X227765Y160600D02*
X219479D01*
Y156250D01*
Y151920D01*
Y147589D01*
Y143258D01*
Y138928D01*
Y134597D01*
Y130266D01*
X227765D01*
Y134597D01*
Y138928D01*
Y143258D01*
Y147589D01*
Y151920D01*
Y156250D01*
Y160600D01*
D02*
G37*
G36*
X127674Y131695D02*
X126000D01*
Y130021D01*
X126746Y130330D01*
X127365Y130949D01*
X127674Y131695D01*
D02*
G37*
G36*
X87441Y131681D02*
X82610D01*
Y130000D01*
X87441D01*
Y131681D01*
D02*
G37*
G36*
X51221D02*
X46390D01*
Y130000D01*
X51221D01*
Y131681D01*
D02*
G37*
G36*
X81610D02*
X76780D01*
Y130000D01*
X81610D01*
Y131681D01*
D02*
G37*
G36*
X45390D02*
X40559D01*
Y130000D01*
X45390D01*
Y131681D01*
D02*
G37*
G36*
X87441Y129000D02*
X82610D01*
Y127319D01*
X87441D01*
Y129000D01*
D02*
G37*
G36*
X81610D02*
X76780D01*
Y127319D01*
X81610D01*
Y129000D01*
D02*
G37*
G36*
X51221D02*
X46390D01*
Y127319D01*
X51221D01*
Y129000D01*
D02*
G37*
G36*
X45390D02*
X40559D01*
Y127319D01*
X45390D01*
Y129000D01*
D02*
G37*
G36*
X227500Y128174D02*
X226754Y127865D01*
X226327Y127438D01*
X226000Y127302D01*
X225673Y127438D01*
X225246Y127865D01*
X224500Y128174D01*
Y126000D01*
Y123826D01*
X225246Y124135D01*
X225673Y124562D01*
X226000Y124698D01*
X226327Y124562D01*
X226754Y124135D01*
X227500Y123826D01*
Y126000D01*
Y128174D01*
D02*
G37*
G36*
X223500D02*
X222754Y127865D01*
X222327Y127438D01*
X222000Y127302D01*
X221673Y127438D01*
X221246Y127865D01*
X220500Y128174D01*
Y126000D01*
Y123826D01*
X221246Y124135D01*
X221673Y124562D01*
X222000Y124698D01*
X222327Y124562D01*
X222754Y124135D01*
X223500Y123826D01*
Y126000D01*
Y128174D01*
D02*
G37*
G36*
X228500D02*
Y126500D01*
X230174D01*
X229865Y127246D01*
X229246Y127865D01*
X228500Y128174D01*
D02*
G37*
G36*
X219500D02*
X218754Y127865D01*
X218135Y127246D01*
X217826Y126500D01*
X219500D01*
Y128174D01*
D02*
G37*
G36*
X245500Y126174D02*
X244754Y125865D01*
X244327Y125438D01*
X244000Y125302D01*
X243673Y125438D01*
X243246Y125865D01*
X242500Y126174D01*
Y124000D01*
Y121826D01*
X243246Y122135D01*
X243673Y122562D01*
X244000Y122698D01*
X244327Y122562D01*
X244754Y122135D01*
X245500Y121826D01*
Y124000D01*
Y126174D01*
D02*
G37*
G36*
X241500D02*
X240754Y125865D01*
X240327Y125438D01*
X240000Y125302D01*
X239673Y125438D01*
X239246Y125865D01*
X238500Y126174D01*
Y124000D01*
Y121826D01*
X239246Y122135D01*
X239673Y122562D01*
X240000Y122698D01*
X240327Y122562D01*
X240754Y122135D01*
X241500Y121826D01*
Y124000D01*
Y126174D01*
D02*
G37*
G36*
X87441Y126681D02*
X82610D01*
Y125000D01*
X87441D01*
Y126681D01*
D02*
G37*
G36*
X51221D02*
X46390D01*
Y125000D01*
X51221D01*
Y126681D01*
D02*
G37*
G36*
X81610D02*
X76780D01*
Y125000D01*
X81610D01*
Y126681D01*
D02*
G37*
G36*
X45390D02*
X40559D01*
Y125000D01*
X45390D01*
Y126681D01*
D02*
G37*
G36*
X246500Y126174D02*
Y124500D01*
X248174D01*
X247865Y125246D01*
X247246Y125865D01*
X246500Y126174D01*
D02*
G37*
G36*
X237500D02*
X236754Y125865D01*
X236135Y125246D01*
X235826Y124500D01*
X237500D01*
Y126174D01*
D02*
G37*
G36*
X230174Y125500D02*
X228500D01*
Y123826D01*
X229246Y124135D01*
X229865Y124754D01*
X230174Y125500D01*
D02*
G37*
G36*
X219500D02*
X217826D01*
X218135Y124754D01*
X218754Y124135D01*
X219500Y123826D01*
Y125500D01*
D02*
G37*
G36*
X264500Y124174D02*
Y122500D01*
X266174D01*
X265865Y123246D01*
X265246Y123865D01*
X264500Y124174D01*
D02*
G37*
G36*
X263500D02*
X262754Y123865D01*
X262135Y123246D01*
X261826Y122500D01*
X263500D01*
Y124174D01*
D02*
G37*
G36*
X87441Y124000D02*
X82610D01*
Y122319D01*
X87441D01*
Y124000D01*
D02*
G37*
G36*
X81610D02*
X76780D01*
Y122319D01*
X81610D01*
Y124000D01*
D02*
G37*
G36*
X51221D02*
X46390D01*
Y122319D01*
X51221D01*
Y124000D01*
D02*
G37*
G36*
X45390D02*
X40559D01*
Y122319D01*
X45390D01*
Y124000D01*
D02*
G37*
G36*
X248174Y123500D02*
X246500D01*
Y121826D01*
X247246Y122135D01*
X247865Y122754D01*
X248174Y123500D01*
D02*
G37*
G36*
X237500D02*
X235826D01*
X236135Y122754D01*
X236754Y122135D01*
X237500Y121826D01*
Y123500D01*
D02*
G37*
G36*
X260674Y122000D02*
X259000D01*
Y120326D01*
X259746Y120635D01*
X260365Y121254D01*
X260674Y122000D01*
D02*
G37*
G36*
X266174Y121500D02*
X261826D01*
X262135Y120754D01*
X262562Y120327D01*
X262698Y120000D01*
X262562Y119673D01*
X262135Y119246D01*
X261826Y118500D01*
X266174D01*
X265865Y119246D01*
X265438Y119673D01*
X265302Y120000D01*
X265438Y120327D01*
X265865Y120754D01*
X266174Y121500D01*
D02*
G37*
G36*
X14796Y133080D02*
X13204D01*
X11643Y132770D01*
X10172Y132161D01*
X8849Y131276D01*
X7724Y130151D01*
X6839Y128828D01*
X6230Y127357D01*
X5920Y125796D01*
Y124204D01*
X6230Y122643D01*
X6839Y121172D01*
X7724Y119849D01*
X8849Y118724D01*
X10172Y117839D01*
X11643Y117230D01*
X13204Y116920D01*
X14796D01*
X16357Y117230D01*
X17828Y117839D01*
X19151Y118724D01*
X20276Y119849D01*
X21161Y121172D01*
X21770Y122643D01*
X22080Y124204D01*
Y125796D01*
X21770Y127357D01*
X21161Y128828D01*
X20276Y130151D01*
X19151Y131276D01*
X17828Y132161D01*
X16357Y132770D01*
X14796Y133080D01*
D02*
G37*
G36*
X266174Y117500D02*
X261826D01*
X262135Y116754D01*
X262562Y116327D01*
X262698Y116000D01*
X262562Y115673D01*
X262135Y115246D01*
X261826Y114500D01*
X266174D01*
X265865Y115246D01*
X265438Y115673D01*
X265302Y116000D01*
X265438Y116327D01*
X265865Y116754D01*
X266174Y117500D01*
D02*
G37*
G36*
X250441Y120721D02*
X247185D01*
Y114315D01*
X250441D01*
Y120721D01*
D02*
G37*
G36*
X246185D02*
X242929D01*
Y114315D01*
X246185D01*
Y120721D01*
D02*
G37*
G36*
X171143Y115969D02*
X169468D01*
Y114294D01*
X170215Y114603D01*
X170834Y115222D01*
X171143Y115969D01*
D02*
G37*
G36*
X168468D02*
X166794D01*
X167103Y115222D01*
X167722Y114603D01*
X168468Y114294D01*
Y115969D01*
D02*
G37*
G36*
X139905Y112500D02*
X138500D01*
Y111388D01*
X138785D01*
X139215Y111473D01*
X139579Y111716D01*
X139822Y112081D01*
X139905Y112500D01*
D02*
G37*
G36*
X147000Y112674D02*
Y111000D01*
X148674D01*
X148365Y111746D01*
X147746Y112365D01*
X147000Y112674D01*
D02*
G37*
G36*
X146000D02*
X145254Y112365D01*
X144635Y111746D01*
X144326Y111000D01*
X146000D01*
Y112674D01*
D02*
G37*
G36*
X266174Y113500D02*
X261826D01*
X262135Y112754D01*
X262562Y112327D01*
X262698Y112000D01*
X262562Y111673D01*
X262135Y111246D01*
X261826Y110500D01*
X266174D01*
X265865Y111246D01*
X265438Y111673D01*
X265302Y112000D01*
X265438Y112327D01*
X265865Y112754D01*
X266174Y113500D01*
D02*
G37*
G36*
X148674Y110000D02*
X147000D01*
Y108326D01*
X147746Y108635D01*
X148365Y109254D01*
X148674Y110000D01*
D02*
G37*
G36*
X146000D02*
X144326D01*
X144635Y109254D01*
X145254Y108635D01*
X146000Y108326D01*
Y110000D01*
D02*
G37*
G36*
X266174Y109500D02*
X264500D01*
Y107826D01*
X265246Y108135D01*
X265865Y108754D01*
X266174Y109500D01*
D02*
G37*
G36*
X263500D02*
X261826D01*
X262135Y108754D01*
X262754Y108135D01*
X263500Y107826D01*
Y109500D01*
D02*
G37*
G36*
X242167Y120320D02*
X235455D01*
Y107309D01*
X242167D01*
Y120320D01*
D02*
G37*
G36*
X234293D02*
X227581D01*
Y107309D01*
X234293D01*
Y120320D01*
D02*
G37*
G36*
X250441Y113315D02*
X247185D01*
Y106909D01*
X250441D01*
Y113315D01*
D02*
G37*
G36*
X246185D02*
X242929D01*
Y106909D01*
X246185D01*
Y113315D01*
D02*
G37*
G36*
X151224Y102921D02*
X148756D01*
Y101240D01*
X151224D01*
Y102921D01*
D02*
G37*
G36*
X190858Y103300D02*
X190142D01*
X189480Y103026D01*
X188974Y102520D01*
X188700Y101858D01*
Y101142D01*
X188974Y100480D01*
X189480Y99974D01*
X190142Y99700D01*
X190858D01*
X191520Y99974D01*
X192026Y100480D01*
X192300Y101142D01*
Y101858D01*
X192026Y102520D01*
X191520Y103026D01*
X190858Y103300D01*
D02*
G37*
G36*
X151224Y100240D02*
X148756D01*
Y98559D01*
X151224D01*
Y100240D01*
D02*
G37*
G36*
X177858Y115300D02*
X177142D01*
X176480Y115026D01*
X175974Y114520D01*
X175700Y113858D01*
Y113286D01*
X170006Y107592D01*
X169763Y107228D01*
X169678Y106799D01*
X169678Y106799D01*
Y105454D01*
X165975D01*
Y98546D01*
X171899D01*
Y103754D01*
X171921Y103862D01*
Y106335D01*
X177286Y111700D01*
X177858D01*
X178520Y111974D01*
X179026Y112480D01*
X179300Y113142D01*
Y113858D01*
X179026Y114520D01*
X178520Y115026D01*
X177858Y115300D01*
D02*
G37*
G36*
X264500Y98174D02*
Y96500D01*
X266174D01*
X265865Y97246D01*
X265246Y97865D01*
X264500Y98174D01*
D02*
G37*
G36*
X263500D02*
X262754Y97865D01*
X262135Y97246D01*
X261826Y96500D01*
X263500D01*
Y98174D01*
D02*
G37*
G36*
X192500Y96174D02*
Y94500D01*
X194174D01*
X193865Y95246D01*
X193246Y95865D01*
X192500Y96174D01*
D02*
G37*
G36*
X191500D02*
X190754Y95865D01*
X190135Y95246D01*
X189826Y94500D01*
X191500D01*
Y96174D01*
D02*
G37*
G36*
X177500Y97299D02*
X174146D01*
Y94437D01*
X177500D01*
Y97299D01*
D02*
G37*
G36*
Y93437D02*
X174146D01*
Y90575D01*
X177500D01*
Y93437D01*
D02*
G37*
G36*
X194174Y93500D02*
X189826D01*
X190135Y92754D01*
X190562Y92327D01*
X190698Y92000D01*
X190562Y91673D01*
X190135Y91246D01*
X189826Y90500D01*
X194174D01*
X193865Y91246D01*
X193438Y91673D01*
X193302Y92000D01*
X193438Y92327D01*
X193865Y92754D01*
X194174Y93500D01*
D02*
G37*
G36*
X7000Y92425D02*
X3646D01*
Y89563D01*
X7000D01*
Y92425D01*
D02*
G37*
G36*
X194174Y89500D02*
X189826D01*
X190135Y88754D01*
X190562Y88327D01*
X190698Y88000D01*
X190562Y87673D01*
X190135Y87246D01*
X189826Y86500D01*
X194174D01*
X193865Y87246D01*
X193438Y87673D01*
X193302Y88000D01*
X193438Y88327D01*
X193865Y88754D01*
X194174Y89500D01*
D02*
G37*
G36*
X7000Y88563D02*
X3646D01*
Y85701D01*
X7000D01*
Y88563D01*
D02*
G37*
G36*
X266174Y85500D02*
X261826D01*
X262135Y84754D01*
X262562Y84327D01*
X262698Y84000D01*
X262562Y83673D01*
X262135Y83246D01*
X261826Y82500D01*
X266174D01*
X265865Y83246D01*
X265438Y83673D01*
X265302Y84000D01*
X265438Y84327D01*
X265865Y84754D01*
X266174Y85500D01*
D02*
G37*
G36*
X194174D02*
X189826D01*
X190135Y84754D01*
X190562Y84327D01*
X190698Y84000D01*
X190562Y83673D01*
X190135Y83246D01*
X189826Y82500D01*
X194174D01*
X193865Y83246D01*
X193438Y83673D01*
X193302Y84000D01*
X193438Y84327D01*
X193865Y84754D01*
X194174Y85500D01*
D02*
G37*
G36*
X164025Y105454D02*
X158101D01*
Y98546D01*
X159941D01*
Y96454D01*
X158101D01*
Y89546D01*
X159154D01*
Y85521D01*
X157707D01*
Y82181D01*
X157307D01*
Y80369D01*
X156807Y80217D01*
X156793Y80238D01*
X156793Y80238D01*
X153899Y83132D01*
Y88454D01*
X147975D01*
Y81546D01*
X152313D01*
X153542Y80316D01*
X153351Y79854D01*
X151437D01*
Y76000D01*
X150937D01*
D01*
X151437D01*
Y72146D01*
X154299D01*
Y74448D01*
X154799Y74655D01*
X154980Y74474D01*
X155642Y74200D01*
X156358D01*
X157020Y74474D01*
X157207Y74661D01*
X157707Y74479D01*
Y74479D01*
X162844D01*
Y77819D01*
X163244D01*
Y79500D01*
X160276D01*
Y80500D01*
X163244D01*
Y82181D01*
X162844D01*
Y85521D01*
X161397D01*
Y89546D01*
X164025D01*
Y96454D01*
X162185D01*
Y98546D01*
X164025D01*
Y105454D01*
D02*
G37*
G36*
X190858Y109300D02*
X190142D01*
X189480Y109026D01*
X188974Y108520D01*
X188700Y107858D01*
Y107286D01*
X186207Y104793D01*
X185964Y104429D01*
X185878Y104000D01*
X185878Y104000D01*
Y81924D01*
X185474Y81520D01*
X185200Y80858D01*
Y80142D01*
X185474Y79480D01*
X185980Y78974D01*
X186642Y78700D01*
X187358D01*
X188020Y78974D01*
X188526Y79480D01*
X188800Y80142D01*
Y80858D01*
X188526Y81520D01*
X188122Y81924D01*
Y103535D01*
X190286Y105700D01*
X190858D01*
X191520Y105974D01*
X192026Y106480D01*
X192300Y107142D01*
Y107858D01*
X192026Y108520D01*
X191520Y109026D01*
X190858Y109300D01*
D02*
G37*
G36*
X266174Y81500D02*
X261826D01*
X262135Y80754D01*
X262562Y80327D01*
X262698Y80000D01*
X262562Y79673D01*
X262135Y79246D01*
X261826Y78500D01*
X266174D01*
X265865Y79246D01*
X265438Y79673D01*
X265302Y80000D01*
X265438Y80327D01*
X265865Y80754D01*
X266174Y81500D01*
D02*
G37*
G36*
X194174D02*
X189826D01*
X190135Y80754D01*
X190562Y80327D01*
X190698Y80000D01*
X190562Y79673D01*
X190135Y79246D01*
X189826Y78500D01*
X194174D01*
X193865Y79246D01*
X193438Y79673D01*
X193302Y80000D01*
X193438Y80327D01*
X193865Y80754D01*
X194174Y81500D01*
D02*
G37*
G36*
X150437Y79854D02*
X147575D01*
Y76500D01*
X150437D01*
Y79854D01*
D02*
G37*
G36*
X105800Y76774D02*
Y75100D01*
X107474D01*
X107165Y75846D01*
X106546Y76465D01*
X105800Y76774D01*
D02*
G37*
G36*
X266174Y77500D02*
X261826D01*
X262135Y76754D01*
X262562Y76327D01*
X262698Y76000D01*
X262562Y75673D01*
X262135Y75246D01*
X261826Y74500D01*
X266174D01*
X265865Y75246D01*
X265438Y75673D01*
X265302Y76000D01*
X265438Y76327D01*
X265865Y76754D01*
X266174Y77500D01*
D02*
G37*
G36*
X194174D02*
X189826D01*
X190135Y76754D01*
X190562Y76327D01*
X190698Y76000D01*
X190562Y75673D01*
X190135Y75246D01*
X189826Y74500D01*
X194174D01*
X193865Y75246D01*
X193438Y75673D01*
X193302Y76000D01*
X193438Y76327D01*
X193865Y76754D01*
X194174Y77500D01*
D02*
G37*
G36*
X266174Y73500D02*
X261826D01*
X262135Y72754D01*
X262562Y72327D01*
X262698Y72000D01*
X262562Y71673D01*
X262135Y71246D01*
X261826Y70500D01*
X266174D01*
X265865Y71246D01*
X265438Y71673D01*
X265302Y72000D01*
X265438Y72327D01*
X265865Y72754D01*
X266174Y73500D01*
D02*
G37*
G36*
X194174D02*
X189826D01*
X190135Y72754D01*
X190562Y72327D01*
X190698Y72000D01*
X190562Y71673D01*
X190135Y71246D01*
X189826Y70500D01*
X194174D01*
X193865Y71246D01*
X193438Y71673D01*
X193302Y72000D01*
X193438Y72327D01*
X193865Y72754D01*
X194174Y73500D01*
D02*
G37*
G36*
X104800Y76774D02*
X104054Y76465D01*
X103435Y75846D01*
X103100Y75038D01*
Y74400D01*
X102562D01*
X101754Y74065D01*
X101135Y73446D01*
X100826Y72700D01*
X103000D01*
Y72200D01*
X103500D01*
Y70026D01*
X104246Y70335D01*
X104865Y70954D01*
X105200Y71762D01*
Y72400D01*
X105738D01*
X106546Y72735D01*
X107165Y73354D01*
X107474Y74100D01*
X105300D01*
Y74600D01*
X104800D01*
Y76774D01*
D02*
G37*
G36*
X102500Y71700D02*
X100826D01*
X101135Y70954D01*
X101754Y70335D01*
X102500Y70026D01*
Y71700D01*
D02*
G37*
G36*
X154693Y69921D02*
X152224D01*
Y68240D01*
X154693D01*
Y69921D01*
D02*
G37*
G36*
X151224D02*
X148756D01*
Y68240D01*
X151224D01*
Y69921D01*
D02*
G37*
G36*
X10025Y83454D02*
X4101D01*
Y76546D01*
X5941D01*
Y74454D01*
X4101D01*
Y67546D01*
X10025D01*
Y74454D01*
X8185D01*
Y76546D01*
X10025D01*
Y83454D01*
D02*
G37*
G36*
X18299Y70500D02*
X15437D01*
Y67146D01*
X18299D01*
Y70500D01*
D02*
G37*
G36*
X14437D02*
X11575D01*
Y67146D01*
X14437D01*
Y70500D01*
D02*
G37*
G36*
X181854Y69437D02*
X178500D01*
Y66575D01*
X181854D01*
Y69437D01*
D02*
G37*
G36*
X266174Y69500D02*
X261826D01*
X262135Y68754D01*
X262562Y68327D01*
X262698Y68000D01*
X262562Y67673D01*
X262135Y67246D01*
X261826Y66500D01*
X266174D01*
X265865Y67246D01*
X265438Y67673D01*
X265302Y68000D01*
X265438Y68327D01*
X265865Y68754D01*
X266174Y69500D01*
D02*
G37*
G36*
X194174D02*
X189826D01*
X190135Y68754D01*
X190562Y68327D01*
X190698Y68000D01*
X190562Y67673D01*
X190135Y67246D01*
X189826Y66500D01*
X194174D01*
X193865Y67246D01*
X193438Y67673D01*
X193302Y68000D01*
X193438Y68327D01*
X193865Y68754D01*
X194174Y69500D01*
D02*
G37*
G36*
X154693Y67240D02*
X152224D01*
Y65559D01*
X154693D01*
Y67240D01*
D02*
G37*
G36*
X151224D02*
X148756D01*
Y65559D01*
X151224D01*
Y67240D01*
D02*
G37*
G36*
X160958Y73400D02*
X160242D01*
X159580Y73126D01*
X159074Y72620D01*
X158800Y71958D01*
Y71242D01*
X158891Y71021D01*
X158557Y70521D01*
X157707D01*
Y67181D01*
X157307D01*
Y65500D01*
X160276D01*
X163244D01*
Y67181D01*
X162844D01*
Y70521D01*
X162643D01*
X162309Y71021D01*
X162400Y71242D01*
Y71958D01*
X162126Y72620D01*
X161620Y73126D01*
X160958Y73400D01*
D02*
G37*
G36*
X60421Y66594D02*
X57559D01*
Y63240D01*
X60421D01*
Y66594D01*
D02*
G37*
G36*
X56559D02*
X53697D01*
Y63240D01*
X56559D01*
Y66594D01*
D02*
G37*
G36*
X266174Y65500D02*
X261826D01*
X262135Y64754D01*
X262562Y64327D01*
X262698Y64000D01*
X262562Y63673D01*
X262135Y63246D01*
X261826Y62500D01*
X266174D01*
X265865Y63246D01*
X265438Y63673D01*
X265302Y64000D01*
X265438Y64327D01*
X265865Y64754D01*
X266174Y65500D01*
D02*
G37*
G36*
X194174D02*
X189826D01*
X190135Y64754D01*
X190562Y64327D01*
X190698Y64000D01*
X190562Y63673D01*
X190135Y63246D01*
X189826Y62500D01*
X194174D01*
X193865Y63246D01*
X193438Y63673D01*
X193302Y64000D01*
X193438Y64327D01*
X193865Y64754D01*
X194174Y65500D01*
D02*
G37*
G36*
X144844Y98781D02*
X139707D01*
Y95219D01*
X141154D01*
Y88454D01*
X140101D01*
Y81546D01*
X141293D01*
X141500Y81046D01*
X141474Y81020D01*
X141200Y80358D01*
Y79642D01*
X141075Y79454D01*
X140101D01*
Y72546D01*
X144439D01*
X145878Y71106D01*
Y62000D01*
X145878Y62000D01*
X145964Y61571D01*
X146005Y61509D01*
X145617Y61190D01*
X145025Y61783D01*
X144844Y62219D01*
X144844D01*
X144844Y62219D01*
Y65781D01*
X139707D01*
Y63698D01*
X139245Y63507D01*
X136899Y65853D01*
Y70454D01*
X136559D01*
Y72546D01*
X136899D01*
Y79454D01*
X131476D01*
Y80101D01*
X132921Y81546D01*
X136899D01*
Y88454D01*
X135313D01*
Y90546D01*
X136899D01*
Y97454D01*
X130975D01*
Y90546D01*
X132561D01*
Y88454D01*
X130975D01*
Y83492D01*
X129525Y82043D01*
X129025Y82250D01*
Y88454D01*
X123101D01*
Y81546D01*
X123922D01*
Y79454D01*
X123101D01*
Y72546D01*
X128724D01*
Y70454D01*
X123101D01*
X123101Y70454D01*
Y70454D01*
X122755Y70773D01*
X121641Y71887D01*
Y89916D01*
X122601Y90875D01*
X123101Y90693D01*
Y90546D01*
X129025D01*
Y97454D01*
X123101D01*
Y95287D01*
X121843D01*
X121024Y95124D01*
X120329Y94660D01*
X117986Y92317D01*
X117522Y91622D01*
X117359Y90803D01*
Y71000D01*
X117522Y70181D01*
X117882Y69641D01*
X117671Y69141D01*
X77000D01*
X76793Y69100D01*
X76582D01*
X76388Y69019D01*
X76181Y68978D01*
X76005Y68861D01*
X75810Y68780D01*
X75661Y68631D01*
X75486Y68514D01*
X75369Y68339D01*
X75220Y68190D01*
X75139Y67995D01*
X75022Y67819D01*
X74981Y67612D01*
X74900Y67418D01*
Y67207D01*
X74859Y67000D01*
X74900Y66793D01*
Y66582D01*
X74981Y66387D01*
X75022Y66181D01*
X75139Y66005D01*
X75220Y65811D01*
X75369Y65661D01*
X75486Y65486D01*
X75661Y65369D01*
X75810Y65220D01*
X76005Y65139D01*
X76181Y65022D01*
X76388Y64981D01*
X76582Y64900D01*
X76793D01*
X77000Y64859D01*
X107606D01*
X107813Y64359D01*
X107474Y64020D01*
X107200Y63358D01*
Y62786D01*
X102707Y58293D01*
X102464Y57929D01*
X102378Y57500D01*
X102378Y57500D01*
Y23424D01*
X101974Y23020D01*
X101700Y22358D01*
Y21642D01*
X101974Y20980D01*
X102480Y20474D01*
X103142Y20200D01*
X103858D01*
X104520Y20474D01*
X105026Y20980D01*
X105300Y21642D01*
Y22358D01*
X105026Y23020D01*
X104622Y23424D01*
Y57035D01*
X108786Y61200D01*
X109358D01*
X110020Y61474D01*
X110526Y61980D01*
X110800Y62642D01*
Y63358D01*
X110526Y64020D01*
X110187Y64359D01*
X110394Y64859D01*
X122646D01*
X122714Y64872D01*
X123101Y64555D01*
Y63546D01*
X128147D01*
X128461Y63046D01*
X128300Y62658D01*
Y61942D01*
X128574Y61280D01*
X129033Y60822D01*
X129003Y60600D01*
X128880Y60322D01*
X112200D01*
X111771Y60236D01*
X111407Y59993D01*
X111407Y59993D01*
X109214Y57800D01*
X108642D01*
X107980Y57526D01*
X107474Y57020D01*
X107200Y56358D01*
Y55642D01*
X107474Y54980D01*
X107980Y54474D01*
X108642Y54200D01*
X109358D01*
X110020Y54474D01*
X110526Y54980D01*
X110800Y55642D01*
Y56214D01*
X112665Y58078D01*
X129487D01*
X129586Y57578D01*
X129554Y57565D01*
X128935Y56946D01*
X128626Y56200D01*
X132974D01*
X132665Y56946D01*
X132046Y57565D01*
X132014Y57578D01*
X132113Y58078D01*
X136765D01*
X142889Y51954D01*
X142682Y51454D01*
X138687D01*
X136736Y53405D01*
X137000Y54042D01*
Y54758D01*
X136726Y55420D01*
X136220Y55926D01*
X135558Y56200D01*
X134842D01*
X134180Y55926D01*
X133674Y55420D01*
X133400Y54758D01*
Y54042D01*
X133674Y53380D01*
X134180Y52874D01*
X134407Y52780D01*
X134432Y52658D01*
X134675Y52294D01*
X137101Y49868D01*
Y44546D01*
X143025D01*
Y47697D01*
X143525Y47889D01*
X144207Y47207D01*
X144207Y47207D01*
X144571Y46964D01*
X144975Y46883D01*
Y44546D01*
X150899D01*
Y51454D01*
X145305D01*
Y52203D01*
X145411Y52304D01*
X145765Y52497D01*
X145921Y52393D01*
X146545Y52269D01*
X151803D01*
X152019Y52053D01*
Y47173D01*
X152143Y46549D01*
X152497Y46020D01*
X157869Y40647D01*
Y18500D01*
X157993Y17876D01*
X158346Y17346D01*
X163347Y12347D01*
X163876Y11993D01*
X164500Y11869D01*
X181000D01*
X181624Y11993D01*
X182153Y12347D01*
X187735Y17928D01*
X188618Y17691D01*
X190020D01*
X191374Y18054D01*
X192588Y18755D01*
X193579Y19747D01*
X194281Y20961D01*
X194643Y22315D01*
Y23717D01*
X194281Y25071D01*
X193579Y26285D01*
X192588Y27276D01*
X191374Y27977D01*
X190020Y28340D01*
X188618D01*
X187264Y27977D01*
X186050Y27276D01*
X185058Y26285D01*
X184357Y25071D01*
X183994Y23717D01*
Y22315D01*
X184357Y20961D01*
X185015Y19822D01*
X180324Y15131D01*
X165176D01*
X161131Y19176D01*
Y41323D01*
X161007Y41947D01*
X160653Y42477D01*
X158723Y44407D01*
X158915Y44869D01*
X168002D01*
Y28091D01*
X167579Y27977D01*
X166365Y27276D01*
X165373Y26285D01*
X164672Y25071D01*
X164309Y23717D01*
Y22315D01*
X164672Y20961D01*
X165373Y19747D01*
X166365Y18755D01*
X167579Y18054D01*
X168933Y17691D01*
X170335D01*
X171689Y18054D01*
X172903Y18755D01*
X173895Y19747D01*
X174595Y20961D01*
X174958Y22315D01*
Y23717D01*
X174595Y25071D01*
X173895Y26285D01*
X172903Y27276D01*
X171689Y27977D01*
X171265Y28091D01*
Y46514D01*
X171507Y46876D01*
X171631Y47500D01*
X171523Y48046D01*
X171644Y48304D01*
X171827Y48546D01*
X171899D01*
Y55378D01*
X175101D01*
Y48546D01*
X181025D01*
X181025Y55454D01*
X181358Y55558D01*
X182020Y55832D01*
X182098Y55911D01*
X182575Y55680D01*
X182575Y55426D01*
Y52500D01*
X185437D01*
Y55854D01*
X183038D01*
X182749Y55854D01*
X182518Y56331D01*
X182526Y56339D01*
X182800Y57000D01*
Y57716D01*
X182526Y58378D01*
X182020Y58884D01*
X181454Y59118D01*
Y65025D01*
X174546D01*
Y63091D01*
X174474Y63020D01*
X174200Y62358D01*
Y61642D01*
X174474Y60980D01*
X174546Y60909D01*
Y59622D01*
X173736D01*
X172293Y61065D01*
Y63041D01*
X167156D01*
Y59479D01*
X170707D01*
X172064Y58122D01*
X171857Y57622D01*
X165000D01*
X164571Y57536D01*
X164207Y57293D01*
X164207Y57293D01*
X163500Y56586D01*
X163357Y56372D01*
X162439Y55454D01*
X161397D01*
Y59479D01*
X162844D01*
Y62819D01*
X163244D01*
Y64500D01*
X160276D01*
X157307D01*
Y62819D01*
X157707D01*
Y59479D01*
X159154D01*
Y55454D01*
X158101D01*
Y55260D01*
X157601Y55108D01*
X157404Y55404D01*
X155154Y57653D01*
X154624Y58007D01*
X154447Y58043D01*
X154293Y58479D01*
X154293Y58583D01*
Y62041D01*
X149156D01*
Y62041D01*
X148656Y61930D01*
X148122Y62465D01*
Y71571D01*
X148107Y71646D01*
X148495Y72146D01*
X150437D01*
Y75500D01*
X147575D01*
Y73235D01*
X147113Y73044D01*
X146025Y74132D01*
Y79454D01*
X144925D01*
X144800Y79642D01*
Y80358D01*
X144526Y81020D01*
X144500Y81046D01*
X144707Y81546D01*
X146025D01*
Y83258D01*
X146527Y83466D01*
X147034Y83973D01*
X147308Y84634D01*
Y85350D01*
X147034Y86012D01*
X146527Y86518D01*
X146025Y86726D01*
Y88454D01*
X143397D01*
Y95219D01*
X144844D01*
Y98781D01*
D02*
G37*
G36*
X60421Y62240D02*
X57559D01*
Y58886D01*
X60421D01*
Y62240D01*
D02*
G37*
G36*
X56559D02*
X53697D01*
Y58886D01*
X56559D01*
Y62240D01*
D02*
G37*
G36*
X266174Y61500D02*
X261826D01*
X262135Y60754D01*
X262562Y60327D01*
X262698Y60000D01*
X262562Y59673D01*
X262135Y59246D01*
X261826Y58500D01*
X266174D01*
X265865Y59246D01*
X265438Y59673D01*
X265302Y60000D01*
X265438Y60327D01*
X265865Y60754D01*
X266174Y61500D01*
D02*
G37*
G36*
X194174D02*
X189826D01*
X190135Y60754D01*
X190562Y60327D01*
X190698Y60000D01*
X190562Y59673D01*
X190135Y59246D01*
X189826Y58500D01*
X194174D01*
X193865Y59246D01*
X193438Y59673D01*
X193302Y60000D01*
X193438Y60327D01*
X193865Y60754D01*
X194174Y61500D01*
D02*
G37*
G36*
X266174Y57500D02*
X261826D01*
X262135Y56754D01*
X262562Y56327D01*
X262698Y56000D01*
X262562Y55673D01*
X262135Y55246D01*
X261826Y54500D01*
X266174D01*
X265865Y55246D01*
X265438Y55673D01*
X265302Y56000D01*
X265438Y56327D01*
X265865Y56754D01*
X266174Y57500D01*
D02*
G37*
G36*
X194174D02*
X189826D01*
X190135Y56754D01*
X190562Y56327D01*
X190698Y56000D01*
X190562Y55673D01*
X190135Y55246D01*
X189826Y54500D01*
X194174D01*
X193865Y55246D01*
X193438Y55673D01*
X193302Y56000D01*
X193438Y56327D01*
X193865Y56754D01*
X194174Y57500D01*
D02*
G37*
G36*
X130300Y55200D02*
X128626D01*
X128935Y54454D01*
X129182Y54207D01*
X128898Y53783D01*
X128858Y53800D01*
X128142D01*
X127480Y53526D01*
X126974Y53020D01*
X126700Y52358D01*
Y51642D01*
X126575Y51454D01*
X124975D01*
Y44546D01*
X130899D01*
Y51454D01*
X130425D01*
X130300Y51642D01*
Y52358D01*
X130026Y53020D01*
X129892Y53154D01*
X130175Y53578D01*
X130300Y53526D01*
Y55200D01*
D02*
G37*
G36*
X258315Y60091D02*
X255059D01*
Y53685D01*
X258315D01*
Y60091D01*
D02*
G37*
G36*
X254059D02*
X250803D01*
Y53685D01*
X254059D01*
Y60091D01*
D02*
G37*
G36*
X203197D02*
X199941D01*
Y53685D01*
X203197D01*
Y60091D01*
D02*
G37*
G36*
X198941D02*
X195685D01*
Y53685D01*
X198941D01*
Y60091D01*
D02*
G37*
G36*
X132974Y55200D02*
X131300D01*
Y53526D01*
X132046Y53835D01*
X132665Y54454D01*
X132974Y55200D01*
D02*
G37*
G36*
X186437Y55854D02*
Y52500D01*
X189299D01*
Y55854D01*
X186437D01*
D02*
G37*
G36*
X266174Y53500D02*
X261826D01*
X262135Y52754D01*
X262562Y52327D01*
X262698Y52000D01*
X262562Y51673D01*
X262135Y51246D01*
X261826Y50500D01*
X266174D01*
X265865Y51246D01*
X265438Y51673D01*
X265302Y52000D01*
X265438Y52327D01*
X265865Y52754D01*
X266174Y53500D01*
D02*
G37*
G36*
X194174D02*
X189826D01*
X190135Y52754D01*
X190562Y52327D01*
X190698Y52000D01*
X190562Y51673D01*
X190135Y51246D01*
X189826Y50500D01*
X194174D01*
X193865Y51246D01*
X193438Y51673D01*
X193302Y52000D01*
X193438Y52327D01*
X193865Y52754D01*
X194174Y53500D01*
D02*
G37*
G36*
X67895Y66194D02*
X61971D01*
Y59286D01*
X63811D01*
Y57195D01*
X62034D01*
Y50286D01*
X67958D01*
Y57195D01*
X66055D01*
Y59286D01*
X67895D01*
Y66194D01*
D02*
G37*
G36*
X189299Y51500D02*
X186437D01*
Y48146D01*
X189299D01*
Y51500D01*
D02*
G37*
G36*
X185437D02*
X182575D01*
Y48146D01*
X185437D01*
Y51500D01*
D02*
G37*
G36*
X250041Y59690D02*
X243329D01*
Y46679D01*
X250041D01*
Y59690D01*
D02*
G37*
G36*
X226419D02*
X219707D01*
Y46679D01*
X226419D01*
Y59690D01*
D02*
G37*
G36*
X218545D02*
X211833D01*
Y46679D01*
X218545D01*
Y59690D01*
D02*
G37*
G36*
X210671D02*
X203959D01*
Y46679D01*
X210671D01*
Y59690D01*
D02*
G37*
G36*
X266174Y49500D02*
X261826D01*
X262135Y48754D01*
X262562Y48327D01*
X262698Y48000D01*
X262562Y47673D01*
X262135Y47246D01*
X261826Y46500D01*
X266174D01*
X265865Y47246D01*
X265438Y47673D01*
X265302Y48000D01*
X265438Y48327D01*
X265865Y48754D01*
X266174Y49500D01*
D02*
G37*
G36*
X194174D02*
X189826D01*
X190135Y48754D01*
X190562Y48327D01*
X190698Y48000D01*
X190562Y47673D01*
X190135Y47246D01*
X189826Y46500D01*
X194174D01*
X193865Y47246D01*
X193438Y47673D01*
X193302Y48000D01*
X193438Y48327D01*
X193865Y48754D01*
X194174Y49500D01*
D02*
G37*
G36*
X258315Y52685D02*
X255059D01*
Y46279D01*
X258315D01*
Y52685D01*
D02*
G37*
G36*
X254059D02*
X250803D01*
Y46279D01*
X254059D01*
Y52685D01*
D02*
G37*
G36*
X68854Y48299D02*
X65500D01*
Y45437D01*
X68854D01*
Y48299D01*
D02*
G37*
G36*
X64500D02*
X61146D01*
Y45437D01*
X64500D01*
Y48299D01*
D02*
G37*
G36*
X203197Y52685D02*
X199441D01*
X195685D01*
Y46279D01*
X196515D01*
X196571Y46183D01*
X196668Y45779D01*
X196135Y45246D01*
X195826Y44500D01*
X200174D01*
X199865Y45246D01*
X199332Y45779D01*
X199429Y46183D01*
X199485Y46279D01*
X203197D01*
Y52685D01*
D02*
G37*
G36*
X194174Y45500D02*
X192500D01*
Y43826D01*
X193246Y44135D01*
X193865Y44754D01*
X194174Y45500D01*
D02*
G37*
G36*
X191500D02*
X189826D01*
X190135Y44754D01*
X190754Y44135D01*
X191500Y43826D01*
Y45500D01*
D02*
G37*
G36*
X266174D02*
X261826D01*
X262135Y44754D01*
X262562Y44327D01*
X262698Y44000D01*
X262562Y43673D01*
X262327Y43438D01*
X262000Y43302D01*
X261673Y43438D01*
X261246Y43865D01*
X260500Y44174D01*
Y42000D01*
Y39826D01*
X261246Y40135D01*
X261673Y40562D01*
X262000Y40698D01*
X262327Y40562D01*
X262754Y40135D01*
X263500Y39826D01*
Y42000D01*
X264000D01*
Y42500D01*
X266174D01*
X265865Y43246D01*
X265438Y43673D01*
X265302Y44000D01*
X265438Y44327D01*
X265865Y44754D01*
X266174Y45500D01*
D02*
G37*
G36*
X259500Y44174D02*
X258754Y43865D01*
X258327Y43438D01*
X258000Y43302D01*
X257673Y43438D01*
X257246Y43865D01*
X256500Y44174D01*
Y42000D01*
Y39826D01*
X257246Y40135D01*
X257673Y40562D01*
X258000Y40698D01*
X258327Y40562D01*
X258754Y40135D01*
X259500Y39826D01*
Y42000D01*
Y44174D01*
D02*
G37*
G36*
X255500D02*
X254754Y43865D01*
X254327Y43438D01*
X254000Y43302D01*
X253673Y43438D01*
X253246Y43865D01*
X252500Y44174D01*
Y42000D01*
Y39826D01*
X253246Y40135D01*
X253673Y40562D01*
X254000Y40698D01*
X254327Y40562D01*
X254754Y40135D01*
X255500Y39826D01*
Y42000D01*
Y44174D01*
D02*
G37*
G36*
X251500D02*
X250754Y43865D01*
X250327Y43438D01*
X250000Y43302D01*
X249673Y43438D01*
X249246Y43865D01*
X248500Y44174D01*
Y42000D01*
Y39826D01*
X249246Y40135D01*
X249673Y40562D01*
X250000Y40698D01*
X250327Y40562D01*
X250754Y40135D01*
X251500Y39826D01*
Y42000D01*
Y44174D01*
D02*
G37*
G36*
X247500D02*
X246754Y43865D01*
X246327Y43438D01*
X246000Y43302D01*
X245673Y43438D01*
X245246Y43865D01*
X244500Y44174D01*
Y42000D01*
Y39826D01*
X245246Y40135D01*
X245673Y40562D01*
X246000Y40698D01*
X246327Y40562D01*
X246754Y40135D01*
X247500Y39826D01*
Y42000D01*
Y44174D01*
D02*
G37*
G36*
X243500D02*
X242754Y43865D01*
X242327Y43438D01*
X242000Y43302D01*
X241673Y43438D01*
X241246Y43865D01*
X240500Y44174D01*
Y42000D01*
Y39826D01*
X241246Y40135D01*
X241673Y40562D01*
X242000Y40698D01*
X242327Y40562D01*
X242754Y40135D01*
X243500Y39826D01*
Y42000D01*
Y44174D01*
D02*
G37*
G36*
X239500D02*
X238754Y43865D01*
X238327Y43438D01*
X238000Y43302D01*
X237673Y43438D01*
X237246Y43865D01*
X236500Y44174D01*
Y42000D01*
Y39826D01*
X237246Y40135D01*
X237673Y40562D01*
X238000Y40698D01*
X238327Y40562D01*
X238754Y40135D01*
X239500Y39826D01*
Y42000D01*
Y44174D01*
D02*
G37*
G36*
X235500D02*
X234754Y43865D01*
X234327Y43438D01*
X234000Y43302D01*
X233673Y43438D01*
X233246Y43865D01*
X232500Y44174D01*
Y42000D01*
Y39826D01*
X233246Y40135D01*
X233673Y40562D01*
X234000Y40698D01*
X234327Y40562D01*
X234754Y40135D01*
X235500Y39826D01*
Y42000D01*
Y44174D01*
D02*
G37*
G36*
X231500D02*
X230754Y43865D01*
X230327Y43438D01*
X230000Y43302D01*
X229673Y43438D01*
X229246Y43865D01*
X228500Y44174D01*
Y42000D01*
Y39826D01*
X229246Y40135D01*
X229673Y40562D01*
X230000Y40698D01*
X230327Y40562D01*
X230754Y40135D01*
X231500Y39826D01*
Y42000D01*
Y44174D01*
D02*
G37*
G36*
X227500D02*
X226754Y43865D01*
X226327Y43438D01*
X226000Y43302D01*
X225673Y43438D01*
X225246Y43865D01*
X224500Y44174D01*
Y42000D01*
Y39826D01*
X225246Y40135D01*
X225673Y40562D01*
X226000Y40698D01*
X226327Y40562D01*
X226754Y40135D01*
X227500Y39826D01*
Y42000D01*
Y44174D01*
D02*
G37*
G36*
X223500D02*
X222754Y43865D01*
X222327Y43438D01*
X222000Y43302D01*
X221673Y43438D01*
X221246Y43865D01*
X220500Y44174D01*
Y42000D01*
Y39826D01*
X221246Y40135D01*
X221673Y40562D01*
X222000Y40698D01*
X222327Y40562D01*
X222754Y40135D01*
X223500Y39826D01*
Y42000D01*
Y44174D01*
D02*
G37*
G36*
X219500D02*
X218754Y43865D01*
X218327Y43438D01*
X218000Y43302D01*
X217673Y43438D01*
X217246Y43865D01*
X216500Y44174D01*
Y42000D01*
Y39826D01*
X217246Y40135D01*
X217673Y40562D01*
X218000Y40698D01*
X218327Y40562D01*
X218754Y40135D01*
X219500Y39826D01*
Y42000D01*
Y44174D01*
D02*
G37*
G36*
X215500D02*
X214754Y43865D01*
X214327Y43438D01*
X214000Y43302D01*
X213673Y43438D01*
X213246Y43865D01*
X212500Y44174D01*
Y42000D01*
Y39826D01*
X213246Y40135D01*
X213673Y40562D01*
X214000Y40698D01*
X214327Y40562D01*
X214754Y40135D01*
X215500Y39826D01*
Y42000D01*
Y44174D01*
D02*
G37*
G36*
X211500D02*
X210754Y43865D01*
X210327Y43438D01*
X210000Y43302D01*
X209673Y43438D01*
X209246Y43865D01*
X208500Y44174D01*
Y42000D01*
Y39826D01*
X209246Y40135D01*
X209673Y40562D01*
X210000Y40698D01*
X210327Y40562D01*
X210754Y40135D01*
X211500Y39826D01*
Y42000D01*
Y44174D01*
D02*
G37*
G36*
X207500D02*
X206754Y43865D01*
X206327Y43438D01*
X206000Y43302D01*
X205673Y43438D01*
X205246Y43865D01*
X204500Y44174D01*
Y42000D01*
Y39826D01*
X205246Y40135D01*
X205673Y40562D01*
X206000Y40698D01*
X206327Y40562D01*
X206754Y40135D01*
X207500Y39826D01*
Y42000D01*
Y44174D01*
D02*
G37*
G36*
X203500D02*
X202754Y43865D01*
X202135Y43246D01*
X201826Y42500D01*
X203500D01*
Y44174D01*
D02*
G37*
G36*
X200174Y43500D02*
X198500D01*
Y41826D01*
X199246Y42135D01*
X199865Y42754D01*
X200174Y43500D01*
D02*
G37*
G36*
X197500D02*
X195826D01*
X196135Y42754D01*
X196754Y42135D01*
X197500Y41826D01*
Y43500D01*
D02*
G37*
G36*
X68854Y44437D02*
X65500D01*
Y41575D01*
X68854D01*
Y44437D01*
D02*
G37*
G36*
X64500D02*
X61146D01*
Y41575D01*
X64500D01*
Y44437D01*
D02*
G37*
G36*
X266174Y41500D02*
X264500D01*
Y39826D01*
X265246Y40135D01*
X265865Y40754D01*
X266174Y41500D01*
D02*
G37*
G36*
X203500D02*
X201826D01*
X202135Y40754D01*
X202754Y40135D01*
X203500Y39826D01*
Y41500D01*
D02*
G37*
G36*
X148571Y42717D02*
X146260D01*
Y39500D01*
X148571D01*
Y42717D01*
D02*
G37*
G36*
X122740D02*
Y39500D01*
X125051D01*
Y42717D01*
X122740D01*
D02*
G37*
G36*
X145260D02*
X142949D01*
Y38844D01*
X142449Y38637D01*
X141759Y39328D01*
X141395Y39571D01*
X140965Y39656D01*
X140651Y40002D01*
Y42316D01*
X135829D01*
Y35684D01*
X140651D01*
X140768Y35232D01*
Y29348D01*
X139121D01*
Y30047D01*
X139032Y30494D01*
X138779Y30873D01*
X137826Y31826D01*
X137447Y32079D01*
X137000Y32168D01*
X135000D01*
X134553Y32079D01*
X134174Y31826D01*
X133190Y30842D01*
X132937Y30463D01*
X132848Y30016D01*
Y29348D01*
X130894D01*
X130837Y29633D01*
X130594Y29997D01*
X130594Y29997D01*
X128622Y31969D01*
Y35684D01*
X132171D01*
Y42316D01*
X127349D01*
Y37614D01*
X127293Y37576D01*
X127293Y37576D01*
X126707Y36991D01*
X126464Y36627D01*
X126378Y36198D01*
X126378Y36198D01*
Y31504D01*
X126378Y31504D01*
X126464Y31075D01*
X126707Y30711D01*
X127608Y29810D01*
X127417Y29348D01*
X124583D01*
Y29748D01*
X122902D01*
Y26484D01*
X121902D01*
Y29748D01*
X120220D01*
Y28457D01*
X119720Y28211D01*
X119489Y28388D01*
X118767Y28687D01*
X118492Y28724D01*
Y24220D01*
Y19717D01*
X118767Y19754D01*
X119489Y20053D01*
X119700Y20214D01*
X119851Y20193D01*
X120255Y20010D01*
X120474Y19480D01*
X120980Y18974D01*
X121572Y18729D01*
X122180Y18121D01*
X122118Y17825D01*
X121991Y17621D01*
X108728D01*
X108247Y17525D01*
X107839Y17253D01*
X107839Y17253D01*
X103343Y12756D01*
X83128D01*
X81703Y14181D01*
X81962Y14630D01*
X82451Y14498D01*
X83391D01*
X84299Y14742D01*
X85112Y15211D01*
X85777Y15876D01*
X86247Y16690D01*
X86490Y17597D01*
Y18537D01*
X86247Y19444D01*
X85777Y20258D01*
X85112Y20922D01*
X84299Y21392D01*
X83391Y21635D01*
X82451D01*
X81544Y21392D01*
X80730Y20922D01*
X80066Y20258D01*
X79596Y19444D01*
X79353Y18537D01*
Y18301D01*
X78994Y18061D01*
X78342Y17409D01*
X78000Y17145D01*
X77658Y17409D01*
X77006Y18061D01*
X76647Y18301D01*
Y18537D01*
X76404Y19444D01*
X75934Y20258D01*
X75270Y20922D01*
X74456Y21392D01*
X73549Y21635D01*
X72609D01*
X71701Y21392D01*
X70888Y20922D01*
X70223Y20258D01*
X69753Y19444D01*
X69510Y18537D01*
Y17597D01*
X69753Y16690D01*
X70223Y15876D01*
X70888Y15211D01*
X71701Y14742D01*
X72609Y14498D01*
X73549D01*
X74456Y14742D01*
X75270Y15211D01*
X75311Y15253D01*
X75811Y15046D01*
Y14403D01*
X75907Y13922D01*
X76179Y13514D01*
X80947Y8747D01*
X81354Y8475D01*
X81835Y8379D01*
X81835Y8379D01*
X104635D01*
X105116Y8475D01*
X105524Y8747D01*
X110020Y13244D01*
X115469D01*
X115715Y12744D01*
X115399Y12332D01*
X115100Y11610D01*
X114998Y10835D01*
Y8972D01*
X120986D01*
Y10835D01*
X120884Y11610D01*
X120585Y12332D01*
X120269Y12744D01*
X120516Y13244D01*
X129980D01*
X132105Y11119D01*
X132008Y10537D01*
X131980Y10526D01*
X131474Y10020D01*
X131200Y9358D01*
Y8642D01*
X131474Y7980D01*
X131980Y7474D01*
X132642Y7200D01*
X133358D01*
X134020Y7474D01*
X134500Y7954D01*
X134980Y7474D01*
X135642Y7200D01*
X136358D01*
X137020Y7474D01*
X137526Y7980D01*
X137800Y8642D01*
Y9358D01*
X137526Y10020D01*
X137020Y10526D01*
X136689Y10663D01*
Y12205D01*
X136593Y12686D01*
X136321Y13093D01*
X132345Y17069D01*
X132552Y17569D01*
X142614D01*
X143238Y17693D01*
X143768Y18046D01*
X145602Y19881D01*
X145956Y20410D01*
X146080Y21035D01*
Y23221D01*
X147098D01*
Y26484D01*
Y29748D01*
X145417D01*
Y29348D01*
X143011D01*
Y35283D01*
X145260D01*
Y39000D01*
Y42717D01*
D02*
G37*
G36*
X148571Y38500D02*
X146260D01*
Y35283D01*
X148571D01*
Y38500D01*
D02*
G37*
G36*
X125051D02*
X122740D01*
Y35283D01*
X125051D01*
Y38500D01*
D02*
G37*
G36*
X123025Y51454D02*
X117101D01*
Y46246D01*
X117079Y46138D01*
X117079Y46138D01*
Y36544D01*
X116835Y36300D01*
X116642D01*
X115980Y36026D01*
X115474Y35520D01*
X115200Y34858D01*
Y34142D01*
X115474Y33480D01*
X115980Y32974D01*
X116642Y32700D01*
X117358D01*
X118020Y32974D01*
X118526Y33480D01*
X118800Y34142D01*
Y34858D01*
X119150Y35258D01*
X119429Y35283D01*
X119593Y35283D01*
X121740D01*
Y39000D01*
Y42717D01*
X119429Y42717D01*
X119322Y43172D01*
Y44546D01*
X123025D01*
Y51454D01*
D02*
G37*
G36*
X152508Y28724D02*
Y24721D01*
X155002D01*
Y25795D01*
X154900Y26570D01*
X154601Y27292D01*
X154125Y27912D01*
X153505Y28388D01*
X152783Y28687D01*
X152508Y28724D01*
D02*
G37*
G36*
X117492D02*
X117217Y28687D01*
X116495Y28388D01*
X115875Y27912D01*
X115399Y27292D01*
X115100Y26570D01*
X114998Y25795D01*
Y24721D01*
X117492D01*
Y28724D01*
D02*
G37*
G36*
X255853Y30843D02*
X255500D01*
Y20500D01*
X265843D01*
Y20853D01*
X265576Y22539D01*
X265048Y24162D01*
X264273Y25683D01*
X263270Y27063D01*
X262063Y28270D01*
X260683Y29273D01*
X259162Y30048D01*
X257539Y30575D01*
X255853Y30843D01*
D02*
G37*
G36*
X254500D02*
X254147D01*
X252461Y30575D01*
X250838Y30048D01*
X249317Y29273D01*
X247937Y28270D01*
X246730Y27063D01*
X245727Y25683D01*
X244952Y24162D01*
X244425Y22539D01*
X244158Y20853D01*
Y20500D01*
X254500D01*
Y30843D01*
D02*
G37*
G36*
X20853D02*
X20500D01*
Y20500D01*
X30843D01*
Y20853D01*
X30575Y22539D01*
X30048Y24162D01*
X29273Y25683D01*
X28270Y27063D01*
X27063Y28270D01*
X25683Y29273D01*
X24162Y30048D01*
X22539Y30575D01*
X20853Y30843D01*
D02*
G37*
G36*
X19500D02*
X19147D01*
X17461Y30575D01*
X15838Y30048D01*
X14317Y29273D01*
X12937Y28270D01*
X11730Y27063D01*
X10727Y25683D01*
X9952Y24162D01*
X9425Y22539D01*
X9157Y20853D01*
Y20500D01*
X19500D01*
Y30843D01*
D02*
G37*
G36*
X155002Y23720D02*
X152508D01*
Y19717D01*
X152783Y19754D01*
X153505Y20053D01*
X154125Y20528D01*
X154601Y21149D01*
X154900Y21871D01*
X155002Y22646D01*
Y23720D01*
D02*
G37*
G36*
X149779Y29748D02*
X148098D01*
Y26484D01*
Y23221D01*
X149014D01*
Y22646D01*
X149116Y21871D01*
X149415Y21149D01*
X149891Y20528D01*
X150511Y20053D01*
X151233Y19754D01*
X151508Y19717D01*
Y24220D01*
Y28724D01*
X151233Y28687D01*
X150511Y28388D01*
X150279Y28211D01*
X149779Y28457D01*
Y29748D01*
D02*
G37*
G36*
X117492Y23720D02*
X114998D01*
Y22646D01*
X115100Y21871D01*
X115399Y21149D01*
X115875Y20528D01*
X116495Y20053D01*
X117217Y19754D01*
X117492Y19717D01*
Y23720D01*
D02*
G37*
G36*
X93286Y22035D02*
X93264D01*
Y18567D01*
X96732D01*
Y18589D01*
X96462Y19599D01*
X95939Y20504D01*
X95201Y21242D01*
X94296Y21765D01*
X93286Y22035D01*
D02*
G37*
G36*
X92264D02*
X92241D01*
X91232Y21765D01*
X90327Y21242D01*
X89588Y20504D01*
X89066Y19599D01*
X88795Y18589D01*
Y18567D01*
X92264D01*
Y22035D01*
D02*
G37*
G36*
X209705Y28340D02*
X208303D01*
X206949Y27977D01*
X205735Y27276D01*
X204743Y26285D01*
X204042Y25071D01*
X203679Y23717D01*
Y22315D01*
X204042Y20961D01*
X204743Y19747D01*
X205735Y18755D01*
X206949Y18054D01*
X208303Y17691D01*
X209705D01*
X211059Y18054D01*
X212273Y18755D01*
X213264Y19747D01*
X213966Y20961D01*
X214328Y22315D01*
Y23717D01*
X213966Y25071D01*
X213264Y26285D01*
X212273Y27276D01*
X211059Y27977D01*
X209705Y28340D01*
D02*
G37*
G36*
X231051Y28366D02*
X226327D01*
X225553Y28264D01*
X224833Y27965D01*
X224214Y27491D01*
X223739Y26872D01*
X223441Y26151D01*
X223339Y25378D01*
Y20653D01*
X223441Y19880D01*
X223739Y19160D01*
X224214Y18541D01*
X224833Y18066D01*
X225553Y17768D01*
X226327Y17666D01*
X231051D01*
X231824Y17768D01*
X232545Y18066D01*
X233164Y18541D01*
X233639Y19160D01*
X233937Y19880D01*
X234039Y20653D01*
Y25378D01*
X233937Y26151D01*
X233639Y26872D01*
X233164Y27491D01*
X232545Y27965D01*
X231824Y28264D01*
X231051Y28366D01*
D02*
G37*
G36*
X97000Y46641D02*
X76500D01*
X75681Y46478D01*
X74986Y46014D01*
X70486Y41514D01*
X70022Y40819D01*
X69859Y40000D01*
Y27718D01*
X63777Y21635D01*
X59668D01*
Y14498D01*
X66805D01*
Y18607D01*
X73514Y25317D01*
X73978Y26011D01*
X74141Y26831D01*
Y39113D01*
X77387Y42359D01*
X97000D01*
X97819Y42522D01*
X98514Y42986D01*
X98978Y43681D01*
X99141Y44500D01*
X98978Y45319D01*
X98514Y46014D01*
X97819Y46478D01*
X97000Y46641D01*
D02*
G37*
G36*
X96732Y17567D02*
X93264D01*
Y14098D01*
X93286D01*
X94296Y14369D01*
X95201Y14891D01*
X95939Y15630D01*
X96462Y16535D01*
X96732Y17545D01*
Y17567D01*
D02*
G37*
G36*
X92264D02*
X88795D01*
Y17545D01*
X89066Y16535D01*
X89588Y15630D01*
X90327Y14891D01*
X91232Y14369D01*
X92241Y14098D01*
X92264D01*
Y17567D01*
D02*
G37*
G36*
X265843Y19500D02*
X255500D01*
Y9157D01*
X255853D01*
X257539Y9425D01*
X259162Y9952D01*
X260683Y10727D01*
X262063Y11730D01*
X263270Y12937D01*
X264273Y14317D01*
X265048Y15838D01*
X265576Y17461D01*
X265843Y19147D01*
Y19500D01*
D02*
G37*
G36*
X254500D02*
X244158D01*
Y19147D01*
X244425Y17461D01*
X244952Y15838D01*
X245727Y14317D01*
X246730Y12937D01*
X247937Y11730D01*
X249317Y10727D01*
X250838Y9952D01*
X252461Y9425D01*
X254147Y9157D01*
X254500D01*
Y19500D01*
D02*
G37*
G36*
X30843D02*
X20500D01*
Y9157D01*
X20853D01*
X22539Y9425D01*
X24162Y9952D01*
X25683Y10727D01*
X27063Y11730D01*
X28270Y12937D01*
X29273Y14317D01*
X30048Y15838D01*
X30575Y17461D01*
X30843Y19147D01*
Y19500D01*
D02*
G37*
G36*
X19500D02*
X9157D01*
Y19147D01*
X9425Y17461D01*
X9952Y15838D01*
X10727Y14317D01*
X11730Y12937D01*
X12937Y11730D01*
X14317Y10727D01*
X15838Y9952D01*
X17461Y9425D01*
X19147Y9157D01*
X19500D01*
Y19500D01*
D02*
G37*
G36*
X152508Y13763D02*
Y8972D01*
X155002D01*
Y10835D01*
X154900Y11610D01*
X154601Y12332D01*
X154125Y12952D01*
X153505Y13428D01*
X152783Y13727D01*
X152508Y13763D01*
D02*
G37*
G36*
X151508D02*
X151233Y13727D01*
X150511Y13428D01*
X149891Y12952D01*
X149415Y12332D01*
X149116Y11610D01*
X149014Y10835D01*
Y8972D01*
X151508D01*
Y13763D01*
D02*
G37*
G36*
X155002Y7972D02*
X152508D01*
Y3182D01*
X152783Y3218D01*
X153505Y3517D01*
X154125Y3993D01*
X154601Y4613D01*
X154900Y5335D01*
X155002Y6110D01*
Y7972D01*
D02*
G37*
G36*
X151508D02*
X149014D01*
Y6110D01*
X149116Y5335D01*
X149415Y4613D01*
X149891Y3993D01*
X150511Y3517D01*
X151233Y3218D01*
X151508Y3182D01*
Y7972D01*
D02*
G37*
G36*
X120986D02*
X118492D01*
Y3182D01*
X118767Y3218D01*
X119489Y3517D01*
X120109Y3993D01*
X120585Y4613D01*
X120884Y5335D01*
X120986Y6110D01*
Y7972D01*
D02*
G37*
G36*
X117492D02*
X114998D01*
Y6110D01*
X115100Y5335D01*
X115399Y4613D01*
X115875Y3993D01*
X116495Y3517D01*
X117217Y3218D01*
X117492Y3182D01*
Y7972D01*
D02*
G37*
%LPD*%
G36*
X100148Y263525D02*
X100148Y262382D01*
X100148Y262010D01*
Y257753D01*
X100148Y257382D01*
X100148Y257010D01*
Y256121D01*
X95171D01*
Y258316D01*
X90349D01*
Y251683D01*
X95171D01*
Y253878D01*
X100148D01*
Y252510D01*
X100148D01*
Y252254D01*
X100148D01*
Y251121D01*
X100000D01*
X99571Y251036D01*
X99207Y250793D01*
X99207Y250793D01*
X95671Y247257D01*
X95171Y247448D01*
Y249317D01*
X90349D01*
Y242684D01*
X95171D01*
Y244879D01*
X96000D01*
X96000Y244878D01*
X96429Y244964D01*
X96793Y245207D01*
X99686Y248100D01*
X100148Y247909D01*
X100148Y247382D01*
X100148Y247010D01*
Y242754D01*
X100148Y242382D01*
X100148Y242010D01*
Y241122D01*
X98500D01*
X98500Y241122D01*
X98071Y241036D01*
X97707Y240793D01*
X97707Y240793D01*
X95707Y238793D01*
X95464Y238429D01*
X95378Y238000D01*
X95378Y238000D01*
Y229191D01*
X94980Y229026D01*
X94474Y228520D01*
X94200Y227858D01*
Y227142D01*
X94474Y226480D01*
X94980Y225974D01*
X95642Y225700D01*
X96358D01*
X96441Y225734D01*
X96724Y225311D01*
X93707Y222293D01*
X93464Y221929D01*
X93378Y221500D01*
X93378Y221500D01*
Y202053D01*
X93378Y202053D01*
X93464Y201623D01*
X93707Y201260D01*
X93718Y201249D01*
X93614Y200728D01*
X93163Y200491D01*
X92722Y200674D01*
Y236400D01*
X92722Y236400D01*
X92636Y236829D01*
X92393Y237193D01*
X92393Y237193D01*
X90793Y238793D01*
X90429Y239036D01*
X90000Y239122D01*
X90000Y239122D01*
X88424D01*
X88020Y239526D01*
X87358Y239800D01*
X86808D01*
X86493Y240026D01*
X86362Y240225D01*
Y242684D01*
X87651D01*
Y249317D01*
X86362D01*
Y251683D01*
X87651D01*
Y258316D01*
X86461D01*
X86403Y258817D01*
X91465Y263878D01*
X99795D01*
X100148Y263525D01*
D02*
G37*
G36*
X119878Y251535D02*
Y248361D01*
X119416Y248170D01*
X117293Y250293D01*
X116929Y250536D01*
X116500Y250622D01*
X116500Y250622D01*
X111424D01*
X111020Y251026D01*
X110358Y251300D01*
X109642D01*
X108980Y251026D01*
X108576Y250622D01*
X107254D01*
Y252254D01*
X107254D01*
Y252510D01*
X107254D01*
Y253379D01*
X112576D01*
X112980Y252974D01*
X113642Y252700D01*
X114358D01*
X115020Y252974D01*
X115424Y253379D01*
X118035D01*
X119878Y251535D01*
D02*
G37*
G36*
X236500Y251000D02*
X191000D01*
Y261000D01*
X236500D01*
Y251000D01*
D02*
G37*
G36*
X187354Y237586D02*
X187181Y237100D01*
X187142D01*
X186480Y236826D01*
X185974Y236320D01*
X185700Y235658D01*
Y234942D01*
X185974Y234280D01*
X186480Y233774D01*
X186663Y233698D01*
X186564Y233198D01*
X183132D01*
Y232471D01*
X181624D01*
X181220Y232876D01*
X180558Y233150D01*
X179842D01*
X179180Y232876D01*
X178722Y232417D01*
X178500Y232447D01*
X178222Y232570D01*
Y237426D01*
X178722Y237633D01*
X178880Y237474D01*
X179542Y237200D01*
X180258D01*
X180920Y237474D01*
X181324Y237878D01*
X187103D01*
X187354Y237586D01*
D02*
G37*
G36*
X156269Y246976D02*
X156474Y246480D01*
X156980Y245974D01*
X157642Y245700D01*
X158214D01*
X159762Y244151D01*
Y242616D01*
X159762Y242616D01*
X159848Y242187D01*
X160091Y241823D01*
X162707Y239207D01*
X162707Y239207D01*
X163071Y238964D01*
X163500Y238878D01*
X163500Y238878D01*
X169046D01*
Y237510D01*
X169046D01*
Y237253D01*
X169046D01*
Y236122D01*
X163424D01*
X163020Y236526D01*
X162358Y236800D01*
X161642D01*
X160980Y236526D01*
X160474Y236020D01*
X160200Y235358D01*
Y234642D01*
X160474Y233980D01*
X160980Y233474D01*
X161642Y233200D01*
X162358D01*
X163020Y233474D01*
X163424Y233878D01*
X169046D01*
Y232510D01*
X169046D01*
Y232254D01*
X169046D01*
Y231121D01*
X167424D01*
X167020Y231526D01*
X166358Y231800D01*
X165642D01*
X164980Y231526D01*
X164474Y231020D01*
X164200Y230358D01*
Y229642D01*
X164474Y228980D01*
X164980Y228474D01*
X165642Y228200D01*
X166358D01*
X167020Y228474D01*
X167424Y228878D01*
X169046D01*
Y227510D01*
X169046D01*
Y227254D01*
X169046D01*
Y226121D01*
X163424D01*
X163020Y226526D01*
X162358Y226800D01*
X161642D01*
X160980Y226526D01*
X160474Y226020D01*
X160200Y225358D01*
Y224642D01*
X160474Y223980D01*
X160980Y223474D01*
X161642Y223200D01*
X162358D01*
X163020Y223474D01*
X163424Y223879D01*
X169046D01*
Y222510D01*
X169046D01*
Y222253D01*
X169046D01*
Y217510D01*
X169046D01*
Y217253D01*
X169046D01*
Y212510D01*
X169046D01*
Y212253D01*
X169046D01*
Y207510D01*
X169046D01*
Y207254D01*
X169046D01*
Y206121D01*
X167424D01*
X167020Y206526D01*
X166358Y206800D01*
X165642D01*
X164980Y206526D01*
X164474Y206020D01*
X164200Y205358D01*
Y204642D01*
X164474Y203980D01*
X164479Y203975D01*
X164288Y203513D01*
X163278D01*
Y203513D01*
X163021D01*
Y203513D01*
X158521D01*
X158278Y203513D01*
Y203513D01*
X158021D01*
Y203513D01*
X153278D01*
Y203513D01*
X153021D01*
Y203513D01*
X152122D01*
Y208576D01*
X152526Y208980D01*
X152800Y209642D01*
Y210358D01*
X152526Y211020D01*
X152122Y211424D01*
Y224273D01*
X159293Y231444D01*
X159293Y231444D01*
X159536Y231808D01*
X159622Y232237D01*
Y238576D01*
X160026Y238980D01*
X160300Y239642D01*
Y240358D01*
X160026Y241020D01*
X159520Y241526D01*
X158858Y241800D01*
X158142D01*
X157480Y241526D01*
X156974Y241020D01*
X156700Y240358D01*
Y239642D01*
X156974Y238980D01*
X157378Y238576D01*
Y232702D01*
X152584Y227907D01*
X152122Y228098D01*
Y243535D01*
X155738Y247152D01*
X156269Y246976D01*
D02*
G37*
G36*
X100148Y238525D02*
X100148Y237382D01*
X100148Y237010D01*
Y232753D01*
X100148Y232382D01*
X100148Y232010D01*
Y227753D01*
X100148Y227382D01*
X100148Y227010D01*
Y226003D01*
X97882D01*
X97725Y225972D01*
X97479Y226433D01*
X97526Y226480D01*
X97800Y227142D01*
Y227858D01*
X97622Y228289D01*
Y237535D01*
X98965Y238878D01*
X99795D01*
X100148Y238525D01*
D02*
G37*
G36*
X209980Y224474D02*
X210194Y224386D01*
X210249Y223821D01*
X210207Y223793D01*
X210207Y223793D01*
X205207Y218793D01*
X205051Y218559D01*
X204653Y218529D01*
X204579Y218531D01*
X204492Y218554D01*
X204020Y219026D01*
X203358Y219300D01*
X202642D01*
X201980Y219026D01*
X201474Y218520D01*
X201200Y217858D01*
Y217142D01*
X201474Y216480D01*
X201878Y216076D01*
Y211500D01*
X201878Y211500D01*
X201964Y211071D01*
X202207Y210707D01*
X203707Y209207D01*
X204071Y208964D01*
X204500Y208878D01*
X204500Y208878D01*
X211656D01*
X211657Y208878D01*
X212086Y208793D01*
X212086Y208793D01*
X212914D01*
X212914Y208793D01*
X213343Y208878D01*
X213707Y209121D01*
X216463Y211877D01*
X226037D01*
X228200Y209714D01*
Y209142D01*
X228474Y208480D01*
X228980Y207974D01*
X229642Y207700D01*
X230358D01*
X231020Y207974D01*
X231526Y208480D01*
X231731Y208976D01*
X231993Y209103D01*
X232157Y209144D01*
X232300Y209145D01*
X232571Y208964D01*
X233000Y208878D01*
X234585D01*
X234792Y208379D01*
X232429Y206015D01*
X224037D01*
Y209037D01*
X215750D01*
Y200750D01*
X224037D01*
Y203772D01*
X232894D01*
X232894Y203772D01*
X233323Y203857D01*
X233687Y204101D01*
X243293Y213707D01*
X243536Y214071D01*
X243622Y214500D01*
X243621Y214500D01*
Y218035D01*
X245965Y220378D01*
X250576D01*
X250980Y219974D01*
X251642Y219700D01*
X252358D01*
X253020Y219974D01*
X253526Y220480D01*
X253718Y220945D01*
X254197Y221154D01*
X254300Y221158D01*
X254379Y221105D01*
Y217190D01*
X254378Y217189D01*
X254464Y216760D01*
X254707Y216396D01*
X261379Y209725D01*
Y206424D01*
X260974Y206020D01*
X260700Y205358D01*
Y204642D01*
X260974Y203980D01*
X261480Y203474D01*
X262142Y203200D01*
X262858D01*
X263520Y203474D01*
X263924Y203878D01*
X266535D01*
X269778Y200635D01*
Y196961D01*
X269317Y196770D01*
X267793Y198293D01*
X267429Y198536D01*
X267000Y198622D01*
X267000Y198622D01*
X216465D01*
X213793Y201293D01*
X213429Y201536D01*
X213000Y201622D01*
X213000Y201622D01*
X199965D01*
X194622Y206965D01*
Y212000D01*
X194622Y212000D01*
X194536Y212429D01*
X194293Y212793D01*
X191293Y215793D01*
X190929Y216036D01*
X190500Y216122D01*
X190500Y216122D01*
X185361D01*
X185170Y216583D01*
X188965Y220378D01*
X201000D01*
X201000Y220378D01*
X201429Y220464D01*
X201793Y220707D01*
X205965Y224879D01*
X209576D01*
X209980Y224474D01*
D02*
G37*
G36*
X85200Y237787D02*
Y237642D01*
X85474Y236980D01*
X85980Y236474D01*
X86492Y236262D01*
Y235738D01*
X85980Y235526D01*
X85474Y235020D01*
X85200Y234358D01*
Y233642D01*
X85474Y232980D01*
X85980Y232474D01*
X86642Y232200D01*
X87358D01*
X87772Y232371D01*
X87794Y232367D01*
X88500Y231661D01*
X88500Y231661D01*
X88500Y231661D01*
X88878Y231283D01*
Y183361D01*
X88416Y183170D01*
X86793Y184793D01*
X86429Y185036D01*
X86000Y185122D01*
X86000Y185122D01*
X79112D01*
Y187356D01*
X78059D01*
Y190546D01*
X79899D01*
Y197454D01*
X78059D01*
Y199546D01*
X79899D01*
Y206454D01*
X78059D01*
Y208546D01*
X79899D01*
Y215454D01*
X78059D01*
Y217546D01*
X79899D01*
Y224454D01*
X78059D01*
Y226546D01*
X79899D01*
Y228878D01*
X81000D01*
X81000Y228878D01*
X81378Y228954D01*
X81472Y228935D01*
X81878Y228663D01*
Y221424D01*
X81474Y221020D01*
X81200Y220358D01*
Y219642D01*
X81474Y218980D01*
X81980Y218474D01*
X82642Y218200D01*
X83358D01*
X84020Y218474D01*
X84526Y218980D01*
X84800Y219642D01*
Y220358D01*
X84526Y221020D01*
X84122Y221424D01*
Y232000D01*
X84122Y232000D01*
X84122Y232000D01*
Y237415D01*
X84700Y237994D01*
X85200Y237787D01*
D02*
G37*
G36*
X227878Y221576D02*
Y214000D01*
X227878Y214000D01*
X227900Y213894D01*
X227439Y213647D01*
X227294Y213792D01*
X226930Y214035D01*
X226501Y214120D01*
X226501Y214120D01*
X215999D01*
X215999Y214120D01*
X215570Y214035D01*
X215206Y213792D01*
X215206Y213792D01*
X212450Y211036D01*
X212430D01*
X212429Y211036D01*
X212000Y211122D01*
X212000Y211122D01*
X204965D01*
X204122Y211965D01*
Y212626D01*
X204622Y212833D01*
X204980Y212474D01*
X205642Y212200D01*
X206358D01*
X207020Y212474D01*
X207526Y212980D01*
X207800Y213642D01*
Y214358D01*
X207526Y215020D01*
X207121Y215424D01*
Y217535D01*
X211465Y221879D01*
X227576D01*
X227878Y221576D01*
D02*
G37*
G36*
X147480Y215474D02*
X148142Y215200D01*
X148858D01*
X149378Y215416D01*
X149878Y215180D01*
Y211424D01*
X149474Y211020D01*
X149200Y210358D01*
Y209642D01*
X149474Y208980D01*
X149878Y208576D01*
Y203867D01*
X149525Y203513D01*
X148150Y203513D01*
X147778Y203513D01*
X147122D01*
Y204576D01*
X147526Y204980D01*
X147800Y205642D01*
Y206358D01*
X147526Y207020D01*
X147020Y207526D01*
X146358Y207800D01*
X145642D01*
X144980Y207526D01*
X144474Y207020D01*
X144200Y206358D01*
Y205642D01*
X144474Y204980D01*
X144878Y204576D01*
Y203867D01*
X144525Y203513D01*
X143150Y203513D01*
X142778Y203513D01*
X142122D01*
Y208576D01*
X142526Y208980D01*
X142800Y209642D01*
Y210358D01*
X142526Y211020D01*
X142122Y211424D01*
Y213535D01*
X144465Y215879D01*
X147076D01*
X147480Y215474D01*
D02*
G37*
G36*
X53573Y204341D02*
X53573Y204341D01*
X53937Y204098D01*
X54366Y204012D01*
X56762D01*
Y203156D01*
X56762D01*
Y202781D01*
X56762D01*
Y198825D01*
X56762Y198825D01*
Y198450D01*
X56762D01*
X56762Y198325D01*
Y197594D01*
X53437D01*
X51122Y199909D01*
Y206109D01*
X51169Y206146D01*
X51622Y206292D01*
X53573Y204341D01*
D02*
G37*
G36*
X154528Y194140D02*
X151707Y191319D01*
X151464Y190955D01*
X151378Y190525D01*
X151378Y190525D01*
Y161791D01*
X151378Y161791D01*
X151464Y161362D01*
X151707Y160998D01*
X155083Y157622D01*
X154876Y157122D01*
X151965D01*
X150543Y158543D01*
Y180857D01*
X150457Y181286D01*
X150214Y181650D01*
X150214Y181650D01*
X141122Y190743D01*
Y193076D01*
X141526Y193480D01*
X141800Y194142D01*
Y194858D01*
X141526Y195520D01*
X141138Y195908D01*
X141305Y196408D01*
X143150Y196408D01*
X143521Y196408D01*
X147778D01*
X148150Y196408D01*
X148521Y196408D01*
X153021D01*
Y196408D01*
X153278D01*
Y196408D01*
X154528D01*
Y194140D01*
D02*
G37*
G36*
X169046Y202510D02*
X175847D01*
X175924Y202010D01*
X170035Y196122D01*
X168403D01*
X168021Y196408D01*
Y203513D01*
X168347Y203878D01*
X169046D01*
Y202510D01*
D02*
G37*
G36*
X100148Y218525D02*
X100148Y217382D01*
X100148Y217010D01*
Y212754D01*
X100148Y212382D01*
X100148Y212010D01*
Y207753D01*
X100148Y207382D01*
X100148Y207010D01*
Y202510D01*
X107254D01*
Y203832D01*
X107910D01*
X108278Y203513D01*
Y196408D01*
X112778D01*
X113150Y196408D01*
X113521Y196408D01*
X117778D01*
X118150Y196408D01*
X118521Y196408D01*
X122778D01*
X123150Y196408D01*
X123521Y196408D01*
X124839D01*
X124862Y195908D01*
X124474Y195520D01*
X124200Y194858D01*
Y194142D01*
X124474Y193480D01*
X124980Y192974D01*
X125642Y192700D01*
X126358D01*
X127020Y192974D01*
X127526Y193480D01*
X127800Y194142D01*
Y194858D01*
X127526Y195520D01*
X127138Y195908D01*
X127161Y196408D01*
X128150Y196408D01*
X128521Y196408D01*
X132778D01*
X133150Y196408D01*
X133521Y196408D01*
X134378D01*
Y192965D01*
X132235Y190822D01*
X112627D01*
X106656Y196793D01*
X106292Y197036D01*
X105863Y197122D01*
X105863Y197122D01*
X102424D01*
X102020Y197526D01*
X101358Y197800D01*
X100642D01*
X99980Y197526D01*
X99809Y197355D01*
X99322Y197574D01*
Y200615D01*
X99236Y201045D01*
X98993Y201409D01*
X98993Y201409D01*
X97222Y203180D01*
Y218035D01*
X98065Y218879D01*
X99795D01*
X100148Y218525D01*
D02*
G37*
G36*
X159878Y190736D02*
Y189965D01*
X157207Y187293D01*
X156964Y186929D01*
X156878Y186500D01*
X156878Y186500D01*
Y184424D01*
X156474Y184020D01*
X156200Y183358D01*
Y182642D01*
X156474Y181980D01*
X156980Y181474D01*
X157642Y181200D01*
X158358D01*
X159020Y181474D01*
X159526Y181980D01*
X159800Y182642D01*
Y183358D01*
X159526Y184020D01*
X159122Y184424D01*
Y186035D01*
X161238Y188152D01*
X161769Y187976D01*
X161974Y187480D01*
X162480Y186974D01*
X163142Y186700D01*
X163614D01*
X168778Y181535D01*
Y177904D01*
X168299Y177854D01*
X168278Y177854D01*
X165437D01*
Y174000D01*
Y170146D01*
X168278D01*
X168299Y170146D01*
X168778Y170096D01*
Y133515D01*
X168278Y133308D01*
X162540Y139046D01*
X162748Y139546D01*
X167899D01*
Y146454D01*
X162122D01*
Y148546D01*
X167899D01*
Y155454D01*
X162074D01*
X161879Y155768D01*
X162125Y156173D01*
X162147Y156200D01*
X162858D01*
X163520Y156474D01*
X164026Y156980D01*
X164300Y157642D01*
Y158358D01*
X164026Y159020D01*
X163520Y159526D01*
X162858Y159800D01*
X162142D01*
X161480Y159526D01*
X161076Y159122D01*
X156755D01*
X155793Y160084D01*
X155984Y160546D01*
X160025D01*
Y167454D01*
X158317D01*
Y170546D01*
X160025D01*
Y177454D01*
X160025D01*
X160208Y177878D01*
X161085D01*
X161503Y177858D01*
X161575Y177393D01*
Y174500D01*
X164437D01*
Y177854D01*
X162648D01*
X162441Y178354D01*
X164293Y180207D01*
X164293Y180207D01*
X164536Y180571D01*
X164622Y181000D01*
X164622Y181000D01*
Y181576D01*
X165026Y181980D01*
X165300Y182642D01*
Y183358D01*
X165026Y184020D01*
X164520Y184526D01*
X163858Y184800D01*
X163142D01*
X162480Y184526D01*
X161974Y184020D01*
X161700Y183358D01*
Y182642D01*
X161974Y181980D01*
X162104Y181851D01*
Y181190D01*
X161035Y180122D01*
X156465D01*
X155622Y180965D01*
Y187133D01*
X159416Y190927D01*
X159878Y190736D01*
D02*
G37*
G36*
X87278Y181135D02*
Y178920D01*
X86778Y178626D01*
X86358Y178800D01*
X85642D01*
X84980Y178526D01*
X84474Y178020D01*
X84405Y177854D01*
X83732D01*
X83303Y177768D01*
X82939Y177525D01*
X82939Y177525D01*
X81707Y176293D01*
X81464Y175929D01*
X81378Y175500D01*
X81378Y175500D01*
Y173465D01*
X80035Y172122D01*
X75965D01*
X74122Y173965D01*
Y180165D01*
X74172Y180644D01*
X75520D01*
Y176924D01*
X75116Y176520D01*
X74842Y175858D01*
Y175142D01*
X75116Y174480D01*
X75622Y173974D01*
X76284Y173700D01*
X77000D01*
X77661Y173974D01*
X78168Y174480D01*
X78442Y175142D01*
Y175858D01*
X78168Y176520D01*
X77763Y176924D01*
Y180644D01*
X79112D01*
Y182878D01*
X85535D01*
X87278Y181135D01*
D02*
G37*
G36*
X137267Y184878D02*
X137135Y184746D01*
X136826Y184000D01*
X139000D01*
Y183500D01*
X139500D01*
Y181326D01*
X140246Y181635D01*
X140865Y182254D01*
X141000Y182579D01*
X141490Y182676D01*
X145100Y179067D01*
Y170923D01*
X144600Y170589D01*
X144279Y170721D01*
X143563D01*
X142902Y170447D01*
X142497Y170043D01*
X138516D01*
X138476Y170102D01*
Y171661D01*
X138827D01*
Y172555D01*
X139327Y172762D01*
X139754Y172335D01*
X140500Y172026D01*
Y174200D01*
Y176374D01*
X139754Y176065D01*
X139327Y175638D01*
X138827Y175845D01*
Y176024D01*
X138476D01*
Y177583D01*
X138427Y177702D01*
Y180545D01*
X135689D01*
X135632Y180830D01*
X135389Y181194D01*
X135389Y181194D01*
X134745Y181838D01*
X134381Y182081D01*
X133952Y182166D01*
X133952Y182166D01*
X128710D01*
X128710Y182166D01*
X128280Y182081D01*
X128242Y182055D01*
X127772Y182283D01*
X127728Y182683D01*
X128026Y182980D01*
X128300Y183642D01*
Y184358D01*
X128084Y184878D01*
X128320Y185378D01*
X137060D01*
X137267Y184878D01*
D02*
G37*
G36*
X94864Y189671D02*
X95107Y189307D01*
X96707Y187707D01*
X96707Y187707D01*
X97071Y187464D01*
X97500Y187378D01*
X97500Y187378D01*
X101000D01*
X101000Y187378D01*
X101429Y187464D01*
X101793Y187707D01*
X102300Y188214D01*
X102800Y188007D01*
Y187562D01*
X103135Y186754D01*
X103754Y186135D01*
X104500Y185826D01*
Y188000D01*
X105500D01*
Y185826D01*
X106246Y186135D01*
X106865Y186754D01*
X107184Y187523D01*
X107662Y187752D01*
X109707Y185707D01*
X109707Y185707D01*
X110071Y185464D01*
X110500Y185378D01*
X110500Y185378D01*
X124680D01*
X124916Y184878D01*
X124700Y184358D01*
Y183642D01*
X124974Y182980D01*
X125378Y182576D01*
Y180545D01*
X124235D01*
Y177702D01*
X124185Y177583D01*
Y175024D01*
X124235Y174904D01*
Y172781D01*
X124185Y172661D01*
Y171735D01*
X123685Y171635D01*
X123526Y172020D01*
X123020Y172526D01*
X122358Y172800D01*
X121642D01*
X120980Y172526D01*
X120474Y172020D01*
X120200Y171358D01*
Y170786D01*
X119207Y169793D01*
X119207Y169793D01*
X117256Y167842D01*
X115734D01*
Y170150D01*
X116134D01*
Y171339D01*
X114150D01*
Y171839D01*
X113650D01*
Y173528D01*
X112473D01*
X111207Y174793D01*
X110843Y175036D01*
X110414Y175122D01*
X110414Y175122D01*
X108110D01*
X107903Y175622D01*
X108365Y176084D01*
X108674Y176830D01*
X106500D01*
Y177330D01*
X106000D01*
Y179504D01*
X105254Y179195D01*
X104879Y178820D01*
X104610Y178591D01*
X104226Y178820D01*
X104020Y179026D01*
X103358Y179300D01*
X102642D01*
X101980Y179026D01*
X101474Y178520D01*
X101200Y177858D01*
Y177142D01*
X101269Y176976D01*
X100707Y176414D01*
X100464Y176050D01*
X100378Y175621D01*
X100378Y175621D01*
Y172500D01*
X100378Y172500D01*
X100464Y172071D01*
X100707Y171707D01*
X101507Y170907D01*
X101871Y170664D01*
X102300Y170578D01*
X102300Y170578D01*
X105866D01*
Y169780D01*
X107850D01*
Y168780D01*
X105866D01*
Y167985D01*
X105532Y167653D01*
X105102Y167568D01*
X104738Y167324D01*
X104738Y167324D01*
X103707Y166293D01*
X103464Y165929D01*
X103378Y165500D01*
X103378Y165500D01*
Y162424D01*
X102974Y162020D01*
X102700Y161358D01*
Y160642D01*
X102974Y159980D01*
X103333Y159622D01*
X103126Y159122D01*
X100465D01*
X100300Y159286D01*
Y159858D01*
X100026Y160520D01*
X99520Y161026D01*
X98858Y161300D01*
X98142D01*
X97480Y161026D01*
X96974Y160520D01*
X96700Y159858D01*
Y159142D01*
X96974Y158480D01*
X97480Y157974D01*
X98033Y157745D01*
X98132Y157389D01*
X98127Y157206D01*
X98107Y157193D01*
X98107Y157193D01*
X96714Y155800D01*
X96142D01*
X95480Y155526D01*
X94974Y155020D01*
X94822Y154651D01*
X94322Y154751D01*
Y189834D01*
X94822Y189883D01*
X94864Y189671D01*
D02*
G37*
G36*
X111793Y168675D02*
X111793Y168675D01*
X112157Y168432D01*
X112565Y168351D01*
Y165431D01*
Y162873D01*
X113853D01*
X114824Y161901D01*
Y161369D01*
X114474Y161020D01*
X114200Y160358D01*
Y159786D01*
X113535Y159122D01*
X110374D01*
X110167Y159622D01*
X110526Y159980D01*
X110800Y160642D01*
Y161358D01*
X110526Y162020D01*
X110020Y162526D01*
X109825Y162607D01*
X109435Y162873D01*
Y165810D01*
X109753Y165873D01*
X110117Y166116D01*
X110728Y166727D01*
X110728Y166727D01*
X110971Y167091D01*
X111056Y167520D01*
X111056Y167520D01*
Y168705D01*
X111556Y168912D01*
X111793Y168675D01*
D02*
G37*
G36*
X117880Y155674D02*
X118542Y155400D01*
X119114D01*
X122307Y152207D01*
X122307Y152207D01*
X122671Y151964D01*
X123100Y151878D01*
X123100Y151878D01*
X129202D01*
X129607Y151474D01*
X130268Y151200D01*
X130984D01*
X131646Y151474D01*
X132050Y151878D01*
X133626D01*
X133833Y151378D01*
X133474Y151020D01*
X133200Y150358D01*
Y149642D01*
X133474Y148980D01*
X133855Y148600D01*
Y146709D01*
X133484D01*
Y144577D01*
X132484D01*
Y146709D01*
X131516D01*
Y144577D01*
X130516D01*
Y146709D01*
X129386D01*
Y146309D01*
X127817D01*
Y143198D01*
X126676D01*
Y143122D01*
X121465D01*
X118856Y145730D01*
X118786Y145777D01*
X118765Y145991D01*
X119074Y146737D01*
X116900D01*
Y147237D01*
X116400D01*
Y149411D01*
X115654Y149102D01*
X115261Y148710D01*
X114761Y148917D01*
Y150065D01*
X111622D01*
Y152621D01*
X111536Y153050D01*
X111293Y153414D01*
X111293Y153414D01*
X111231Y153476D01*
X111300Y153642D01*
Y154358D01*
X111126Y154778D01*
X111420Y155278D01*
X112314D01*
X112565Y154778D01*
X112326Y154200D01*
X116674D01*
X116365Y154946D01*
X115934Y155378D01*
X115911Y155585D01*
X116357Y156078D01*
X117476D01*
X117880Y155674D01*
D02*
G37*
G36*
X124235Y162219D02*
X126972D01*
X127029Y161934D01*
X127272Y161570D01*
X134259Y154584D01*
X134068Y154122D01*
X132050D01*
X131646Y154526D01*
X130984Y154800D01*
X130268D01*
X129607Y154526D01*
X129202Y154122D01*
X123565D01*
X120700Y156986D01*
Y157558D01*
X120426Y158220D01*
X119920Y158726D01*
X119258Y159000D01*
X118542D01*
X117956Y158757D01*
X117695Y158953D01*
X117575Y159100D01*
X117800Y159642D01*
Y160358D01*
X117526Y161020D01*
X117122Y161424D01*
Y162311D01*
X117108Y162378D01*
X117499Y162878D01*
X124235D01*
Y162219D01*
D02*
G37*
G36*
X102374Y154778D02*
X102200Y154358D01*
Y153642D01*
X102295Y153412D01*
X102265Y153370D01*
X101892Y153079D01*
X101358Y153300D01*
X100642D01*
X99980Y153026D01*
X99474Y152520D01*
X99200Y151858D01*
Y151142D01*
X99474Y150480D01*
X99980Y149974D01*
X100642Y149700D01*
X101020D01*
X101227Y149200D01*
X100207Y148179D01*
X99964Y147816D01*
X99878Y147386D01*
X99878Y147386D01*
Y140519D01*
X99878Y140519D01*
X99964Y140090D01*
X100207Y139726D01*
X101249Y138684D01*
X101041Y138184D01*
X99402D01*
X97622Y139965D01*
Y152576D01*
X98026Y152980D01*
X98300Y153642D01*
Y154214D01*
X99365Y155278D01*
X102080D01*
X102374Y154778D01*
D02*
G37*
G36*
X151207Y151707D02*
X151571Y151464D01*
X152000Y151378D01*
X152000Y151378D01*
X154101D01*
Y148546D01*
X159878D01*
Y146454D01*
X154101D01*
Y144122D01*
X152293D01*
X147343Y149072D01*
Y154918D01*
X147805Y155109D01*
X151207Y151707D01*
D02*
G37*
G36*
X188278Y150135D02*
Y138865D01*
X188035Y138622D01*
X185924D01*
X185520Y139026D01*
X184858Y139300D01*
X184142D01*
X183480Y139026D01*
X182974Y138520D01*
X182700Y137858D01*
Y137142D01*
X182974Y136480D01*
X183414Y136040D01*
X183452Y135750D01*
X183414Y135460D01*
X182974Y135020D01*
X182878Y134788D01*
X182388Y134691D01*
X181170Y135909D01*
X180806Y136152D01*
X180521Y136209D01*
Y138928D01*
Y144378D01*
X183076D01*
X183480Y143974D01*
X184142Y143700D01*
X184858D01*
X185520Y143974D01*
X186026Y144480D01*
X186300Y145142D01*
Y145858D01*
X186026Y146520D01*
X185520Y147026D01*
X185008Y147238D01*
Y147762D01*
X185520Y147974D01*
X186026Y148480D01*
X186300Y149142D01*
Y149858D01*
X186026Y150520D01*
X185520Y151026D01*
X184858Y151300D01*
X184142D01*
X183480Y151026D01*
X183076Y150622D01*
X180521D01*
Y152973D01*
X185441D01*
X188278Y150135D01*
D02*
G37*
G36*
X142902Y167395D02*
X143563Y167121D01*
X144279D01*
X144600Y167254D01*
X145100Y166920D01*
Y148607D01*
X145100Y148607D01*
X145185Y148178D01*
X145428Y147814D01*
X151121Y142121D01*
X151121Y142121D01*
X151485Y141878D01*
X151914Y141793D01*
X152343Y141878D01*
X152344Y141878D01*
X154101D01*
Y140192D01*
X153601Y139985D01*
X152793Y140793D01*
X152429Y141036D01*
X152000Y141122D01*
X152000Y141122D01*
X142122D01*
Y152000D01*
X142122Y152000D01*
X142036Y152429D01*
X141793Y152793D01*
X141793Y152793D01*
X139696Y154890D01*
X139794Y155380D01*
X140020Y155474D01*
X140526Y155980D01*
X140800Y156642D01*
Y157358D01*
X140526Y158020D01*
X140020Y158526D01*
X139358Y158800D01*
X139165D01*
X138448Y159517D01*
Y163319D01*
X138448Y163319D01*
X138427Y163427D01*
Y165062D01*
X138476Y165181D01*
Y167740D01*
X138516Y167800D01*
X142497D01*
X142902Y167395D01*
D02*
G37*
G36*
X108602Y133646D02*
X108602Y133646D01*
X108610D01*
X110049Y132207D01*
X110413Y131964D01*
X110843Y131878D01*
X110843Y131878D01*
X118000D01*
X118000Y131878D01*
X118429Y131964D01*
X118793Y132207D01*
X119416Y132830D01*
X119878Y132639D01*
Y123465D01*
X117344Y120931D01*
X116749D01*
X116542Y121431D01*
X116865Y121754D01*
X117174Y122500D01*
X112826D01*
X113135Y121754D01*
X113280Y121609D01*
X113088Y121147D01*
X112514D01*
Y121547D01*
X111312D01*
X110987Y122047D01*
X111174Y122500D01*
X106826D01*
X106945Y122213D01*
X106521Y121930D01*
X105925Y122525D01*
X105561Y122768D01*
X105132Y122854D01*
X105132Y122854D01*
X104595D01*
X104526Y123020D01*
X104020Y123526D01*
X103358Y123800D01*
X102642D01*
X101980Y123526D01*
X101474Y123020D01*
X101200Y122358D01*
Y121642D01*
X101474Y120980D01*
X101980Y120474D01*
X102642Y120200D01*
X103358D01*
X104020Y120474D01*
X104156Y120611D01*
X104668D01*
X105717Y119561D01*
Y119021D01*
X105560D01*
Y118913D01*
X102673D01*
X99800Y121786D01*
Y122214D01*
X106881Y129295D01*
X106881Y129295D01*
X107124Y129659D01*
X107210Y130088D01*
Y133668D01*
X108494D01*
X108602Y133646D01*
D02*
G37*
G36*
X176878Y129866D02*
X180921D01*
Y130134D01*
X181360Y130290D01*
X181421Y130293D01*
X185300Y126414D01*
Y125842D01*
X185574Y125180D01*
X186080Y124674D01*
X186742Y124400D01*
X187458D01*
X188120Y124674D01*
X188524Y125078D01*
X213363D01*
X217659Y120782D01*
X217468Y120320D01*
X212919D01*
X210447Y122793D01*
X210083Y123036D01*
X209653Y123122D01*
X209653Y123122D01*
X182472D01*
X182372Y123622D01*
X182646Y123735D01*
X183265Y124354D01*
X183574Y125100D01*
X179226D01*
X179535Y124354D01*
X180154Y123735D01*
X180428Y123622D01*
X180328Y123122D01*
X175965D01*
X172622Y126465D01*
Y129866D01*
X175878D01*
Y132441D01*
X176878D01*
Y129866D01*
D02*
G37*
G36*
X126461Y117427D02*
Y116447D01*
X126515Y116174D01*
X126663Y115953D01*
X126515Y115732D01*
X126461Y115459D01*
Y114478D01*
X126515Y114205D01*
X126663Y113984D01*
X126515Y113763D01*
X126461Y113490D01*
Y113382D01*
X125207Y112128D01*
X124964Y111764D01*
X124878Y111335D01*
X124878Y111335D01*
Y103465D01*
X123035Y101622D01*
X114000D01*
X114000Y101622D01*
X113571Y101536D01*
X113570Y101536D01*
X113550D01*
X106339Y108747D01*
Y112467D01*
X109254D01*
Y112067D01*
X110384D01*
Y113805D01*
X111384D01*
Y112067D01*
X111731D01*
Y106147D01*
X111731Y106147D01*
X111817Y105718D01*
X112060Y105354D01*
X114207Y103207D01*
X114571Y102964D01*
X115000Y102878D01*
X115000Y102878D01*
X119576D01*
X119980Y102474D01*
X120642Y102200D01*
X121358D01*
X122020Y102474D01*
X122526Y102980D01*
X122800Y103642D01*
Y104358D01*
X122526Y105020D01*
X122020Y105526D01*
X122051Y106054D01*
X122246Y106135D01*
X122865Y106754D01*
X123174Y107500D01*
X118826D01*
X119135Y106754D01*
X119754Y106135D01*
X119949Y106054D01*
X119980Y105526D01*
X119576Y105122D01*
X115465D01*
X113974Y106612D01*
Y112467D01*
X114083D01*
Y114593D01*
X114240D01*
Y114701D01*
X119657D01*
X119852Y114660D01*
X120146Y114256D01*
Y113595D01*
X119980Y113526D01*
X119474Y113020D01*
X119200Y112358D01*
Y111642D01*
X119474Y110980D01*
X119980Y110474D01*
X119949Y109946D01*
X119754Y109865D01*
X119135Y109246D01*
X118826Y108500D01*
X123174D01*
X122865Y109246D01*
X122246Y109865D01*
X122051Y109946D01*
X122020Y110474D01*
X122526Y110980D01*
X122800Y111642D01*
Y112358D01*
X122526Y113020D01*
X122389Y113156D01*
Y114134D01*
X126039Y117784D01*
X126461Y117427D01*
D02*
G37*
G36*
X50500Y99500D02*
Y95000D01*
X38000D01*
Y96500D01*
X31000D01*
Y113500D01*
X36000D01*
X50500Y99500D01*
D02*
G37*
G36*
X101878Y95035D02*
Y86424D01*
X101474Y86020D01*
X101262Y85508D01*
X100738D01*
X100526Y86020D01*
X100122Y86424D01*
Y95000D01*
X100036Y95429D01*
X99793Y95793D01*
X99793Y95793D01*
X91122Y104465D01*
Y105139D01*
X91584Y105330D01*
X101878Y95035D01*
D02*
G37*
G36*
X72378Y92606D02*
Y79465D01*
X69251Y76337D01*
X68706Y76499D01*
X68691Y76574D01*
X70483Y78566D01*
X70560Y78785D01*
X70649Y79000D01*
Y87000D01*
X70459Y87459D01*
X70000Y87649D01*
X58268D01*
X58061Y88149D01*
X58465Y88554D01*
X58774Y89300D01*
X56600D01*
Y90300D01*
X58774D01*
X58465Y91046D01*
X57887Y91624D01*
X57908Y91813D01*
X58040Y92124D01*
X68376D01*
Y94949D01*
X70035D01*
X72378Y92606D01*
D02*
G37*
G36*
X172459Y80207D02*
X172459Y80207D01*
X172823Y79964D01*
X173252Y79878D01*
X173252Y79878D01*
X181878D01*
Y79050D01*
X178950Y76122D01*
X177924D01*
X177520Y76526D01*
X176858Y76800D01*
X176142D01*
X175480Y76526D01*
X175076Y76122D01*
X174000D01*
X174000Y76122D01*
X173571Y76036D01*
X173207Y75793D01*
X173207Y75793D01*
X172793Y75379D01*
X172293Y75586D01*
Y78041D01*
X169377D01*
Y80003D01*
X169378Y80003D01*
X169292Y80432D01*
X169049Y80796D01*
X169049Y80796D01*
X168348Y81497D01*
X168539Y81959D01*
X170707D01*
X172459Y80207D01*
D02*
G37*
G36*
X20500Y76000D02*
X12000D01*
Y93000D01*
X20500D01*
Y76000D01*
D02*
G37*
G36*
X70000Y79000D02*
X65500Y74000D01*
X49000D01*
X45500Y70500D01*
X37000D01*
Y72500D01*
X43500D01*
X45000Y74000D01*
Y87000D01*
X70000D01*
Y79000D01*
D02*
G37*
G36*
X25000Y64800D02*
Y63772D01*
X23247D01*
Y60000D01*
X22247D01*
Y63772D01*
X19374D01*
Y59929D01*
X11000D01*
Y60882D01*
X15118Y65000D01*
X24800D01*
X25000Y64800D01*
D02*
G37*
G36*
X33000Y38500D02*
X40500D01*
Y26000D01*
X33500D01*
Y32000D01*
X20500D01*
Y40500D01*
X33000D01*
Y38500D01*
D02*
G37*
%LPC*%
G36*
X200868Y213907D02*
X196124D01*
Y206802D01*
X200868D01*
Y213907D01*
D02*
G37*
G36*
X248250Y209037D02*
X239963D01*
Y200750D01*
X248250D01*
Y209037D01*
D02*
G37*
G36*
X164437Y173500D02*
X161575D01*
Y170146D01*
X164437D01*
Y173500D01*
D02*
G37*
G36*
X167899Y167454D02*
X161975D01*
Y160546D01*
X167899D01*
Y167454D01*
D02*
G37*
G36*
X138500Y183000D02*
X136826D01*
X137135Y182254D01*
X137754Y181635D01*
X138500Y181326D01*
Y183000D01*
D02*
G37*
G36*
X141500Y176374D02*
Y174700D01*
X143174D01*
X142865Y175446D01*
X142246Y176065D01*
X141500Y176374D01*
D02*
G37*
G36*
X143174Y173700D02*
X141500D01*
Y172026D01*
X142246Y172335D01*
X142865Y172954D01*
X143174Y173700D01*
D02*
G37*
G36*
X107000Y179504D02*
Y177830D01*
X108674D01*
X108365Y178576D01*
X107746Y179195D01*
X107000Y179504D01*
D02*
G37*
G36*
X116134Y173528D02*
X114650D01*
Y172339D01*
X116134D01*
Y173528D01*
D02*
G37*
G36*
X116674Y153200D02*
X115000D01*
Y151526D01*
X115746Y151835D01*
X116365Y152454D01*
X116674Y153200D01*
D02*
G37*
G36*
X114000D02*
X112326D01*
X112635Y152454D01*
X113254Y151835D01*
X114000Y151526D01*
Y153200D01*
D02*
G37*
G36*
X117400Y149411D02*
Y147737D01*
X119074D01*
X118765Y148483D01*
X118146Y149102D01*
X117400Y149411D01*
D02*
G37*
G36*
X115500Y125174D02*
Y123500D01*
X117174D01*
X116865Y124246D01*
X116246Y124865D01*
X115500Y125174D01*
D02*
G37*
G36*
X114500D02*
X113754Y124865D01*
X113135Y124246D01*
X112826Y123500D01*
X114500D01*
Y125174D01*
D02*
G37*
G36*
X109500D02*
Y123500D01*
X111174D01*
X110865Y124246D01*
X110246Y124865D01*
X109500Y125174D01*
D02*
G37*
G36*
X108500D02*
X107754Y124865D01*
X107135Y124246D01*
X106826Y123500D01*
X108500D01*
Y125174D01*
D02*
G37*
G36*
X181900Y127774D02*
Y126100D01*
X183574D01*
X183265Y126846D01*
X182646Y127465D01*
X181900Y127774D01*
D02*
G37*
G36*
X180900D02*
X180154Y127465D01*
X179535Y126846D01*
X179226Y126100D01*
X180900D01*
Y127774D01*
D02*
G37*
%LPD*%
G36*
X68878Y260374D02*
Y249662D01*
X68854Y249652D01*
X68348Y249146D01*
X68074Y248484D01*
Y247768D01*
X68348Y247107D01*
X68854Y246600D01*
X69174Y246468D01*
X69292Y245878D01*
X68366Y244952D01*
X67647D01*
Y246498D01*
X66889D01*
Y257502D01*
X67647D01*
Y260952D01*
X68109Y261144D01*
X68878Y260374D01*
D02*
G37*
D14*
X106312Y115643D02*
X106898Y116229D01*
X91000Y265000D02*
X103900D01*
X260000Y187000D02*
Y187740D01*
X257740Y190000D02*
X260000Y187740D01*
X254000Y190000D02*
X257740D01*
X248000Y188000D02*
Y188740D01*
X249260Y190000D01*
X254000D01*
X258000Y193000D02*
X260000Y191000D01*
X258000Y193000D02*
Y195000D01*
X254000D02*
X258000D01*
X250000D02*
X254000D01*
X243500Y186000D02*
Y189500D01*
X249500Y156000D02*
Y156250D01*
X247500Y158250D02*
X249500Y156250D01*
X247500Y158250D02*
Y158500D01*
X258500Y158000D02*
Y158000D01*
X256768Y156268D02*
X258500Y158000D01*
X256768Y155268D02*
Y156268D01*
X256500Y155000D02*
X256768Y155268D01*
X259240Y141567D02*
X260807Y140000D01*
X259240Y141567D02*
Y146260D01*
X259000Y146500D02*
X259240Y146260D01*
X183000Y78586D02*
Y113000D01*
X125768Y132463D02*
Y134802D01*
X126361Y136487D02*
X127905Y138031D01*
X125500Y132195D02*
X125768Y132463D01*
X126361Y135395D02*
Y136487D01*
X125768Y134802D02*
X126361Y135395D01*
X127905Y138031D02*
X128408D01*
X107744Y166909D02*
X109324D01*
X102300Y171700D02*
X107989D01*
X223063Y113815D02*
Y116965D01*
Y113315D02*
Y113815D01*
X176378Y187559D02*
Y194378D01*
X117200Y140500D02*
X117700Y141000D01*
X109016Y120002D02*
X110984D01*
X112200Y59200D02*
X137229D01*
X109000Y56000D02*
X112200Y59200D01*
X143400Y39000D02*
X145760D01*
X142800Y39600D02*
X143400Y39000D01*
X142800Y39600D02*
Y41600D01*
X140800Y43600D02*
X142800Y41600D01*
X134700Y43600D02*
X140800D01*
X132600Y45700D02*
X134700Y43600D01*
X132600Y45700D02*
Y53682D01*
X130800Y55482D02*
X132600Y53682D01*
X130800Y55482D02*
Y55700D01*
X135468Y53087D02*
X140063Y48492D01*
X135200Y54400D02*
X135468Y54132D01*
Y53087D02*
Y54132D01*
X165000Y83259D02*
Y86700D01*
X168256Y76941D02*
Y80003D01*
Y76941D02*
X168937Y76260D01*
X165000Y83259D02*
X168256Y80003D01*
X160600Y69065D02*
Y71600D01*
X160276Y68740D02*
X160600Y69065D01*
X128800Y128200D02*
X131800D01*
X136000Y124000D01*
X119823Y115823D02*
X122600Y118600D01*
Y135221D01*
X124000Y136621D01*
Y137000D01*
X130626Y153000D02*
X135253D01*
X118900Y157200D02*
X123100Y153000D01*
X115463Y157200D02*
X118900D01*
X123100Y153000D02*
X130626D01*
X114663Y156400D02*
X115463Y157200D01*
X121000Y123000D02*
Y137000D01*
X113091Y146996D02*
X116659D01*
X116900Y147237D01*
X113000Y146906D02*
X113091Y146996D01*
X138000Y143586D02*
Y150253D01*
X135253Y153000D02*
X138000Y150253D01*
X140621Y174200D02*
X141000D01*
X140264Y173843D02*
X140621Y174200D01*
X140500Y177400D02*
Y182000D01*
X141000Y174200D02*
Y176900D01*
X140500Y177400D02*
X141000Y176900D01*
X135661Y173843D02*
X140264D01*
X184747Y202747D02*
X185504Y203504D01*
X176378Y194378D02*
X184747Y202747D01*
X118200Y140500D02*
X118300Y140400D01*
X117700Y141000D02*
X118200Y140500D01*
X116100D02*
X117200D01*
X114722Y139122D02*
X116100Y140500D01*
X113091Y139122D02*
X114722D01*
X115732Y142968D02*
X117700Y141000D01*
X121000Y140400D02*
X121400Y140000D01*
X113000Y142968D02*
X115732D01*
X118300Y140400D02*
X121000D01*
X121400Y140000D02*
X128408D01*
X113000Y139032D02*
X113091Y139122D01*
X187100Y126200D02*
X213828D01*
X223063Y116965D01*
X180377Y135116D02*
X182200Y133293D01*
X178347Y136772D02*
X180002Y135116D01*
X176378Y136772D02*
X178347D01*
X180002Y135116D02*
X180377D01*
X182200Y131100D02*
X187100Y126200D01*
X182200Y131100D02*
Y133293D01*
X184747Y199000D02*
Y202747D01*
X177100Y201600D02*
Y252224D01*
X170500Y195000D02*
X177100Y201600D01*
X175714Y253610D02*
X177100Y252224D01*
X172598Y254882D02*
X173870Y253610D01*
X175714D01*
X180200Y231350D02*
X184232D01*
X185504Y229646D02*
Y230078D01*
X184232Y231350D02*
X185504Y230078D01*
X179900Y239000D02*
X187639D01*
X188208Y238431D01*
X195169D01*
X195889Y239152D01*
X216152D01*
X218500Y241500D01*
Y245500D01*
X219000Y246000D01*
X103701Y220000D02*
X104101Y220400D01*
X97600Y220000D02*
X103701D01*
X103819Y235000D02*
X114000D01*
X103701Y234882D02*
X103819Y235000D01*
X103583Y240000D02*
X103701Y239882D01*
X98500Y240000D02*
X103583D01*
X130972Y243728D02*
X132244Y245000D01*
X129500Y242232D02*
X130972Y243728D01*
X129476Y242232D02*
X129500D01*
X126732Y239488D02*
X129476Y242232D01*
X129500D02*
X132244Y239488D01*
X135000Y236500D02*
X136484Y238216D01*
X137756Y239488D01*
X136484Y235248D02*
X137756Y233976D01*
X135000Y236500D02*
X136484Y235248D01*
X130972D02*
X132244Y233976D01*
X129500Y237000D02*
X130972Y235248D01*
X133516D02*
X135000Y236500D01*
X132244Y233976D02*
X133516Y235248D01*
X126732Y233976D02*
X128004Y235248D01*
X129500Y237000D01*
X133516Y240760D02*
X135000Y242000D01*
X132244Y239488D02*
X133516Y240760D01*
X135000Y242000D02*
X136484Y243728D01*
X137756Y245000D01*
X135000Y242000D02*
X136484Y240760D01*
X137756Y239488D01*
X178400Y270700D02*
X189882D01*
X99739Y272553D02*
X100092D01*
X100292Y272754D02*
X176347D01*
X98685Y271500D02*
X99739Y272553D01*
X176347Y272754D02*
X178400Y270700D01*
X100092Y272553D02*
X100292Y272754D01*
X95000Y271500D02*
X98685D01*
X50000Y199445D02*
X52972Y196472D01*
X60512D01*
X96100Y202715D02*
X98200Y200615D01*
X96100Y218500D02*
X97600Y220000D01*
X96100Y202715D02*
Y218500D01*
X90000Y238000D02*
X91600Y236400D01*
Y106900D02*
Y236400D01*
X103000Y85000D02*
Y95500D01*
X91600Y106900D02*
X103000Y95500D01*
X94300Y198814D02*
Y199000D01*
X93200Y197714D02*
X94300Y198814D01*
X93200Y109800D02*
Y197714D01*
Y109800D02*
X112000Y91000D01*
Y74000D02*
Y91000D01*
X170962Y119750D02*
X173512Y117200D01*
X178800D01*
X183000Y113000D01*
X189437Y118800D02*
X193985Y114252D01*
X167787Y125187D02*
X174174Y118800D01*
X189437D01*
X190100Y120400D02*
X195585Y114915D01*
X174837Y120400D02*
X190100D01*
X169900Y125337D02*
X174837Y120400D01*
X232537Y66463D02*
Y80963D01*
Y66463D02*
X238811Y60189D01*
X219000Y94500D02*
X232537Y80963D01*
X238811Y52685D02*
Y60189D01*
X173346Y74347D02*
X174000Y75000D01*
X176500D01*
X179414D01*
X183000Y78586D01*
X173346Y71575D02*
Y74347D01*
X250500Y132000D02*
X253126D01*
X249193Y133307D02*
X250500Y132000D01*
X249193Y133307D02*
Y140000D01*
X249000Y122000D02*
X253000D01*
X248000Y121000D02*
X249000Y122000D01*
X248000Y115130D02*
Y121000D01*
X246685Y113815D02*
X248000Y115130D01*
X230000Y178980D02*
Y179000D01*
X229917Y178898D02*
X230000Y178980D01*
X223622Y178898D02*
X229917D01*
X235791Y179091D02*
X236000Y179299D01*
X231819Y179091D02*
X235791D01*
X231748Y179020D02*
X231819Y179091D01*
X231748Y179000D02*
Y179020D01*
Y175000D02*
Y179000D01*
X230000Y174980D02*
Y175000D01*
X229587Y174567D02*
X230000Y174980D01*
X223622Y174567D02*
X229587D01*
X262799Y215201D02*
X267798D01*
X272500Y210500D01*
Y94000D02*
Y210500D01*
X262500Y205000D02*
X267000D01*
X270900Y94900D02*
Y201100D01*
X267000Y205000D02*
X270900Y201100D01*
X216000Y197500D02*
X267000D01*
X269300Y95800D02*
Y195200D01*
X267000Y197500D02*
X269300Y195200D01*
X213000Y200500D02*
X216000Y197500D01*
X199500Y200500D02*
X213000D01*
X193500Y206500D02*
X199500Y200500D01*
X193500Y206500D02*
Y212000D01*
X190500Y215000D02*
X193500Y212000D01*
X182000Y215000D02*
X190500D01*
X242500Y218500D02*
X245500Y221500D01*
X252000D01*
X253500Y224000D02*
X255500Y222000D01*
X243000Y224000D02*
X253500D01*
X262500Y205000D02*
Y210189D01*
X255500Y217189D02*
X262500Y210189D01*
X255500Y217189D02*
Y222000D01*
X239000Y220000D02*
X243000Y224000D01*
X239000Y214086D02*
Y220000D01*
X234914Y210000D02*
X239000Y214086D01*
X233000Y210000D02*
X234914D01*
X229000Y214000D02*
X233000Y210000D01*
X229000Y214000D02*
Y223000D01*
X146000Y199819D02*
Y206000D01*
X226501Y212999D02*
X230000Y209500D01*
X215999Y212999D02*
X226501D01*
X212914Y209914D02*
X215999Y212999D01*
X212086Y209914D02*
X212914D01*
X212000Y210000D02*
X212086Y209914D01*
X204500Y210000D02*
X212000D01*
X203000Y211500D02*
X204500Y210000D01*
X203000Y211500D02*
Y217500D01*
X266000Y92500D02*
X269300Y95800D01*
X257500Y92500D02*
X266000D01*
X266900Y90900D02*
X270900Y94900D01*
X259400Y90900D02*
X266900D01*
X267500Y89000D02*
X272500Y94000D01*
X261000Y89000D02*
X267500D01*
X258659Y86659D02*
X261000Y89000D01*
X258659Y84210D02*
Y86659D01*
X258500Y84051D02*
X258659Y84210D01*
X255000Y86500D02*
X259400Y90900D01*
X255000Y80500D02*
Y86500D01*
X250000Y85000D02*
X257500Y92500D01*
X250000Y77500D02*
Y85000D01*
X205500Y226000D02*
X211000D01*
X201000Y221500D02*
X205500Y226000D01*
X188500Y221500D02*
X201000D01*
X182000Y215000D02*
X188500Y221500D01*
X138240Y39000D02*
X138706Y38535D01*
X140965D01*
X141890Y37610D01*
Y26484D02*
Y37610D01*
X129988Y26575D02*
X130079Y26484D01*
X129760Y38094D02*
Y39000D01*
X128086Y36783D02*
X128449D01*
X127500Y31504D02*
Y36198D01*
X129801Y28834D02*
Y29204D01*
X129988Y26575D02*
Y28646D01*
X128449Y36783D02*
X129760Y38094D01*
X127500Y36198D02*
X128086Y36783D01*
X127500Y31504D02*
X129801Y29204D01*
Y28834D02*
X129988Y28646D01*
X103500Y22000D02*
Y57500D01*
X109000Y63000D01*
X157000Y122500D02*
X165000D01*
X154250Y119750D02*
X157000Y122500D01*
X151000Y136500D02*
X155000Y132500D01*
X159500D01*
X165000Y127000D01*
X152000Y140000D02*
X156500Y135500D01*
X140000Y140000D02*
X152000D01*
X156500Y135500D02*
X160500D01*
X165000Y131000D01*
X184500Y137500D02*
X188500D01*
X189400Y138400D01*
Y150600D01*
X185906Y154095D02*
X189400Y150600D01*
X176378Y154095D02*
X185906D01*
X185500Y134000D02*
X188500D01*
X191000Y136500D01*
Y151500D01*
X184075Y158425D02*
X191000Y151500D01*
X176378Y158425D02*
X184075D01*
X103827Y146906D02*
X105905D01*
X106500Y147500D01*
Y151500D01*
X104000Y154000D02*
X106500Y151500D01*
X109500Y153621D02*
X110500Y152621D01*
X109500Y153621D02*
Y154000D01*
X110500Y146500D02*
Y152621D01*
X103165Y148965D02*
X103169Y148961D01*
X101374Y151500D02*
X103165Y149709D01*
X101000Y151500D02*
X101374D01*
X103169Y148961D02*
X103913D01*
X103165Y148965D02*
Y149709D01*
X98937Y137063D02*
X103827D01*
X96500Y139500D02*
Y154000D01*
Y139500D02*
X98937Y137063D01*
X96500Y154000D02*
X98900Y156400D01*
X114663D01*
X109000Y145000D02*
X110500Y146500D01*
X113031Y137031D02*
X116969D01*
X113000Y137063D02*
X113031Y137031D01*
X108413Y134957D02*
Y135429D01*
X109075Y134768D02*
X110843Y133000D01*
X108602Y134768D02*
X109075D01*
X108413Y134957D02*
X108602Y134768D01*
X110843Y133000D02*
X118000D01*
X120732Y135732D01*
X98500Y159500D02*
X100000Y158000D01*
X114000D01*
X116000Y160000D01*
X103736Y148784D02*
X103913Y148961D01*
X104500Y161000D02*
Y165500D01*
X223520Y141000D02*
X223622Y141102D01*
X223000Y141000D02*
X223520D01*
X72000Y149500D02*
X82110D01*
X185504Y203504D02*
Y210354D01*
X242500Y214500D02*
Y218500D01*
X232894Y204894D02*
X242500Y214500D01*
X219894Y204894D02*
X232894D01*
X49500Y71500D02*
X66000D01*
X35500Y68000D02*
X46000D01*
X49500Y71500D01*
X66000D02*
X73500Y79000D01*
Y93071D01*
X32253Y71247D02*
X35500Y68000D01*
X137229Y59200D02*
X144183Y52246D01*
Y48817D02*
Y52246D01*
Y48817D02*
X145000Y48000D01*
X147937D01*
X177819Y57358D02*
X181000D01*
X176677Y58500D02*
X177819Y57358D01*
X173272Y58500D02*
X176677D01*
X170512Y61260D02*
X173272Y58500D01*
X169724Y61260D02*
X170512D01*
X160146Y76130D02*
X160276Y76260D01*
X156130Y76130D02*
X160146D01*
X156000Y76000D02*
Y79445D01*
Y76000D02*
X156130Y76130D01*
X150937Y84508D02*
Y85000D01*
Y84508D02*
X156000Y79445D01*
X143000Y75571D02*
X147000Y71571D01*
X143000Y75571D02*
Y80000D01*
X168937Y76260D02*
X169724D01*
X110884Y119809D02*
Y119902D01*
Y118000D02*
Y119809D01*
X151484Y60500D02*
X151724Y60260D01*
X148500Y60500D02*
X151484D01*
X147000Y62000D02*
X148500Y60500D01*
X147000Y62000D02*
Y71571D01*
X161063Y52000D02*
Y52492D01*
X164293Y55722D01*
Y55793D01*
X165000Y56500D01*
X176414D01*
X178000Y54914D01*
Y52063D02*
Y54914D01*
Y52063D02*
X178063Y52000D01*
X160276Y52787D02*
X161063Y52000D01*
X160276Y52787D02*
Y61260D01*
X176138Y87925D02*
X178000Y86063D01*
X170661Y87925D02*
X176138D01*
X169500Y89086D02*
X170661Y87925D01*
X169500Y89086D02*
Y92437D01*
X168937Y93000D02*
X169500Y92437D01*
X160276Y92213D02*
X161063Y93000D01*
X160276Y83740D02*
Y92213D01*
X155500Y93500D02*
Y106507D01*
X154250Y107757D02*
X155500Y106507D01*
X154250Y107757D02*
Y119750D01*
X118201Y46138D02*
X120063Y48000D01*
X118201Y36080D02*
Y46138D01*
X117000Y34879D02*
X118201Y36080D01*
X117000Y34500D02*
Y34879D01*
X45890Y154500D02*
X54000D01*
X142276Y85787D02*
X143063Y85000D01*
X142276Y85787D02*
Y97000D01*
X151724Y100740D02*
Y105276D01*
X146500Y110500D02*
X151724Y105276D01*
X161063Y93000D02*
Y102000D01*
X173716Y266000D02*
X186000D01*
X172598Y264882D02*
X173716Y266000D01*
X182118Y259882D02*
X186000Y256000D01*
X172598Y259882D02*
X182118D01*
X187000Y80500D02*
Y104000D01*
X190500Y107500D01*
X170799Y106799D02*
X177500Y113500D01*
X170799Y103862D02*
Y106799D01*
X168937Y102000D02*
X170799Y103862D01*
X154250Y119750D02*
X170962D01*
X225732Y233732D02*
X226000Y234000D01*
X224519Y233732D02*
X225732D01*
X219894Y229106D02*
X224519Y233732D01*
X196552Y237552D02*
X229448D01*
X232000Y215000D02*
Y235000D01*
X229448Y237552D02*
X232000Y235000D01*
Y215000D02*
X234000Y213000D01*
X161126Y247626D02*
X163753Y245000D01*
X172181D01*
X158000Y247500D02*
X160884Y244616D01*
Y242616D02*
Y244616D01*
Y242616D02*
X163500Y240000D01*
X157000Y250000D02*
X172181D01*
X163500Y240000D02*
X172181D01*
X140063Y48000D02*
Y48492D01*
X128500Y48563D02*
Y52000D01*
X127937Y48000D02*
X128500Y48563D01*
X176378Y145433D02*
X176445Y145500D01*
X184500D01*
X176642Y149500D02*
X184500D01*
X176378Y149764D02*
X176642Y149500D01*
X151000Y224737D02*
X158500Y232237D01*
Y240000D01*
X194300Y235300D02*
X196552Y237552D01*
X187500Y235300D02*
X194300D01*
X158000Y183000D02*
Y186500D01*
X161000Y189500D01*
X163500Y181000D02*
Y183000D01*
X161500Y179000D02*
X163500Y181000D01*
X156000Y179000D02*
X161500D01*
X154500Y180500D02*
X156000Y179000D01*
X154500Y180500D02*
Y187597D01*
X162500Y195000D02*
X170500D01*
X161000Y193500D02*
X162500Y195000D01*
X154500Y187597D02*
X159378Y192475D01*
Y198689D01*
X160650Y199961D01*
X161000Y189500D02*
Y193500D01*
Y139000D02*
Y155000D01*
X151500Y156000D02*
X160000D01*
X161000Y155000D01*
Y139000D02*
X167787Y132213D01*
X156291Y158000D02*
X162500D01*
X152500Y161791D02*
X156291Y158000D01*
X152500Y161791D02*
Y190525D01*
X155650Y193675D01*
Y199961D01*
X149421Y158079D02*
X151500Y156000D01*
X151000Y210000D02*
Y224737D01*
X120650Y199961D02*
X121000Y200311D01*
Y206000D01*
X218337Y92900D02*
X230937Y80300D01*
X200337Y92900D02*
X218337D01*
X193985Y99252D02*
X200337Y92900D01*
X230937Y52685D02*
Y80300D01*
X193985Y99252D02*
Y114252D01*
X167787Y125187D02*
Y132213D01*
X149421Y158079D02*
Y180857D01*
X140000Y190278D02*
X149421Y180857D01*
X140000Y190278D02*
Y194500D01*
X126000D02*
Y199610D01*
X125650Y199961D02*
X126000Y199610D01*
X163500Y188400D02*
X169900Y182000D01*
Y125337D02*
Y182000D01*
X171500Y126000D02*
X175500Y122000D01*
X171500Y126000D02*
Y184500D01*
X163500Y192500D02*
X171500Y184500D01*
X105863Y196000D02*
X112163Y189700D01*
X132700D02*
X135500Y192500D01*
X112163Y189700D02*
X132700D01*
X106663Y192600D02*
X111163Y188100D01*
X139915D01*
X146008Y182008D01*
X139253Y186500D02*
X146221Y179531D01*
X106000Y191000D02*
X110500Y186500D01*
X139253D01*
X135500Y199811D02*
X135650Y199961D01*
X135500Y192500D02*
Y199811D01*
X101000Y196000D02*
X105863D01*
X126500Y179264D02*
Y184000D01*
Y179264D02*
X127000Y178764D01*
X201000Y94500D02*
X219000D01*
X195585Y99915D02*
X201000Y94500D01*
X195585Y99915D02*
Y114915D01*
X163500Y188400D02*
Y188500D01*
X120500Y200110D02*
X120650Y199961D01*
X123000Y216500D02*
Y223000D01*
X121000Y225000D02*
X123000Y223000D01*
X121000Y225000D02*
Y252000D01*
X119400Y216600D02*
Y246600D01*
X119300Y216500D02*
X119400Y216600D01*
X175500Y122000D02*
X209653D01*
X215189Y116465D01*
Y113315D02*
Y116465D01*
X126379Y212500D02*
X129500Y215621D01*
X116500Y212500D02*
X126379D01*
X129500Y215621D02*
Y216000D01*
X114000Y215000D02*
X116500Y212500D01*
X98400Y190100D02*
X100337D01*
X102837Y192600D02*
X106663D01*
X100337Y190100D02*
X102837Y192600D01*
X101000Y188500D02*
X103500Y191000D01*
X106000D01*
X97500Y188500D02*
X101000D01*
X147821Y156679D02*
X152000Y152500D01*
X146008Y182008D02*
X147821Y180194D01*
Y156679D02*
Y180194D01*
X146221Y148607D02*
Y179531D01*
Y148607D02*
X151914Y142914D01*
X98200Y197385D02*
Y200615D01*
X97500Y196685D02*
X98200Y197385D01*
X97500Y191000D02*
Y196685D01*
Y191000D02*
X98400Y190100D01*
X146008Y182008D02*
X146008D01*
X152000Y152500D02*
X156563D01*
X157063Y152000D01*
X106500Y177330D02*
Y186121D01*
X105000Y187621D02*
Y188000D01*
Y187621D02*
X106500Y186121D01*
X95900Y190100D02*
X97500Y188500D01*
X95900Y190100D02*
Y197347D01*
X94500Y202053D02*
X96600Y199953D01*
X94500Y202053D02*
Y221500D01*
X95900Y197347D02*
X96600Y198047D01*
Y199953D01*
X97882Y224882D02*
X103701D01*
X94500Y221500D02*
X97882Y224882D01*
X151914Y142914D02*
X152000Y143000D01*
X157063D01*
X147500Y238500D02*
Y241500D01*
X139500Y249500D02*
X147500Y241500D01*
X147300Y238300D02*
X147500Y238500D01*
X45000Y181000D02*
Y224500D01*
Y181000D02*
X50000Y176000D01*
Y169000D02*
Y176000D01*
Y169000D02*
X60000Y159000D01*
Y133000D02*
Y159000D01*
X35142Y154500D02*
X45890D01*
X96000Y227500D02*
X96500Y228000D01*
Y238000D01*
X98500Y240000D01*
X144000Y250000D02*
X151000D01*
X198000Y235500D02*
X198496Y235004D01*
Y229646D02*
Y235004D01*
X170512Y68740D02*
X173346Y71575D01*
X169724Y68740D02*
X170512D01*
X169724Y83740D02*
X170512D01*
X173252Y81000D01*
X182914D01*
X86000Y172600D02*
X88400Y175000D01*
X86000Y172500D02*
Y172600D01*
X88400Y175000D02*
Y181600D01*
X83732Y176732D02*
X85732D01*
X82500Y175500D02*
X83732Y176732D01*
X85732D02*
X86000Y177000D01*
X82500Y173000D02*
Y175500D01*
X80500Y171000D02*
X82500Y173000D01*
X75500Y171000D02*
X80500D01*
X69563Y211500D02*
X72000D01*
X73000Y173500D02*
X75500Y171000D01*
X73000Y173500D02*
Y210500D01*
X72000Y211500D02*
X73000Y210500D01*
X86000Y184000D02*
X88400Y181600D01*
X69063Y212000D02*
X69563Y211500D01*
X144000Y217000D02*
X148500D01*
X141000Y214000D02*
X144000Y217000D01*
X141000Y210000D02*
Y214000D01*
X55518Y209482D02*
X60494D01*
X55500Y209500D02*
X55518Y209482D01*
X60494D02*
X60512Y209465D01*
X55563Y218063D02*
X60449D01*
X55500Y218000D02*
X55563Y218063D01*
X60449D02*
X60512Y218126D01*
X52300Y213800D02*
X52500Y214000D01*
X52300Y207200D02*
Y213800D01*
X54366Y205134D02*
X60512D01*
X52300Y207200D02*
X54366Y205134D01*
X70500Y96071D02*
X73500Y93071D01*
X60000Y96071D02*
X70500D01*
X32253Y71247D02*
Y83000D01*
X38500Y52753D02*
X38747Y53000D01*
X38500Y49500D02*
Y52753D01*
X37000Y48000D02*
X38500Y49500D01*
X13000Y48000D02*
X37000D01*
X11000Y46000D02*
X13000Y48000D01*
X11000Y40524D02*
Y46000D01*
X139000Y183500D02*
X140500Y182000D01*
X107661Y166532D02*
X107850Y166720D01*
X105532Y166532D02*
X107661D01*
X104500Y165500D02*
X105532Y166532D01*
X107000Y141000D02*
X108000Y142000D01*
X98000Y122000D02*
X106088Y130088D01*
Y140088D01*
X107000Y141000D01*
X109347Y177330D02*
X113665Y173012D01*
X106500Y177330D02*
X109347D01*
X101500Y172500D02*
Y175621D01*
X103000Y177121D02*
Y177500D01*
X101500Y175621D02*
X103000Y177121D01*
X113665Y172028D02*
Y173012D01*
Y172028D02*
X113854Y171839D01*
X114150D01*
X107989Y171700D02*
X108039Y171650D01*
X101500Y172500D02*
X102300Y171700D01*
X134500Y118000D02*
X135933Y119433D01*
Y120973D01*
X136000Y121796D02*
Y124000D01*
X127665Y113000D02*
X127961D01*
X126000Y111335D02*
X127665Y113000D01*
X126000Y103000D02*
Y111335D01*
X123500Y100500D02*
X126000Y103000D01*
X114000Y100500D02*
X123500D01*
X113914Y100414D02*
X114000Y100500D01*
X113086Y100414D02*
X113914D01*
X105217Y108283D02*
X113086Y100414D01*
X105217Y108283D02*
Y114999D01*
X105862Y115643D01*
X106312D01*
X106898Y116229D02*
Y117791D01*
X135933Y106554D02*
Y110933D01*
X133379Y104000D02*
X135933Y106554D01*
X133000Y104000D02*
X133379D01*
X137909Y113091D02*
X138000Y113000D01*
X136495Y113091D02*
X137909D01*
X135500Y114086D02*
X136495Y113091D01*
X135500Y114086D02*
Y115500D01*
X136846Y116847D01*
X137909D01*
X138000Y116937D01*
X127961Y113000D02*
X130000D01*
X131437Y114437D01*
Y116937D01*
X132500Y118000D02*
X134500D01*
X131437Y116937D02*
X132500Y118000D01*
X127961Y116937D02*
X131437D01*
X115000Y104000D02*
X121000D01*
X112853Y106147D02*
X115000Y104000D01*
X144000Y113000D02*
X146500Y110500D01*
X138000Y113000D02*
X144000D01*
X150000Y115500D02*
Y118000D01*
X149094Y118905D02*
X150000Y118000D01*
X138000Y118905D02*
X149094D01*
X142799Y114969D02*
X143331Y115500D01*
X146500D01*
X138000Y114969D02*
X142799D01*
X76642Y184000D02*
X86000D01*
X76642Y175500D02*
Y184000D01*
X98000Y122000D02*
X102209Y117791D01*
X106898D01*
X105132Y121732D02*
X106947Y119917D01*
X103268Y121732D02*
X105132D01*
X103000Y122000D02*
X103268Y121732D01*
X106947Y119809D02*
Y119917D01*
X112853Y106147D02*
Y113805D01*
X121268Y112268D02*
Y114599D01*
X121000Y112000D02*
X121268Y112268D01*
Y114599D02*
X125575Y118905D01*
X127961D01*
X122600Y118600D02*
X124972Y120973D01*
X130027D01*
X112902Y115823D02*
X119823D01*
X117809Y119809D02*
X121000Y123000D01*
X112853Y119809D02*
X117809D01*
X108916Y122916D02*
X109000Y123000D01*
X108916Y119809D02*
Y122916D01*
X110884Y118000D02*
X111093Y117791D01*
X112902D01*
X110884Y119902D02*
X110984Y120002D01*
X110884Y113805D02*
Y118000D01*
X131016Y144577D02*
X132984D01*
X131000Y144561D02*
X131016Y144577D01*
X131000Y141000D02*
Y144561D01*
X130130Y140130D02*
X131000Y141000D01*
X128537Y140130D02*
X130130D01*
X128408Y140000D02*
X128537Y140130D01*
X112937Y145000D02*
X113000Y144937D01*
X109000Y145000D02*
X112937D01*
X108000Y144000D02*
X109000Y145000D01*
X108000Y142000D02*
Y144000D01*
X103827Y141000D02*
X107000D01*
X120732Y135732D02*
Y136732D01*
X121000Y137000D01*
X102397Y148784D02*
X103736D01*
X101000Y147386D02*
X102397Y148784D01*
X101000Y140519D02*
Y147386D01*
Y140519D02*
X102397Y139122D01*
X103736D01*
X103827Y139032D01*
X116969Y137031D02*
X117000Y137000D01*
X137414Y143000D02*
X138000Y143586D01*
X137126Y143000D02*
X137414D01*
X136094Y141969D02*
X137126Y143000D01*
X135592Y141969D02*
X136094D01*
X127000Y164000D02*
X127384D01*
X128065Y163319D01*
Y162363D02*
Y163319D01*
Y162363D02*
X135729Y154700D01*
X138300D01*
X141000Y152000D01*
Y141000D02*
Y152000D01*
X140000Y140000D02*
X141000Y141000D01*
X135592Y140000D02*
X140000D01*
X120000Y169000D02*
X122000Y171000D01*
X120000Y169000D02*
X126921D01*
X117720Y166720D02*
X120000Y169000D01*
X126921D02*
X127000Y168921D01*
X114150Y164161D02*
X114634D01*
X114311Y164000D02*
X127000D01*
X114150Y164161D02*
X114311Y164000D01*
X116000Y160000D02*
Y162311D01*
X114634Y163677D02*
X116000Y162311D01*
X114634Y163677D02*
Y163972D01*
X114445Y164161D02*
X114634Y163972D01*
X135000Y224000D02*
X148000D01*
X151000Y227000D01*
Y244000D01*
X116500Y249500D02*
X119400Y246600D01*
X110000Y249500D02*
X116500D01*
X118500Y254500D02*
X121000Y252000D01*
X114000Y254500D02*
X118500D01*
X134976Y144600D02*
Y149976D01*
X134953Y144577D02*
X134976Y144600D01*
Y149976D02*
X135000Y150000D01*
X128376Y142000D02*
X128408Y141969D01*
X121000Y142000D02*
X128376D01*
X118063Y144937D02*
X121000Y142000D01*
X113000Y144937D02*
X118063D01*
X139000Y134000D02*
Y137000D01*
X137969Y138031D02*
X139000Y137000D01*
X135592Y138031D02*
X137969D01*
X151000Y244000D02*
X157000Y250000D01*
X83000Y220000D02*
Y232000D01*
X85240Y259240D02*
X91000Y265000D01*
X85240Y255000D02*
Y259240D01*
X89293Y232454D02*
X89293D01*
X87379Y234000D02*
X87914Y233465D01*
X87000Y234000D02*
X87379D01*
X87914Y233465D02*
X88283D01*
X89293Y232454D01*
X89293D02*
X90000Y231747D01*
Y104000D02*
Y231747D01*
X87000Y238000D02*
X90000D01*
X44000Y240000D02*
X47000Y237000D01*
X78000D01*
X83000Y232000D02*
Y237880D01*
X85240Y240120D01*
X81000Y230000D02*
X83000Y232000D01*
X85240Y240120D02*
Y246000D01*
X90000Y104000D02*
X99000Y95000D01*
Y85000D02*
Y95000D01*
X211000Y223000D02*
X229000D01*
X206000Y218000D02*
X211000Y223000D01*
X206000Y214000D02*
Y218000D01*
X50000Y199445D02*
Y221000D01*
X54000Y225000D01*
X67205Y192142D02*
X69063Y194000D01*
X60512Y192142D02*
X67205D01*
X69000Y202937D02*
X69063Y203000D01*
X69000Y200000D02*
Y202937D01*
X68000Y199000D02*
X69000Y200000D01*
X65586Y199000D02*
X68000D01*
X65000Y198414D02*
X65586Y199000D01*
X65000Y197000D02*
Y198414D01*
X64000Y196000D02*
X65000Y197000D01*
X60984Y196000D02*
X64000D01*
X60512Y196472D02*
X60984Y196000D01*
X69000Y211937D02*
X69063Y212000D01*
X69000Y209000D02*
Y211937D01*
X68000Y208000D02*
X69000Y209000D01*
X67000Y208000D02*
X68000D01*
X65601Y206601D02*
X67000Y208000D01*
X65601Y201601D02*
Y206601D01*
X64803Y200803D02*
X65601Y201601D01*
X60512Y200803D02*
X64803D01*
X69000Y220937D02*
X69063Y221000D01*
X69000Y218000D02*
Y220937D01*
X68000Y217000D02*
X69000Y218000D01*
X66000Y217000D02*
X68000D01*
X65000Y216000D02*
X66000Y217000D01*
X65000Y211000D02*
Y216000D01*
X64000Y210000D02*
X65000Y211000D01*
X61047Y210000D02*
X64000D01*
X60512Y209465D02*
X61047Y210000D01*
X66000Y230000D02*
X69063D01*
X65000Y229000D02*
X66000Y230000D01*
X65000Y219000D02*
Y229000D01*
X64000Y218000D02*
X65000Y219000D01*
X60638Y218000D02*
X64000D01*
X60512Y218126D02*
X60638Y218000D01*
X76937Y230000D02*
X81000D01*
X69874Y248126D02*
X70000Y248253D01*
Y260839D01*
X68831Y243831D02*
X73000Y248000D01*
X65768Y243831D02*
X68831D01*
X44000Y240000D02*
Y263293D01*
X40293Y267000D02*
X44000Y263293D01*
X40000Y267000D02*
X40293D01*
X44000D02*
X46768Y264232D01*
Y260169D02*
Y264232D01*
X65768Y243831D02*
Y260169D01*
X48000Y267000D02*
X63839D01*
X70000Y260839D01*
X33437Y105000D02*
X35000Y106563D01*
Y112000D01*
Y154358D02*
X35142Y154500D01*
X7063Y71000D02*
Y80000D01*
X24118Y84629D02*
X25747Y83000D01*
X24118Y84629D02*
Y90260D01*
X30379Y84873D02*
X32253Y83000D01*
X30379Y84873D02*
Y88446D01*
X29000Y89826D02*
X30379Y88446D01*
X29000Y89826D02*
Y93000D01*
X30000Y94000D01*
X34000D01*
X41000Y97642D02*
X47611D01*
X48000Y97253D01*
X40902Y97740D02*
X41000Y97642D01*
X34000Y97740D02*
X40902D01*
X34000D02*
Y104437D01*
X33437Y105000D02*
X34000Y104437D01*
X24118Y94000D02*
X24780Y94661D01*
X27661D01*
X29000Y96000D01*
Y101071D01*
X25563Y104508D02*
X29000Y101071D01*
X25563Y104508D02*
Y105000D01*
X16500Y96937D02*
X17303Y97740D01*
X24118D01*
X7500Y96937D02*
X16500D01*
X14937Y80000D02*
Y87500D01*
X16500Y89063D01*
X45000Y34000D02*
X45996Y33004D01*
Y28740D02*
Y33004D01*
X42586Y34000D02*
X45000D01*
X42000Y34586D02*
Y39000D01*
Y34586D02*
X42586Y34000D01*
X42000Y39000D02*
X43079Y40079D01*
X46339D01*
X47000Y40740D01*
X45914Y44480D02*
X47000D01*
X45253Y45142D02*
X45914Y44480D01*
X45253Y45142D02*
Y53000D01*
X37118Y40740D02*
X40740D01*
X42000Y42000D01*
Y47000D01*
X40621Y48379D02*
X42000Y47000D01*
X40621Y48379D02*
Y51126D01*
X38747Y53000D02*
X40621Y51126D01*
X64933Y53803D02*
Y62740D01*
Y53803D02*
X64996Y53740D01*
X56000Y37063D02*
X65000D01*
X55937Y37000D02*
X56000Y37063D01*
X47000Y37000D02*
X55937D01*
X30158Y44480D02*
X37118D01*
X30059Y44382D02*
X30158Y44480D01*
X29670Y43993D02*
X30059Y44382D01*
X23059Y43993D02*
X29670D01*
X126732Y245000D02*
X129500Y242232D01*
X76642Y184000D02*
X76937Y184295D01*
Y194000D01*
Y203000D01*
Y212000D01*
Y221000D01*
Y230000D01*
X46768Y243831D02*
Y260169D01*
X85240Y246000D02*
Y255000D01*
X96000Y246000D02*
X100000Y250000D01*
X92760Y246000D02*
X96000D01*
X100000Y250000D02*
X103583D01*
X103701Y249882D01*
X103319Y255000D02*
X103819Y254500D01*
X92760Y255000D02*
X103319D01*
X135661Y164000D02*
X136646D01*
X139000Y157000D02*
Y157379D01*
X136646Y164000D02*
X137327Y163319D01*
Y159052D02*
Y163319D01*
Y159052D02*
X139000Y157379D01*
X143921Y168921D02*
X144000Y169000D01*
X135661Y168921D02*
X143921D01*
X127384Y178764D02*
X128065Y179445D01*
Y180401D01*
X128710Y181045D01*
X133952D01*
X134596Y180401D01*
Y179445D02*
Y180401D01*
Y179445D02*
X135277Y178764D01*
X135661D01*
X114150Y166720D02*
X117720D01*
X104000Y174000D02*
X110414D01*
X112000Y172414D01*
Y170054D02*
Y172414D01*
Y170054D02*
X112586Y169468D01*
X113961D01*
X114150Y169280D01*
X109935Y167520D02*
Y171039D01*
X108039Y171650D02*
X109324D01*
Y166909D02*
X109935Y167520D01*
X109324Y171650D02*
X109935Y171039D01*
X107850Y162150D02*
X109000Y161000D01*
X107850Y162150D02*
Y164161D01*
X166000Y205000D02*
X172181D01*
X162000Y235000D02*
X172181D01*
X162000Y225000D02*
X172181D01*
X166000Y230000D02*
X172181D01*
X151000Y199819D02*
Y210000D01*
X141000Y199819D02*
Y210000D01*
X131000Y199819D02*
Y210000D01*
X136000Y199819D02*
Y206000D01*
X103819Y215000D02*
X114000D01*
X103819Y230000D02*
X110000D01*
X103819Y245000D02*
X114000D01*
X103819Y254500D02*
X114000D01*
X103819Y249500D02*
X110000D01*
X103819Y260000D02*
X110000D01*
X103701Y259882D02*
X103819Y260000D01*
D18*
X255000Y146004D02*
D03*
X253500Y183496D02*
D03*
D19*
X260807Y140000D02*
D03*
X249193D02*
D03*
X247693Y189500D02*
D03*
X259307D02*
D03*
D20*
X255000Y125299D02*
D03*
Y128701D02*
D03*
X236000Y183201D02*
D03*
Y179799D02*
D03*
D21*
X178000Y93937D02*
D03*
Y86063D02*
D03*
X65000Y37063D02*
D03*
Y44937D02*
D03*
X7500Y96937D02*
D03*
Y89063D02*
D03*
X56000Y37063D02*
D03*
Y44937D02*
D03*
X16500Y96937D02*
D03*
Y89063D02*
D03*
X178000Y62063D02*
D03*
Y69937D02*
D03*
D22*
X11000Y54500D02*
D03*
Y40524D02*
D03*
D23*
X219894Y204894D02*
D03*
X244106D02*
D03*
Y229106D02*
D03*
X219894D02*
D03*
D24*
X230000Y175000D02*
D03*
X231748D02*
D03*
X253126Y132000D02*
D03*
X254874D02*
D03*
X253000Y122000D02*
D03*
X254748D02*
D03*
X230000Y179000D02*
D03*
X231748D02*
D03*
D25*
X45996Y28740D02*
D03*
X38122D02*
D03*
X25563Y105000D02*
D03*
X33437D02*
D03*
X76937Y221000D02*
D03*
X69063D02*
D03*
X76937Y212000D02*
D03*
X69063D02*
D03*
X76937Y230000D02*
D03*
X69063D02*
D03*
X76937Y203000D02*
D03*
X69063D02*
D03*
X76937Y194000D02*
D03*
X69063D02*
D03*
X143063Y85000D02*
D03*
X150937D02*
D03*
X168937Y52000D02*
D03*
X161063D02*
D03*
X178063D02*
D03*
X185937D02*
D03*
X64996Y53740D02*
D03*
X57122D02*
D03*
X7063Y80000D02*
D03*
X14937D02*
D03*
X164937Y143000D02*
D03*
X157063D02*
D03*
Y164000D02*
D03*
X164937D02*
D03*
Y152000D02*
D03*
X157063D02*
D03*
X133937Y85000D02*
D03*
X126063D02*
D03*
X133937Y94000D02*
D03*
X126063D02*
D03*
X161063Y102000D02*
D03*
X168937D02*
D03*
X161063Y93000D02*
D03*
X168937D02*
D03*
X133937Y76000D02*
D03*
X126063D02*
D03*
X133937Y67000D02*
D03*
X126063D02*
D03*
X143063Y76000D02*
D03*
X150937D02*
D03*
X164937Y174000D02*
D03*
X157063D02*
D03*
X120063Y48000D02*
D03*
X127937D02*
D03*
X147937D02*
D03*
X140063D02*
D03*
X57059Y62740D02*
D03*
X64933D02*
D03*
X14937Y71000D02*
D03*
X7063D02*
D03*
D26*
X132244Y239488D02*
D03*
X126732D02*
D03*
X137756D02*
D03*
X126732Y233976D02*
D03*
X132244D02*
D03*
X137756D02*
D03*
X126732Y245000D02*
D03*
X132244D02*
D03*
X137756D02*
D03*
D27*
X103701Y269882D02*
D03*
Y264882D02*
D03*
Y259882D02*
D03*
Y254882D02*
D03*
Y249882D02*
D03*
Y244882D02*
D03*
Y239882D02*
D03*
Y234882D02*
D03*
Y229882D02*
D03*
Y224882D02*
D03*
Y219882D02*
D03*
Y214882D02*
D03*
Y209882D02*
D03*
Y204882D02*
D03*
X172598D02*
D03*
Y209882D02*
D03*
Y214882D02*
D03*
Y219882D02*
D03*
Y224882D02*
D03*
Y229882D02*
D03*
Y234882D02*
D03*
Y239882D02*
D03*
Y244882D02*
D03*
Y249882D02*
D03*
Y254882D02*
D03*
Y259882D02*
D03*
Y264882D02*
D03*
Y269882D02*
D03*
D28*
X110650Y199961D02*
D03*
X115650D02*
D03*
X120650D02*
D03*
X125650D02*
D03*
X130650D02*
D03*
X135650D02*
D03*
X140650D02*
D03*
X145650D02*
D03*
X150650D02*
D03*
X155650D02*
D03*
X160650D02*
D03*
X165650D02*
D03*
D29*
X160276Y83740D02*
D03*
Y80000D02*
D03*
Y76260D02*
D03*
X169724D02*
D03*
Y83740D02*
D03*
X160276Y68740D02*
D03*
Y65000D02*
D03*
Y61260D02*
D03*
X169724D02*
D03*
Y68740D02*
D03*
X142276Y97000D02*
D03*
X151724Y100740D02*
D03*
Y93260D02*
D03*
X142276Y64000D02*
D03*
X151724Y67740D02*
D03*
Y60260D02*
D03*
D30*
X135661Y164000D02*
D03*
X127000D02*
D03*
X135661Y168921D02*
D03*
Y173843D02*
D03*
Y178764D02*
D03*
X127000D02*
D03*
Y173843D02*
D03*
Y168921D02*
D03*
D31*
X30059Y44382D02*
D03*
Y37098D02*
D03*
X41000Y90358D02*
D03*
Y97642D02*
D03*
X35000Y154358D02*
D03*
Y161642D02*
D03*
D32*
X69358Y184000D02*
D03*
X76642D02*
D03*
D33*
X38747Y53000D02*
D03*
X45253D02*
D03*
X22747D02*
D03*
X29253D02*
D03*
X22747Y60000D02*
D03*
X29253D02*
D03*
X32253Y83000D02*
D03*
X25747D02*
D03*
X47253Y84000D02*
D03*
X40747D02*
D03*
X47253Y77000D02*
D03*
X40747D02*
D03*
D34*
X23059Y37487D02*
D03*
Y43993D02*
D03*
X48000Y97253D02*
D03*
Y90747D02*
D03*
D35*
X37118Y44480D02*
D03*
Y40740D02*
D03*
Y37000D02*
D03*
X47000D02*
D03*
Y40740D02*
D03*
Y44480D02*
D03*
X34000Y90260D02*
D03*
Y94000D02*
D03*
Y97740D02*
D03*
X24118D02*
D03*
Y94000D02*
D03*
Y90260D02*
D03*
D36*
X18779Y231512D02*
D03*
Y170488D02*
D03*
D37*
X55394Y231512D02*
D03*
D38*
X56378Y174031D02*
D03*
D39*
X60512Y226787D02*
D03*
Y222457D02*
D03*
Y218126D02*
D03*
Y213795D02*
D03*
Y209465D02*
D03*
Y205134D02*
D03*
Y200803D02*
D03*
Y196472D02*
D03*
Y192142D02*
D03*
D40*
X199441Y113815D02*
D03*
X207315D02*
D03*
X215189D02*
D03*
X223063D02*
D03*
X230937D02*
D03*
X238811D02*
D03*
X246685D02*
D03*
X254559D02*
D03*
Y53185D02*
D03*
X246685D02*
D03*
X238811D02*
D03*
X230937D02*
D03*
X223063D02*
D03*
X215189D02*
D03*
X207315D02*
D03*
X199441D02*
D03*
D41*
X85240Y255000D02*
D03*
X92760D02*
D03*
X85240Y246000D02*
D03*
X92760D02*
D03*
X138240Y39000D02*
D03*
X145760D02*
D03*
X129760D02*
D03*
X122240D02*
D03*
D42*
X65768Y243831D02*
D03*
Y260169D02*
D03*
X74232Y243831D02*
D03*
Y260169D02*
D03*
X46768Y243831D02*
D03*
Y260169D02*
D03*
X55232Y243831D02*
D03*
Y260169D02*
D03*
D43*
X127961Y118905D02*
D03*
Y116937D02*
D03*
Y114969D02*
D03*
Y113000D02*
D03*
X138000D02*
D03*
Y114969D02*
D03*
Y116937D02*
D03*
Y118905D02*
D03*
D44*
X130027Y110933D02*
D03*
X131996D02*
D03*
X133965D02*
D03*
X135933D02*
D03*
Y120973D02*
D03*
X133965D02*
D03*
X131996D02*
D03*
X130027D02*
D03*
D45*
X110884Y119809D02*
D03*
X108916D02*
D03*
X106947D02*
D03*
Y113805D02*
D03*
X108916D02*
D03*
X110884D02*
D03*
X112853D02*
D03*
Y119809D02*
D03*
D46*
X106898Y117791D02*
D03*
Y115823D02*
D03*
X112902D02*
D03*
Y117791D02*
D03*
D47*
X60000Y79929D02*
D03*
Y96071D02*
D03*
D48*
X198496Y229646D02*
D03*
X185504D02*
D03*
Y210354D02*
D03*
X198496D02*
D03*
D49*
X147598Y26484D02*
D03*
X144449D02*
D03*
X125551D02*
D03*
X122402D02*
D03*
D50*
X128110D02*
D03*
X130079D02*
D03*
X132047D02*
D03*
X134016D02*
D03*
X135984D02*
D03*
X137953D02*
D03*
X139921D02*
D03*
X141890D02*
D03*
D51*
X82110Y159500D02*
D03*
Y154500D02*
D03*
X45890Y124500D02*
D03*
X82110Y129500D02*
D03*
X45890D02*
D03*
Y139500D02*
D03*
X82110Y124500D02*
D03*
X45890Y134500D02*
D03*
X82110D02*
D03*
Y139500D02*
D03*
Y149500D02*
D03*
X45890Y144500D02*
D03*
Y149500D02*
D03*
Y159500D02*
D03*
X82110Y144500D02*
D03*
X45890Y154500D02*
D03*
D52*
X107850Y164161D02*
D03*
X114150D02*
D03*
Y171839D02*
D03*
X107850D02*
D03*
Y166720D02*
D03*
X114150D02*
D03*
X107850Y169280D02*
D03*
X114150D02*
D03*
D53*
X113000Y148874D02*
D03*
Y137063D02*
D03*
Y139032D02*
D03*
Y141000D02*
D03*
Y142968D02*
D03*
Y144937D02*
D03*
Y146906D02*
D03*
X103827Y148874D02*
D03*
Y146906D02*
D03*
Y144937D02*
D03*
Y142968D02*
D03*
Y141000D02*
D03*
Y139032D02*
D03*
Y137063D02*
D03*
D54*
X108413Y150508D02*
D03*
Y135429D02*
D03*
D55*
X128408Y141969D02*
D03*
Y140000D02*
D03*
Y138031D02*
D03*
X135592D02*
D03*
Y140000D02*
D03*
Y141969D02*
D03*
D56*
X134953Y144577D02*
D03*
X132984D02*
D03*
X131016D02*
D03*
X129047D02*
D03*
Y135423D02*
D03*
X131016D02*
D03*
X132984D02*
D03*
X134953D02*
D03*
D98*
X152008Y24220D02*
D03*
X117992D02*
D03*
D99*
X152008Y8472D02*
D03*
X117992D02*
D03*
D101*
X255000Y151793D02*
G03*
X254500Y153000I-1707J0D01*
G01*
X253000Y155500D02*
G03*
X253707Y153793I2414J0D01*
G01*
X157063Y164000D02*
Y174000D01*
X236000Y183201D02*
X253205D01*
X253500Y183496D01*
X226535Y183202D02*
X235449D01*
X223622Y183228D02*
X226535Y183202D01*
X255000Y146004D02*
Y151793D01*
X253707Y153793D02*
X254500Y153000D01*
X255000Y128701D02*
Y146004D01*
X253000Y155500D02*
Y163000D01*
X254559Y113815D02*
X255000Y114256D01*
Y125299D01*
X254559Y113815D02*
X254701Y113956D01*
D102*
X223622Y132441D02*
D03*
Y136772D02*
D03*
Y141102D02*
D03*
Y145433D02*
D03*
Y149764D02*
D03*
Y154095D02*
D03*
Y158425D02*
D03*
Y170236D02*
D03*
Y174567D02*
D03*
Y178898D02*
D03*
Y183228D02*
D03*
Y187559D02*
D03*
X176378D02*
D03*
Y183228D02*
D03*
Y178898D02*
D03*
Y174567D02*
D03*
Y170236D02*
D03*
Y158425D02*
D03*
Y154095D02*
D03*
Y149764D02*
D03*
Y145433D02*
D03*
Y141102D02*
D03*
Y136772D02*
D03*
Y132441D02*
D03*
D103*
X219000Y256000D02*
X230000D01*
X208000D02*
X219000D01*
X197000D02*
X208000D01*
X192241Y260759D02*
X197000Y256000D01*
X150937Y67921D02*
X152331D01*
X160276Y80000D02*
X160457Y79819D01*
X163281D01*
X150937Y67921D02*
Y76000D01*
X40874Y90232D02*
X40902Y90260D01*
X160276Y65000D02*
X160457Y65181D01*
X164110D01*
X165100Y66172D01*
Y78000D01*
X163281Y79819D02*
X165100Y78000D01*
X152331Y67921D02*
X155252Y65000D01*
X160276D01*
X56524Y89877D02*
X56600Y89800D01*
X48871Y89877D02*
X56524D01*
X48000Y90747D02*
X48871Y89877D01*
X47806Y90553D02*
X48000Y90747D01*
X41194Y90553D02*
X47806D01*
X41000Y90358D02*
X41194Y90553D01*
X40747Y84000D02*
X40874Y84127D01*
X40747Y77000D02*
Y84000D01*
X40874Y84127D02*
Y90232D01*
X40902Y90260D02*
X41000Y90358D01*
X34000Y90260D02*
X40902D01*
X159500Y18500D02*
X164500Y13500D01*
X181000D01*
X159500Y18500D02*
Y41323D01*
X181000Y13500D02*
X189319Y21819D01*
X153650Y47173D02*
X159500Y41323D01*
X192241Y260759D02*
Y268341D01*
X28500Y271500D02*
X95000D01*
X123408Y19200D02*
X127800D01*
X125551Y21449D02*
X127800Y19200D01*
X142614D01*
X125551Y21449D02*
Y26484D01*
X142614Y19200D02*
X144449Y21035D01*
X240500Y250000D02*
X242000Y251500D01*
X240500Y240500D02*
Y250000D01*
X189319Y21819D02*
Y23016D01*
X153650Y47173D02*
Y52728D01*
X152478Y53900D02*
X153650Y52728D01*
X146545Y53900D02*
X152478D01*
X133937Y66508D02*
X146545Y53900D01*
X133937Y66508D02*
Y67000D01*
X156250Y48250D02*
Y54250D01*
X154000Y56500D02*
X156250Y54250D01*
X148000Y56500D02*
X154000D01*
X156250Y48250D02*
X158000Y46500D01*
X142744Y61756D02*
Y63681D01*
X142276Y64000D02*
X142425D01*
X142744Y61756D02*
X148000Y56500D01*
X142425Y64000D02*
X142744Y63681D01*
X122000Y20500D02*
X122108D01*
X123408Y19200D01*
X144449Y21035D02*
Y26484D01*
X169634Y23016D02*
Y51303D01*
X158000Y46500D02*
X169000D01*
X170000Y47500D01*
X168937Y52000D02*
X169634Y51303D01*
D104*
X11000Y54500D02*
X11059D01*
Y60941D01*
Y54500D02*
X21247D01*
X130100Y80671D02*
X133937Y84508D01*
X130100Y62300D02*
Y80671D01*
X189882Y270700D02*
X192241Y268341D01*
X22747Y53000D02*
Y60000D01*
X21247Y54500D02*
X22747Y53000D01*
X133937Y84508D02*
Y94000D01*
X79000Y85000D02*
X96000D01*
X76500Y82500D02*
X79000Y85000D01*
X76500Y78000D02*
Y82500D01*
X67000Y68500D02*
X76500Y78000D01*
X50500Y68500D02*
X67000D01*
X47000Y65000D02*
X50500Y68500D01*
X47000Y65000D02*
X50500Y61500D01*
X15118Y65000D02*
X47000D01*
X11059Y60941D02*
X15118Y65000D01*
X50500Y55086D02*
Y61500D01*
X51086Y54500D02*
X56362D01*
X50500Y55086D02*
X51086Y54500D01*
X56362D02*
X57122Y53740D01*
X56000Y44937D02*
X57122Y46059D01*
Y53740D01*
D105*
X178000Y125600D02*
X181400D01*
X176378Y127222D02*
X178000Y125600D01*
X176378Y127222D02*
Y132441D01*
X112934Y138966D02*
X113000Y139032D01*
X110166Y138966D02*
X112934D01*
X110100Y138900D02*
X110166Y138966D01*
D106*
X35500Y77500D02*
X36000Y78000D01*
X35500Y73257D02*
Y77500D01*
Y73257D02*
X37257Y71500D01*
X44500D01*
X46379Y73379D01*
Y76126D01*
X47253Y77000D01*
Y78272D02*
Y83753D01*
X76500Y44500D02*
X97000D01*
X72000Y40000D02*
X76500Y44500D01*
X72000Y26831D02*
Y40000D01*
X63236Y18067D02*
X72000Y26831D01*
X23500Y37487D02*
X29670D01*
X23000Y33500D02*
Y37428D01*
X23059Y37487D01*
X23500D01*
X51500Y102500D02*
X64500D01*
X37000Y117000D02*
X51500Y102500D01*
X32000Y117000D02*
X37000D01*
X81500Y74000D02*
X96667D01*
X107000Y84333D01*
X77000Y67000D02*
X122646D01*
X107000Y84333D02*
Y90500D01*
X37118Y29744D02*
X38122Y28740D01*
X37118Y29744D02*
Y37000D01*
X121843Y93146D02*
X125701D01*
X119500Y71000D02*
Y90803D01*
X121843Y93146D01*
X125701D02*
X126063Y93508D01*
Y94000D01*
X119500Y71000D02*
X122646Y67854D01*
X125701D02*
X126063Y67492D01*
Y67000D02*
Y67492D01*
X122646Y67854D02*
X125701D01*
X126063Y76000D02*
Y85000D01*
X58343Y78272D02*
X60000Y79929D01*
X48126Y78272D02*
X58343D01*
X47253Y77399D02*
X48126Y78272D01*
X47253Y83753D02*
X47500Y84000D01*
X47253D02*
X47500D01*
X21000Y78000D02*
X24757D01*
X14937Y80000D02*
X15696Y79241D01*
X19759D02*
X21000Y78000D01*
X15696Y79241D02*
X19759D01*
X30158Y37000D02*
X37118D01*
X30059Y37098D02*
X30158Y37000D01*
X29670Y37487D02*
X30059Y37098D01*
D107*
X137953Y26484D02*
X137995Y26443D01*
Y23814D02*
Y26443D01*
Y23814D02*
X139808Y22000D01*
X140000D01*
X129500D02*
X132686D01*
X131272Y16365D02*
X135432Y12205D01*
X103863Y11500D02*
X108728Y16365D01*
X104635Y9635D02*
X109500Y14500D01*
X130500D02*
X133568Y11432D01*
X108728Y16365D02*
X131272D01*
X109500Y14500D02*
X130500D01*
X81835Y9635D02*
X104635D01*
X78932Y15175D02*
X82608Y11500D01*
X77068Y14403D02*
X81835Y9635D01*
X82608Y11500D02*
X103863D01*
X77068Y14403D02*
Y16223D01*
X73079Y18067D02*
X73973Y17173D01*
X76118D01*
X77068Y16223D01*
X133000Y9000D02*
Y9307D01*
X133568Y9875D01*
Y11432D01*
X78932Y15175D02*
Y16223D01*
X79882Y17173D01*
X82027D01*
X82921Y18067D01*
X136000Y9000D02*
Y9307D01*
X135432Y9875D02*
X136000Y9307D01*
X135432Y9875D02*
Y12205D01*
D108*
X133937Y67000D02*
Y76000D01*
D109*
X103819Y205000D02*
X110000D01*
X103701Y204882D02*
X103819Y205000D01*
Y210000D02*
X110000D01*
X103701Y209882D02*
X103819Y210000D01*
X132047Y22639D02*
Y26484D01*
X137953D02*
Y30047D01*
X137000Y31000D02*
X137953Y30047D01*
X135000Y31000D02*
X137000D01*
X134016Y30016D02*
X135000Y31000D01*
X134016Y26484D02*
Y30016D01*
X135345Y22000D02*
X135984Y22639D01*
Y26484D01*
X132686Y22000D02*
X135345D01*
X132047Y22639D02*
X132686Y22000D01*
D110*
X209004Y23016D02*
D03*
X189319D02*
D03*
X169634D02*
D03*
D111*
X228689D02*
D03*
D112*
X253000Y161500D02*
D03*
D113*
X242961Y171539D02*
D03*
X263039D02*
D03*
Y151461D02*
D03*
X242961D02*
D03*
D114*
X63236Y18067D02*
D03*
D115*
X73079D02*
D03*
X92764D02*
D03*
X82921D02*
D03*
D116*
X186000Y246000D02*
D03*
Y256000D02*
D03*
X197000Y266000D02*
D03*
Y256000D02*
D03*
X219000Y266000D02*
D03*
Y256000D02*
D03*
X208000Y266000D02*
D03*
Y256000D02*
D03*
X230000Y266000D02*
D03*
Y256000D02*
D03*
D117*
X186000Y266000D02*
D03*
X197000Y246000D02*
D03*
X219000D02*
D03*
X208000D02*
D03*
X230000D02*
D03*
D118*
X14000Y145000D02*
D03*
Y125000D02*
D03*
D119*
X19594Y255315D02*
D03*
X255000Y255000D02*
D03*
Y20000D02*
D03*
X20000D02*
D03*
D120*
X198000Y44000D02*
D03*
X204000Y42000D02*
D03*
X192000Y46000D02*
D03*
Y50000D02*
D03*
X208000Y42000D02*
D03*
X212000D02*
D03*
X220000Y126000D02*
D03*
X224000D02*
D03*
X228000D02*
D03*
X246000Y124000D02*
D03*
X242000D02*
D03*
X238000D02*
D03*
X264000Y122000D02*
D03*
Y118000D02*
D03*
Y114000D02*
D03*
Y110000D02*
D03*
Y96000D02*
D03*
Y86000D02*
D03*
Y82000D02*
D03*
Y78000D02*
D03*
Y74000D02*
D03*
Y70000D02*
D03*
Y66000D02*
D03*
Y62000D02*
D03*
Y54000D02*
D03*
Y58000D02*
D03*
Y50000D02*
D03*
Y46000D02*
D03*
Y42000D02*
D03*
X260000D02*
D03*
X256000D02*
D03*
X252000D02*
D03*
X248000D02*
D03*
X244000D02*
D03*
X240000D02*
D03*
X236000D02*
D03*
X232000D02*
D03*
X228000D02*
D03*
X224000D02*
D03*
X220000D02*
D03*
X216000D02*
D03*
X192000Y54000D02*
D03*
Y58000D02*
D03*
Y62000D02*
D03*
Y66000D02*
D03*
Y70000D02*
D03*
Y74000D02*
D03*
Y78000D02*
D03*
Y82000D02*
D03*
Y86000D02*
D03*
Y90000D02*
D03*
Y94000D02*
D03*
X184000Y170000D02*
D03*
Y174000D02*
D03*
Y178000D02*
D03*
Y182000D02*
D03*
Y186000D02*
D03*
X103900Y265000D02*
D03*
X13000Y221000D02*
D03*
X9000D02*
D03*
X17000Y225000D02*
D03*
X13000D02*
D03*
X9000D02*
D03*
Y246000D02*
D03*
X24000Y242000D02*
D03*
X19000D02*
D03*
X14000D02*
D03*
X9000D02*
D03*
X260000Y191000D02*
D03*
X248000Y192000D02*
D03*
X258000Y195000D02*
D03*
X233000Y171000D02*
D03*
Y167000D02*
D03*
X230000Y164000D02*
D03*
X226000D02*
D03*
X222000D02*
D03*
X218000D02*
D03*
X214000D02*
D03*
X210000D02*
D03*
X206000D02*
D03*
X202000D02*
D03*
X198000D02*
D03*
X193816Y163993D02*
D03*
X190000Y164000D02*
D03*
X186000D02*
D03*
X182000D02*
D03*
X178000D02*
D03*
X174000D02*
D03*
X236000Y190000D02*
D03*
X229000D02*
D03*
X225000Y191000D02*
D03*
X221000D02*
D03*
X217000D02*
D03*
X180000D02*
D03*
X212000D02*
D03*
X204000D02*
D03*
X208000D02*
D03*
X200000D02*
D03*
X196000D02*
D03*
X192000D02*
D03*
X188000D02*
D03*
X184000D02*
D03*
X171500Y191500D02*
D03*
X257732Y151232D02*
D03*
X252000Y139000D02*
D03*
Y142000D02*
D03*
X258000Y136000D02*
D03*
Y139000D02*
D03*
Y142000D02*
D03*
X259000Y146500D02*
D03*
X251000D02*
D03*
X252000Y136000D02*
D03*
X254000Y190000D02*
D03*
X248000Y188000D02*
D03*
X256000Y167000D02*
D03*
X253000Y168000D02*
D03*
X247500Y158500D02*
D03*
X247000Y161500D02*
D03*
X247500Y164500D02*
D03*
X258500Y158000D02*
D03*
X259000Y161000D02*
D03*
X258500Y164000D02*
D03*
X250000Y167000D02*
D03*
X11000Y54000D02*
D03*
X128586Y134811D02*
D03*
X125500Y132195D02*
D03*
X130800Y55700D02*
D03*
X135200Y54400D02*
D03*
X130100Y62300D02*
D03*
X165000Y86700D02*
D03*
X160600Y71600D02*
D03*
X56600Y89800D02*
D03*
X128800Y128200D02*
D03*
X118900Y157200D02*
D03*
X116900Y147237D02*
D03*
X103000Y72200D02*
D03*
X105300Y74600D02*
D03*
X141000Y174200D02*
D03*
X118200Y140500D02*
D03*
X181400Y125600D02*
D03*
X187100Y126200D02*
D03*
X110100Y138900D02*
D03*
X79700Y262500D02*
D03*
X184747Y199000D02*
D03*
X180200Y231350D02*
D03*
X179900Y239000D02*
D03*
X40000Y267000D02*
D03*
X48000D02*
D03*
X251500Y125500D02*
D03*
Y128500D02*
D03*
X258500Y122500D02*
D03*
Y125500D02*
D03*
Y128500D02*
D03*
Y132000D02*
D03*
X252500Y150000D02*
D03*
X256500Y155000D02*
D03*
X251000Y153000D02*
D03*
X249500Y156000D02*
D03*
X239500Y180500D02*
D03*
X242500D02*
D03*
X245500D02*
D03*
X248500D02*
D03*
X251500Y179500D02*
D03*
X254500D02*
D03*
X257500Y180000D02*
D03*
X259000Y183000D02*
D03*
X260000Y187000D02*
D03*
X254000Y195000D02*
D03*
X250000D02*
D03*
X243500Y189500D02*
D03*
Y186000D02*
D03*
X239500D02*
D03*
X233500D02*
D03*
X230000D02*
D03*
X114000Y235000D02*
D03*
X129500Y242232D02*
D03*
X126732Y239488D02*
D03*
Y245000D02*
D03*
X132244D02*
D03*
X137756D02*
D03*
Y239488D02*
D03*
Y233976D02*
D03*
X132244D02*
D03*
X126732D02*
D03*
X176000Y188000D02*
D03*
X176500Y75000D02*
D03*
X252000Y221500D02*
D03*
X262500Y205000D02*
D03*
X262799Y215201D02*
D03*
X230000Y209500D02*
D03*
X258500Y84000D02*
D03*
X250000Y77500D02*
D03*
X255000Y80500D02*
D03*
X223063Y52685D02*
D03*
X215189D02*
D03*
X207315D02*
D03*
X203000Y217500D02*
D03*
X28500Y271500D02*
D03*
X16500Y89063D02*
D03*
X36000Y78000D02*
D03*
X223000Y170000D02*
D03*
X140000Y22000D02*
D03*
X129500D02*
D03*
X103500D02*
D03*
X109000Y63000D02*
D03*
X165000Y122500D02*
D03*
X130626Y153000D02*
D03*
X151000Y136500D02*
D03*
X165000Y127000D02*
D03*
Y131000D02*
D03*
X184500Y134000D02*
D03*
Y137500D02*
D03*
X104000Y154000D02*
D03*
X109500D02*
D03*
X101000Y151500D02*
D03*
X96500Y154000D02*
D03*
X114500Y153700D02*
D03*
X85000Y159500D02*
D03*
X98500D02*
D03*
X104500Y161000D02*
D03*
X85000Y154500D02*
D03*
X223000Y141000D02*
D03*
X162500Y158000D02*
D03*
X72000Y149500D02*
D03*
X242000Y251500D02*
D03*
X240500Y240500D02*
D03*
X176378Y141102D02*
D03*
X164937Y174000D02*
D03*
X193514Y225500D02*
D03*
X97000Y44500D02*
D03*
X47407Y97335D02*
D03*
X23059Y43993D02*
D03*
X23000Y33500D02*
D03*
X64500Y102500D02*
D03*
X32000Y117000D02*
D03*
X81500Y74000D02*
D03*
X107000Y90500D02*
D03*
X126063Y85000D02*
D03*
X145508Y84992D02*
D03*
X176000Y62000D02*
D03*
X181000Y57358D02*
D03*
X156000Y76000D02*
D03*
X143000Y80000D02*
D03*
X122000Y20500D02*
D03*
X155500Y93500D02*
D03*
X152000D02*
D03*
X109000Y56000D02*
D03*
X117000Y34500D02*
D03*
X96000Y85000D02*
D03*
X168968Y116469D02*
D03*
X187000Y80500D02*
D03*
X177500Y113500D02*
D03*
X190500Y107500D02*
D03*
Y101500D02*
D03*
X226000Y234000D02*
D03*
X161126Y247626D02*
D03*
X158000Y247500D02*
D03*
X128500Y52000D02*
D03*
X184500Y145500D02*
D03*
X164937Y143000D02*
D03*
X184500Y149500D02*
D03*
X164937Y152000D02*
D03*
Y164000D02*
D03*
X158500Y240000D02*
D03*
X187500Y235300D02*
D03*
X158000Y183000D02*
D03*
X163500Y192500D02*
D03*
Y183000D02*
D03*
X140000Y194500D02*
D03*
X126000D02*
D03*
X126500Y184000D02*
D03*
X163500Y188500D02*
D03*
X121000Y206000D02*
D03*
X123000Y216500D02*
D03*
X119300D02*
D03*
X129500Y216000D02*
D03*
X105000Y188000D02*
D03*
X101000Y196000D02*
D03*
X94300Y199000D02*
D03*
X139500Y249500D02*
D03*
X147500Y238500D02*
D03*
X234000Y213000D02*
D03*
X60000Y133000D02*
D03*
X54000Y154500D02*
D03*
X45000Y224500D02*
D03*
X96000Y227500D02*
D03*
X151000Y250000D02*
D03*
X198248Y235252D02*
D03*
X144000Y250000D02*
D03*
X154250Y119750D02*
D03*
X86000Y172500D02*
D03*
Y177000D02*
D03*
X76642Y175500D02*
D03*
X148500Y217000D02*
D03*
X55500Y209500D02*
D03*
Y218000D02*
D03*
X52500Y214000D02*
D03*
X24757Y78000D02*
D03*
X139000Y183500D02*
D03*
X106500Y177330D02*
D03*
X103000Y177500D02*
D03*
X133000Y104000D02*
D03*
X121000D02*
D03*
Y108000D02*
D03*
X146500Y110500D02*
D03*
Y115500D02*
D03*
X150000D02*
D03*
X98000Y122000D02*
D03*
X103000D02*
D03*
X115000Y123000D02*
D03*
X121000Y112000D02*
D03*
X124000Y137000D02*
D03*
X109000Y123000D02*
D03*
X121000Y137000D02*
D03*
X117000D02*
D03*
X122000Y171000D02*
D03*
X116000Y160000D02*
D03*
X135000Y224000D02*
D03*
Y150000D02*
D03*
X139000Y134000D02*
D03*
X112000Y74000D02*
D03*
X110000Y205000D02*
D03*
X83000Y220000D02*
D03*
X87000Y234000D02*
D03*
Y238000D02*
D03*
X78000Y237000D02*
D03*
X99000Y85000D02*
D03*
X103000D02*
D03*
X211000Y226000D02*
D03*
X182000Y215000D02*
D03*
X229000Y223000D02*
D03*
X206000Y214000D02*
D03*
X54000Y225000D02*
D03*
X69874Y248126D02*
D03*
X73000Y248000D02*
D03*
X44000Y267000D02*
D03*
X35000Y112000D02*
D03*
X129500Y237000D02*
D03*
X135000Y236500D02*
D03*
Y242000D02*
D03*
X139000Y157000D02*
D03*
X143921Y168921D02*
D03*
X104000Y174000D02*
D03*
X109000Y161000D02*
D03*
X166000Y205000D02*
D03*
X162000Y235000D02*
D03*
Y225000D02*
D03*
X166000Y230000D02*
D03*
X151000Y210000D02*
D03*
X141000D02*
D03*
X146000Y206000D02*
D03*
X131000Y210000D02*
D03*
X136000Y206000D02*
D03*
X114000Y215000D02*
D03*
X110000Y210000D02*
D03*
Y230000D02*
D03*
X114000Y245000D02*
D03*
Y254500D02*
D03*
X110000Y249500D02*
D03*
Y260000D02*
D03*
X133000Y9000D02*
D03*
X136000D02*
D03*
D121*
X19594Y247315D02*
D03*
X14010Y260973D02*
D03*
X19594Y263315D02*
D03*
X11594Y255315D02*
D03*
X27595D02*
D03*
X25594Y250315D02*
D03*
X13595D02*
D03*
X25194Y260915D02*
D03*
X260600Y260600D02*
D03*
X249000Y250000D02*
D03*
X261000D02*
D03*
X263000Y255000D02*
D03*
X247000D02*
D03*
X255000Y263000D02*
D03*
X249415Y260658D02*
D03*
X255000Y247000D02*
D03*
Y12000D02*
D03*
X249415Y25658D02*
D03*
X255000Y28000D02*
D03*
X247000Y20000D02*
D03*
X263000D02*
D03*
X261000Y15000D02*
D03*
X249000D02*
D03*
X260600Y25600D02*
D03*
X25600D02*
D03*
X14000Y15000D02*
D03*
X26000D02*
D03*
X28000Y20000D02*
D03*
X12000D02*
D03*
X20000Y28000D02*
D03*
X14415Y25658D02*
D03*
X20000Y12000D02*
D03*
D122*
X77000Y67000D02*
D03*
X60000Y79929D02*
D03*
M02*
