G04*
G04 #@! TF.GenerationSoftware,Altium Limited,Altium Designer,25.4.2 (15)*
G04*
G04 Layer_Color=16711935*
%FSLAX25Y25*%
%MOIN*%
G70*
G04*
G04 #@! TF.SameCoordinates,4685016B-83D2-4E7D-AD2A-A819038C0A47*
G04*
G04*
G04 #@! TF.FilePolarity,Positive*
G04*
G01*
G75*
%ADD10C,0.00787*%
%ADD11C,0.00700*%
%ADD14C,0.01000*%
%ADD16C,0.00500*%
%ADD105C,0.00800*%
%ADD149C,0.00394*%
G36*
X257240Y185169D02*
X249760D01*
Y193831D01*
X257240D01*
Y185169D01*
D02*
G37*
G36*
X84945Y158535D02*
X78961D01*
Y160465D01*
X84945D01*
Y158535D01*
D02*
G37*
G36*
X49039D02*
X43055D01*
Y160465D01*
X49039D01*
Y158535D01*
D02*
G37*
G36*
X84945Y153535D02*
X78961D01*
Y155465D01*
X84945D01*
Y153535D01*
D02*
G37*
G36*
X49039D02*
X43055D01*
Y155465D01*
X49039D01*
Y153535D01*
D02*
G37*
G36*
X84945Y148535D02*
X78961D01*
Y150465D01*
X84945D01*
Y148535D01*
D02*
G37*
G36*
X49039D02*
X43055D01*
Y150465D01*
X49039D01*
Y148535D01*
D02*
G37*
G36*
X84945Y143535D02*
X78961D01*
Y145465D01*
X84945D01*
Y143535D01*
D02*
G37*
G36*
X49039D02*
X43055D01*
Y145465D01*
X49039D01*
Y143535D01*
D02*
G37*
G36*
X84945Y138535D02*
X78961D01*
Y140465D01*
X84945D01*
Y138535D01*
D02*
G37*
G36*
X49039D02*
X43055D01*
Y140465D01*
X49039D01*
Y138535D01*
D02*
G37*
G36*
X258740Y135669D02*
X251260D01*
Y144331D01*
X258740D01*
Y135669D01*
D02*
G37*
G36*
X84945Y133535D02*
X78961D01*
Y135465D01*
X84945D01*
Y133535D01*
D02*
G37*
G36*
X49039D02*
X43055D01*
Y135465D01*
X49039D01*
Y133535D01*
D02*
G37*
G36*
X84945Y128535D02*
X78961D01*
Y130465D01*
X84945D01*
Y128535D01*
D02*
G37*
G36*
X49039D02*
X43055D01*
Y130465D01*
X49039D01*
Y128535D01*
D02*
G37*
G36*
X84945Y123535D02*
X78961D01*
Y125465D01*
X84945D01*
Y123535D01*
D02*
G37*
G36*
X49039D02*
X43055D01*
Y125465D01*
X49039D01*
Y123535D01*
D02*
G37*
D10*
X255394Y150236D02*
G03*
X255394Y150236I-394J0D01*
G01*
X253894Y179264D02*
G03*
X253894Y179264I-394J0D01*
G01*
X255394Y122276D02*
G03*
X255394Y122276I-394J0D01*
G01*
X101543Y274173D02*
G03*
X101543Y274173I-394J0D01*
G01*
X138453Y161258D02*
G03*
X138370Y161500I310J242D01*
G01*
X36004Y46965D02*
G03*
X36004Y46965I-394J0D01*
G01*
X35902Y87776D02*
G03*
X35902Y87776I-394J0D01*
G01*
X60720Y188642D02*
G03*
X60720Y188642I-394J0D01*
G01*
X25394Y120701D02*
G03*
X25394Y120701I-394J0D01*
G01*
X32394Y103299D02*
G03*
X32394Y103299I-394J0D01*
G01*
X4693Y97000D02*
G03*
X4693Y97000I-394J0D01*
G01*
X233693Y229000D02*
G03*
X233693Y229000I-394J0D01*
G01*
X199638Y43539D02*
G03*
X199638Y43539I-394J0D01*
G01*
X50835Y18067D02*
G03*
X50835Y18067I-394J0D01*
G01*
X186394Y273205D02*
G03*
X186394Y273205I-394J0D01*
G01*
X197394Y238795D02*
G03*
X197394Y238795I-394J0D01*
G01*
X219394D02*
G03*
X219394Y238795I-394J0D01*
G01*
X208394D02*
G03*
X208394Y238795I-394J0D01*
G01*
X230394D02*
G03*
X230394Y238795I-394J0D01*
G01*
X127543Y121906D02*
G03*
X127543Y121906I-394J0D01*
G01*
X115794Y122201D02*
G03*
X115794Y122201I-394J0D01*
G01*
X236394Y176776D02*
G03*
X236394Y176776I-394J0D01*
G01*
X117075Y149382D02*
G03*
X117075Y149382I-394J0D01*
G01*
X138347Y146374D02*
G03*
X138347Y146374I-394J0D01*
G01*
D11*
X102409Y4681D02*
Y27319D01*
X53591D02*
X102409D01*
X53591Y4681D02*
Y27319D01*
Y4681D02*
X102409D01*
D14*
X212937Y201600D02*
X215070D01*
X212650Y231100D02*
X214782D01*
X213716Y232166D02*
Y230033D01*
D16*
X249882Y134882D02*
X260118D01*
X249882D02*
Y145118D01*
X260118D01*
Y134882D02*
Y145118D01*
X248382Y194618D02*
X258618D01*
Y184382D02*
Y194618D01*
X248382Y184382D02*
X258618D01*
X248382D02*
Y194618D01*
X253898Y124913D02*
Y129087D01*
X256102Y124913D02*
Y129087D01*
X253898Y124913D02*
X256102D01*
X253898Y129087D02*
X256102D01*
X217236Y231764D02*
X246764D01*
Y202236D02*
Y231764D01*
X217236Y202236D02*
X246764D01*
X217236D02*
Y231764D01*
X231701Y174567D02*
Y175433D01*
X230047Y174567D02*
Y175433D01*
Y174567D02*
X231701D01*
X230047Y175433D02*
X231701D01*
X60441Y237291D02*
X65559D01*
Y248709D01*
X60441D02*
X65559D01*
X60441Y237291D02*
Y248709D01*
X74441Y237291D02*
X79559D01*
Y248709D01*
X74441D02*
X79559D01*
X74441Y237291D02*
Y248709D01*
X253441Y216291D02*
X258559D01*
Y227709D01*
X253441D02*
X258559D01*
X253441Y216291D02*
Y227709D01*
X102717Y299370D02*
X173583D01*
Y275748D02*
Y299370D01*
Y198976D02*
Y275748D01*
X102717Y198976D02*
X173583D01*
X102717D02*
Y275748D01*
Y299370D01*
Y275748D02*
X173583D01*
X137236Y161539D02*
Y181224D01*
X125425D02*
X137236D01*
X125425Y161539D02*
Y181224D01*
Y161539D02*
X137236D01*
X67724Y153465D02*
Y236535D01*
X6701D02*
X67724D01*
X6701Y153465D02*
Y236535D01*
Y153465D02*
X67724D01*
X38909Y35032D02*
X45209D01*
Y46449D01*
X38909D02*
X45209D01*
X38909Y35032D02*
Y46449D01*
X25909Y99709D02*
X32209D01*
X25909Y88291D02*
Y99709D01*
Y88291D02*
X32209D01*
Y99709D01*
X266779Y173705D02*
X299063D01*
Y149295D02*
Y173705D01*
X266779Y149295D02*
X299063D01*
X239220Y147721D02*
X266779D01*
Y149295D01*
Y173705D01*
Y175279D01*
X239220D02*
X266779D01*
X239220Y147721D02*
Y175279D01*
X1457Y230232D02*
X58543D01*
X1457Y226394D02*
Y230232D01*
Y183087D02*
Y226394D01*
Y171768D02*
Y183087D01*
Y171768D02*
X58543D01*
Y230232D01*
X22539Y115347D02*
X27461D01*
Y108653D02*
Y115347D01*
X22539Y108653D02*
X27461D01*
X22539D02*
Y115347D01*
X29539Y108653D02*
X34461D01*
X29539D02*
Y115347D01*
X34461D01*
Y108653D02*
Y115347D01*
X9653Y94539D02*
Y99461D01*
X16346D01*
Y94539D02*
Y99461D01*
X9653Y94539D02*
X16346D01*
X238653Y226539D02*
Y231461D01*
X245346D01*
Y226539D02*
Y231461D01*
X238653Y226539D02*
X245346D01*
X258496Y52004D02*
Y114996D01*
X195504D02*
X258496D01*
X195504Y52004D02*
Y114996D01*
Y52004D02*
X258496D01*
X93134Y252323D02*
Y257677D01*
X84866Y252323D02*
Y257677D01*
Y252323D02*
X93134D01*
X84866Y257677D02*
X93134D01*
Y243323D02*
Y248677D01*
X84866Y243323D02*
Y248677D01*
Y243323D02*
X93134D01*
X84866Y248677D02*
X93134D01*
X146134Y36323D02*
Y41677D01*
X137866Y36323D02*
Y41677D01*
Y36323D02*
X146134D01*
X137866Y41677D02*
X146134D01*
X121866Y36323D02*
Y41677D01*
X130134Y36323D02*
Y41677D01*
X121866D02*
X130134D01*
X121866Y36323D02*
X130134D01*
X93323Y165508D02*
X98677D01*
X93323Y173776D02*
X98677D01*
Y165508D02*
Y173776D01*
X93323Y165508D02*
Y173776D01*
X136323Y168894D02*
X141677D01*
X136323Y160626D02*
X141677D01*
X136323D02*
Y168894D01*
X141677Y160626D02*
Y168894D01*
X102134Y127323D02*
Y132677D01*
X93866Y127323D02*
Y132677D01*
X102134D01*
X93866Y127323D02*
X102134D01*
X116134Y101323D02*
Y106677D01*
X107866Y101323D02*
Y106677D01*
X116134D01*
X107866Y101323D02*
X116134D01*
X181000Y271000D02*
X191000D01*
X181000Y241000D02*
Y271000D01*
Y241000D02*
X191000D01*
Y271000D01*
X192000Y241000D02*
X202000D01*
Y271000D01*
X192000D02*
X202000D01*
X192000Y241000D02*
Y271000D01*
X214000Y241000D02*
X224000D01*
Y271000D01*
X214000D02*
X224000D01*
X214000Y241000D02*
Y271000D01*
X203000Y241000D02*
X213000D01*
Y271000D01*
X203000D02*
X213000D01*
X203000Y241000D02*
Y271000D01*
X225000Y241000D02*
X235000D01*
Y271000D01*
X225000D02*
X235000D01*
X225000Y241000D02*
Y271000D01*
X127075Y121858D02*
X138886D01*
X127075Y110047D02*
Y121858D01*
X138886Y110047D02*
Y121858D01*
X127075Y110047D02*
X138886D01*
X70709Y34567D02*
Y55433D01*
X59291Y34567D02*
X70709D01*
X59291Y55433D02*
X70709D01*
X59291Y34567D02*
Y55433D01*
X102709Y34567D02*
Y55433D01*
X91291Y34567D02*
X102709D01*
X91291Y55433D02*
X102709D01*
X91291Y34567D02*
Y55433D01*
X86709Y34567D02*
Y55433D01*
X75291Y34567D02*
X86709D01*
X75291Y55433D02*
X86709D01*
X75291Y34567D02*
Y55433D01*
X175984Y128504D02*
X224016D01*
X175984D02*
Y191496D01*
X224016D01*
Y128504D02*
Y191496D01*
X105668Y121039D02*
X114132D01*
X105668Y112575D02*
Y121039D01*
Y112575D02*
X114132D01*
Y121039D01*
X234898Y183587D02*
X237102D01*
X234898Y179413D02*
X237102D01*
Y183587D01*
X234898Y179413D02*
Y183587D01*
X107063Y172921D02*
X114937D01*
Y163079D02*
Y172921D01*
X107063Y163079D02*
X114937D01*
X107063D02*
Y172921D01*
X102508Y134110D02*
X114319D01*
X102508D02*
Y151827D01*
X114319D01*
Y134110D02*
Y151827D01*
X253173Y131567D02*
X254827D01*
X253173Y132433D02*
X254827D01*
Y131567D02*
Y132433D01*
X253173Y131567D02*
Y132433D01*
X253047Y121567D02*
X254701D01*
X253047Y122433D02*
X254701D01*
Y121567D02*
Y122433D01*
X253047Y121567D02*
Y122433D01*
X230047Y178567D02*
X231701D01*
X230047Y179433D02*
X231701D01*
Y178567D02*
Y179433D01*
X230047Y178567D02*
Y179433D01*
X136921Y134095D02*
Y145905D01*
X127079Y134095D02*
X136921D01*
X127079D02*
Y145905D01*
X136921D01*
D105*
X49433Y121567D02*
X53100D01*
X51402D02*
X78567D01*
X53100D02*
Y162433D01*
X78567Y121567D02*
Y162433D01*
X51402D02*
X78567D01*
X49433D02*
X53100D01*
X49433Y121567D02*
Y162433D01*
D149*
X203882Y210913D02*
G03*
X203882Y210913I-1969J0D01*
G01*
X88657Y198866D02*
Y207134D01*
X83342Y198866D02*
Y207134D01*
Y198866D02*
X88657D01*
X83342Y207134D02*
X88657D01*
X180657Y85866D02*
Y94134D01*
X175343Y85866D02*
Y94134D01*
X180657D01*
X175343Y85866D02*
X180657D01*
X52342Y255866D02*
X57657D01*
X52342Y264134D02*
X57657D01*
Y255866D02*
Y264134D01*
X52342Y255866D02*
Y264134D01*
X115866Y259343D02*
X124134D01*
X115866Y264657D02*
X124134D01*
X115866Y259343D02*
Y264657D01*
X124134Y259343D02*
Y264657D01*
X66866Y259658D02*
X75134D01*
X66866Y254343D02*
X75134D01*
Y259658D01*
X66866Y254343D02*
Y259658D01*
X29866Y124343D02*
X38134D01*
X29866Y129657D02*
X38134D01*
X29866Y124343D02*
Y129657D01*
X38134Y124343D02*
Y129657D01*
X37925Y26083D02*
X46193D01*
X37925Y31398D02*
X46193D01*
Y26083D02*
Y31398D01*
X37925Y26083D02*
Y31398D01*
X62343Y36866D02*
Y45134D01*
X67658Y36866D02*
Y45134D01*
X62343Y36866D02*
X67658D01*
X62343Y45134D02*
X67658D01*
X25366Y107658D02*
X33634D01*
X25366Y102342D02*
X33634D01*
X25366D02*
Y107658D01*
X33634Y102342D02*
Y107658D01*
X10158Y88866D02*
Y97134D01*
X4843Y88866D02*
Y97134D01*
X10158D01*
X4843Y88866D02*
X10158D01*
X198866Y201658D02*
X207134D01*
X198866Y196343D02*
X207134D01*
Y201658D01*
X198866Y196343D02*
Y201658D01*
X104866Y169299D02*
X113134D01*
X104866Y163984D02*
X113134D01*
Y169299D01*
X104866Y163984D02*
Y169299D01*
X98658Y138866D02*
Y147134D01*
X93343Y138866D02*
Y147134D01*
Y138866D02*
X98658D01*
X93343Y147134D02*
X98658D01*
X128866Y130657D02*
X137134D01*
X128866Y125343D02*
X137134D01*
Y130657D01*
X128866Y125343D02*
Y130657D01*
X130866Y186343D02*
X139134D01*
X130866Y191657D02*
X139134D01*
X130866Y186343D02*
Y191657D01*
X139134Y186343D02*
Y191657D01*
X138342Y138866D02*
Y147134D01*
X143658Y138866D02*
Y147134D01*
X138342D02*
X143658D01*
X138342Y138866D02*
X143658D01*
X68866Y218342D02*
X77134D01*
X68866Y223657D02*
X77134D01*
Y218342D02*
Y223657D01*
X68866Y218342D02*
Y223657D01*
Y209343D02*
X77134D01*
X68866Y214657D02*
X77134D01*
Y209343D02*
Y214657D01*
X68866Y209343D02*
Y214657D01*
Y227343D02*
X77134D01*
X68866Y232658D02*
X77134D01*
Y227343D02*
Y232658D01*
X68866Y227343D02*
Y232658D01*
Y200342D02*
X77134D01*
X68866Y205658D02*
X77134D01*
Y200342D02*
Y205658D01*
X68866Y200342D02*
Y205658D01*
Y191342D02*
X77134D01*
X68866Y196658D02*
X77134D01*
Y191342D02*
Y196658D01*
X68866Y191342D02*
Y196658D01*
X142866Y87657D02*
X151134D01*
X142866Y82342D02*
X151134D01*
X142866D02*
Y87657D01*
X151134Y82342D02*
Y87657D01*
X180657Y85866D02*
Y94134D01*
X175343Y85866D02*
Y94134D01*
Y85866D02*
X180657D01*
X175343Y94134D02*
X180657D01*
X160866Y49343D02*
X169134D01*
X160866Y54658D02*
X169134D01*
Y49343D02*
Y54658D01*
X160866Y49343D02*
Y54658D01*
X177866D02*
X186134D01*
X177866Y49343D02*
X186134D01*
X177866D02*
Y54658D01*
X186134Y49343D02*
Y54658D01*
X137343Y104508D02*
X142657D01*
X137343Y112776D02*
X142657D01*
Y104508D02*
Y112776D01*
X137343Y104508D02*
Y112776D01*
X73343Y207134D02*
X78658D01*
X73343Y198866D02*
X78658D01*
X73343D02*
Y207134D01*
X78658Y198866D02*
Y207134D01*
X124343Y24866D02*
X129657D01*
X124343Y33134D02*
X129657D01*
Y24866D02*
Y33134D01*
X124343Y24866D02*
Y33134D01*
X139842Y24866D02*
X145158D01*
X139842Y33134D02*
X145158D01*
Y24866D02*
Y33134D01*
X139842Y24866D02*
Y33134D01*
X106342D02*
X111658D01*
X106342Y24866D02*
X111658D01*
X106342D02*
Y33134D01*
X111658Y24866D02*
Y33134D01*
X106342Y55866D02*
X111658D01*
X106342Y64134D02*
X111658D01*
Y55866D02*
Y64134D01*
X106342Y55866D02*
Y64134D01*
X65193Y51083D02*
Y56398D01*
X56925Y51083D02*
Y56398D01*
Y51083D02*
X65193D01*
X56925Y56398D02*
X65193D01*
X53342Y36866D02*
X58657D01*
X53342Y45134D02*
X58657D01*
X53342Y36866D02*
Y45134D01*
X58657Y36866D02*
Y45134D01*
X6866Y77342D02*
Y82657D01*
X15134Y77342D02*
Y82657D01*
X6866D02*
X15134D01*
X6866Y77342D02*
X15134D01*
X13842Y97134D02*
X19158D01*
X13842Y88866D02*
X19158D01*
Y97134D01*
X13842Y88866D02*
Y97134D01*
X110343Y178508D02*
X115657D01*
X110343Y186776D02*
X115657D01*
Y178508D02*
Y186776D01*
X110343Y178508D02*
Y186776D01*
X145343Y189634D02*
X150657D01*
X145343Y181366D02*
X150657D01*
X145343D02*
Y189634D01*
X150657Y181366D02*
Y189634D01*
X127342Y147071D02*
X132658D01*
X127342Y138803D02*
X132658D01*
X127342D02*
Y147071D01*
X132658Y138803D02*
Y147071D01*
X113134Y144343D02*
Y149657D01*
X104866Y144343D02*
Y149657D01*
X113134D01*
X104866Y144343D02*
X113134D01*
X60134Y114342D02*
Y119658D01*
X51866Y114342D02*
Y119658D01*
X60134D01*
X51866Y114342D02*
X60134D01*
X237929Y210343D02*
Y215657D01*
X246197Y210343D02*
Y215657D01*
X237929Y210343D02*
X246197D01*
X237929Y215657D02*
X246197D01*
X51866Y124343D02*
Y129657D01*
X60134Y124343D02*
Y129657D01*
X51866Y124343D02*
X60134D01*
X51866Y129657D02*
X60134D01*
X165134Y140342D02*
Y145658D01*
X156866Y140342D02*
Y145658D01*
Y140342D02*
X165134D01*
X156866Y145658D02*
X165134D01*
X156866Y161343D02*
Y166657D01*
X165134Y161343D02*
Y166657D01*
X156866D02*
X165134D01*
X156866Y161343D02*
X165134D01*
Y149343D02*
Y154657D01*
X156866Y149343D02*
Y154657D01*
Y149343D02*
X165134D01*
X156866Y154657D02*
X165134D01*
X134134Y82342D02*
Y87657D01*
X125866Y82342D02*
Y87657D01*
Y82342D02*
X134134D01*
X125866Y87657D02*
X134134D01*
Y91343D02*
Y96658D01*
X125866Y91343D02*
Y96658D01*
Y91343D02*
X134134D01*
X125866Y96658D02*
X134134D01*
X169134Y98343D02*
Y103657D01*
X160866Y98343D02*
Y103657D01*
X169134D01*
X160866Y98343D02*
X169134D01*
X160866Y99343D02*
Y104657D01*
X169134Y99343D02*
Y104657D01*
X160866D02*
X169134D01*
X160866Y99343D02*
X169134D01*
X160866Y90342D02*
Y95657D01*
X169134Y90342D02*
Y95657D01*
X160866D02*
X169134D01*
X160866Y90342D02*
X169134D01*
X160866Y107343D02*
Y112657D01*
X169134Y107343D02*
Y112657D01*
X160866Y107343D02*
X169134D01*
X160866Y112657D02*
X169134D01*
X134134Y73343D02*
Y78658D01*
X125866Y73343D02*
Y78658D01*
Y73343D02*
X134134D01*
X125866Y78658D02*
X134134D01*
Y64342D02*
Y69657D01*
X125866Y64342D02*
Y69657D01*
Y64342D02*
X134134D01*
X125866Y69657D02*
X134134D01*
X184134Y70342D02*
Y75657D01*
X175866Y70342D02*
Y75657D01*
X184134D01*
X175866Y70342D02*
X184134D01*
X160866D02*
Y75657D01*
X169134Y70342D02*
Y75657D01*
X160866Y70342D02*
X169134D01*
X160866Y75657D02*
X169134D01*
X163866Y56343D02*
Y61658D01*
X172134Y56343D02*
Y61658D01*
X163866Y56343D02*
X172134D01*
X163866Y61658D02*
X172134D01*
X142866Y73343D02*
Y78658D01*
X151134Y73343D02*
Y78658D01*
X142866D02*
X151134D01*
X142866Y73343D02*
X151134D01*
X198370Y207370D02*
Y228630D01*
X219630Y207370D02*
Y228630D01*
X198370Y207370D02*
X219630D01*
X198370Y228630D02*
X219630D01*
X156866Y171343D02*
X165134D01*
X156866Y176657D02*
X165134D01*
Y171343D02*
Y176657D01*
X156866Y171343D02*
Y176657D01*
X119866Y45342D02*
Y50657D01*
X128134Y45342D02*
Y50657D01*
X119866D02*
X128134D01*
X119866Y45342D02*
X128134D01*
X148134D02*
Y50657D01*
X139866Y45342D02*
Y50657D01*
Y45342D02*
X148134D01*
X139866Y50657D02*
X148134D01*
X175343Y61866D02*
X180657D01*
X175343Y70134D02*
X180657D01*
X175343Y61866D02*
Y70134D01*
X180657Y61866D02*
Y70134D01*
X182158Y229842D02*
X201842D01*
Y210157D02*
Y229842D01*
X182158Y210157D02*
Y229842D01*
Y210157D02*
X201842D01*
X56862Y65398D02*
X65130D01*
X56862Y60083D02*
X65130D01*
X56862D02*
Y65398D01*
X65130Y60083D02*
Y65398D01*
X6866Y68343D02*
X15134D01*
X6866Y73658D02*
X15134D01*
Y68343D02*
Y73658D01*
X6866Y68343D02*
Y73658D01*
M02*
