G04*
G04 #@! TF.GenerationSoftware,Altium Limited,Altium Designer,25.4.2 (15)*
G04*
G04 Layer_Color=16711935*
%FSLAX25Y25*%
%MOIN*%
G70*
G04*
G04 #@! TF.SameCoordinates,4685016B-83D2-4E7D-AD2A-A819038C0A47*
G04*
G04*
G04 #@! TF.FilePolarity,Positive*
G04*
G01*
G75*
%ADD10C,0.00787*%
%ADD149C,0.00394*%
D10*
X34193Y34441D02*
Y47039D01*
X25925Y34441D02*
X34193D01*
X25925D02*
Y47039D01*
X34193D01*
X36866Y87701D02*
Y100299D01*
X45134D01*
Y87701D02*
Y100299D01*
X36866Y87701D02*
X45134D01*
X30866Y151701D02*
Y164299D01*
X39134D01*
Y151701D02*
Y164299D01*
X30866Y151701D02*
X39134D01*
X66701Y188134D02*
X79299D01*
Y179866D02*
Y188134D01*
X66701Y179866D02*
X79299D01*
X66701D02*
Y188134D01*
X48611Y49244D02*
Y56756D01*
X35389D02*
X48611D01*
X35389Y49244D02*
Y56756D01*
Y49244D02*
X48611D01*
X32611D02*
Y56756D01*
X19389D02*
X32611D01*
X19389Y49244D02*
Y56756D01*
Y49244D02*
X32611D01*
X19303Y47351D02*
X26815D01*
X19303Y34130D02*
Y47351D01*
Y34130D02*
X26815D01*
Y47351D01*
X32611Y56244D02*
Y63756D01*
X19389D02*
X32611D01*
X19389Y56244D02*
Y63756D01*
Y56244D02*
X32611D01*
X22389Y79244D02*
Y86756D01*
Y79244D02*
X35611D01*
Y86756D01*
X22389D02*
X35611D01*
X37389Y80244D02*
Y87756D01*
Y80244D02*
X50611D01*
Y87756D01*
X37389D02*
X50611D01*
X44244Y87389D02*
X51756D01*
Y100611D01*
X44244D02*
X51756D01*
X44244Y87389D02*
Y100611D01*
X37389Y73244D02*
Y80756D01*
Y73244D02*
X50611D01*
Y80756D01*
X37389D02*
X50611D01*
X63307Y241370D02*
Y262630D01*
X76693D01*
Y241370D02*
Y262630D01*
X63307Y241370D02*
X76693D01*
X44307D02*
Y262630D01*
X57693D01*
Y241370D02*
Y262630D01*
X44307Y241370D02*
X57693D01*
X115630Y-583D02*
Y29142D01*
Y-583D02*
X154370D01*
Y29142D01*
X115630D02*
X154370D01*
D149*
X18480Y40031D02*
Y54992D01*
X3520Y40031D02*
Y54992D01*
X18480D01*
X3520Y40031D02*
X18480D01*
X162244Y74094D02*
Y85905D01*
X167756Y74094D02*
Y85905D01*
X162244D02*
X167756D01*
X162244Y74094D02*
X167756D01*
X162244Y59095D02*
Y70906D01*
X167756Y59095D02*
Y70906D01*
X162244D02*
X167756D01*
X162244Y59095D02*
X167756D01*
X144244Y102905D02*
X149756D01*
X144244Y91094D02*
X149756D01*
X144244D02*
Y102905D01*
X149756Y91094D02*
Y102905D01*
X144244Y69906D02*
X149756D01*
X144244Y58095D02*
X149756D01*
X144244D02*
Y69906D01*
X149756Y58095D02*
Y69906D01*
X52520Y80520D02*
Y95480D01*
X67480Y80520D02*
Y95480D01*
X52520Y80520D02*
X67480D01*
X52520Y95480D02*
X67480D01*
M02*
