G04*
G04 #@! TF.GenerationSoftware,Altium Limited,Altium Designer,25.4.2 (15)*
G04*
G04 Layer_Color=0*
%FSLAX25Y25*%
%MOIN*%
G70*
G04*
G04 #@! TF.SameCoordinates,4685016B-83D2-4E7D-AD2A-A819038C0A47*
G04*
G04*
G04 #@! TF.FilePolarity,Positive*
G04*
G01*
G75*
%ADD149C,0.00394*%
D149*
X30059Y38772D02*
Y42709D01*
X28091Y40740D02*
X32028D01*
X41000Y92032D02*
Y95969D01*
X39031Y94000D02*
X42968D01*
X35000Y156032D02*
Y159968D01*
X33031Y158000D02*
X36968D01*
X71031Y184000D02*
X74968D01*
X73000Y182032D02*
Y185968D01*
X42000Y51032D02*
Y54969D01*
X40031Y53000D02*
X43968D01*
X26000Y51032D02*
Y54969D01*
X24032Y53000D02*
X27968D01*
X21091Y40740D02*
X25028D01*
X23059Y38772D02*
Y42709D01*
X26000Y58031D02*
Y61968D01*
X24032Y60000D02*
X27968D01*
X29000Y81032D02*
Y84969D01*
X27031Y83000D02*
X30968D01*
X44000Y82032D02*
Y85969D01*
X42031Y84000D02*
X45968D01*
X46031Y94000D02*
X49968D01*
X48000Y92032D02*
Y95969D01*
X44000Y75032D02*
Y78969D01*
X42031Y77000D02*
X45968D01*
X70000Y250031D02*
Y253969D01*
X68032Y252000D02*
X71969D01*
X51000Y250031D02*
Y253969D01*
X49031Y252000D02*
X52969D01*
X135000Y11032D02*
Y14968D01*
X133031Y13000D02*
X136969D01*
M02*
