G04*
G04 #@! TF.GenerationSoftware,Altium Limited,Altium Designer,25.4.2 (15)*
G04*
G04 Layer_Color=32896*
%FSLAX25Y25*%
%MOIN*%
G70*
G04*
G04 #@! TF.SameCoordinates,4685016B-83D2-4E7D-AD2A-A819038C0A47*
G04*
G04*
G04 #@! TF.FilePolarity,Positive*
G04*
G01*
G75*
%ADD149C,0.00394*%
D149*
X132032Y60000D02*
X135968D01*
X134000Y58031D02*
Y61968D01*
X85000Y258032D02*
Y261968D01*
X83031Y260000D02*
X86968D01*
X108500Y42890D02*
Y46827D01*
X106532Y44858D02*
X110468D01*
X105032Y10000D02*
X108968D01*
X107000Y8032D02*
Y11969D01*
X28697Y44469D02*
X32634D01*
X30665Y42500D02*
Y46437D01*
X51665Y53500D02*
Y57437D01*
X49697Y55468D02*
X53634D01*
X27850Y97669D02*
X31787D01*
X29819Y95701D02*
Y99638D01*
X50819Y85701D02*
Y89638D01*
X48850Y87669D02*
X52787D01*
X185000Y223031D02*
Y226969D01*
X183031Y225000D02*
X186969D01*
X96000Y182673D02*
Y186610D01*
X94032Y184642D02*
X97969D01*
X104000Y182673D02*
Y186610D01*
X102032Y184642D02*
X105968D01*
X146031Y129000D02*
X149969D01*
X148000Y127032D02*
Y130968D01*
X151000Y142032D02*
Y145968D01*
X149031Y144000D02*
X152969D01*
X110031Y130000D02*
X113969D01*
X112000Y128032D02*
Y131968D01*
X105032Y138000D02*
X108968D01*
X107000Y136031D02*
Y139969D01*
X137031Y94642D02*
X140969D01*
X139000Y92673D02*
Y96610D01*
X128000Y95673D02*
Y99610D01*
X126031Y97642D02*
X129969D01*
X128000Y108673D02*
Y112610D01*
X126031Y110642D02*
X129969D01*
X111031Y112000D02*
X114969D01*
X113000Y110031D02*
Y113969D01*
X100000Y112673D02*
Y116610D01*
X98032Y114642D02*
X101969D01*
X216032Y199000D02*
X219969D01*
X218000Y197031D02*
Y200969D01*
X178000Y103032D02*
Y106968D01*
X176031Y105000D02*
X179969D01*
X181000Y59031D02*
Y62968D01*
X179032Y61000D02*
X182968D01*
X151500Y162531D02*
Y166469D01*
X149531Y164500D02*
X153469D01*
X91031Y260000D02*
X94968D01*
X93000Y258032D02*
Y261968D01*
X37031Y254000D02*
X40968D01*
X39000Y252031D02*
Y255968D01*
X44665Y42500D02*
Y46437D01*
X42697Y44469D02*
X46634D01*
X20697Y55468D02*
X24634D01*
X22665Y53500D02*
Y57437D01*
X20850Y86669D02*
X24787D01*
X22819Y84701D02*
Y88638D01*
X43819Y95701D02*
Y99638D01*
X41850Y97669D02*
X45787D01*
X97747Y102032D02*
Y105968D01*
X95779Y104000D02*
X99716D01*
X188000Y197031D02*
Y200969D01*
X186031Y199000D02*
X189969D01*
M02*
