G04*
G04 #@! TF.GenerationSoftware,Altium Limited,Altium Designer,25.4.2 (15)*
G04*
G04 Layer_Color=128*
%FSLAX25Y25*%
%MOIN*%
G70*
G04*
G04 #@! TF.SameCoordinates,4685016B-83D2-4E7D-AD2A-A819038C0A47*
G04*
G04*
G04 #@! TF.FilePolarity,Positive*
G04*
G01*
G75*
%ADD21R,0.05709X0.04724*%
%ADD25R,0.04724X0.05709*%
%ADD31R,0.05512X0.03740*%
%ADD32R,0.03740X0.05512*%
%ADD33R,0.04747X0.05544*%
%ADD34R,0.05544X0.04747*%
%ADD41R,0.03622X0.05433*%
G04:AMPARAMS|DCode=123|XSize=70.15mil|YSize=17.91mil|CornerRadius=8.96mil|HoleSize=0mil|Usage=FLASHONLY|Rotation=270.000|XOffset=0mil|YOffset=0mil|HoleType=Round|Shape=RoundedRectangle|*
%AMROUNDEDRECTD123*
21,1,0.07015,0.00000,0,0,270.0*
21,1,0.05224,0.01791,0,0,270.0*
1,1,0.01791,0.00000,-0.02612*
1,1,0.01791,0.00000,0.02612*
1,1,0.01791,0.00000,0.02612*
1,1,0.01791,0.00000,-0.02612*
%
%ADD123ROUNDEDRECTD123*%
%ADD124R,0.01791X0.07015*%
%ADD125R,0.03150X0.02362*%
%ADD126R,0.02362X0.03937*%
%ADD128R,0.20079X0.09843*%
%ADD129O,0.07480X0.02559*%
G04:AMPARAMS|DCode=130|XSize=47.64mil|YSize=19.68mil|CornerRadius=2.46mil|HoleSize=0mil|Usage=FLASHONLY|Rotation=270.000|XOffset=0mil|YOffset=0mil|HoleType=Round|Shape=RoundedRectangle|*
%AMROUNDEDRECTD130*
21,1,0.04764,0.01476,0,0,270.0*
21,1,0.04272,0.01968,0,0,270.0*
1,1,0.00492,-0.00738,-0.02136*
1,1,0.00492,-0.00738,0.02136*
1,1,0.00492,0.00738,0.02136*
1,1,0.00492,0.00738,-0.02136*
%
%ADD130ROUNDEDRECTD130*%
G04:AMPARAMS|DCode=131|XSize=47.64mil|YSize=19.68mil|CornerRadius=2.46mil|HoleSize=0mil|Usage=FLASHONLY|Rotation=0.000|XOffset=0mil|YOffset=0mil|HoleType=Round|Shape=RoundedRectangle|*
%AMROUNDEDRECTD131*
21,1,0.04764,0.01476,0,0,0.0*
21,1,0.04272,0.01968,0,0,0.0*
1,1,0.00492,0.02136,-0.00738*
1,1,0.00492,-0.02136,-0.00738*
1,1,0.00492,-0.02136,0.00738*
1,1,0.00492,0.02136,0.00738*
%
%ADD131ROUNDEDRECTD131*%
%ADD132R,0.05433X0.03622*%
%ADD133R,0.02362X0.05512*%
%ADD134R,0.02362X0.04724*%
G04:AMPARAMS|DCode=135|XSize=88.58mil|YSize=83.86mil|CornerRadius=6.29mil|HoleSize=0mil|Usage=FLASHONLY|Rotation=270.000|XOffset=0mil|YOffset=0mil|HoleType=Round|Shape=RoundedRectangle|*
%AMROUNDEDRECTD135*
21,1,0.08858,0.07128,0,0,270.0*
21,1,0.07600,0.08386,0,0,270.0*
1,1,0.01258,-0.03564,-0.03800*
1,1,0.01258,-0.03564,0.03800*
1,1,0.01258,0.03564,0.03800*
1,1,0.01258,0.03564,-0.03800*
%
%ADD135ROUNDEDRECTD135*%
G36*
X40740Y67331D02*
Y57559D01*
X38181Y55000D01*
X35819D01*
X33260Y57559D01*
Y67331D01*
X35000Y68831D01*
X39000D01*
X40740Y67331D01*
D02*
G37*
G36*
X40559Y85441D02*
Y75669D01*
X38819Y74169D01*
X34819D01*
X33079Y75669D01*
Y85441D01*
X35638Y88000D01*
X38000D01*
X40559Y85441D01*
D02*
G37*
D21*
X86000Y199063D02*
D03*
Y206937D02*
D03*
X55000Y256063D02*
D03*
Y263937D02*
D03*
X96000Y139063D02*
D03*
Y146937D02*
D03*
X141000D02*
D03*
Y139063D02*
D03*
X178000Y86063D02*
D03*
Y93937D02*
D03*
X140000Y104705D02*
D03*
Y112579D02*
D03*
X76000Y206937D02*
D03*
Y199063D02*
D03*
X127000Y25063D02*
D03*
Y32937D02*
D03*
X142500Y25063D02*
D03*
Y32937D02*
D03*
X109000D02*
D03*
Y25063D02*
D03*
Y56063D02*
D03*
Y63937D02*
D03*
X113000Y178705D02*
D03*
Y186579D02*
D03*
X148000Y189437D02*
D03*
Y181563D02*
D03*
X130000Y146874D02*
D03*
Y139000D02*
D03*
D25*
X116063Y262000D02*
D03*
X123937D02*
D03*
X74937Y257000D02*
D03*
X67063D02*
D03*
X30063Y127000D02*
D03*
X37937D02*
D03*
X206937Y199000D02*
D03*
X199063D02*
D03*
X112937Y166642D02*
D03*
X105063D02*
D03*
X136937Y128000D02*
D03*
X129063D02*
D03*
X131063Y189000D02*
D03*
X138937D02*
D03*
X112937Y147000D02*
D03*
X105063D02*
D03*
X59937Y117000D02*
D03*
X52063D02*
D03*
X238126Y213000D02*
D03*
X246000D02*
D03*
X52063Y127000D02*
D03*
X59937D02*
D03*
X168937Y101000D02*
D03*
X161063D02*
D03*
Y110000D02*
D03*
X168937D02*
D03*
X183937Y73000D02*
D03*
X176063D02*
D03*
X161063D02*
D03*
X168937D02*
D03*
X164063Y59000D02*
D03*
X171937D02*
D03*
D31*
X85000Y263642D02*
D03*
Y256358D02*
D03*
X108500Y48500D02*
D03*
Y41216D02*
D03*
X51665Y51827D02*
D03*
Y59110D02*
D03*
X50819Y84028D02*
D03*
Y91311D02*
D03*
X185000Y221358D02*
D03*
Y228642D02*
D03*
X96000Y188284D02*
D03*
Y181000D02*
D03*
X104000Y188284D02*
D03*
Y181000D02*
D03*
X151000Y140358D02*
D03*
Y147642D02*
D03*
X128000Y94000D02*
D03*
Y101284D02*
D03*
Y107000D02*
D03*
Y114284D02*
D03*
X100000Y111000D02*
D03*
Y118283D02*
D03*
X178000Y108642D02*
D03*
Y101358D02*
D03*
X181000Y64642D02*
D03*
Y57358D02*
D03*
X151500Y160858D02*
D03*
Y168142D02*
D03*
D32*
X103358Y10000D02*
D03*
X110642D02*
D03*
X27024Y44469D02*
D03*
X34307D02*
D03*
X26177Y97669D02*
D03*
X33461D02*
D03*
X144358Y129000D02*
D03*
X151642D02*
D03*
X115642Y130000D02*
D03*
X108358D02*
D03*
X110642Y138000D02*
D03*
X103358D02*
D03*
X142642Y94642D02*
D03*
X135358D02*
D03*
X116642Y112000D02*
D03*
X109358D02*
D03*
X221642Y199000D02*
D03*
X214358D02*
D03*
D33*
X41412Y44469D02*
D03*
X47918D02*
D03*
X47072Y97669D02*
D03*
X40566D02*
D03*
X101000Y104000D02*
D03*
X94494D02*
D03*
X191253Y199000D02*
D03*
X184747D02*
D03*
D34*
X93000Y263253D02*
D03*
Y256747D02*
D03*
X39000Y257253D02*
D03*
Y250747D02*
D03*
X22665Y58721D02*
D03*
Y52216D02*
D03*
X22819Y83416D02*
D03*
Y89922D02*
D03*
D41*
X94240Y130000D02*
D03*
X101760D02*
D03*
X108240Y104000D02*
D03*
X115760D02*
D03*
D123*
X117366Y46559D02*
D03*
X119925D02*
D03*
X122484D02*
D03*
X125043D02*
D03*
X127602D02*
D03*
X130161D02*
D03*
X132720D02*
D03*
X135280D02*
D03*
X137839D02*
D03*
X140398D02*
D03*
X142957D02*
D03*
X145516D02*
D03*
X148075D02*
D03*
X150634D02*
D03*
Y73441D02*
D03*
X148075D02*
D03*
X145516D02*
D03*
X142957D02*
D03*
X140398D02*
D03*
X137839D02*
D03*
X135280D02*
D03*
X132720D02*
D03*
X130161D02*
D03*
X127602D02*
D03*
X125043D02*
D03*
X122484D02*
D03*
X119925D02*
D03*
D124*
X117366D02*
D03*
D125*
X59024Y243000D02*
D03*
X66976Y246740D02*
D03*
Y239260D02*
D03*
X73024Y243000D02*
D03*
X80976Y246740D02*
D03*
Y239260D02*
D03*
X252024Y222000D02*
D03*
X259976Y225740D02*
D03*
Y218260D02*
D03*
D126*
X13000Y112724D02*
D03*
X9260Y103276D02*
D03*
X16740D02*
D03*
D128*
X38000Y149921D02*
D03*
Y240079D02*
D03*
D129*
X194630Y210500D02*
D03*
Y215500D02*
D03*
Y220500D02*
D03*
Y225500D02*
D03*
X223370Y210500D02*
D03*
Y215500D02*
D03*
Y220500D02*
D03*
Y225500D02*
D03*
D130*
X25000Y116350D02*
D03*
Y107650D02*
D03*
X32000D02*
D03*
Y116350D02*
D03*
D131*
X8650Y97000D02*
D03*
X17350D02*
D03*
X237650Y229000D02*
D03*
X246350D02*
D03*
D132*
X96000Y173402D02*
D03*
Y165882D02*
D03*
X139000Y161000D02*
D03*
Y168520D02*
D03*
D133*
X30913Y89969D02*
D03*
X42724D02*
D03*
X31095Y53031D02*
D03*
X42906D02*
D03*
D134*
X36819Y90362D02*
D03*
X37000Y52638D02*
D03*
D135*
X65000Y36437D02*
D03*
Y53563D02*
D03*
X97000Y36437D02*
D03*
Y53563D02*
D03*
X81000Y36437D02*
D03*
Y53563D02*
D03*
M02*
