G04*
G04 #@! TF.GenerationSoftware,Altium Limited,Altium Designer,25.4.2 (15)*
G04*
G04 Layer_Color=8421504*
%FSLAX25Y25*%
%MOIN*%
G70*
G04*
G04 #@! TF.SameCoordinates,4685016B-83D2-4E7D-AD2A-A819038C0A47*
G04*
G04*
G04 #@! TF.FilePolarity,Positive*
G04*
G01*
G75*
%ADD18R,0.03937X0.04134*%
%ADD19R,0.04134X0.08661*%
%ADD20R,0.02362X0.02126*%
%ADD21R,0.05709X0.04724*%
%ADD22R,0.15551X0.08858*%
%ADD23R,0.07087X0.07087*%
%ADD24R,0.01142X0.01181*%
%ADD25R,0.04724X0.05709*%
%ADD26R,0.03543X0.03543*%
%ADD27R,0.05906X0.03543*%
%ADD28R,0.03543X0.05906*%
%ADD29R,0.03937X0.02362*%
%ADD30R,0.04331X0.02362*%
%ADD31R,0.05512X0.03740*%
%ADD32R,0.03740X0.05512*%
%ADD33R,0.04747X0.05544*%
%ADD34R,0.05544X0.04747*%
G04:AMPARAMS|DCode=35|XSize=49.21mil|YSize=23.23mil|CornerRadius=2.9mil|HoleSize=0mil|Usage=FLASHONLY|Rotation=0.000|XOffset=0mil|YOffset=0mil|HoleType=Round|Shape=RoundedRectangle|*
%AMROUNDEDRECTD35*
21,1,0.04921,0.01742,0,0,0.0*
21,1,0.04341,0.02323,0,0,0.0*
1,1,0.00581,0.02170,-0.00871*
1,1,0.00581,-0.02170,-0.00871*
1,1,0.00581,-0.02170,0.00871*
1,1,0.00581,0.02170,0.00871*
%
%ADD35ROUNDEDRECTD35*%
%ADD36R,0.08661X0.04724*%
%ADD37R,0.07087X0.04724*%
%ADD38R,0.05906X0.06299*%
%ADD39R,0.06299X0.02756*%
%ADD40R,0.05512X0.11811*%
%ADD41R,0.03622X0.05433*%
%ADD42R,0.02559X0.04134*%
G04:AMPARAMS|DCode=43|XSize=17.72mil|YSize=11.81mil|CornerRadius=1mil|HoleSize=0mil|Usage=FLASHONLY|Rotation=0.000|XOffset=0mil|YOffset=0mil|HoleType=Round|Shape=RoundedRectangle|*
%AMROUNDEDRECTD43*
21,1,0.01772,0.00980,0,0,0.0*
21,1,0.01571,0.01181,0,0,0.0*
1,1,0.00201,0.00785,-0.00490*
1,1,0.00201,-0.00785,-0.00490*
1,1,0.00201,-0.00785,0.00490*
1,1,0.00201,0.00785,0.00490*
%
%ADD43ROUNDEDRECTD43*%
G04:AMPARAMS|DCode=44|XSize=17.72mil|YSize=11.81mil|CornerRadius=1mil|HoleSize=0mil|Usage=FLASHONLY|Rotation=90.000|XOffset=0mil|YOffset=0mil|HoleType=Round|Shape=RoundedRectangle|*
%AMROUNDEDRECTD44*
21,1,0.01772,0.00980,0,0,90.0*
21,1,0.01571,0.01181,0,0,90.0*
1,1,0.00201,0.00490,0.00785*
1,1,0.00201,0.00490,-0.00785*
1,1,0.00201,-0.00490,-0.00785*
1,1,0.00201,-0.00490,0.00785*
%
%ADD44ROUNDEDRECTD44*%
%ADD45R,0.01260X0.01476*%
%ADD46R,0.01476X0.01260*%
%ADD47R,0.15551X0.06693*%
%ADD48R,0.03543X0.05906*%
%ADD49R,0.02362X0.04528*%
%ADD50R,0.01181X0.04528*%
%ADD51R,0.08661X0.02362*%
%ADD52R,0.01968X0.01378*%
%ADD53R,0.02323X0.01181*%
%ADD54R,0.01378X0.02323*%
%ADD55R,0.02264X0.01260*%
%ADD56R,0.01260X0.02264*%
G36*
X175984Y142283D02*
X179528D01*
Y139921D01*
X175984D01*
Y139528D01*
X171260D01*
Y142677D01*
X175984D01*
Y142283D01*
D02*
G37*
G36*
Y137953D02*
X179528D01*
Y135591D01*
X175984D01*
Y135197D01*
X171260D01*
Y138347D01*
X175984D01*
Y137953D01*
D02*
G37*
G36*
Y133622D02*
X179528D01*
Y131260D01*
X175984D01*
Y130866D01*
X171260D01*
Y134016D01*
X175984D01*
Y133622D01*
D02*
G37*
G36*
Y155276D02*
X179528D01*
Y152913D01*
X175984D01*
Y152520D01*
X171260D01*
Y155669D01*
X175984D01*
Y155276D01*
D02*
G37*
G36*
Y150945D02*
X179528D01*
Y148583D01*
X175984D01*
Y148189D01*
X171260D01*
Y151339D01*
X175984D01*
Y150945D01*
D02*
G37*
G36*
Y146614D02*
X179528D01*
Y144252D01*
X175984D01*
Y143858D01*
X171260D01*
Y147008D01*
X175984D01*
Y146614D01*
D02*
G37*
G36*
X228740Y139528D02*
X224016D01*
Y139921D01*
X220472D01*
Y142283D01*
X224016D01*
Y142677D01*
X228740D01*
Y139528D01*
D02*
G37*
G36*
Y135197D02*
X224016D01*
Y135591D01*
X220472D01*
Y137953D01*
X224016D01*
Y138347D01*
X228740D01*
Y135197D01*
D02*
G37*
G36*
Y130866D02*
X224016D01*
Y131260D01*
X220472D01*
Y133622D01*
X224016D01*
Y134016D01*
X228740D01*
Y130866D01*
D02*
G37*
G36*
Y152520D02*
X224016D01*
Y152913D01*
X220472D01*
Y155276D01*
X224016D01*
Y155669D01*
X228740D01*
Y152520D01*
D02*
G37*
G36*
Y148189D02*
X224016D01*
Y148583D01*
X220472D01*
Y150945D01*
X224016D01*
Y151339D01*
X228740D01*
Y148189D01*
D02*
G37*
G36*
Y143858D02*
X224016D01*
Y144252D01*
X220472D01*
Y146614D01*
X224016D01*
Y147008D01*
X228740D01*
Y143858D01*
D02*
G37*
G36*
X175984Y175748D02*
X179528D01*
Y173386D01*
X175984D01*
Y172992D01*
X171260D01*
Y176142D01*
X175984D01*
Y175748D01*
D02*
G37*
G36*
Y171417D02*
X179528D01*
Y169055D01*
X175984D01*
Y168661D01*
X171260D01*
Y171811D01*
X175984D01*
Y171417D01*
D02*
G37*
G36*
Y159606D02*
X179528D01*
Y157244D01*
X175984D01*
Y156850D01*
X171260D01*
Y160000D01*
X175984D01*
Y159606D01*
D02*
G37*
G36*
Y188740D02*
X179528D01*
Y186378D01*
X175984D01*
Y185984D01*
X171260D01*
Y189134D01*
X175984D01*
Y188740D01*
D02*
G37*
G36*
Y184409D02*
X179528D01*
Y182047D01*
X175984D01*
Y181653D01*
X171260D01*
Y184803D01*
X175984D01*
Y184409D01*
D02*
G37*
G36*
Y180079D02*
X179528D01*
Y177717D01*
X175984D01*
Y177323D01*
X171260D01*
Y180472D01*
X175984D01*
Y180079D01*
D02*
G37*
G36*
X228740Y172992D02*
X224016D01*
Y173386D01*
X220472D01*
Y175748D01*
X224016D01*
Y176142D01*
X228740D01*
Y172992D01*
D02*
G37*
G36*
Y168661D02*
X224016D01*
Y169055D01*
X220472D01*
Y171417D01*
X224016D01*
Y171811D01*
X228740D01*
Y168661D01*
D02*
G37*
G36*
Y156850D02*
X224016D01*
Y157244D01*
X220472D01*
Y159606D01*
X224016D01*
Y160000D01*
X228740D01*
Y156850D01*
D02*
G37*
G36*
Y185984D02*
X224016D01*
Y186378D01*
X220472D01*
Y188740D01*
X224016D01*
Y189134D01*
X228740D01*
Y185984D01*
D02*
G37*
G36*
Y181653D02*
X224016D01*
Y182047D01*
X220472D01*
Y184409D01*
X224016D01*
Y184803D01*
X228740D01*
Y181653D01*
D02*
G37*
G36*
Y177323D02*
X224016D01*
Y177717D01*
X220472D01*
Y180079D01*
X224016D01*
Y180472D01*
X228740D01*
Y177323D01*
D02*
G37*
D18*
X255000Y146004D02*
D03*
X253500Y183496D02*
D03*
D19*
X260807Y140000D02*
D03*
X249193D02*
D03*
X247693Y189500D02*
D03*
X259307D02*
D03*
D20*
X255000Y125299D02*
D03*
Y128701D02*
D03*
X236000Y183201D02*
D03*
Y179799D02*
D03*
D21*
X178000Y93937D02*
D03*
Y86063D02*
D03*
X65000Y37063D02*
D03*
Y44937D02*
D03*
X7500Y96937D02*
D03*
Y89063D02*
D03*
X56000Y37063D02*
D03*
Y44937D02*
D03*
X16500Y96937D02*
D03*
Y89063D02*
D03*
X178000Y62063D02*
D03*
Y69937D02*
D03*
D22*
X11000Y54500D02*
D03*
Y40524D02*
D03*
D23*
X219894Y204894D02*
D03*
X244106D02*
D03*
Y229106D02*
D03*
X219894D02*
D03*
D24*
X230000Y175000D02*
D03*
X231748D02*
D03*
X253126Y132000D02*
D03*
X254874D02*
D03*
X253000Y122000D02*
D03*
X254748D02*
D03*
X230000Y179000D02*
D03*
X231748D02*
D03*
D25*
X45996Y28740D02*
D03*
X38122D02*
D03*
X25563Y105000D02*
D03*
X33437D02*
D03*
X76937Y221000D02*
D03*
X69063D02*
D03*
X76937Y212000D02*
D03*
X69063D02*
D03*
X76937Y230000D02*
D03*
X69063D02*
D03*
X76937Y203000D02*
D03*
X69063D02*
D03*
X76937Y194000D02*
D03*
X69063D02*
D03*
X143063Y85000D02*
D03*
X150937D02*
D03*
X168937Y52000D02*
D03*
X161063D02*
D03*
X178063D02*
D03*
X185937D02*
D03*
X64996Y53740D02*
D03*
X57122D02*
D03*
X7063Y80000D02*
D03*
X14937D02*
D03*
X164937Y143000D02*
D03*
X157063D02*
D03*
Y164000D02*
D03*
X164937D02*
D03*
Y152000D02*
D03*
X157063D02*
D03*
X133937Y85000D02*
D03*
X126063D02*
D03*
X133937Y94000D02*
D03*
X126063D02*
D03*
X161063Y102000D02*
D03*
X168937D02*
D03*
X161063Y93000D02*
D03*
X168937D02*
D03*
X133937Y76000D02*
D03*
X126063D02*
D03*
X133937Y67000D02*
D03*
X126063D02*
D03*
X143063Y76000D02*
D03*
X150937D02*
D03*
X164937Y174000D02*
D03*
X157063D02*
D03*
X120063Y48000D02*
D03*
X127937D02*
D03*
X147937D02*
D03*
X140063D02*
D03*
X57059Y62740D02*
D03*
X64933D02*
D03*
X14937Y71000D02*
D03*
X7063D02*
D03*
D26*
X132244Y239488D02*
D03*
X126732D02*
D03*
X137756D02*
D03*
X126732Y233976D02*
D03*
X132244D02*
D03*
X137756D02*
D03*
X126732Y245000D02*
D03*
X132244D02*
D03*
X137756D02*
D03*
D27*
X103701Y269882D02*
D03*
Y264882D02*
D03*
Y259882D02*
D03*
Y254882D02*
D03*
Y249882D02*
D03*
Y244882D02*
D03*
Y239882D02*
D03*
Y234882D02*
D03*
Y229882D02*
D03*
Y224882D02*
D03*
Y219882D02*
D03*
Y214882D02*
D03*
Y209882D02*
D03*
Y204882D02*
D03*
X172598D02*
D03*
Y209882D02*
D03*
Y214882D02*
D03*
Y219882D02*
D03*
Y224882D02*
D03*
Y229882D02*
D03*
Y234882D02*
D03*
Y239882D02*
D03*
Y244882D02*
D03*
Y249882D02*
D03*
Y254882D02*
D03*
Y259882D02*
D03*
Y264882D02*
D03*
Y269882D02*
D03*
D28*
X110650Y199961D02*
D03*
X115650D02*
D03*
X120650D02*
D03*
X125650D02*
D03*
X130650D02*
D03*
X135650D02*
D03*
X140650D02*
D03*
X145650D02*
D03*
X150650D02*
D03*
X155650D02*
D03*
X160650D02*
D03*
X165650D02*
D03*
D29*
X160276Y83740D02*
D03*
Y80000D02*
D03*
Y76260D02*
D03*
X169724D02*
D03*
Y83740D02*
D03*
X160276Y68740D02*
D03*
Y65000D02*
D03*
Y61260D02*
D03*
X169724D02*
D03*
Y68740D02*
D03*
X142276Y97000D02*
D03*
X151724Y100740D02*
D03*
Y93260D02*
D03*
X142276Y64000D02*
D03*
X151724Y67740D02*
D03*
Y60260D02*
D03*
D30*
X135661Y164000D02*
D03*
X127000D02*
D03*
X135661Y168921D02*
D03*
Y173843D02*
D03*
Y178764D02*
D03*
X127000D02*
D03*
Y173843D02*
D03*
Y168921D02*
D03*
D31*
X30059Y44382D02*
D03*
Y37098D02*
D03*
X41000Y90358D02*
D03*
Y97642D02*
D03*
X35000Y154358D02*
D03*
Y161642D02*
D03*
D32*
X69358Y184000D02*
D03*
X76642D02*
D03*
D33*
X38747Y53000D02*
D03*
X45253D02*
D03*
X22747D02*
D03*
X29253D02*
D03*
X22747Y60000D02*
D03*
X29253D02*
D03*
X32253Y83000D02*
D03*
X25747D02*
D03*
X47253Y84000D02*
D03*
X40747D02*
D03*
X47253Y77000D02*
D03*
X40747D02*
D03*
D34*
X23059Y37487D02*
D03*
Y43993D02*
D03*
X48000Y97253D02*
D03*
Y90747D02*
D03*
D35*
X37118Y44480D02*
D03*
Y40740D02*
D03*
Y37000D02*
D03*
X47000D02*
D03*
Y40740D02*
D03*
Y44480D02*
D03*
X34000Y90260D02*
D03*
Y94000D02*
D03*
Y97740D02*
D03*
X24118D02*
D03*
Y94000D02*
D03*
Y90260D02*
D03*
D36*
X18779Y231512D02*
D03*
Y170488D02*
D03*
D37*
X55394Y231512D02*
D03*
D38*
X56378Y174031D02*
D03*
D39*
X60512Y226787D02*
D03*
Y222457D02*
D03*
Y218126D02*
D03*
Y213795D02*
D03*
Y209465D02*
D03*
Y205134D02*
D03*
Y200803D02*
D03*
Y196472D02*
D03*
Y192142D02*
D03*
D40*
X199441Y113815D02*
D03*
X207315D02*
D03*
X215189D02*
D03*
X223063D02*
D03*
X230937D02*
D03*
X238811D02*
D03*
X246685D02*
D03*
X254559D02*
D03*
Y53185D02*
D03*
X246685D02*
D03*
X238811D02*
D03*
X230937D02*
D03*
X223063D02*
D03*
X215189D02*
D03*
X207315D02*
D03*
X199441D02*
D03*
D41*
X85240Y255000D02*
D03*
X92760D02*
D03*
X85240Y246000D02*
D03*
X92760D02*
D03*
X138240Y39000D02*
D03*
X145760D02*
D03*
X129760D02*
D03*
X122240D02*
D03*
D42*
X65768Y243831D02*
D03*
Y260169D02*
D03*
X74232Y243831D02*
D03*
Y260169D02*
D03*
X46768Y243831D02*
D03*
Y260169D02*
D03*
X55232Y243831D02*
D03*
Y260169D02*
D03*
D43*
X127961Y118905D02*
D03*
Y116937D02*
D03*
Y114969D02*
D03*
Y113000D02*
D03*
X138000D02*
D03*
Y114969D02*
D03*
Y116937D02*
D03*
Y118905D02*
D03*
D44*
X130027Y110933D02*
D03*
X131996D02*
D03*
X133965D02*
D03*
X135933D02*
D03*
Y120973D02*
D03*
X133965D02*
D03*
X131996D02*
D03*
X130027D02*
D03*
D45*
X110884Y119809D02*
D03*
X108916D02*
D03*
X106947D02*
D03*
Y113805D02*
D03*
X108916D02*
D03*
X110884D02*
D03*
X112853D02*
D03*
Y119809D02*
D03*
D46*
X106898Y117791D02*
D03*
Y115823D02*
D03*
X112902D02*
D03*
Y117791D02*
D03*
D47*
X60000Y79929D02*
D03*
Y96071D02*
D03*
D48*
X198496Y229646D02*
D03*
X185504D02*
D03*
Y210354D02*
D03*
X198496D02*
D03*
D49*
X147598Y26484D02*
D03*
X144449D02*
D03*
X125551D02*
D03*
X122402D02*
D03*
D50*
X128110D02*
D03*
X130079D02*
D03*
X132047D02*
D03*
X134016D02*
D03*
X135984D02*
D03*
X137953D02*
D03*
X139921D02*
D03*
X141890D02*
D03*
D51*
X82110Y159500D02*
D03*
Y154500D02*
D03*
X45890Y124500D02*
D03*
X82110Y129500D02*
D03*
X45890D02*
D03*
Y139500D02*
D03*
X82110Y124500D02*
D03*
X45890Y134500D02*
D03*
X82110D02*
D03*
Y139500D02*
D03*
Y149500D02*
D03*
X45890Y144500D02*
D03*
Y149500D02*
D03*
Y159500D02*
D03*
X82110Y144500D02*
D03*
X45890Y154500D02*
D03*
D52*
X107850Y164161D02*
D03*
X114150D02*
D03*
Y171839D02*
D03*
X107850D02*
D03*
Y166720D02*
D03*
X114150D02*
D03*
X107850Y169280D02*
D03*
X114150D02*
D03*
D53*
X113000Y148874D02*
D03*
Y137063D02*
D03*
Y139032D02*
D03*
Y141000D02*
D03*
Y142968D02*
D03*
Y144937D02*
D03*
Y146906D02*
D03*
X103827Y148874D02*
D03*
Y146906D02*
D03*
Y144937D02*
D03*
Y142968D02*
D03*
Y141000D02*
D03*
Y139032D02*
D03*
Y137063D02*
D03*
D54*
X108413Y150508D02*
D03*
Y135429D02*
D03*
D55*
X128408Y141969D02*
D03*
Y140000D02*
D03*
Y138031D02*
D03*
X135592D02*
D03*
Y140000D02*
D03*
Y141969D02*
D03*
D56*
X134953Y144577D02*
D03*
X132984D02*
D03*
X131016D02*
D03*
X129047D02*
D03*
Y135423D02*
D03*
X131016D02*
D03*
X132984D02*
D03*
X134953D02*
D03*
M02*
