M48
;Layer_Color=9474304
;FILE_FORMAT=2:5
INCH,LZ
;TYPE=PLATED
T01F00S00C0.01200
T02F00S00C0.01500
T04F00S00C0.03937
T05F00S00C0.04213
T06F00S00C0.05512
T07F00S00C0.05906
T08F00S00C0.06299
T09F00S00C0.10236
T10F00S00C0.11811
%
T01
X01035Y0022
X0122Y00205
X01295Y0022
X014
X0136Y0009
X0133
X0023Y00335
X0023059Y0043993
X0011Y0054
X0024757Y0078
X0036
X00165Y0089063
X0047407Y0097335
X00566Y00898
X00645Y01025
X006Y0133
X0054Y01545
X0072Y01495
X0076642Y01755
X0032Y0117
X0035Y0112
X0098Y0122
X0103
X0109Y0123
X0115
X0117Y0137
X0121
X0124
X01255Y0132195
X0128586Y0134811
X01288Y01282
X0139Y0134
X0151Y01365
X0165Y0131
Y0127
Y01225
X0168968Y0116469
X01775Y01135
X01814Y01256
X01871Y01262
X01845Y0134
Y01375
Y01455
Y01495
X0186Y0164
X019
X0193816Y0163993
X0198Y0164
X0202
X0206
X021
X0214
X0218
X0222
X0226
X023
X0233Y0167
Y0171
X0223Y017
Y0141
X0224Y0126
X022
X0228
X01905Y01075
Y01015
X0192Y0094
Y009
Y0086
Y0082
Y0078
Y0074
Y007
Y0066
Y0062
Y0058
Y0054
Y005
Y0046
X0198Y0044
X0204Y0042
X0208
X0212
X0216
X022
X0224
X0228
X0232
X0223063Y0052685
X0215189
X0207315
X0181Y0057358
X0176Y0062
X01765Y0075
X0187Y00805
X0165Y00867
X01555Y00935
X0152
X0145508Y0084992
X0143Y008
X0156Y0076
X01606Y00716
X01301Y00623
X01308Y00557
X01352Y00544
X01285Y0052
X0109Y0056
Y0063
X0112Y0074
X01053Y00746
X0103Y00722
Y0085
X0099
X0096
X0107Y00905
X0126063Y0085
X0121Y0104
Y0108
Y0112
X0133Y0104
X01465Y01105
Y01155
X015
X015425Y011975
X0164937Y0143
Y0152
X01625Y0158
X0164937Y0164
X0174
X0178
X0182
X0184Y017
Y0174
Y0178
X0164937Y0174
X0141Y01742
X0143921Y0168921
X0139Y0157
X0135Y015
X0130626Y0153
X01189Y01572
X0116Y016
X01145Y01537
X01095Y0154
X0104
X0101Y01515
X00965Y0154
X00985Y01595
X01045Y0161
X0109
X0104Y0174
X0103Y01775
X01065Y017733
X0086Y0177
Y01725
X0085Y01595
Y01545
X01169Y0147237
X01182Y01405
X01101Y01389
X0122Y0171
X0176378Y0141102
X00815Y0074
X0097Y00445
X0117Y00345
X0236Y0042
X024
X0244
X0248
X0252
X0256
X026
X0264
Y0046
Y005
Y0054
Y0058
Y0062
Y0066
Y007
Y0074
Y0078
Y0082
Y0086
X02585Y0084
X0255Y00805
X025Y00775
X0264Y0096
Y011
Y0114
Y0118
Y0122
X02585Y01225
Y01255
Y01285
Y0132
X0258Y0136
Y0139
Y0142
X0259Y01465
X0257732Y0151232
X02565Y0155
X02585Y0158
X0259Y0161
X02585Y0164
X0256Y0167
X0253Y0168
X025Y0167
X02475Y01645
X0247Y01615
X02475Y01585
X02495Y0156
X0251Y0153
X02525Y015
X0251Y01465
X0252Y0142
Y0139
Y0136
X02515Y01285
Y01255
X0246Y0124
X0242
X0238
X02395Y01805
X02425
X02455
X02485
X02515Y01795
X02545
X02575Y018
X0259Y0183
X026Y0187
Y0191
X0258Y0195
X0254
X025
X0248Y0192
Y0188
X02435Y01895
Y0186
X02395
X0236Y019
X0254
X02625Y0205
X0262799Y0215201
X0252Y02215
X0234Y0213
X02405Y02405
X0242Y02515
X0226Y0234
X0229Y0223
X023Y02095
X0229Y019
X0225Y0191
X0221
X0217
X0212
X0208
X0204
X02
X0196
X0192
X0188
X0184
X018
X0176Y0188
X01715Y01915
X01635Y01925
Y01885
Y0183
X0158
X0139Y01835
X014Y01945
X0126
X01265Y0184
X0105Y0188
X0101Y0196
X00943Y0199
X011Y0205
Y021
X0114Y0215
X01193Y02165
X0123
X01295Y0216
X0131Y021
X0136Y0206
X0141Y021
X0146Y0206
X0151Y021
X01485Y0217
X0135Y0224
Y02365
X0132244Y0233976
X0137756
Y0239488
X0135Y0242
X01295Y0242232
Y0237
X0126732Y0239488
Y0245
X0132244
X0137756
X01395Y02495
X0144Y025
X0151
X0158Y02475
X0161126Y0247626
X01585Y024
X0162Y0235
X0166Y023
X0162Y0225
X0166Y0205
X0184747Y0199
X0184Y0186
Y0182
X0182Y0215
X01802Y023135
X01799Y0239
X01875Y02353
X0198248Y0235252
X0193514Y02255
X0203Y02175
X0206Y0214
X0211Y0226
X023Y0186
X02335
X0121Y0206
X0126732Y0233976
X0114Y0235
X011Y023
X0096Y02275
X0087Y0234
Y0238
X0078Y0237
X0083Y022
X00797Y02625
X01039Y0265
X011Y026
X0114Y02545
X011Y02495
X0114Y0245
X01475Y02385
X0073Y0248
X0069874Y0248126
X0054Y0225
X00555Y0218
X00525Y0214
X00555Y02095
X0045Y02245
X0017Y0225
X0013
Y0221
X0009
Y0225
Y0242
Y0246
X0014Y0242
X0019
X0024
X00285Y02715
X004Y0267
X0044
X0048
T02
X0249Y0015
X0247Y002
X0255Y0012
X0261Y0015
X0263Y002
X0028
X0026Y0015
X002Y0012
X0014Y0015
X0012Y002
X0014415Y0025658
X002Y0028
X00256Y00256
X006Y0079929
X0077Y0067
X0249415Y0025658
X0255Y0028
X02606Y00256
X0261Y025
X0263Y0255
X02606Y02606
X0255Y0263
X0249415Y0260658
X0247Y0255
X0249Y025
X0255Y0247
X0025594Y0250315
X0027595Y0255315
X0025194Y0260915
X0019594Y0263315
X001401Y0260973
X0011594Y0255315
X0013595Y0250315
X0019594Y0247315
T04
X0082921Y0018067
X0092764
X0073079
X0063236
T05
X0186Y0246
Y0256
Y0266
X0197
Y0256
Y0246
X0208
Y0256
Y0266
X0219
Y0256
Y0246
X023
Y0256
Y0266
T06
X0253Y01615
T07
X0242961Y0151461
Y0171539
X0263039
Y0151461
T08
X0169634Y0023016
X0189319
X0209004
X0228689
T09
X0014Y0125
Y0145
T10
X0255Y002
X002
X0255Y0255
X0019594Y0255315
M30
